<?xml version="1.0" encoding="utf-8"?>
<!-- Generator: Adobe Illustrator 27.3.1, SVG Export Plug-In . SVG Version: 6.00 Build 0)  -->
<svg version="1.1" id="Layer_1" xmlns="http://www.w3.org/2000/svg" xmlns:xlink="http://www.w3.org/1999/xlink" x="0px" y="0px"
	 viewBox="0 0 120 120" style="enable-background:new 0 0 120 120;" xml:space="preserve">
<style type="text/css">
	.st0{display:none;}
	.st1{fill:#1D191A;}
	.st2{fill:#231F20;}
	.st3{fill:none;stroke:#1D191A;stroke-width:3;stroke-miterlimit:10;}
</style>
<g>
	<g>
		<path class="st1" d="M47.45,43.28c1.5,0,2.87,0.22,4.12,0.66c1.25,0.44,2.31,1.07,3.2,1.88s1.58,1.79,2.07,2.92
			c0.49,1.14,0.74,2.41,0.74,3.8c0,1.2-0.18,2.31-0.53,3.33c-0.35,1.02-0.82,2-1.42,2.92c-0.59,0.93-1.29,1.83-2.08,2.7
			s-1.63,1.75-2.5,2.66l-7.33,7.49c0.72-0.21,1.42-0.37,2.11-0.48C46.52,71.05,47.18,71,47.8,71h8.35c0.6,0,1.08,0.17,1.43,0.51
			c0.35,0.34,0.53,0.78,0.53,1.34v3.33H35.79v-1.84c0-0.38,0.08-0.77,0.24-1.17c0.16-0.41,0.41-0.78,0.75-1.12l9.88-9.9
			c0.82-0.84,1.56-1.64,2.22-2.41c0.65-0.77,1.2-1.52,1.64-2.27s0.78-1.51,1.01-2.28s0.35-1.59,0.35-2.44
			c0-0.78-0.11-1.47-0.34-2.06c-0.23-0.59-0.55-1.09-0.97-1.5s-0.92-0.71-1.5-0.91c-0.58-0.2-1.23-0.3-1.95-0.3
			c-1.34,0-2.43,0.34-3.3,1.01c-0.86,0.67-1.47,1.58-1.81,2.72c-0.17,0.57-0.41,0.98-0.74,1.23c-0.33,0.25-0.75,0.37-1.26,0.37
			c-0.23,0-0.47-0.02-0.74-0.07l-2.92-0.52c0.22-1.56,0.66-2.93,1.3-4.11c0.64-1.18,1.45-2.16,2.42-2.95
			c0.97-0.79,2.08-1.38,3.33-1.78S46.01,43.28,47.45,43.28z"/>
		<path class="st1" d="M71.92,63.19c-1.12,0-2.23-0.2-3.31-0.58s-2.04-0.98-2.89-1.77c-0.85-0.79-1.53-1.76-2.04-2.92
			c-0.51-1.16-0.76-2.52-0.76-4.08c0-1.45,0.27-2.82,0.81-4.09c0.54-1.27,1.3-2.39,2.27-3.35c0.97-0.96,2.14-1.72,3.51-2.27
			s2.87-0.83,4.52-0.83c1.67,0,3.16,0.26,4.49,0.79c1.33,0.53,2.46,1.26,3.4,2.21s1.66,2.08,2.16,3.4c0.5,1.32,0.75,2.77,0.75,4.34
			c0,1-0.09,1.96-0.26,2.86c-0.17,0.9-0.42,1.77-0.74,2.6c-0.32,0.83-0.71,1.64-1.16,2.43c-0.45,0.79-0.95,1.58-1.51,2.37
			l-7.45,10.62c-0.25,0.36-0.63,0.66-1.14,0.91c-0.5,0.25-1.08,0.37-1.72,0.37h-5.11l10.1-12.62c0.25-0.32,0.5-0.62,0.72-0.92
			c0.23-0.3,0.44-0.6,0.65-0.9c-0.75,0.48-1.57,0.84-2.47,1.09C73.86,63.07,72.92,63.19,71.92,63.19z M79.51,53.45
			c0-0.89-0.13-1.68-0.41-2.37s-0.65-1.29-1.15-1.77c-0.5-0.48-1.08-0.85-1.77-1.1c-0.68-0.25-1.43-0.38-2.24-0.38
			c-0.84,0-1.6,0.14-2.27,0.42c-0.68,0.28-1.25,0.66-1.72,1.16c-0.47,0.5-0.84,1.08-1.09,1.77c-0.26,0.68-0.38,1.43-0.38,2.24
			c0,1.81,0.47,3.2,1.41,4.15c0.94,0.95,2.27,1.43,3.99,1.43c0.9,0,1.7-0.14,2.4-0.43c0.7-0.29,1.29-0.68,1.77-1.17
			c0.48-0.5,0.84-1.08,1.09-1.76C79.38,54.96,79.51,54.23,79.51,53.45z"/>
	</g>
</g>
</svg>
