<?xml version="1.0" encoding="utf-8"?>
<!-- Generator: Adobe Illustrator 27.3.1, SVG Export Plug-In . SVG Version: 6.00 Build 0)  -->
<svg version="1.1" id="Layer_1" xmlns="http://www.w3.org/2000/svg" xmlns:xlink="http://www.w3.org/1999/xlink" x="0px" y="0px"
	 viewBox="0 0 450 320" style="enable-background:new 0 0 450 320;" xml:space="preserve">
<style type="text/css">
	.st0{display:none;}
	.st1{fill:#1D191A;}
</style>
<g>
	<path class="st1" d="M321.8,291.98c0-1.26,0.08-2.36,0.23-3.29c0.15-0.93,0.4-1.79,0.75-2.55c0.35-0.77,0.79-1.5,1.35-2.2
		c0.55-0.69,1.23-1.43,2.03-2.21c0.6-0.58,1.17-1.14,1.69-1.67c0.52-0.52,0.99-1.06,1.38-1.61c0.4-0.55,0.72-1.14,0.94-1.75
		c0.23-0.62,0.35-1.31,0.35-2.08c0-1.67-0.42-2.94-1.24-3.82c-0.82-0.88-2.04-1.31-3.64-1.31c-0.64,0-1.26,0.09-1.86,0.26
		s-1.14,0.46-1.62,0.85c-0.48,0.39-0.87,0.89-1.16,1.49c-0.3,0.6-0.44,1.33-0.44,2.18h-6.48c0.02-1.67,0.32-3.14,0.92-4.41
		c0.59-1.27,1.41-2.33,2.45-3.2c1.04-0.86,2.25-1.51,3.65-1.94c1.4-0.43,2.91-0.65,4.54-0.65c1.79,0,3.39,0.23,4.79,0.69
		s2.59,1.14,3.57,2.03c0.97,0.89,1.72,1.97,2.23,3.25c0.5,1.28,0.76,2.72,0.76,4.34c0,1.17-0.19,2.26-0.56,3.28
		c-0.37,1.01-0.87,1.96-1.49,2.85c-0.62,0.89-1.33,1.74-2.13,2.55c-0.8,0.82-1.62,1.62-2.48,2.42c-0.97,0.89-1.63,1.86-1.96,2.92
		c-0.33,1.06-0.5,2.25-0.52,3.58L321.8,291.98L321.8,291.98z M321.35,300.26c0-0.5,0.08-0.96,0.24-1.38c0.16-0.43,0.4-0.8,0.7-1.12
		c0.31-0.32,0.69-0.57,1.14-0.75c0.45-0.18,0.97-0.26,1.56-0.26s1.11,0.09,1.56,0.26c0.45,0.18,0.84,0.43,1.14,0.75
		c0.31,0.32,0.55,0.69,0.72,1.12s0.25,0.89,0.25,1.38c0,0.97-0.32,1.79-0.96,2.45c-0.64,0.65-1.54,0.99-2.72,0.99
		c-1.18,0-2.08-0.33-2.7-0.99C321.66,302.05,321.35,301.23,321.35,300.26z"/>
</g>
<g>
	<path class="st1" d="M122.85,37.44c-1.12,0-2.23-0.19-3.31-0.58c-1.08-0.39-2.04-0.98-2.89-1.77c-0.85-0.79-1.53-1.76-2.04-2.92
		c-0.51-1.16-0.77-2.52-0.77-4.08c0-1.46,0.27-2.82,0.81-4.1s1.3-2.39,2.27-3.35s2.15-1.72,3.51-2.27c1.36-0.55,2.87-0.83,4.52-0.83
		c1.67,0,3.16,0.26,4.49,0.79c1.33,0.53,2.46,1.26,3.4,2.21c0.94,0.94,1.66,2.08,2.16,3.4c0.5,1.32,0.75,2.77,0.75,4.34
		c0,1.01-0.09,1.96-0.26,2.86c-0.17,0.9-0.42,1.77-0.74,2.6c-0.32,0.83-0.71,1.64-1.16,2.43c-0.45,0.79-0.95,1.58-1.51,2.37
		l-7.45,10.62c-0.26,0.36-0.63,0.66-1.14,0.91c-0.5,0.25-1.08,0.37-1.72,0.37h-5.11l10.1-12.62c0.25-0.31,0.5-0.62,0.72-0.92
		c0.23-0.3,0.44-0.6,0.65-0.9c-0.75,0.48-1.58,0.84-2.48,1.09C124.79,37.32,123.84,37.44,122.85,37.44z M130.43,27.7
		c0-0.88-0.14-1.68-0.41-2.37c-0.27-0.7-0.65-1.29-1.15-1.77c-0.5-0.48-1.08-0.85-1.77-1.1s-1.43-0.38-2.24-0.38
		c-0.84,0-1.6,0.14-2.27,0.42c-0.68,0.28-1.25,0.66-1.72,1.16c-0.47,0.5-0.84,1.08-1.09,1.77c-0.26,0.68-0.38,1.43-0.38,2.24
		c0,1.81,0.47,3.2,1.41,4.15s2.27,1.43,3.99,1.43c0.9,0,1.7-0.14,2.4-0.43c0.7-0.28,1.29-0.67,1.77-1.17
		c0.48-0.5,0.84-1.08,1.09-1.75C130.31,29.21,130.43,28.48,130.43,27.7z"/>
</g>
<g>
	<path class="st1" d="M311.35,37.44c-1.12,0-2.23-0.19-3.31-0.58s-2.04-0.98-2.89-1.77c-0.85-0.79-1.53-1.76-2.04-2.92
		c-0.51-1.16-0.76-2.52-0.76-4.08c0-1.46,0.27-2.82,0.81-4.1s1.3-2.39,2.27-3.35c0.98-0.96,2.15-1.72,3.51-2.27
		c1.36-0.55,2.87-0.83,4.52-0.83c1.67,0,3.16,0.26,4.49,0.79c1.33,0.53,2.46,1.26,3.4,2.21c0.94,0.94,1.66,2.08,2.16,3.4
		s0.75,2.77,0.75,4.34c0,1.01-0.09,1.96-0.26,2.86c-0.17,0.9-0.42,1.77-0.74,2.6c-0.32,0.83-0.71,1.64-1.16,2.43
		s-0.95,1.58-1.51,2.37l-7.45,10.62c-0.25,0.36-0.63,0.66-1.14,0.91c-0.5,0.25-1.08,0.37-1.72,0.37h-5.11l10.1-12.62
		c0.25-0.31,0.5-0.62,0.72-0.92c0.23-0.3,0.44-0.6,0.65-0.9c-0.75,0.48-1.57,0.84-2.47,1.09C313.29,37.32,312.34,37.44,311.35,37.44
		z M318.93,27.7c0-0.88-0.13-1.68-0.4-2.37c-0.27-0.7-0.65-1.29-1.15-1.77c-0.5-0.48-1.08-0.85-1.77-1.1s-1.43-0.38-2.24-0.38
		c-0.84,0-1.6,0.14-2.27,0.42c-0.68,0.28-1.25,0.66-1.72,1.16s-0.84,1.08-1.09,1.77c-0.26,0.68-0.38,1.43-0.38,2.24
		c0,1.81,0.47,3.2,1.41,4.15s2.27,1.43,3.99,1.43c0.9,0,1.7-0.14,2.4-0.43c0.7-0.28,1.29-0.67,1.77-1.17
		c0.48-0.5,0.84-1.08,1.09-1.75C318.81,29.21,318.93,28.48,318.93,27.7z"/>
	<path class="st1" d="M350.5,34.16c0,2.83-0.3,5.3-0.91,7.39c-0.61,2.09-1.45,3.82-2.52,5.19c-1.07,1.37-2.34,2.38-3.8,3.05
		c-1.46,0.67-3.04,1-4.74,1s-3.27-0.33-4.71-1c-1.45-0.67-2.7-1.68-3.77-3.05c-1.07-1.36-1.9-3.09-2.5-5.19
		c-0.6-2.09-0.9-4.56-0.9-7.39c0-2.85,0.3-5.32,0.9-7.4c0.6-2.08,1.43-3.81,2.5-5.18c1.06-1.36,2.32-2.38,3.77-3.05s3.02-1,4.71-1
		s3.27,0.33,4.74,1s2.73,1.68,3.8,3.05c1.07,1.37,1.91,3.09,2.52,5.18S350.5,31.31,350.5,34.16z M344.76,34.16
		c0-2.35-0.17-4.3-0.52-5.85c-0.34-1.54-0.81-2.77-1.38-3.69c-0.58-0.91-1.24-1.56-1.99-1.92c-0.75-0.37-1.53-0.55-2.34-0.55
		c-0.79,0-1.56,0.18-2.31,0.55c-0.74,0.37-1.4,1.01-1.97,1.92c-0.57,0.92-1.02,2.15-1.36,3.69c-0.34,1.55-0.51,3.5-0.51,5.85
		c0,2.35,0.17,4.31,0.51,5.85c0.34,1.54,0.79,2.78,1.36,3.69c0.57,0.92,1.23,1.56,1.97,1.92c0.74,0.37,1.51,0.55,2.31,0.55
		c0.81,0,1.59-0.18,2.34-0.55c0.75-0.37,1.41-1.01,1.99-1.92c0.58-0.91,1.04-2.15,1.38-3.69S344.76,36.51,344.76,34.16z"/>
</g>
<g>
	<path class="st1" d="M215.65,29.28h19.94v4.12h-19.94V29.28z M215.65,37.2h19.94v4.14h-19.94V37.2z"/>
</g>
<g>
	<path class="st1" d="M123.98,113.57c-1.68,0-3.21-0.23-4.6-0.67c-1.39-0.45-2.58-1.09-3.57-1.91c-0.99-0.82-1.76-1.82-2.31-2.99
		c-0.55-1.17-0.82-2.47-0.82-3.91c0-1.92,0.47-3.54,1.42-4.87c0.95-1.33,2.42-2.31,4.41-2.96c-1.59-0.66-2.78-1.6-3.57-2.81
		c-0.79-1.22-1.18-2.68-1.18-4.39c0-1.23,0.25-2.38,0.75-3.44c0.5-1.06,1.2-1.99,2.1-2.78s1.98-1.4,3.23-1.85
		c1.25-0.44,2.63-0.66,4.13-0.66s2.88,0.22,4.13,0.66c1.25,0.44,2.33,1.06,3.23,1.85c0.9,0.79,1.6,1.71,2.1,2.78
		c0.5,1.06,0.75,2.21,0.75,3.44c0,1.71-0.4,3.17-1.19,4.39c-0.79,1.21-1.98,2.15-3.55,2.81c2,0.65,3.46,1.63,4.41,2.96
		c0.94,1.33,1.42,2.95,1.42,4.87c0,1.44-0.27,2.74-0.82,3.91c-0.55,1.17-1.32,2.17-2.31,2.99c-0.99,0.83-2.18,1.46-3.57,1.91
		C127.19,113.34,125.65,113.57,123.98,113.57z M123.98,109.22c0.92,0,1.72-0.13,2.41-0.39c0.69-0.26,1.27-0.63,1.74-1.09
		s0.83-1.02,1.07-1.67c0.24-0.65,0.36-1.34,0.36-2.09c0-1.78-0.5-3.13-1.49-4.05c-0.99-0.92-2.35-1.37-4.09-1.37
		s-3.1,0.46-4.09,1.37c-0.99,0.92-1.48,2.27-1.48,4.05c0,0.75,0.12,1.45,0.36,2.09c0.24,0.65,0.6,1.2,1.07,1.67
		c0.47,0.46,1.05,0.83,1.74,1.09C122.26,109.09,123.06,109.22,123.98,109.22z M123.98,94.19c0.9,0,1.66-0.14,2.27-0.43
		c0.62-0.28,1.11-0.66,1.49-1.14s0.64-1.01,0.8-1.62s0.24-1.23,0.24-1.88c0-0.61-0.1-1.2-0.29-1.75c-0.2-0.55-0.49-1.05-0.88-1.47
		c-0.39-0.43-0.89-0.77-1.49-1.02c-0.6-0.25-1.31-0.38-2.14-0.38c-0.82,0-1.54,0.13-2.14,0.38c-0.6,0.26-1.1,0.6-1.5,1.02
		c-0.4,0.43-0.69,0.92-0.88,1.47c-0.19,0.56-0.28,1.14-0.28,1.75c0,0.65,0.08,1.27,0.24,1.88c0.16,0.61,0.42,1.15,0.8,1.62
		s0.87,0.85,1.48,1.14C122.32,94.05,123.08,94.19,123.98,94.19z"/>
</g>
<g>
	<path class="st1" d="M324.09,80.67v2.41c0,0.72-0.08,1.3-0.24,1.74c-0.16,0.44-0.31,0.81-0.46,1.11l-12.31,25.38
		c-0.25,0.53-0.62,0.97-1.08,1.34c-0.47,0.37-1.1,0.55-1.89,0.55h-4.03l12.6-24.86c0.53-1.02,1.11-1.9,1.76-2.63h-15.57
		c-0.35,0-0.65-0.13-0.9-0.38c-0.25-0.25-0.38-0.55-0.38-0.9v-3.76H324.09z"/>
	<path class="st1" d="M339.07,80.31c1.5,0,2.87,0.22,4.12,0.66c1.25,0.44,2.31,1.07,3.2,1.88s1.58,1.79,2.07,2.92
		c0.5,1.14,0.74,2.41,0.74,3.8c0,1.2-0.18,2.31-0.53,3.33c-0.35,1.02-0.83,2-1.42,2.92c-0.59,0.93-1.29,1.83-2.08,2.7
		c-0.79,0.87-1.63,1.75-2.5,2.65l-7.33,7.49c0.72-0.21,1.43-0.37,2.12-0.48c0.69-0.11,1.35-0.17,1.98-0.17h8.35
		c0.6,0,1.08,0.17,1.43,0.51c0.35,0.34,0.53,0.78,0.53,1.34v3.33h-22.32v-1.85c0-0.37,0.08-0.76,0.24-1.17
		c0.16-0.4,0.41-0.78,0.75-1.12l9.88-9.9c0.82-0.84,1.56-1.64,2.22-2.41c0.65-0.77,1.2-1.52,1.64-2.27
		c0.44-0.75,0.78-1.51,1.01-2.28c0.23-0.77,0.35-1.59,0.35-2.44c0-0.78-0.11-1.47-0.34-2.06c-0.22-0.59-0.55-1.09-0.97-1.5
		c-0.42-0.4-0.92-0.71-1.5-0.91c-0.58-0.2-1.23-0.3-1.95-0.3c-1.34,0-2.43,0.34-3.3,1.01c-0.86,0.68-1.47,1.58-1.81,2.72
		c-0.17,0.57-0.41,0.98-0.74,1.23s-0.75,0.37-1.26,0.37c-0.23,0-0.47-0.02-0.74-0.07l-2.93-0.52c0.23-1.56,0.66-2.93,1.31-4.11
		c0.64-1.18,1.45-2.16,2.42-2.95c0.97-0.79,2.08-1.38,3.33-1.78C336.28,80.51,337.63,80.31,339.07,80.31z"/>
</g>
<g>
	<path class="st1" d="M215.65,92.06h19.94v4.12h-19.94V92.06z M215.65,99.98h19.94v4.14h-19.94V99.98z"/>
</g>
<g>
	<path class="st1" d="M135.59,143.74v2.41c0,0.72-0.08,1.3-0.24,1.74c-0.16,0.44-0.31,0.81-0.46,1.11l-12.31,25.38
		c-0.25,0.53-0.62,0.97-1.08,1.34c-0.47,0.37-1.1,0.55-1.89,0.55h-4.03l12.6-24.86c0.52-1.02,1.11-1.9,1.75-2.63h-15.57
		c-0.35,0-0.65-0.13-0.9-0.38c-0.26-0.25-0.38-0.55-0.38-0.9v-3.76H135.59z"/>
</g>
<g>
	<path class="st1" d="M321.68,146.1c0,0.79-0.25,1.44-0.75,1.94c-0.5,0.49-1.34,0.74-2.51,0.74h-8.96l-1.17,6.79
		c1.47-0.3,2.81-0.45,4.03-0.45c1.71,0,3.21,0.26,4.51,0.77s2.39,1.21,3.27,2.11c0.88,0.9,1.55,1.95,2,3.16
		c0.45,1.21,0.67,2.51,0.67,3.9c0,1.72-0.3,3.3-0.91,4.72c-0.61,1.43-1.45,2.64-2.53,3.66s-2.36,1.8-3.84,2.35s-3.09,0.83-4.83,0.83
		c-1.02,0-1.99-0.1-2.9-0.31c-0.92-0.21-1.77-0.49-2.58-0.84c-0.8-0.35-1.55-0.76-2.23-1.21c-0.68-0.46-1.29-0.94-1.83-1.45
		l1.71-2.36c0.36-0.51,0.84-0.76,1.44-0.76c0.38,0,0.75,0.12,1.14,0.36s0.83,0.5,1.34,0.79c0.51,0.29,1.1,0.55,1.78,0.79
		c0.67,0.24,1.49,0.36,2.45,0.36c1.02,0,1.92-0.17,2.7-0.5c0.78-0.33,1.43-0.79,1.95-1.38c0.52-0.59,0.91-1.3,1.17-2.11
		s0.39-1.71,0.39-2.67c0-1.77-0.51-3.15-1.54-4.15c-1.03-1-2.54-1.5-4.53-1.5c-1.58,0-3.16,0.29-4.75,0.85l-3.46-0.99l2.7-15.79
		h16.06V146.1z"/>
	<path class="st1" d="M340.6,155.96c1.23,0,2.43,0.2,3.59,0.61c1.16,0.4,2.19,1.02,3.07,1.83c0.88,0.82,1.6,1.83,2.14,3.05
		c0.54,1.22,0.81,2.63,0.81,4.25c0,1.52-0.28,2.94-0.83,4.26s-1.33,2.49-2.34,3.48c-1,0.99-2.22,1.77-3.63,2.34
		c-1.42,0.57-2.98,0.85-4.69,0.85c-1.74,0-3.3-0.28-4.68-0.83s-2.56-1.33-3.53-2.33c-0.98-1-1.72-2.2-2.24-3.6s-0.78-2.96-0.78-4.67
		c0-1.53,0.31-3.1,0.93-4.71c0.62-1.61,1.59-3.29,2.89-5.03l7.76-10.42c0.27-0.36,0.66-0.67,1.18-0.92s1.11-0.38,1.79-0.38h4.95
		l-9.65,11.81c-0.21,0.26-0.41,0.5-0.6,0.72s-0.37,0.46-0.55,0.7c0.63-0.31,1.31-0.56,2.04-0.74
		C338.95,156.05,339.75,155.96,340.6,155.96z M332.82,166.06c0,0.9,0.12,1.72,0.37,2.46c0.25,0.74,0.62,1.38,1.1,1.9
		c0.49,0.53,1.09,0.93,1.81,1.23c0.72,0.29,1.55,0.44,2.5,0.44c0.88,0,1.7-0.15,2.44-0.45c0.74-0.3,1.38-0.72,1.91-1.26
		c0.53-0.54,0.95-1.17,1.25-1.9c0.3-0.73,0.45-1.52,0.45-2.37c0-0.93-0.14-1.77-0.43-2.51c-0.29-0.74-0.69-1.37-1.21-1.89
		s-1.16-0.91-1.89-1.18c-0.74-0.27-1.54-0.4-2.43-0.4c-0.88,0-1.69,0.15-2.41,0.45c-0.72,0.3-1.34,0.72-1.86,1.25
		s-0.92,1.16-1.19,1.89S332.82,165.22,332.82,166.06z"/>
</g>
<g>
	<path class="st1" d="M215.65,155.13h19.94v4.12h-19.94V155.13z M215.65,163.04h19.94v4.14h-19.94V163.04z"/>
</g>
<g>
	<path class="st1" d="M126,218.93c1.23,0,2.43,0.2,3.59,0.61c1.16,0.4,2.19,1.02,3.07,1.83c0.88,0.82,1.6,1.83,2.14,3.05
		c0.54,1.22,0.81,2.63,0.81,4.25c0,1.52-0.28,2.94-0.83,4.26s-1.33,2.49-2.34,3.48c-1,0.99-2.22,1.77-3.63,2.34
		c-1.42,0.57-2.98,0.85-4.69,0.85c-1.74,0-3.3-0.28-4.68-0.83s-2.56-1.33-3.53-2.33c-0.98-1-1.72-2.2-2.24-3.6s-0.78-2.96-0.78-4.67
		c0-1.53,0.31-3.1,0.93-4.71c0.62-1.61,1.59-3.29,2.89-5.03l7.76-10.42c0.27-0.36,0.66-0.67,1.18-0.92
		c0.52-0.25,1.11-0.38,1.79-0.38h4.95l-9.65,11.81c-0.21,0.25-0.41,0.5-0.6,0.72c-0.19,0.23-0.37,0.46-0.55,0.7
		c0.63-0.31,1.31-0.56,2.04-0.74S125.15,218.93,126,218.93z M118.22,229.04c0,0.9,0.12,1.72,0.37,2.46c0.25,0.74,0.62,1.38,1.1,1.9
		c0.49,0.53,1.09,0.93,1.81,1.23c0.72,0.29,1.55,0.44,2.5,0.44c0.89,0,1.7-0.15,2.44-0.45c0.74-0.3,1.38-0.72,1.91-1.26
		c0.53-0.54,0.95-1.17,1.25-1.9c0.3-0.73,0.45-1.52,0.45-2.37c0-0.93-0.14-1.77-0.43-2.51c-0.29-0.74-0.69-1.37-1.21-1.89
		s-1.16-0.91-1.89-1.18c-0.74-0.27-1.55-0.41-2.43-0.41c-0.89,0-1.69,0.15-2.41,0.45c-0.72,0.3-1.34,0.72-1.86,1.25
		c-0.52,0.53-0.92,1.16-1.19,1.89S118.22,228.2,118.22,229.04z"/>
</g>
<g>
	<path class="st1" d="M320.62,226.99h4.1v3.22c0,0.3-0.1,0.56-0.29,0.78c-0.2,0.22-0.48,0.33-0.85,0.33h-2.95v7.94h-4.86v-7.94
		h-13.73c-0.38,0-0.71-0.12-0.99-0.35c-0.29-0.23-0.47-0.52-0.54-0.87l-0.56-2.81l15.41-20.59h5.26V226.99z M315.76,216.35
		c0-0.48,0.01-1,0.04-1.55c0.03-0.55,0.08-1.13,0.16-1.73l-10.1,13.93h9.9V216.35z"/>
	<path class="st1" d="M339.07,206.36c1.5,0,2.87,0.22,4.12,0.66s2.31,1.07,3.2,1.88c0.88,0.81,1.58,1.79,2.07,2.92
		s0.74,2.41,0.74,3.8c0,1.2-0.18,2.31-0.53,3.33c-0.35,1.02-0.83,2-1.42,2.92s-1.29,1.83-2.08,2.7s-1.63,1.75-2.5,2.65l-7.33,7.49
		c0.72-0.21,1.43-0.37,2.12-0.48c0.69-0.11,1.35-0.17,1.98-0.17h8.35c0.6,0,1.08,0.17,1.43,0.51c0.35,0.34,0.53,0.78,0.53,1.34v3.33
		h-22.32v-1.85c0-0.37,0.08-0.76,0.24-1.17c0.16-0.4,0.41-0.78,0.75-1.12l9.88-9.9c0.82-0.84,1.56-1.64,2.22-2.41
		c0.65-0.77,1.2-1.52,1.64-2.27c0.44-0.75,0.78-1.51,1.01-2.28s0.35-1.59,0.35-2.44c0-0.78-0.11-1.47-0.34-2.06
		c-0.22-0.59-0.55-1.09-0.97-1.5c-0.42-0.41-0.92-0.71-1.5-0.91c-0.58-0.2-1.23-0.3-1.95-0.3c-1.34,0-2.43,0.34-3.3,1.01
		c-0.86,0.68-1.47,1.58-1.81,2.72c-0.17,0.57-0.41,0.98-0.74,1.23c-0.33,0.25-0.75,0.37-1.26,0.37c-0.23,0-0.47-0.02-0.74-0.07
		l-2.93-0.52c0.23-1.56,0.66-2.93,1.31-4.11c0.64-1.18,1.45-2.16,2.42-2.95c0.97-0.79,2.08-1.38,3.33-1.78
		C336.28,206.55,337.63,206.36,339.07,206.36z"/>
</g>
<g>
	<path class="st1" d="M215.65,218.1h19.94v4.12h-19.94V218.1z M215.65,226.02h19.94v4.14h-19.94V226.02z"/>
</g>
<g>
	<path class="st1" d="M124.99,269.29c1.5,0,2.85,0.21,4.06,0.64c1.21,0.43,2.24,1.02,3.09,1.78c0.85,0.76,1.51,1.65,1.97,2.67
		c0.46,1.02,0.69,2.12,0.69,3.31c0,1.04-0.12,1.95-0.35,2.73s-0.57,1.47-1.01,2.06c-0.44,0.58-0.98,1.08-1.62,1.49
		c-0.64,0.41-1.36,0.74-2.17,1.01c1.95,0.62,3.41,1.55,4.37,2.81c0.96,1.26,1.44,2.84,1.44,4.75c0,1.62-0.3,3.05-0.9,4.3
		c-0.6,1.25-1.41,2.29-2.43,3.14c-1.02,0.85-2.2,1.49-3.54,1.92c-1.34,0.43-2.76,0.65-4.26,0.65c-1.64,0-3.06-0.19-4.28-0.56
		c-1.21-0.38-2.27-0.93-3.17-1.67c-0.9-0.73-1.67-1.63-2.29-2.7c-0.63-1.06-1.17-2.29-1.62-3.69l2.45-1.01
		c0.42-0.18,0.85-0.27,1.28-0.27c0.39,0,0.74,0.08,1.05,0.25c0.31,0.17,0.54,0.4,0.71,0.72c0.27,0.53,0.57,1.04,0.89,1.55
		c0.32,0.51,0.71,0.96,1.16,1.36s0.98,0.72,1.59,0.97c0.61,0.25,1.33,0.37,2.17,0.37c0.94,0,1.77-0.15,2.48-0.46
		c0.71-0.31,1.29-0.71,1.77-1.2c0.47-0.5,0.82-1.05,1.06-1.65c0.23-0.61,0.35-1.22,0.35-1.83c0-0.78-0.08-1.49-0.25-2.13
		s-0.51-1.18-1.04-1.63c-0.52-0.45-1.28-0.8-2.26-1.06c-0.98-0.25-2.3-0.38-3.95-0.38v-3.98c1.36,0,2.5-0.12,3.4-0.36
		c0.9-0.24,1.62-0.57,2.15-1c0.53-0.43,0.9-0.94,1.11-1.54s0.32-1.26,0.32-1.98c0-1.54-0.42-2.71-1.26-3.5
		c-0.84-0.79-1.99-1.18-3.44-1.18c-1.32,0-2.42,0.35-3.29,1.04c-0.87,0.7-1.48,1.59-1.82,2.69c-0.18,0.57-0.43,0.98-0.74,1.23
		s-0.73,0.37-1.24,0.37c-0.24,0-0.5-0.02-0.77-0.07l-2.92-0.51c0.22-1.56,0.66-2.93,1.3-4.11s1.45-2.16,2.42-2.95
		c0.97-0.79,2.08-1.38,3.33-1.78C122.2,269.49,123.55,269.29,124.99,269.29z"/>
</g>
<g>
	<path class="st1" d="M215.65,279.4h19.94v4.12h-19.94V279.4z M215.65,287.32h19.94v4.14h-19.94V287.32z"/>
</g>
</svg>
