<?xml version="1.0" encoding="utf-8"?>
<!-- Generator: Adobe Illustrator 27.3.1, SVG Export Plug-In . SVG Version: 6.00 Build 0)  -->
<svg version="1.1" id="Layer_1" xmlns="http://www.w3.org/2000/svg" xmlns:xlink="http://www.w3.org/1999/xlink" x="0px" y="0px"
	 viewBox="0 0 120 120" style="enable-background:new 0 0 120 120;" xml:space="preserve">
<style type="text/css">
	.st0{display:none;}
	.st1{fill:#1D191A;}
	.st2{fill:none;}
</style>
<g>
	<path class="st1" d="M58.88,63.32c-1.12,0-2.23-0.2-3.31-0.58c-1.08-0.39-2.04-0.98-2.89-1.77c-0.85-0.79-1.53-1.76-2.04-2.92
		c-0.51-1.16-0.77-2.52-0.77-4.08c0-1.45,0.27-2.82,0.81-4.09c0.54-1.27,1.3-2.39,2.27-3.35s2.15-1.72,3.51-2.27
		c1.36-0.55,2.87-0.83,4.52-0.83c1.67,0,3.16,0.26,4.49,0.79c1.33,0.53,2.46,1.26,3.4,2.21c0.94,0.95,1.66,2.08,2.16,3.4
		c0.5,1.32,0.75,2.77,0.75,4.34c0,1-0.09,1.96-0.26,2.86c-0.17,0.9-0.42,1.77-0.74,2.6c-0.32,0.83-0.71,1.64-1.16,2.43
		c-0.45,0.79-0.95,1.58-1.51,2.37l-7.45,10.62c-0.26,0.36-0.63,0.66-1.14,0.91c-0.5,0.25-1.08,0.37-1.72,0.37h-5.11l10.1-12.62
		c0.25-0.32,0.5-0.62,0.72-0.92c0.22-0.3,0.44-0.6,0.65-0.9c-0.75,0.48-1.58,0.84-2.48,1.09C60.81,63.2,59.87,63.32,58.88,63.32z
		 M66.46,53.58c0-0.89-0.13-1.68-0.4-2.37s-0.65-1.29-1.15-1.77c-0.5-0.48-1.08-0.85-1.77-1.1c-0.68-0.25-1.43-0.38-2.24-0.38
		c-0.84,0-1.6,0.14-2.27,0.42c-0.68,0.28-1.25,0.66-1.72,1.16c-0.47,0.5-0.84,1.08-1.09,1.77c-0.26,0.68-0.38,1.43-0.38,2.24
		c0,1.81,0.47,3.2,1.41,4.15c0.94,0.95,2.27,1.43,3.99,1.43c0.9,0,1.7-0.14,2.4-0.43s1.29-0.68,1.77-1.17
		c0.48-0.5,0.84-1.08,1.09-1.76C66.33,55.09,66.46,54.36,66.46,53.58z"/>
</g>
<g>
	<path class="st1" d="M107,13v94H13V13H107 M110,10H10v100h100V10L110,10z"/>
</g>
<rect x="58.12" y="58.6" class="st2" width="2.65" height="0"/>
</svg>
