<?xml version="1.0" encoding="utf-8"?>
<!-- Generator: Adobe Illustrator 27.3.1, SVG Export Plug-In . SVG Version: 6.00 Build 0)  -->
<svg version="1.1" id="Layer_1" xmlns="http://www.w3.org/2000/svg" xmlns:xlink="http://www.w3.org/1999/xlink" x="0px" y="0px"
	 viewBox="0 0 120 120" style="enable-background:new 0 0 120 120;" xml:space="preserve">
<style type="text/css">
	.st0{display:none;}
	.st1{fill:#1D191A;}
	.st2{fill:none;}
</style>
<g>
	<path class="st1" d="M61.01,43.41c1.5,0,2.85,0.21,4.06,0.64c1.21,0.43,2.24,1.02,3.09,1.78c0.85,0.76,1.51,1.65,1.97,2.67
		c0.46,1.02,0.69,2.12,0.69,3.31c0,1.04-0.12,1.95-0.35,2.73c-0.23,0.79-0.57,1.47-1.01,2.06c-0.44,0.58-0.98,1.08-1.62,1.49
		c-0.64,0.4-1.36,0.74-2.17,1.01c1.95,0.62,3.41,1.55,4.37,2.81c0.96,1.26,1.44,2.84,1.44,4.75c0,1.62-0.3,3.05-0.9,4.3
		c-0.6,1.25-1.41,2.29-2.43,3.14c-1.02,0.85-2.2,1.49-3.54,1.92c-1.34,0.44-2.76,0.65-4.26,0.65c-1.64,0-3.06-0.19-4.28-0.56
		c-1.21-0.38-2.27-0.93-3.17-1.67c-0.9-0.74-1.67-1.63-2.29-2.7s-1.17-2.29-1.62-3.69l2.45-1.01c0.42-0.18,0.85-0.27,1.28-0.27
		c0.39,0,0.74,0.08,1.05,0.25c0.31,0.17,0.54,0.41,0.71,0.72c0.27,0.53,0.57,1.04,0.89,1.55c0.32,0.51,0.71,0.96,1.16,1.36
		c0.45,0.4,0.98,0.72,1.59,0.97c0.61,0.25,1.33,0.37,2.17,0.37c0.94,0,1.77-0.15,2.48-0.46s1.29-0.71,1.77-1.2s0.82-1.05,1.06-1.65
		s0.35-1.22,0.35-1.83c0-0.78-0.08-1.49-0.25-2.13s-0.51-1.18-1.04-1.63c-0.53-0.45-1.28-0.8-2.26-1.06
		c-0.98-0.25-2.3-0.38-3.95-0.38v-3.98c1.36,0,2.5-0.12,3.4-0.36c0.9-0.24,1.62-0.57,2.15-1s0.9-0.94,1.11-1.54s0.32-1.26,0.32-1.98
		c0-1.54-0.42-2.71-1.26-3.5c-0.84-0.79-1.99-1.18-3.44-1.18c-1.32,0-2.42,0.35-3.29,1.04c-0.87,0.7-1.48,1.59-1.82,2.69
		c-0.18,0.57-0.43,0.98-0.74,1.22s-0.73,0.37-1.24,0.37c-0.24,0-0.5-0.02-0.77-0.07l-2.92-0.51c0.22-1.56,0.66-2.93,1.3-4.11
		s1.45-2.16,2.42-2.95C54.61,45,55.72,44.4,56.97,44C58.23,43.61,59.57,43.41,61.01,43.41z"/>
</g>
<g>
	<path class="st1" d="M107,13v94H13V13H107 M110,10H10v100h100V10L110,10z"/>
</g>
<rect x="58.12" y="58.6" class="st2" width="2.65" height="0"/>
</svg>
