<?xml version="1.0" encoding="UTF-8" standalone="no"?>
<!-- Generator: Adobe Illustrator 27.3.1, SVG Export Plug-In . SVG Version: 6.00 Build 0)  -->

<svg
   version="1.1"
   id="Layer_1"
   x="0px"
   y="0px"
   viewBox="0 0 120 120"
   style="enable-background:new 0 0 120 120;"
   xml:space="preserve"
   sodipodi:docname="Q13C.svg"
   inkscape:version="1.4 (86a8ad7, 2024-10-11)"
   xmlns:inkscape="http://www.inkscape.org/namespaces/inkscape"
   xmlns:sodipodi="http://sodipodi.sourceforge.net/DTD/sodipodi-0.dtd"
   xmlns="http://www.w3.org/2000/svg"
   xmlns:svg="http://www.w3.org/2000/svg"><defs
   id="defs6" /><sodipodi:namedview
   id="namedview6"
   pagecolor="#ffffff"
   bordercolor="#999999"
   borderopacity="1"
   inkscape:showpageshadow="2"
   inkscape:pageopacity="0"
   inkscape:pagecheckerboard="0"
   inkscape:deskcolor="#d1d1d1"
   inkscape:zoom="6.725"
   inkscape:cx="60"
   inkscape:cy="60"
   inkscape:window-width="1920"
   inkscape:window-height="1009"
   inkscape:window-x="-8"
   inkscape:window-y="-8"
   inkscape:window-maximized="1"
   inkscape:current-layer="Layer_1" />
<style
   type="text/css"
   id="style1">
	.st0{fill-rule:evenodd;clip-rule:evenodd;fill:#A5A5A5;}
	.st1{fill:#1D191A;}
	.st2{fill:none;stroke:#1D191A;stroke-width:2;stroke-miterlimit:10;}
</style>
<rect
   x="-109.25531"
   y="-43.612999"
   transform="matrix(0,-1,-1,0,0,0)"
   class="st0"
   width="33.110001"
   height="32.98"
   id="rect1"
   style="fill:#1f8fff;fill-opacity:1" />
<rect
   x="-109.4703"
   y="-109.553"
   transform="matrix(0,-1,-1,0,0,0)"
   class="st0"
   width="33.110001"
   height="32.98"
   id="rect2"
   style="fill:#1f8fff;fill-opacity:1" />
<g
   id="g2"
   transform="matrix(1,0,0,-1,0,120)">
	<path
   class="st1"
   d="m 108,12 v 96 H 12 V 12 h 96 m 2,-2 H 10 V 110 H 110 V 10 Z"
   id="path2" />
</g>
<g
   id="g3"
   transform="matrix(1,0,0,-1,0,120)">
	<line
   class="st2"
   x1="76.540001"
   y1="109.37"
   x2="76.540001"
   y2="10.64"
   id="line2" />
</g>
<g
   id="g4"
   transform="matrix(1,0,0,-1,0,120)">
	<line
   class="st2"
   x1="43.59"
   y1="109.37"
   x2="43.59"
   y2="10.64"
   id="line3" />
</g>
<g
   id="g5"
   transform="matrix(1,0,0,-1,0,120)">
	<line
   class="st2"
   x1="10.64"
   y1="76.480003"
   x2="109.37"
   y2="76.480003"
   id="line4" />
</g>
<g
   id="g6"
   transform="matrix(1,0,0,-1,0,120)">
	<line
   class="st2"
   x1="10.64"
   y1="43.52"
   x2="109.37"
   y2="43.52"
   id="line5" />
</g>
</svg>
