<?xml version="1.0" encoding="UTF-8" standalone="no"?>
<!-- Generator: Adobe Illustrator 27.3.1, SVG Export Plug-In . SVG Version: 6.00 Build 0)  -->

<svg
   version="1.1"
   id="Layer_1"
   x="0px"
   y="0px"
   viewBox="0 0 450 320"
   style="enable-background:new 0 0 450 320;"
   xml:space="preserve"
   sodipodi:docname="Q9Q.svg"
   inkscape:version="1.4 (86a8ad7, 2024-10-11)"
   xmlns:inkscape="http://www.inkscape.org/namespaces/inkscape"
   xmlns:sodipodi="http://sodipodi.sourceforge.net/DTD/sodipodi-0.dtd"
   xmlns="http://www.w3.org/2000/svg"
   xmlns:svg="http://www.w3.org/2000/svg"><defs
   id="defs11" /><sodipodi:namedview
   id="namedview11"
   pagecolor="#ffffff"
   bordercolor="#999999"
   borderopacity="1"
   inkscape:showpageshadow="2"
   inkscape:pageopacity="0"
   inkscape:pagecheckerboard="0"
   inkscape:deskcolor="#d1d1d1"
   inkscape:zoom="2.521875"
   inkscape:cx="203.22181"
   inkscape:cy="179.82652"
   inkscape:window-width="1920"
   inkscape:window-height="1009"
   inkscape:window-x="-8"
   inkscape:window-y="-8"
   inkscape:window-maximized="1"
   inkscape:current-layer="g6" />
<style
   type="text/css"
   id="style1">
	.st0{display:none;}
	.st1{fill:#1D191A;}
	.st2{fill:none;stroke:#1D191A;stroke-width:3;stroke-miterlimit:10;}
	.st3{fill:#A5A5A5;}
</style>
<g
   id="g1">
	<path
   class="st1"
   d="M276.04,230.04c0-2,0.12-3.75,0.36-5.23s0.64-2.84,1.19-4.06c0.55-1.23,1.26-2.39,2.14-3.49   c0.87-1.1,1.95-2.27,3.22-3.51c0.96-0.93,1.86-1.81,2.69-2.65c0.83-0.83,1.57-1.69,2.2-2.56c0.64-0.87,1.14-1.81,1.5-2.79   c0.37-0.99,0.55-2.09,0.55-3.3c0-2.65-0.66-4.68-1.97-6.08c-1.31-1.4-3.24-2.09-5.78-2.09c-1.02,0-2,0.14-2.96,0.42   s-1.82,0.73-2.58,1.35c-0.76,0.62-1.38,1.41-1.84,2.37c-0.47,0.96-0.7,2.12-0.7,3.47h-10.3c0.03-2.65,0.51-4.99,1.46-7.01   c0.94-2.02,2.24-3.71,3.89-5.08c1.65-1.37,3.58-2.4,5.8-3.09s4.62-1.04,7.22-1.04c2.85,0,5.39,0.37,7.62,1.1s4.12,1.81,5.67,3.22   c1.55,1.41,2.73,3.13,3.54,5.17c0.8,2.03,1.21,4.33,1.21,6.9c0,1.86-0.3,3.6-0.89,5.21c-0.59,1.61-1.38,3.12-2.37,4.53   s-2.12,2.77-3.39,4.06c-1.27,1.3-2.58,2.58-3.94,3.85c-1.55,1.41-2.59,2.96-3.11,4.64c-0.52,1.68-0.8,3.58-0.83,5.69L276.04,230.04   L276.04,230.04z M275.32,243.21c0-0.79,0.13-1.52,0.38-2.2c0.25-0.68,0.63-1.27,1.12-1.78s1.1-0.9,1.82-1.19   c0.72-0.28,1.55-0.42,2.48-0.42c0.93,0,1.76,0.14,2.48,0.42s1.33,0.68,1.82,1.19c0.49,0.51,0.87,1.1,1.14,1.78   c0.27,0.68,0.4,1.41,0.4,2.2c0,1.55-0.51,2.85-1.52,3.89c-1.02,1.04-2.45,1.57-4.32,1.57s-3.3-0.52-4.3-1.57   C275.82,246.06,275.32,244.76,275.32,243.21z"
   id="path1" />
</g>
<polygon
   class="st3"
   points="213.62,58.71 125.38,58.71 169.5,102.83 "
   id="polygon1"
   transform="translate(-3.090121,114.62984)"
   style="fill:#1f8fff;fill-opacity:1" />
<polygon
   class="st1"
   points="183.62,68.71 155.38,68.71 169.5,102.83 "
   id="polygon2"
   transform="translate(-3.090121,114.62984)"
   style="fill:#000000;fill-opacity:1" />
<polygon
   class="st3"
   points="125.38,146.95 213.62,146.95 169.5,102.83 "
   id="polygon3"
   transform="translate(-3.090121,114.62984)"
   style="fill:#1f8fff;fill-opacity:1" />
<polygon
   class="st1"
   points="155.38,136.95 183.62,136.95 169.5,102.83 "
   id="polygon4"
   transform="translate(-3.090121,114.62984)"
   style="fill:#000000;fill-opacity:1" />
<line
   class="st2"
   x1="122.28989"
   y1="217.45984"
   x2="210.52988"
   y2="217.45984"
   id="line4" />
<g
   id="g6"
   transform="translate(-117.27386,-2.9244114)">
	<polygon
   class="st1"
   points="281.96,102.83 296.08,68.71 267.84,68.71 "
   id="polygon5"
   style="fill:#000000;fill-opacity:1" />
	<polygon
   class="st3"
   points="281.96,102.83 237.84,146.95 326.08,146.95 "
   id="polygon6"
   style="fill:#1f8fff;fill-opacity:1" />
	<line
   class="st2"
   x1="237.84"
   y1="102.83"
   x2="326.07999"
   y2="102.83"
   id="line6" />
	<circle
   class="st1"
   cx="252.13"
   cy="93.010002"
   r="5.9499998"
   id="circle6"
   style="fill:#000000;fill-opacity:1" />
</g>
<polygon
   class="st1"
   points="153.92,251.29 182.16,251.29 168.04,217.17 "
   id="polygon7"
   transform="rotate(180,225.02885,158.53776)"
   style="fill:#000000;fill-opacity:1" />
<polygon
   class="st3"
   points="212.16,173.05 123.92,173.05 168.04,217.17 "
   id="polygon8"
   transform="rotate(180,225.02885,158.53776)"
   style="fill:#000000" />
<line
   class="st2"
   x1="237.89771"
   y1="99.90551"
   x2="326.1377"
   y2="99.90551"
   id="line8" />
<circle
   class="st3"
   cx="-252.1877"
   cy="-90.085503"
   r="5.9499998"
   id="circle8"
   transform="scale(-1)"
   style="fill:#1f8fff;fill-opacity:1" />
<rect
   x="107.49949"
   y="160.00945"
   class="st2"
   width="114.34"
   height="114.34"
   id="rect8" />
<rect
   x="107.51614"
   y="42.735588"
   class="st2"
   width="114.34"
   height="114.34"
   id="rect9" />
<rect
   x="-339.18768"
   y="-157.0755"
   class="st2"
   width="114.34"
   height="114.34"
   id="rect10"
   transform="scale(-1)" />
<rect
   x="224.79"
   y="160"
   class="st2"
   width="114.34"
   height="114.34"
   id="rect11" />
</svg>
