<?xml version="1.0" encoding="UTF-8" standalone="no"?>
<!-- Generator: Adobe Illustrator 27.3.1, SVG Export Plug-In . SVG Version: 6.00 Build 0)  -->

<svg
   version="1.1"
   id="Layer_1"
   x="0px"
   y="0px"
   viewBox="0 0 120 120"
   style="enable-background:new 0 0 120 120;"
   xml:space="preserve"
   sodipodi:docname="Q6B.svg"
   inkscape:version="1.4 (86a8ad7, 2024-10-11)"
   xmlns:inkscape="http://www.inkscape.org/namespaces/inkscape"
   xmlns:sodipodi="http://sodipodi.sourceforge.net/DTD/sodipodi-0.dtd"
   xmlns="http://www.w3.org/2000/svg"
   xmlns:svg="http://www.w3.org/2000/svg"><defs
   id="defs5" /><sodipodi:namedview
   id="namedview5"
   pagecolor="#ffffff"
   bordercolor="#999999"
   borderopacity="1"
   inkscape:showpageshadow="2"
   inkscape:pageopacity="0"
   inkscape:pagecheckerboard="0"
   inkscape:deskcolor="#d1d1d1"
   inkscape:zoom="6.725"
   inkscape:cx="60"
   inkscape:cy="60"
   inkscape:window-width="1920"
   inkscape:window-height="1009"
   inkscape:window-x="-8"
   inkscape:window-y="-8"
   inkscape:window-maximized="1"
   inkscape:current-layer="Layer_1" />
<style
   type="text/css"
   id="style1">
	.st0{fill:#A5A5A5;}
	.st1{fill:#231F20;}
	.st2{fill:#FFFFFF;stroke:#231F20;stroke-width:2;stroke-miterlimit:10;}
	.st3{fill:#1D191A;}
</style>
<polygon
   class="st0"
   points="61.31,60.14 86.35,60.14 108.5,80.11 78.92,78.92 60.72,60.72 "
   id="polygon1"
   style="fill:#a5a5a5;fill-opacity:1" />
<polygon
   class="st0"
   points="59.88,58.95 59.88,33.91 79.85,11.76 78.66,41.34 60.46,59.54 "
   id="polygon2"
   style="fill:#a5a5a5;fill-opacity:1" />
<g
   id="g2">
	<path
   class="st1"
   d="M78.43,15.51l-1.29,25.25l-0.11,2.21l2.21-0.11l25.25-1.29L85.72,58.52L84.08,60l1.64,1.48l18.77,16.94   l-25.25-1.29l-2.21-0.11l0.11,2.21l1.29,25.25L61.48,85.72L60,84.08l-1.48,1.64l-16.94,18.77l1.29-25.25l0.11-2.21l-2.21,0.11   l-25.25,1.29l18.77-16.94L35.92,60l-1.64-1.48L15.51,41.57l25.25,1.29l2.21,0.11l-0.11-2.21l-1.29-25.25l16.94,18.77L60,35.92   l1.48-1.64L78.43,15.51 M80.71,10L60,32.94L39.29,10l1.58,30.87L10,39.29L32.94,60L10,80.71l30.87-1.58L39.29,110L60,87.06   L80.71,110l-1.58-30.87L110,80.71L87.06,60L110,39.29l-30.87,1.58L80.71,10L80.71,10z"
   id="path2" />
</g>
<line
   class="st2"
   x1="40.87"
   y1="79.13"
   x2="79.13"
   y2="40.87"
   id="line2" />
<line
   class="st2"
   x1="87.06"
   y1="60"
   x2="32.94"
   y2="60"
   id="line3" />
<line
   class="st2"
   x1="79.13"
   y1="79.13"
   x2="40.87"
   y2="40.87"
   id="line4" />
<line
   class="st2"
   x1="60"
   y1="87.06"
   x2="60"
   y2="32.94"
   id="line5" />
</svg>
