<?xml version="1.0" encoding="utf-8"?>
<!-- Generator: Adobe Illustrator 27.3.1, SVG Export Plug-In . SVG Version: 6.00 Build 0)  -->
<svg version="1.1" id="Layer_1" xmlns="http://www.w3.org/2000/svg" xmlns:xlink="http://www.w3.org/1999/xlink" x="0px" y="0px"
	 viewBox="0 0 120 120" style="enable-background:new 0 0 120 120;" xml:space="preserve">
<style type="text/css">
	.st0{display:none;}
	.st1{fill:none;stroke:#1D191A;stroke-miterlimit:10;}
	.st2{fill:#A5A5A5;stroke:#1D191A;stroke-miterlimit:10;}
	.st3{fill:#1D191A;}
	.st4{fill:#FFFFFF;}
</style>
<g>
	<path class="st3" d="M18.17,72.21h6.59V53.24c0-0.74,0.02-1.51,0.07-2.32l-4.68,3.92c-0.2,0.17-0.39,0.28-0.6,0.34
		c-0.2,0.06-0.4,0.09-0.6,0.09c-0.3,0-0.57-0.06-0.82-0.19c-0.25-0.13-0.43-0.27-0.55-0.44l-1.75-2.41l9.92-8.44h4.57v28.42h5.85
		v4.16h-18V72.21z"/>
	<path class="st3" d="M63.2,60.1c0,2.83-0.3,5.3-0.91,7.39c-0.61,2.09-1.45,3.82-2.52,5.19c-1.07,1.37-2.34,2.38-3.8,3.05
		c-1.46,0.67-3.04,1-4.74,1c-1.7,0-3.27-0.33-4.71-1c-1.45-0.67-2.7-1.68-3.77-3.05c-1.07-1.36-1.9-3.09-2.5-5.19
		c-0.6-2.09-0.9-4.56-0.9-7.39c0-2.85,0.3-5.32,0.9-7.4s1.43-3.81,2.5-5.17c1.06-1.37,2.32-2.38,3.77-3.05c1.45-0.67,3.02-1,4.71-1
		c1.69,0,3.27,0.33,4.74,1s2.73,1.68,3.8,3.05c1.07,1.37,1.91,3.09,2.52,5.17S63.2,57.25,63.2,60.1z M57.46,60.1
		c0-2.35-0.17-4.3-0.52-5.85c-0.35-1.54-0.81-2.78-1.38-3.69c-0.58-0.92-1.24-1.56-1.99-1.92c-0.75-0.37-1.53-0.55-2.34-0.55
		c-0.79,0-1.56,0.18-2.31,0.55c-0.74,0.37-1.4,1.01-1.97,1.92c-0.57,0.92-1.02,2.15-1.36,3.69s-0.51,3.5-0.51,5.85
		c0,2.36,0.17,4.31,0.51,5.85c0.34,1.55,0.79,2.78,1.36,3.69c0.57,0.92,1.23,1.56,1.97,1.92c0.74,0.37,1.51,0.55,2.31,0.55
		c0.81,0,1.59-0.18,2.34-0.55c0.75-0.37,1.41-1.01,1.99-1.92c0.58-0.92,1.04-2.14,1.38-3.69C57.29,64.41,57.46,62.46,57.46,60.1z"/>
	<path class="st3" d="M73,46.4h4.68v29.97H73V46.4z"/>
	<path class="st3" d="M83.44,76.37V46.4h4.63v10.71c1.65-1.95,3.69-2.92,6.12-2.92c2.79,0,5.02,1.02,6.71,3.06
		c1.65,2.01,2.47,4.71,2.47,8.1c0,3.39-0.85,6.15-2.56,8.28c-1.71,2.13-3.92,3.2-6.62,3.2c-2.76,0-4.91-1.12-6.44-3.38v2.92H83.44z
		 M93.3,73.13c3.54,0,5.31-2.49,5.31-7.47c0-5.22-1.77-7.83-5.31-7.83c-3.6,0-5.4,2.64-5.4,7.92C87.9,70.67,89.7,73.13,93.3,73.13z"
		/>
</g>
</svg>
