<?xml version="1.0" encoding="UTF-8" standalone="no"?>
<!-- Generator: Adobe Illustrator 27.3.1, SVG Export Plug-In . SVG Version: 6.00 Build 0)  -->

<svg
   version="1.1"
   id="Layer_1"
   x="0px"
   y="0px"
   viewBox="0 0 450 320"
   style="enable-background:new 0 0 450 320;"
   xml:space="preserve"
   sodipodi:docname="Q11Q.svg"
   inkscape:version="1.4 (86a8ad7, 2024-10-11)"
   xmlns:inkscape="http://www.inkscape.org/namespaces/inkscape"
   xmlns:sodipodi="http://sodipodi.sourceforge.net/DTD/sodipodi-0.dtd"
   xmlns="http://www.w3.org/2000/svg"
   xmlns:svg="http://www.w3.org/2000/svg"><defs
   id="defs9" /><sodipodi:namedview
   id="namedview9"
   pagecolor="#ffffff"
   bordercolor="#999999"
   borderopacity="1"
   inkscape:showpageshadow="2"
   inkscape:pageopacity="0"
   inkscape:pagecheckerboard="0"
   inkscape:deskcolor="#d1d1d1"
   inkscape:zoom="2.521875"
   inkscape:cx="225.03098"
   inkscape:cy="160"
   inkscape:window-width="1920"
   inkscape:window-height="1009"
   inkscape:window-x="-8"
   inkscape:window-y="-8"
   inkscape:window-maximized="1"
   inkscape:current-layer="Layer_1" />
<style
   type="text/css"
   id="style1">
	.st0{display:none;}
	.st1{fill:#1D191A;}
	.st2{fill:none;stroke:#1D191A;stroke-width:3;stroke-linejoin:round;stroke-miterlimit:10;}
</style>
<g
   id="g2"
   style="fill:#ff0000">
	<g
   id="g1"
   style="fill:#ff0000">
		<path
   class="st1"
   d="M349.6,278.75c0-2,0.12-3.75,0.36-5.23s0.64-2.84,1.19-4.06c0.55-1.23,1.26-2.39,2.14-3.49    c0.87-1.1,1.95-2.27,3.22-3.51c0.96-0.93,1.86-1.81,2.69-2.65c0.83-0.83,1.57-1.69,2.2-2.56c0.64-0.87,1.14-1.81,1.5-2.79    c0.37-0.99,0.55-2.09,0.55-3.3c0-2.65-0.66-4.68-1.97-6.08c-1.31-1.4-3.24-2.09-5.78-2.09c-1.02,0-2,0.14-2.96,0.42    s-1.82,0.73-2.58,1.35c-0.76,0.62-1.38,1.41-1.84,2.37c-0.47,0.96-0.7,2.12-0.7,3.47h-10.3c0.03-2.65,0.51-4.99,1.46-7.01    c0.94-2.02,2.24-3.71,3.89-5.08c1.65-1.37,3.58-2.4,5.8-3.09s4.62-1.04,7.22-1.04c2.85,0,5.39,0.37,7.62,1.1s4.12,1.81,5.67,3.22    c1.55,1.41,2.73,3.13,3.54,5.17c0.8,2.03,1.21,4.33,1.21,6.9c0,1.86-0.3,3.6-0.89,5.21c-0.59,1.61-1.38,3.12-2.37,4.53    s-2.12,2.77-3.39,4.06c-1.27,1.3-2.58,2.58-3.94,3.85c-1.55,1.41-2.59,2.96-3.11,4.64c-0.52,1.68-0.8,3.58-0.83,5.69L349.6,278.75    L349.6,278.75z M348.88,291.92c0-0.79,0.13-1.52,0.38-2.2c0.25-0.68,0.63-1.27,1.12-1.78s1.1-0.9,1.82-1.19    c0.72-0.28,1.55-0.42,2.48-0.42c0.93,0,1.76,0.14,2.48,0.42s1.33,0.68,1.82,1.19c0.49,0.51,0.87,1.1,1.14,1.78    c0.27,0.68,0.4,1.41,0.4,2.2c0,1.55-0.51,2.85-1.52,3.89c-1.02,1.04-2.45,1.57-4.32,1.57s-3.3-0.52-4.3-1.57    C349.38,294.77,348.88,293.47,348.88,291.92z"
   id="path1"
   style="fill:#ff0000" />
	</g>
</g>
<polyline
   class="st2"
   points="50.07,54.14 138.31,54.14 94.19,98.26 94.19,10.02 "
   id="polyline2" />
<circle
   class="st1"
   cx="79.27"
   cy="39.24"
   r="6.24"
   id="circle2" />
<polyline
   class="st2"
   points="399.64,54.14 311.4,54.14 355.52,10.02 355.52,98.26 "
   id="polyline3" />
<circle
   class="st1"
   cx="370.45"
   cy="69.04"
   r="6.24"
   id="circle3" />
<polyline
   class="st2"
   points="269.12,160 180.88,160 225,115.88 225,204.12 "
   id="polyline4" />
<circle
   class="st1"
   cx="239.93"
   cy="174.9"
   r="6.24"
   id="circle4" />
<polyline
   class="st2"
   points="138.31,265.86 50.07,265.86 94.19,221.74 94.19,309.98 "
   id="polyline5" />
<circle
   class="st1"
   cx="109.12"
   cy="280.75"
   r="6.24"
   id="circle5" />
<circle
   class="st1"
   cx="209.93"
   cy="68.46"
   r="6.24"
   id="circle6" />
<polygon
   class="st2"
   points="224.86,10.02 180.74,54.14 268.98,54.14 224.86,98.26 "
   id="polygon6" />
<circle
   class="st1"
   cx="79.27"
   cy="174.32"
   r="6.24"
   id="circle7" />
<polygon
   class="st2"
   points="94.19,115.88 50.07,160 138.31,160 94.19,204.12 "
   id="polygon7" />
<circle
   class="st1"
   cx="370.58"
   cy="145.68"
   r="6.24"
   id="circle8" />
<polygon
   class="st2"
   points="355.66,204.12 399.78,160 311.54,160 355.66,115.88 "
   id="polygon8" />
<circle
   class="st1"
   cx="239.93"
   cy="251.54"
   r="6.24"
   id="circle9" />
<polygon
   class="st2"
   points="225,309.98 269.12,265.86 180.88,265.86 225,221.74 "
   id="polygon9" />
</svg>
