<?xml version="1.0" encoding="utf-8"?>
<!-- Generator: Adobe Illustrator 27.3.1, SVG Export Plug-In . SVG Version: 6.00 Build 0)  -->
<svg version="1.1" id="Layer_1" xmlns="http://www.w3.org/2000/svg" xmlns:xlink="http://www.w3.org/1999/xlink" x="0px" y="0px"
	 viewBox="0 0 450 320" style="enable-background:new 0 0 450 320;" xml:space="preserve">
<style type="text/css">
	.st0{fill:#A5A5A5;}
	.st1{fill:#1D191A;}
	.st2{fill:none;stroke:#1D191A;stroke-width:3.5;stroke-miterlimit:10;}
</style>
<polygon class="st0" points="95.78,49.7 72.89,10.05 50,49.7 "/>
<polygon class="st0" points="95.78,49.7 118.68,89.35 141.57,49.7 "/>
<g>
	<path class="st1" d="M116.65,13.55l20.87,36.15l-20.87,36.15H74.91L54.04,49.7l20.87-36.15H116.65 M118.68,10.05H72.89L50,49.7
		l22.89,39.65h45.78l22.89-39.65L118.68,10.05L118.68,10.05z"/>
</g>
<line class="st2" x1="73.52" y1="88.19" x2="118.02" y2="11.26"/>
<polygon class="st0" points="95.78,159.58 50,159.58 72.89,199.23 "/>
<polygon class="st0" points="95.78,159.58 141.57,159.58 118.68,119.93 "/>
<g>
	<path class="st1" d="M116.65,123.43l20.87,36.15l-20.87,36.15H74.91l-20.87-36.15l20.87-36.15H116.65 M118.68,119.93H72.89
		L50,159.58l22.89,39.65h45.78l22.89-39.65L118.68,119.93L118.68,119.93z"/>
</g>
<line class="st2" x1="118.1" y1="198.3" x2="73.72" y2="121.3"/>
<polygon class="st0" points="224.93,269.84 179.15,269.84 202.04,309.49 "/>
<polygon class="st0" points="224.93,269.84 270.72,269.84 247.83,230.19 "/>
<g>
	<path class="st1" d="M245.81,233.69l20.87,36.15l-20.87,36.15h-41.74l-20.87-36.15l20.87-36.15H245.81 M247.83,230.19h-45.78
		l-22.89,39.65l22.89,39.65h45.78l22.89-39.65L247.83,230.19L247.83,230.19z"/>
</g>
<line class="st2" x1="247.22" y1="308.51" x2="202.84" y2="231.51"/>
<polygon class="st0" points="224.93,159.58 202.04,119.93 179.15,159.58 "/>
<polygon class="st0" points="224.93,159.58 247.83,199.23 270.72,159.58 "/>
<g>
	<path class="st1" d="M245.81,123.43l20.87,36.15l-20.87,36.15h-41.74l-20.87-36.15l20.87-36.15H245.81 M247.83,119.93h-45.78
		l-22.89,39.65l22.89,39.65h45.78l22.89-39.65L247.83,119.93L247.83,119.93z"/>
</g>
<line class="st2" x1="202.49" y1="198.38" x2="246.98" y2="121.45"/>
<polygon class="st0" points="354.22,159.58 377.11,119.93 331.32,119.93 "/>
<polygon class="st0" points="354.22,159.58 331.32,199.23 377.11,199.23 "/>
<g>
	<path class="st1" d="M375.09,123.43l20.87,36.15l-20.87,36.15h-41.74l-20.87-36.15l20.87-36.15H375.09 M377.11,119.93h-45.78
		l-22.89,39.65l22.89,39.65h45.78L400,159.58L377.11,119.93L377.11,119.93z"/>
</g>
<line class="st2" x1="309.35" y1="159.55" x2="398.22" y2="159.61"/>
<polygon class="st0" points="95.92,270.3 118.81,230.65 73.02,230.65 "/>
<polygon class="st0" points="95.92,270.3 73.02,309.95 118.81,309.95 "/>
<g>
	<path class="st1" d="M116.79,234.15l20.87,36.15l-20.87,36.15H75.05L54.17,270.3l20.87-36.15H116.79 M118.81,230.65H73.02
		L50.13,270.3l22.89,39.65h45.78l22.89-39.65L118.81,230.65L118.81,230.65z"/>
</g>
<line class="st2" x1="51.23" y1="270.27" x2="140.1" y2="270.33"/>
<polygon class="st0" points="224.94,49.7 247.83,10.05 202.04,10.05 "/>
<polygon class="st0" points="224.94,49.7 202.04,89.35 247.83,89.35 "/>
<g>
	<path class="st1" d="M245.81,13.55l20.87,36.15l-20.87,36.15h-41.74L183.19,49.7l20.87-36.15H245.81 M247.83,10.05h-45.78
		L179.15,49.7l22.89,39.65h45.78l22.89-39.65L247.83,10.05L247.83,10.05z"/>
</g>
<line class="st2" x1="180.24" y1="49.66" x2="269.11" y2="49.73"/>
<polygon class="st0" points="354.08,49.7 399.87,49.7 376.98,10.05 "/>
<polygon class="st0" points="354.08,49.7 308.3,49.7 331.19,89.35 "/>
<g>
	<path class="st1" d="M374.95,13.55l20.87,36.15l-20.87,36.15h-41.74L312.34,49.7l20.87-36.15H374.95 M376.98,10.05h-45.78
		L308.3,49.7l22.89,39.65h45.78l22.89-39.65L376.98,10.05L376.98,10.05z"/>
</g>
<line class="st2" x1="331.7" y1="10.86" x2="376.08" y2="87.86"/>
<g>
	<path class="st1" d="M349.88,282.86c0-2,0.12-3.75,0.36-5.23s0.64-2.84,1.19-4.06c0.55-1.23,1.26-2.39,2.14-3.49
		c0.87-1.1,1.95-2.27,3.22-3.51c0.96-0.93,1.86-1.81,2.69-2.65c0.83-0.83,1.57-1.69,2.2-2.56c0.64-0.87,1.14-1.81,1.5-2.79
		c0.37-0.99,0.55-2.09,0.55-3.3c0-2.65-0.66-4.68-1.97-6.08c-1.31-1.4-3.24-2.09-5.78-2.09c-1.02,0-2,0.14-2.96,0.42
		s-1.82,0.73-2.58,1.35c-0.76,0.62-1.38,1.41-1.84,2.37c-0.47,0.96-0.7,2.12-0.7,3.47h-10.3c0.03-2.65,0.51-4.99,1.46-7.01
		c0.94-2.02,2.24-3.71,3.89-5.08c1.65-1.37,3.58-2.4,5.8-3.09s4.62-1.04,7.22-1.04c2.85,0,5.39,0.37,7.62,1.1s4.12,1.81,5.67,3.22
		c1.55,1.41,2.73,3.13,3.54,5.17c0.8,2.03,1.21,4.33,1.21,6.9c0,1.86-0.3,3.6-0.89,5.21c-0.59,1.61-1.38,3.12-2.37,4.53
		s-2.12,2.77-3.39,4.06c-1.27,1.3-2.58,2.58-3.94,3.85c-1.55,1.41-2.59,2.96-3.11,4.64c-0.52,1.68-0.8,3.58-0.83,5.69L349.88,282.86
		L349.88,282.86z M349.16,296.03c0-0.79,0.13-1.52,0.38-2.2c0.25-0.68,0.63-1.27,1.12-1.78s1.1-0.9,1.82-1.19
		c0.72-0.28,1.55-0.42,2.48-0.42c0.93,0,1.76,0.14,2.48,0.42s1.33,0.68,1.82,1.19c0.49,0.51,0.87,1.1,1.14,1.78
		c0.27,0.68,0.4,1.41,0.4,2.2c0,1.55-0.51,2.85-1.52,3.89c-1.02,1.04-2.45,1.57-4.32,1.57s-3.3-0.52-4.3-1.57
		C349.66,298.88,349.16,297.58,349.16,296.03z"/>
</g>
</svg>
