<?xml version="1.0" encoding="utf-8"?>
<!-- Generator: Adobe Illustrator 27.3.1, SVG Export Plug-In . SVG Version: 6.00 Build 0)  -->
<svg version="1.1" id="Layer_1" xmlns="http://www.w3.org/2000/svg" xmlns:xlink="http://www.w3.org/1999/xlink" x="0px" y="0px"
	 viewBox="0 0 450 320" style="enable-background:new 0 0 450 320;" xml:space="preserve">
<style type="text/css">
	.st0{display:none;}
	.st1{fill:#1D191A;}
</style>
<g>
	<path class="st1" d="M351.46,272.7c0-1.37,0.08-2.57,0.25-3.58s0.44-1.95,0.82-2.78c0.38-0.84,0.86-1.64,1.47-2.39
		c0.6-0.75,1.34-1.56,2.21-2.41c0.66-0.64,1.27-1.24,1.84-1.82c0.57-0.57,1.08-1.16,1.51-1.75c0.44-0.6,0.78-1.24,1.03-1.91
		c0.25-0.68,0.38-1.43,0.38-2.26c0-1.82-0.45-3.21-1.35-4.17c-0.9-0.96-2.22-1.43-3.96-1.43c-0.7,0-1.37,0.1-2.03,0.29
		s-1.25,0.5-1.77,0.93c-0.52,0.42-0.95,0.97-1.26,1.62c-0.32,0.66-0.48,1.45-0.48,2.38h-7.06c0.02-1.82,0.35-3.42,1-4.8
		c0.64-1.38,1.53-2.54,2.67-3.48c1.13-0.94,2.45-1.64,3.97-2.12c1.52-0.47,3.17-0.71,4.95-0.71c1.95,0,3.69,0.25,5.22,0.75
		c1.53,0.5,2.82,1.24,3.89,2.21c1.06,0.97,1.87,2.14,2.43,3.54c0.55,1.39,0.83,2.97,0.83,4.73c0,1.27-0.21,2.47-0.61,3.57
		c-0.4,1.1-0.95,2.14-1.62,3.1c-0.68,0.97-1.45,1.9-2.32,2.78c-0.87,0.89-1.77,1.77-2.7,2.64c-1.06,0.97-1.77,2.03-2.13,3.18
		c-0.36,1.15-0.55,2.45-0.57,3.9L351.46,272.7L351.46,272.7z M350.97,281.72c0-0.54,0.09-1.04,0.26-1.51
		c0.17-0.47,0.43-0.87,0.77-1.22c0.34-0.35,0.75-0.62,1.25-0.82c0.49-0.19,1.06-0.29,1.7-0.29s1.21,0.1,1.7,0.29
		c0.49,0.19,0.91,0.47,1.25,0.82c0.34,0.35,0.6,0.75,0.78,1.22c0.18,0.47,0.27,0.97,0.27,1.51c0,1.06-0.35,1.95-1.04,2.67
		c-0.7,0.71-1.68,1.08-2.96,1.08c-1.28,0-2.26-0.36-2.95-1.08C351.31,283.68,350.97,282.79,350.97,281.72z"/>
</g>
<g>
	<path class="st1" d="M110.1,70.43h-4.68c-0.52,0-0.96-0.13-1.29-0.39c-0.34-0.26-0.58-0.59-0.73-0.98l-2.43-6.64H87.49l-2.43,6.64
		c-0.12,0.35-0.36,0.66-0.71,0.94c-0.35,0.29-0.78,0.43-1.29,0.43h-4.7l12.78-32.54h6.19L110.1,70.43z M89.04,58.14h10.37
		l-3.96-10.82c-0.18-0.48-0.38-1.05-0.6-1.7c-0.22-0.65-0.43-1.36-0.64-2.13c-0.21,0.77-0.42,1.48-0.62,2.14
		c-0.2,0.66-0.4,1.24-0.6,1.73L89.04,58.14z"/>
</g>
<g>
	<path class="st1" d="M161.73,44.03v9.23h8.75v4.12h-8.75v9.27h-4.5v-9.27h-8.71v-4.12h8.71v-9.23H161.73z"/>
</g>
<g>
	<path class="st1" d="M213.49,70.43V37.89h11.23c2.13,0,3.95,0.2,5.46,0.61c1.51,0.41,2.74,0.98,3.71,1.73
		c0.97,0.75,1.68,1.66,2.12,2.72c0.45,1.07,0.68,2.27,0.68,3.6c0,0.77-0.11,1.5-0.34,2.19c-0.22,0.7-0.57,1.35-1.05,1.96
		s-1.07,1.16-1.8,1.65c-0.73,0.5-1.59,0.92-2.6,1.26c4.47,1.01,6.71,3.42,6.71,7.25c0,1.38-0.26,2.65-0.79,3.83
		c-0.53,1.17-1.29,2.18-2.29,3.03c-1.01,0.85-2.24,1.51-3.71,1.99c-1.47,0.48-3.15,0.72-5.04,0.72H213.49z M219.54,51.98h4.84
		c2.05,0,3.62-0.37,4.68-1.12c1.06-0.75,1.6-1.94,1.6-3.58c0-1.69-0.48-2.9-1.44-3.62c-0.96-0.72-2.46-1.08-4.5-1.08h-5.18V51.98z
		 M219.54,56.16v9.54h6.14c1.13,0,2.07-0.13,2.82-0.4s1.37-0.63,1.82-1.08c0.46-0.45,0.79-0.98,0.99-1.58c0.2-0.6,0.3-1.24,0.3-1.91
		c0-0.71-0.11-1.34-0.34-1.9s-0.58-1.04-1.06-1.44c-0.48-0.4-1.1-0.7-1.85-0.91c-0.75-0.21-1.66-0.31-2.72-0.31H219.54z"/>
</g>
<g>
	<path class="st1" d="M344.5,50.11c1.23,0,2.43,0.2,3.59,0.61c1.16,0.4,2.19,1.02,3.07,1.83c0.89,0.82,1.6,1.83,2.14,3.05
		c0.54,1.22,0.81,2.63,0.81,4.25c0,1.52-0.28,2.94-0.83,4.26c-0.55,1.33-1.33,2.49-2.34,3.48c-1,0.99-2.22,1.77-3.63,2.34
		c-1.42,0.57-2.98,0.85-4.69,0.85c-1.74,0-3.3-0.28-4.68-0.83s-2.56-1.33-3.53-2.33c-0.98-1-1.72-2.2-2.24-3.6
		c-0.52-1.4-0.78-2.96-0.78-4.67c0-1.53,0.31-3.1,0.93-4.71c0.62-1.61,1.59-3.29,2.89-5.03l7.76-10.42
		c0.27-0.36,0.66-0.67,1.18-0.92c0.52-0.25,1.11-0.38,1.79-0.38h4.95l-9.65,11.81c-0.21,0.26-0.41,0.5-0.6,0.72s-0.37,0.46-0.55,0.7
		c0.63-0.31,1.31-0.56,2.04-0.74C342.85,50.2,343.65,50.11,344.5,50.11z M336.72,60.21c0,0.9,0.12,1.72,0.37,2.46
		c0.25,0.74,0.62,1.38,1.1,1.9c0.49,0.53,1.09,0.93,1.81,1.23c0.72,0.29,1.55,0.44,2.5,0.44c0.88,0,1.7-0.15,2.44-0.45
		c0.74-0.3,1.38-0.72,1.91-1.26s0.95-1.17,1.25-1.9c0.3-0.73,0.45-1.52,0.45-2.37c0-0.93-0.14-1.77-0.43-2.51s-0.69-1.37-1.21-1.89
		c-0.53-0.52-1.16-0.91-1.89-1.18c-0.73-0.27-1.54-0.4-2.43-0.4s-1.69,0.15-2.41,0.45c-0.72,0.3-1.34,0.72-1.86,1.25
		s-0.92,1.16-1.19,1.89C336.85,58.59,336.72,59.37,336.72,60.21z"/>
	<path class="st1" d="M380.5,54.16c0,2.83-0.3,5.3-0.91,7.39c-0.61,2.09-1.45,3.82-2.52,5.19c-1.07,1.37-2.34,2.38-3.8,3.05
		c-1.46,0.67-3.04,1-4.74,1s-3.27-0.33-4.71-1c-1.45-0.67-2.7-1.68-3.77-3.05c-1.07-1.36-1.9-3.09-2.5-5.19
		c-0.6-2.09-0.9-4.56-0.9-7.39c0-2.85,0.3-5.32,0.9-7.4c0.6-2.08,1.43-3.81,2.5-5.18c1.06-1.36,2.32-2.38,3.77-3.05s3.02-1,4.71-1
		s3.27,0.33,4.74,1s2.73,1.68,3.8,3.05c1.07,1.37,1.91,3.09,2.52,5.18S380.5,51.31,380.5,54.16z M374.76,54.16
		c0-2.35-0.17-4.3-0.52-5.85c-0.34-1.54-0.81-2.77-1.38-3.69c-0.58-0.91-1.24-1.56-1.99-1.92c-0.75-0.37-1.53-0.55-2.34-0.55
		c-0.79,0-1.56,0.18-2.31,0.55c-0.74,0.37-1.4,1.01-1.97,1.92c-0.57,0.92-1.02,2.15-1.36,3.69c-0.34,1.55-0.51,3.5-0.51,5.85
		c0,2.35,0.17,4.31,0.51,5.85c0.34,1.54,0.79,2.78,1.36,3.69c0.57,0.92,1.23,1.56,1.97,1.92c0.74,0.37,1.51,0.55,2.31,0.55
		c0.81,0,1.59-0.18,2.34-0.55c0.75-0.37,1.41-1.01,1.99-1.92c0.58-0.91,1.04-2.15,1.38-3.69S374.76,56.51,374.76,54.16z"/>
</g>
<g>
	<path class="st1" d="M280.2,49.28h19.94v4.12H280.2V49.28z M280.2,57.2h19.94v4.14H280.2V57.2z"/>
</g>
<g>
	<path class="st1" d="M110.1,176.28h-4.68c-0.52,0-0.96-0.13-1.29-0.39c-0.34-0.26-0.58-0.59-0.73-0.98l-2.43-6.64H87.49l-2.43,6.64
		c-0.12,0.35-0.36,0.66-0.71,0.95c-0.35,0.29-0.78,0.43-1.29,0.43h-4.7l12.78-32.54h6.19L110.1,176.28z M89.04,163.99h10.37
		l-3.96-10.82c-0.18-0.48-0.38-1.05-0.6-1.7c-0.22-0.65-0.43-1.36-0.64-2.13c-0.21,0.77-0.42,1.48-0.62,2.14
		c-0.2,0.66-0.4,1.24-0.6,1.73L89.04,163.99z"/>
</g>
<g>
	<path class="st1" d="M151.6,160.37h15.85V165H151.6V160.37z"/>
</g>
<g>
	<path class="st1" d="M213.49,176.28v-32.54h11.23c2.13,0,3.95,0.2,5.46,0.61c1.51,0.41,2.74,0.98,3.71,1.73
		c0.97,0.75,1.68,1.66,2.12,2.72c0.45,1.07,0.68,2.27,0.68,3.6c0,0.77-0.11,1.5-0.34,2.19c-0.22,0.7-0.57,1.35-1.05,1.96
		s-1.07,1.16-1.8,1.65c-0.73,0.5-1.59,0.92-2.6,1.26c4.47,1.01,6.71,3.42,6.71,7.25c0,1.38-0.26,2.65-0.79,3.83
		c-0.53,1.17-1.29,2.18-2.29,3.03c-1.01,0.85-2.24,1.51-3.71,1.99c-1.47,0.48-3.15,0.72-5.04,0.72H213.49z M219.54,157.83h4.84
		c2.05,0,3.62-0.37,4.68-1.12c1.06-0.75,1.6-1.94,1.6-3.58c0-1.69-0.48-2.9-1.44-3.62c-0.96-0.72-2.46-1.08-4.5-1.08h-5.18V157.83z
		 M219.54,162.01v9.54h6.14c1.13,0,2.07-0.13,2.82-0.4c0.76-0.27,1.37-0.63,1.82-1.08c0.46-0.45,0.79-0.98,0.99-1.58
		c0.2-0.6,0.3-1.24,0.3-1.91c0-0.71-0.11-1.34-0.34-1.9s-0.58-1.04-1.06-1.44c-0.48-0.4-1.1-0.7-1.85-0.91s-1.66-0.32-2.72-0.32
		H219.54z"/>
</g>
<g>
	<path class="st1" d="M350.62,164.01h4.1v3.22c0,0.3-0.1,0.56-0.29,0.78c-0.2,0.22-0.48,0.33-0.85,0.33h-2.95v7.94h-4.86v-7.94
		h-13.73c-0.38,0-0.71-0.12-0.99-0.35c-0.29-0.23-0.47-0.52-0.54-0.87l-0.56-2.81l15.41-20.59h5.26V164.01z M345.76,153.37
		c0-0.48,0.01-1,0.04-1.55c0.03-0.55,0.08-1.13,0.16-1.73l-10.1,13.93h9.9V153.37z"/>
	<path class="st1" d="M380.5,160.01c0,2.83-0.3,5.3-0.91,7.39c-0.61,2.09-1.45,3.82-2.52,5.19c-1.07,1.37-2.34,2.38-3.8,3.05
		s-3.04,1-4.74,1s-3.27-0.33-4.71-1s-2.7-1.68-3.77-3.05c-1.07-1.36-1.9-3.09-2.5-5.19c-0.6-2.09-0.9-4.56-0.9-7.39
		c0-2.85,0.3-5.32,0.9-7.4c0.6-2.08,1.43-3.81,2.5-5.18c1.06-1.36,2.32-2.38,3.77-3.05s3.02-1,4.71-1s3.27,0.33,4.74,1
		s2.73,1.68,3.8,3.05c1.07,1.37,1.91,3.09,2.52,5.18S380.5,157.16,380.5,160.01z M374.76,160.01c0-2.35-0.17-4.3-0.52-5.85
		c-0.34-1.54-0.81-2.77-1.38-3.69c-0.58-0.91-1.24-1.56-1.99-1.92c-0.75-0.37-1.53-0.55-2.34-0.55c-0.79,0-1.56,0.18-2.31,0.55
		c-0.74,0.37-1.4,1.01-1.97,1.92c-0.57,0.92-1.02,2.15-1.36,3.69c-0.34,1.55-0.51,3.5-0.51,5.85s0.17,4.3,0.51,5.85
		c0.34,1.54,0.79,2.78,1.36,3.69c0.57,0.92,1.23,1.56,1.97,1.92c0.74,0.37,1.51,0.55,2.31,0.55c0.81,0,1.59-0.18,2.34-0.55
		s1.41-1.01,1.99-1.92s1.04-2.15,1.38-3.69S374.76,162.36,374.76,160.01z"/>
</g>
<g>
	<path class="st1" d="M280.2,155.13h19.94v4.12H280.2V155.13z M280.2,163.04h19.94v4.14H280.2V163.04z"/>
</g>
<g>
	<path class="st1" d="M110.1,282.18h-4.68c-0.52,0-0.96-0.13-1.29-0.39c-0.34-0.26-0.58-0.59-0.73-0.98l-2.43-6.64H87.49l-2.43,6.64
		c-0.12,0.34-0.36,0.66-0.71,0.94c-0.35,0.29-0.78,0.43-1.29,0.43h-4.7l12.78-32.54h6.19L110.1,282.18z M89.04,269.9h10.37
		l-3.96-10.82c-0.18-0.48-0.38-1.05-0.6-1.7c-0.22-0.65-0.43-1.36-0.64-2.13c-0.21,0.77-0.42,1.48-0.62,2.14
		c-0.2,0.66-0.4,1.24-0.6,1.73L89.04,269.9z"/>
</g>
<g>
	<path class="st1" d="M155.72,282.25c-0.13,0.35-0.31,0.65-0.52,0.9c-0.21,0.25-0.45,0.47-0.72,0.64c-0.27,0.17-0.56,0.3-0.85,0.39
		c-0.3,0.09-0.59,0.13-0.88,0.13h-2.34l13.14-33.62c0.26-0.63,0.62-1.11,1.1-1.45c0.48-0.34,1.06-0.51,1.73-0.51h2.36L155.72,282.25
		z"/>
</g>
<g>
	<path class="st1" d="M213.49,282.18v-32.54h11.23c2.13,0,3.95,0.2,5.46,0.61c1.51,0.41,2.74,0.98,3.71,1.73
		c0.97,0.75,1.68,1.66,2.12,2.72c0.45,1.07,0.68,2.27,0.68,3.6c0,0.76-0.11,1.5-0.34,2.19s-0.57,1.35-1.05,1.96s-1.07,1.16-1.8,1.65
		c-0.73,0.5-1.59,0.92-2.6,1.26c4.47,1.01,6.71,3.42,6.71,7.25c0,1.38-0.26,2.66-0.79,3.83s-1.29,2.18-2.29,3.03
		c-1.01,0.85-2.24,1.51-3.71,1.99c-1.47,0.48-3.15,0.72-5.04,0.72H213.49z M219.54,263.73h4.84c2.05,0,3.62-0.37,4.68-1.12
		c1.06-0.75,1.6-1.94,1.6-3.58c0-1.69-0.48-2.9-1.44-3.62c-0.96-0.72-2.46-1.08-4.5-1.08h-5.18V263.73z M219.54,267.92v9.54h6.14
		c1.13,0,2.07-0.13,2.82-0.41c0.76-0.27,1.37-0.63,1.82-1.08c0.46-0.45,0.79-0.97,0.99-1.58c0.2-0.6,0.3-1.24,0.3-1.91
		c0-0.71-0.11-1.34-0.34-1.9s-0.58-1.04-1.06-1.44c-0.48-0.4-1.1-0.7-1.85-0.91c-0.75-0.21-1.66-0.31-2.72-0.31H219.54z"/>
</g>
<g>
	<path class="st1" d="M280.2,259.4h19.94v4.12H280.2V259.4z M280.2,267.32h19.94v4.14H280.2V267.32z"/>
</g>
</svg>
