<?xml version="1.0" encoding="utf-8"?>
<!-- Generator: Adobe Illustrator 27.3.1, SVG Export Plug-In . SVG Version: 6.00 Build 0)  -->
<svg version="1.1" id="Layer_1" xmlns="http://www.w3.org/2000/svg" xmlns:xlink="http://www.w3.org/1999/xlink" x="0px" y="0px"
	 viewBox="0 0 120 120" style="enable-background:new 0 0 120 120;" xml:space="preserve">
<style type="text/css">
	.st0{display:none;}
	.st1{fill:#1D191A;}
	.st2{fill:#A5A5A5;stroke:#1D191A;stroke-width:0.6;stroke-miterlimit:10;}
	.st3{fill:none;stroke:#1D191A;stroke-width:0.6;stroke-miterlimit:10;}
	.st4{fill:none;stroke:#1D191A;stroke-width:0.8;stroke-miterlimit:10;}
</style>
<g>
	<path class="st1" d="M38.11,64.11h4.1v3.22c0,0.3-0.1,0.56-0.29,0.78c-0.2,0.22-0.48,0.33-0.85,0.33h-2.95v7.94h-4.86v-7.94H19.52
		c-0.38,0-0.71-0.12-0.99-0.35c-0.29-0.23-0.47-0.52-0.54-0.87l-0.56-2.81l15.41-20.59h5.26V64.11z M33.25,53.46
		c0-0.48,0.01-1,0.04-1.55c0.03-0.56,0.08-1.13,0.16-1.73l-10.1,13.93h9.9V53.46z"/>
	<path class="st1" d="M49.07,72.21h6.59V53.24c0-0.74,0.02-1.51,0.07-2.32l-4.68,3.92c-0.2,0.17-0.39,0.28-0.6,0.34
		c-0.2,0.06-0.4,0.09-0.6,0.09c-0.3,0-0.57-0.06-0.82-0.19c-0.25-0.13-0.43-0.27-0.55-0.44l-1.75-2.41l9.92-8.44h4.57v28.42h5.85
		v4.16h-18V72.21z"/>
	<path class="st1" d="M89.9,54.68v3.6l-4.27,0.04v18.04h-4.64V58.32H77.8v-3.65h3.19v-2.02c0-1.98,0.29-3.42,0.85-4.32
		c1.02-1.65,2.85-2.47,5.49-2.47c1.14,0,2.5,0.18,4.09,0.54L90.76,50c-0.9-0.15-1.74-0.22-2.52-0.22c-1.74,0-2.61,1.04-2.61,3.1v1.8
		H89.9z"/>
	<path class="st1" d="M97.73,54.63h3.83v3.65h-3.78v10.8c-0.03,1.56,0.06,2.57,0.27,3.01c0.21,0.45,0.67,0.68,1.4,0.68
		c0.6,0,1.29-0.14,2.07-0.41l0.54,3.83c-1.11,0.36-2.25,0.54-3.42,0.54c-2.55,0-4.16-0.66-4.81-1.98c-0.48-0.96-0.72-2.75-0.72-5.35
		V58.32h-2.65v-3.65h2.65v-4.9l4.64-2.75V54.63z"/>
</g>
</svg>
