<?xml version="1.0" encoding="utf-8"?>
<!-- Generator: Adobe Illustrator 27.3.1, SVG Export Plug-In . SVG Version: 6.00 Build 0)  -->
<svg version="1.1" id="Layer_1" xmlns="http://www.w3.org/2000/svg" xmlns:xlink="http://www.w3.org/1999/xlink" x="0px" y="0px"
	 viewBox="0 0 120 120" style="enable-background:new 0 0 120 120;" xml:space="preserve">
<style type="text/css">
	.st0{display:none;}
	.st1{fill:#1D191A;}
	.st2{fill:#A5A5A5;stroke:#1D191A;stroke-width:0.6;stroke-miterlimit:10;}
	.st3{fill:none;stroke:#1D191A;stroke-width:0.6;stroke-miterlimit:10;}
	.st4{fill:none;stroke:#1D191A;stroke-width:0.8;stroke-miterlimit:10;}
</style>
<g>
	<path class="st1" d="M38.11,64.11h4.1v3.22c0,0.3-0.1,0.56-0.29,0.78c-0.2,0.22-0.48,0.33-0.85,0.33h-2.95v7.94h-4.86v-7.94H19.52
		c-0.38,0-0.71-0.12-0.99-0.35c-0.29-0.23-0.47-0.52-0.54-0.87l-0.56-2.81l15.41-20.59h5.26V64.11z M33.25,53.46
		c0-0.48,0.01-1,0.04-1.55c0.03-0.56,0.08-1.13,0.16-1.73l-10.1,13.93h9.9V53.46z"/>
	<path class="st1" d="M56.56,43.47c1.5,0,2.87,0.22,4.12,0.66s2.31,1.07,3.2,1.88c0.88,0.81,1.58,1.79,2.07,2.92
		c0.49,1.14,0.74,2.41,0.74,3.8c0,1.2-0.18,2.31-0.53,3.33c-0.35,1.02-0.83,2-1.42,2.92c-0.59,0.93-1.29,1.83-2.08,2.7
		c-0.8,0.87-1.63,1.75-2.5,2.66l-7.33,7.49c0.72-0.21,1.42-0.37,2.11-0.48c0.69-0.11,1.35-0.17,1.98-0.17h8.35
		c0.6,0,1.08,0.17,1.43,0.51c0.35,0.34,0.53,0.78,0.53,1.34v3.33H44.9v-1.84c0-0.38,0.08-0.77,0.24-1.17
		c0.16-0.41,0.41-0.78,0.75-1.12l9.88-9.9c0.82-0.84,1.56-1.64,2.22-2.41c0.65-0.77,1.2-1.52,1.64-2.27s0.78-1.51,1.01-2.28
		c0.23-0.77,0.35-1.59,0.35-2.44c0-0.78-0.11-1.47-0.34-2.06c-0.23-0.59-0.55-1.09-0.97-1.5s-0.92-0.71-1.5-0.91
		c-0.58-0.2-1.23-0.3-1.95-0.3c-1.34,0-2.43,0.34-3.3,1.01c-0.86,0.67-1.47,1.58-1.81,2.72c-0.17,0.57-0.41,0.98-0.74,1.23
		c-0.33,0.25-0.75,0.37-1.26,0.37c-0.23,0-0.47-0.02-0.74-0.07l-2.92-0.52c0.23-1.56,0.66-2.93,1.3-4.11
		c0.65-1.18,1.45-2.16,2.42-2.95c0.97-0.79,2.08-1.38,3.33-1.78C53.77,43.67,55.12,43.47,56.56,43.47z"/>
	<path class="st1" d="M89.9,54.68v3.6l-4.27,0.04v18.04h-4.64V58.32H77.8v-3.65h3.19v-2.02c0-1.98,0.29-3.42,0.86-4.32
		c1.02-1.65,2.85-2.47,5.49-2.47c1.14,0,2.5,0.18,4.09,0.54L90.76,50c-0.9-0.15-1.74-0.22-2.52-0.22c-1.74,0-2.61,1.04-2.61,3.1v1.8
		H89.9z"/>
	<path class="st1" d="M97.73,54.63h3.83v3.65h-3.78v10.8c-0.03,1.56,0.06,2.57,0.27,3.01c0.21,0.45,0.67,0.68,1.4,0.68
		c0.6,0,1.29-0.14,2.07-0.41l0.54,3.83c-1.11,0.36-2.25,0.54-3.42,0.54c-2.55,0-4.16-0.66-4.81-1.98c-0.48-0.96-0.72-2.75-0.72-5.35
		V58.32h-2.65v-3.65h2.65v-4.9l4.64-2.75V54.63z"/>
</g>
</svg>
