<?xml version="1.0" encoding="utf-8"?>
<!-- Generator: Adobe Illustrator 27.3.1, SVG Export Plug-In . SVG Version: 6.00 Build 0)  -->
<svg version="1.1" id="Layer_1" xmlns="http://www.w3.org/2000/svg" xmlns:xlink="http://www.w3.org/1999/xlink" x="0px" y="0px"
	 viewBox="0 0 120 120" style="enable-background:new 0 0 120 120;" xml:space="preserve">
<style type="text/css">
	.st0{display:none;}
	.st1{fill:#1D191A;}
	.st2{fill:#A5A5A5;stroke:#1D191A;stroke-width:0.6;stroke-miterlimit:10;}
	.st3{fill:none;stroke:#1D191A;stroke-width:0.6;stroke-miterlimit:10;}
	.st4{fill:none;stroke:#1D191A;stroke-width:0.8;stroke-miterlimit:10;}
</style>
<g>
	<path class="st1" d="M38.11,64.11h4.09v3.22c0,0.3-0.1,0.56-0.29,0.78c-0.2,0.22-0.48,0.33-0.85,0.33h-2.95v7.94h-4.86v-7.94H19.52
		c-0.38,0-0.71-0.12-0.99-0.35s-0.46-0.52-0.54-0.87l-0.56-2.81l15.41-20.59h5.26V64.11z M33.25,53.46c0-0.48,0.02-1,0.04-1.55
		c0.03-0.56,0.08-1.13,0.16-1.73l-10.1,13.93h9.9V53.46z"/>
	<path class="st1" d="M57.08,43.47c1.5,0,2.85,0.21,4.06,0.64s2.24,1.02,3.09,1.78c0.86,0.76,1.51,1.65,1.97,2.67
		c0.46,1.02,0.69,2.12,0.69,3.31c0,1.04-0.12,1.95-0.35,2.73c-0.23,0.79-0.57,1.47-1.01,2.06s-0.98,1.08-1.62,1.49
		c-0.64,0.4-1.36,0.74-2.17,1.01c1.95,0.62,3.41,1.55,4.36,2.81c0.96,1.26,1.44,2.84,1.44,4.75c0,1.62-0.3,3.05-0.9,4.3
		c-0.6,1.25-1.41,2.29-2.43,3.14s-2.2,1.49-3.54,1.92c-1.34,0.44-2.76,0.65-4.26,0.65c-1.63,0-3.06-0.19-4.28-0.56
		c-1.21-0.38-2.27-0.93-3.17-1.67c-0.9-0.74-1.67-1.63-2.29-2.7s-1.17-2.29-1.62-3.69l2.45-1.01c0.42-0.18,0.85-0.27,1.28-0.27
		c0.39,0,0.74,0.08,1.05,0.25c0.31,0.17,0.54,0.41,0.71,0.72c0.27,0.53,0.57,1.04,0.89,1.55c0.32,0.51,0.71,0.96,1.16,1.36
		c0.45,0.4,0.98,0.72,1.59,0.97c0.61,0.25,1.33,0.37,2.17,0.37c0.95,0,1.77-0.15,2.48-0.46s1.29-0.71,1.77-1.2s0.83-1.05,1.06-1.65
		s0.35-1.22,0.35-1.83c0-0.78-0.08-1.49-0.25-2.13s-0.51-1.18-1.04-1.63c-0.53-0.45-1.28-0.8-2.26-1.06
		c-0.98-0.25-2.3-0.38-3.95-0.38v-3.98c1.37,0,2.5-0.12,3.4-0.36c0.9-0.24,1.62-0.57,2.15-1c0.53-0.43,0.9-0.94,1.11-1.54
		c0.21-0.6,0.31-1.26,0.31-1.98c0-1.54-0.42-2.71-1.26-3.5c-0.84-0.79-1.99-1.18-3.44-1.18c-1.32,0-2.42,0.35-3.29,1.04
		c-0.87,0.7-1.48,1.59-1.82,2.69c-0.18,0.57-0.43,0.98-0.74,1.22c-0.31,0.25-0.73,0.37-1.24,0.37c-0.24,0-0.5-0.02-0.77-0.07
		l-2.92-0.51c0.22-1.56,0.66-2.93,1.3-4.11s1.45-2.16,2.42-2.95c0.97-0.79,2.08-1.38,3.33-1.78C54.29,43.67,55.64,43.47,57.08,43.47
		z"/>
	<path class="st1" d="M89.9,54.68v3.6l-4.28,0.04v18.04h-4.63V58.32h-3.2v-3.65h3.2v-2.02c0-1.98,0.29-3.42,0.86-4.32
		c1.02-1.65,2.85-2.47,5.49-2.47c1.14,0,2.5,0.18,4.09,0.54L90.76,50c-0.9-0.15-1.74-0.22-2.52-0.22c-1.74,0-2.61,1.04-2.61,3.1v1.8
		H89.9z"/>
	<path class="st1" d="M97.73,54.63h3.82v3.65h-3.78v10.8c-0.03,1.56,0.06,2.57,0.27,3.01c0.21,0.45,0.67,0.68,1.39,0.68
		c0.6,0,1.29-0.14,2.07-0.41l0.54,3.83c-1.11,0.36-2.25,0.54-3.42,0.54c-2.55,0-4.16-0.66-4.82-1.98c-0.48-0.96-0.72-2.75-0.72-5.35
		V58.32h-2.66v-3.65h2.66v-4.9l4.64-2.75V54.63z"/>
</g>
</svg>
