<?xml version="1.0" encoding="utf-8"?>
<!-- Generator: Adobe Illustrator 27.3.1, SVG Export Plug-In . SVG Version: 6.00 Build 0)  -->
<svg version="1.1" id="Layer_1" xmlns="http://www.w3.org/2000/svg" xmlns:xlink="http://www.w3.org/1999/xlink" x="0px" y="0px"
	 viewBox="0 0 120 120" style="enable-background:new 0 0 120 120;" xml:space="preserve">
<style type="text/css">
	.st0{display:none;}
	.st1{fill:#1D191A;}
	.st2{fill:none;stroke:#1D191A;stroke-width:3;stroke-miterlimit:10;}
	.st3{fill:none;stroke:#1D191A;stroke-width:2;stroke-miterlimit:10;}
	.st4{fill:none;}
</style>
<g>
	<path class="st1" d="M48.98,55.95c1.23,0,2.43,0.2,3.59,0.61c1.16,0.41,2.19,1.02,3.07,1.83c0.89,0.82,1.6,1.83,2.14,3.05
		c0.54,1.21,0.81,2.63,0.81,4.25c0,1.52-0.28,2.94-0.83,4.26c-0.55,1.33-1.33,2.49-2.34,3.48s-2.22,1.77-3.63,2.34
		c-1.42,0.57-2.98,0.86-4.69,0.86c-1.74,0-3.3-0.28-4.68-0.83s-2.56-1.33-3.53-2.33c-0.98-1-1.72-2.2-2.24-3.6
		c-0.52-1.4-0.78-2.96-0.78-4.67c0-1.53,0.31-3.1,0.93-4.71c0.62-1.61,1.59-3.29,2.89-5.03l7.76-10.42
		c0.27-0.36,0.66-0.67,1.18-0.92s1.11-0.38,1.79-0.38h4.95l-9.65,11.81c-0.21,0.26-0.41,0.5-0.6,0.72c-0.19,0.23-0.37,0.46-0.55,0.7
		c0.63-0.32,1.31-0.56,2.04-0.74C47.33,56.04,48.12,55.95,48.98,55.95z M41.19,66.06c0,0.9,0.12,1.72,0.37,2.46
		c0.25,0.74,0.62,1.38,1.1,1.9c0.49,0.52,1.09,0.93,1.81,1.23c0.72,0.29,1.55,0.44,2.5,0.44c0.88,0,1.7-0.15,2.44-0.45
		s1.38-0.72,1.91-1.26c0.53-0.54,0.95-1.17,1.25-1.9s0.45-1.52,0.45-2.37c0-0.93-0.14-1.77-0.43-2.51
		c-0.29-0.74-0.69-1.37-1.21-1.89s-1.16-0.91-1.89-1.18c-0.73-0.27-1.54-0.41-2.43-0.41s-1.69,0.15-2.41,0.45
		c-0.72,0.3-1.34,0.72-1.86,1.25s-0.92,1.16-1.19,1.89C41.33,64.43,41.19,65.22,41.19,66.06z"/>
	<path class="st1" d="M84.97,60c0,2.83-0.3,5.3-0.91,7.39c-0.61,2.09-1.45,3.82-2.52,5.19c-1.07,1.37-2.34,2.38-3.8,3.05
		c-1.46,0.67-3.04,1-4.74,1c-1.7,0-3.27-0.33-4.71-1c-1.45-0.67-2.7-1.68-3.77-3.05c-1.07-1.36-1.9-3.09-2.5-5.19
		c-0.6-2.09-0.9-4.56-0.9-7.39c0-2.85,0.3-5.32,0.9-7.4c0.6-2.08,1.43-3.81,2.5-5.17s2.32-2.38,3.77-3.05s3.02-1,4.71-1
		c1.69,0,3.27,0.33,4.74,1s2.73,1.68,3.8,3.05c1.07,1.37,1.91,3.09,2.52,5.17C84.67,54.68,84.97,57.15,84.97,60z M79.24,60
		c0-2.35-0.17-4.3-0.52-5.85c-0.35-1.54-0.81-2.78-1.38-3.69c-0.58-0.92-1.24-1.56-1.99-1.92c-0.75-0.37-1.53-0.55-2.34-0.55
		c-0.79,0-1.56,0.18-2.31,0.55c-0.74,0.37-1.4,1.01-1.97,1.92c-0.57,0.92-1.02,2.15-1.36,3.69c-0.34,1.54-0.51,3.5-0.51,5.85
		c0,2.36,0.17,4.31,0.51,5.85c0.34,1.55,0.79,2.78,1.36,3.69c0.57,0.92,1.23,1.56,1.97,1.92c0.74,0.37,1.51,0.55,2.31,0.55
		c0.81,0,1.59-0.18,2.34-0.55c0.75-0.37,1.41-1.01,1.99-1.92c0.58-0.92,1.04-2.14,1.38-3.69C79.06,64.31,79.24,62.36,79.24,60z"/>
</g>
<g>
	<path class="st1" d="M107,12.93v94H13v-94H107 M110,9.93H10v100h100V9.93L110,9.93z"/>
</g>
<rect x="58.12" y="58.52" class="st4" width="2.65" height="0"/>
</svg>
