<?xml version="1.0" encoding="UTF-8" standalone="no"?>
<!-- Generator: Adobe Illustrator 27.3.1, SVG Export Plug-In . SVG Version: 6.00 Build 0)  -->

<svg
   version="1.1"
   id="Layer_1"
   x="0px"
   y="0px"
   viewBox="0 0 450 320"
   style="enable-background:new 0 0 450 320;"
   xml:space="preserve"
   sodipodi:docname="Q26Q.svg"
   inkscape:version="1.4 (86a8ad7, 2024-10-11)"
   xmlns:inkscape="http://www.inkscape.org/namespaces/inkscape"
   xmlns:sodipodi="http://sodipodi.sourceforge.net/DTD/sodipodi-0.dtd"
   xmlns="http://www.w3.org/2000/svg"
   xmlns:svg="http://www.w3.org/2000/svg"><defs
   id="defs36" /><sodipodi:namedview
   id="namedview36"
   pagecolor="#ffffff"
   bordercolor="#999999"
   borderopacity="1"
   inkscape:showpageshadow="2"
   inkscape:pageopacity="0"
   inkscape:pagecheckerboard="0"
   inkscape:deskcolor="#d1d1d1"
   inkscape:zoom="3.5664698"
   inkscape:cx="215.1988"
   inkscape:cy="113.69787"
   inkscape:window-width="1920"
   inkscape:window-height="1009"
   inkscape:window-x="-8"
   inkscape:window-y="-8"
   inkscape:window-maximized="1"
   inkscape:current-layer="Layer_1" />
<style
   type="text/css"
   id="style1">
	.st0{display:none;}
	.st1{fill:#1D191A;}
	.st2{fill:#A5A5A5;stroke:#1D191A;stroke-width:0.6;stroke-miterlimit:10;}
	.st3{fill:none;stroke:#1D191A;stroke-width:0.6;stroke-miterlimit:10;}
	.st4{fill:none;stroke:#1D191A;stroke-width:0.8;stroke-miterlimit:10;}
</style>
<path
   class="st2"
   d="M121.08,246.75v0.04c0,0.03,0,0.07-0.01,0.1c0.01,0.12,0,0.24-0.02,0.36c-0.01,0.14-0.03,0.27-0.07,0.41  c-0.03,0.14-0.07,0.27-0.11,0.41c-1.38,4.5-10.03,8.32-22.12,10.21c-5.25,0.83-11.16,1.29-17.41,1.29s-12.16-0.46-17.41-1.29  c-12.09-1.89-20.74-5.71-22.12-10.21c-0.04-0.14-0.08-0.27-0.11-0.41c-0.04-0.14-0.06-0.27-0.07-0.41  c-0.02-0.12-0.03-0.24-0.02-0.36c-0.01-0.03-0.01-0.07-0.01-0.1v-0.04c0-0.03,0-0.07,0.01-0.1c-0.01-0.12,0-0.24,0.02-0.36  c0.01-0.14,0.03-0.27,0.07-0.41c0.03-0.14,0.07-0.27,0.11-0.41c1.38-4.5,10.03-8.32,22.12-10.21c5.25-0.83,11.16-1.29,17.41-1.29  s12.16,0.46,17.41,1.29c12.09,1.89,20.74,5.71,22.12,10.21c0.04,0.14,0.08,0.27,0.11,0.41c0.04,0.14,0.06,0.27,0.07,0.41  c0.02,0.12,0.03,0.24,0.02,0.36C121.08,246.68,121.08,246.72,121.08,246.75z"
   id="path1" />
<path
   class="st2"
   d="M121.08,246.79v22.99c0,7.05-17.79,12.78-39.74,12.78c-21.95,0-39.74-5.73-39.74-12.78v-22.99  c0,0.03,0,0.07,0.01,0.1c-0.01,0.12,0,0.24,0.02,0.36c0.01,0.14,0.03,0.27,0.07,0.41c0.02,0.14,0.06,0.27,0.11,0.41  c1.38,4.5,10.03,8.32,22.12,10.21c5.25,0.83,11.16,1.29,17.41,1.29s12.16-0.46,17.41-1.29c12.09-1.89,20.74-5.71,22.12-10.21  c0.05-0.14,0.09-0.27,0.11-0.41c0.04-0.14,0.06-0.27,0.07-0.41c0.02-0.12,0.03-0.24,0.02-0.36  C121.08,246.86,121.08,246.82,121.08,246.79z"
   id="path2" />
<g
   id="g7">
	<path
   class="st2"
   d="M264.74,246.79c0,5.05-9.11,9.42-22.33,11.49c-5.25,0.83-11.16,1.29-17.41,1.29s-12.16-0.46-17.41-1.29   c-13.22-2.07-22.33-6.44-22.33-11.49c0-4.74,8.03-8.88,19.96-11.08v10.19c0,3.61,8.86,6.53,19.78,6.53s19.78-2.92,19.78-6.53   v-10.19C256.71,237.91,264.74,242.05,264.74,246.79z"
   id="path3" />
	<path
   class="st2"
   d="M264.74,246.79v22.99c0,7.05-17.79,12.78-39.74,12.78s-39.74-5.73-39.74-12.78v-22.99   c0,5.05,9.11,9.42,22.33,11.49c5.25,0.83,11.16,1.29,17.41,1.29s12.16-0.46,17.41-1.29C255.63,256.21,264.74,251.84,264.74,246.79z   "
   id="path4" />
	<g
   id="g6">
		<path
   class="st2"
   d="M244.78,194.25v51.65c0,3.61-8.86,6.53-19.78,6.53s-19.78-2.92-19.78-6.53v-51.65    c0,3.61,8.86,6.53,19.78,6.53S244.78,197.86,244.78,194.25z"
   id="path5" />
		<g
   id="g5">
			<ellipse
   class="st2"
   cx="225"
   cy="194.25"
   rx="19.78"
   ry="6.53"
   id="ellipse5" />
		</g>
	</g>
</g>
<g
   id="g9">
	<path
   class="st2"
   d="M378.39,218.15v51.65c0,3.61-8.86,6.53-19.78,6.53c-10.92,0-19.78-2.92-19.78-6.53v-51.65   c0,3.61,8.86,6.53,19.78,6.53C369.53,224.68,378.39,221.76,378.39,218.15z"
   id="path7" />
	<g
   id="g8">
		<ellipse
   class="st2"
   cx="358.61"
   cy="218.15"
   rx="19.78"
   ry="6.53"
   id="ellipse7" />
	</g>
</g>
<path
   class="st2"
   d="M93.25,238.44l-2.66-7.28l-9.25-25.29l-9.24,25.29l-2.66,7.28l-2.7,7.38c2.67,2.14,8.21,3.61,14.6,3.61  c6.4,0,11.94-1.47,14.61-3.61L93.25,238.44z"
   id="path9" />
<path
   class="st2"
   d="M370.51,210.69l-2.66-7.28l-9.25-25.29l-9.24,25.29l-2.66,7.28l-2.7,7.38c2.67,2.14,8.21,3.61,14.6,3.61  c6.4,0,11.94-1.47,14.61-3.61L370.51,210.69z"
   id="path10" />
<line
   class="st3"
   x1="128.55"
   y1="274.0899"
   x2="128.55"
   y2="204.61032"
   id="line10" />
<line
   class="st4"
   x1="130.78"
   y1="273.76746"
   x2="126.32"
   y2="273.76746"
   id="line11" />
<line
   class="st4"
   x1="130.78"
   y1="204.89999"
   x2="126.32"
   y2="204.89999"
   id="line12" />
<line
   class="st3"
   x1="271.98999"
   y1="273.76349"
   x2="271.98999"
   y2="191.96994"
   id="line13" />
<line
   class="st4"
   x1="274.22"
   y1="273.92218"
   x2="269.76001"
   y2="273.92218"
   id="line14" />
<line
   class="st4"
   x1="274.22"
   y1="191.92036"
   x2="269.76001"
   y2="191.92036"
   id="line15" />
<g
   id="g19">
	<path
   class="st2"
   d="M264.74,124.23c0,5.05-9.11,9.42-22.33,11.49c-5.25,0.83-11.16,1.29-17.41,1.29s-12.16-0.46-17.41-1.29   c-13.22-2.07-22.33-6.44-22.33-11.49c0-4.74,8.03-8.88,19.96-11.08v10.19c0,3.61,8.86,6.53,19.78,6.53s19.78-2.92,19.78-6.53   v-10.19C256.71,115.35,264.74,119.49,264.74,124.23z"
   id="path15" />
	<path
   class="st2"
   d="M264.74,124.23v22.99c0,7.05-17.79,12.78-39.74,12.78s-39.74-5.73-39.74-12.78v-22.99   c0,5.05,9.11,9.42,22.33,11.49c5.25,0.83,11.16,1.29,17.41,1.29s12.16-0.46,17.41-1.29C255.63,133.65,264.74,129.28,264.74,124.23z   "
   id="path16" />
	<g
   id="g18">
		<path
   class="st2"
   d="M244.78,71.69v51.65c0,3.61-8.86,6.53-19.78,6.53s-19.78-2.92-19.78-6.53V71.69c0,3.61,8.86,6.53,19.78,6.53    S244.78,75.3,244.78,71.69z"
   id="path17" />
		<g
   id="g17">
			<ellipse
   class="st2"
   cx="225"
   cy="71.69"
   rx="19.78"
   ry="6.53"
   id="ellipse17" />
		</g>
	</g>
	<path
   class="st2"
   d="M236.9,65.03l-2.66-7.28L225,32.46l-9.24,25.29l-2.66,7.28l-2.7,7.38c2.67,2.14,8.21,3.61,14.6,3.61   c6.4,0,11.94-1.47,14.61-3.61L236.9,65.03z"
   id="path18" />
</g>
<line
   class="st3"
   x1="271.98999"
   y1="151.60001"
   x2="271.98999"
   y2="31.207321"
   id="line19" />
<line
   class="st4"
   x1="274.22"
   y1="151.617"
   x2="269.76001"
   y2="151.617"
   id="line20" />
<line
   class="st4"
   x1="274.22"
   y1="31.253365"
   x2="269.76001"
   y2="31.253365"
   id="line21" />
<line
   class="st3"
   x1="386.23999"
   y1="272.66272"
   x2="386.23999"
   y2="177.13864"
   id="line22" />
<line
   class="st4"
   x1="388.48001"
   y1="272.54553"
   x2="384.01001"
   y2="272.54553"
   id="line23" />
<line
   class="st4"
   x1="388.48001"
   y1="177.19171"
   x2="384.01001"
   y2="177.19171"
   id="line24" />
<g
   id="g27"
   transform="translate(1.1895911)">
	<path
   class="st1"
   d="m 135.81,234.06 c 0.47,0 0.89,0.07 1.28,0.21 0.39,0.14 0.72,0.33 0.99,0.58 0.27,0.25 0.49,0.55 0.64,0.91 0.15,0.36 0.23,0.75 0.23,1.18 0,0.37 -0.05,0.72 -0.16,1.04 -0.11,0.32 -0.26,0.62 -0.44,0.91 -0.18,0.29 -0.4,0.57 -0.65,0.84 -0.25,0.27 -0.51,0.55 -0.78,0.83 l -2.28,2.33 c 0.22,-0.06 0.44,-0.12 0.66,-0.15 0.21,-0.03 0.42,-0.05 0.62,-0.05 h 2.6 c 0.19,0 0.33,0.05 0.44,0.16 0.11,0.1 0.16,0.24 0.16,0.42 v 1.04 h -6.94 v -0.57 c 0,-0.12 0.02,-0.24 0.07,-0.36 0.05,-0.13 0.13,-0.24 0.23,-0.35 l 3.07,-3.08 c 0.26,-0.26 0.49,-0.51 0.69,-0.75 0.2,-0.24 0.37,-0.47 0.51,-0.71 0.14,-0.23 0.24,-0.47 0.31,-0.71 0.07,-0.24 0.11,-0.49 0.11,-0.76 0,-0.24 -0.03,-0.46 -0.1,-0.64 -0.07,-0.18 -0.17,-0.34 -0.3,-0.46 -0.13,-0.13 -0.29,-0.22 -0.47,-0.28 -0.18,-0.06 -0.38,-0.09 -0.61,-0.09 -0.42,0 -0.76,0.1 -1.03,0.31 -0.27,0.21 -0.46,0.49 -0.56,0.85 -0.05,0.18 -0.13,0.3 -0.23,0.38 -0.1,0.08 -0.23,0.12 -0.39,0.12 -0.07,0 -0.15,-0.01 -0.23,-0.02 l -0.91,-0.16 c 0.07,-0.49 0.21,-0.91 0.41,-1.28 0.2,-0.37 0.45,-0.67 0.75,-0.92 0.3,-0.25 0.65,-0.43 1.04,-0.55 0.4,-0.16 0.82,-0.22 1.27,-0.22 z"
   id="path24" />
	<path
   class="st1"
   d="m 143.93,234.06 c 0.47,0 0.89,0.07 1.28,0.21 0.39,0.14 0.72,0.33 0.99,0.58 0.27,0.25 0.49,0.55 0.64,0.91 0.15,0.36 0.23,0.75 0.23,1.18 0,0.37 -0.05,0.72 -0.16,1.04 -0.11,0.32 -0.26,0.62 -0.44,0.91 -0.18,0.29 -0.4,0.57 -0.65,0.84 -0.25,0.27 -0.51,0.55 -0.78,0.83 l -2.28,2.33 c 0.22,-0.06 0.44,-0.12 0.66,-0.15 0.21,-0.03 0.42,-0.05 0.62,-0.05 h 2.6 c 0.19,0 0.33,0.05 0.44,0.16 0.11,0.1 0.16,0.24 0.16,0.42 v 1.04 h -6.94 v -0.57 c 0,-0.12 0.02,-0.24 0.07,-0.36 0.05,-0.13 0.13,-0.24 0.23,-0.35 l 3.07,-3.08 c 0.26,-0.26 0.49,-0.51 0.69,-0.75 0.2,-0.24 0.37,-0.47 0.51,-0.71 0.14,-0.23 0.24,-0.47 0.31,-0.71 0.07,-0.24 0.11,-0.49 0.11,-0.76 0,-0.24 -0.03,-0.46 -0.1,-0.64 -0.07,-0.18 -0.17,-0.34 -0.3,-0.46 -0.13,-0.13 -0.29,-0.22 -0.47,-0.28 -0.18,-0.06 -0.38,-0.09 -0.61,-0.09 -0.42,0 -0.76,0.1 -1.03,0.31 -0.27,0.21 -0.46,0.49 -0.56,0.85 -0.05,0.18 -0.13,0.3 -0.23,0.38 -0.1,0.08 -0.23,0.12 -0.39,0.12 -0.07,0 -0.15,-0.01 -0.23,-0.02 l -0.91,-0.16 c 0.07,-0.49 0.21,-0.91 0.41,-1.28 0.2,-0.37 0.45,-0.67 0.75,-0.92 0.3,-0.25 0.65,-0.43 1.04,-0.55 0.4,-0.16 0.82,-0.22 1.27,-0.22 z"
   id="path25" />
	<path
   class="st1"
   d="m 154.3,237.54 v 1.12 l -1.33,0.01 v 5.61 h -1.44 v -5.61 h -0.99 v -1.13 h 0.99 v -0.63 c 0,-0.62 0.09,-1.06 0.27,-1.34 0.32,-0.51 0.89,-0.77 1.71,-0.77 0.35,0 0.78,0.06 1.27,0.17 l -0.21,1.12 c -0.28,-0.05 -0.54,-0.07 -0.78,-0.07 -0.54,0 -0.81,0.32 -0.81,0.97 v 0.56 h 1.32 z"
   id="path26" />
	<path
   class="st1"
   d="m 156.74,237.53 h 1.19 v 1.13 h -1.18 v 3.36 c -0.01,0.49 0.02,0.8 0.08,0.94 0.06,0.14 0.21,0.21 0.43,0.21 0.19,0 0.4,-0.04 0.64,-0.13 l 0.17,1.19 c -0.35,0.11 -0.7,0.17 -1.06,0.17 -0.79,0 -1.29,-0.21 -1.5,-0.62 -0.15,-0.3 -0.22,-0.85 -0.22,-1.67 v -3.44 h -0.83 v -1.13 h 0.83 v -1.53 l 1.44,-0.85 v 2.37 z"
   id="path27" />
</g>
<g
   id="g31"
   transform="translate(0.79306074)">
	<path
   class="st1"
   d="m 279.49,228.25 c 0.47,0 0.89,0.07 1.28,0.21 0.39,0.14 0.72,0.33 0.99,0.58 0.27,0.25 0.49,0.56 0.64,0.91 0.15,0.35 0.23,0.75 0.23,1.18 0,0.37 -0.05,0.72 -0.16,1.04 -0.11,0.32 -0.26,0.62 -0.44,0.91 -0.18,0.29 -0.4,0.57 -0.65,0.84 -0.25,0.27 -0.51,0.55 -0.78,0.83 l -2.28,2.33 c 0.22,-0.07 0.44,-0.12 0.66,-0.15 0.22,-0.03 0.42,-0.05 0.62,-0.05 h 2.6 c 0.19,0 0.33,0.05 0.45,0.16 0.11,0.11 0.16,0.24 0.16,0.42 v 1.04 h -6.94 v -0.57 c 0,-0.12 0.02,-0.24 0.07,-0.36 0.05,-0.13 0.13,-0.24 0.23,-0.35 l 3.07,-3.08 c 0.26,-0.26 0.49,-0.51 0.69,-0.75 0.2,-0.24 0.37,-0.47 0.51,-0.71 0.14,-0.24 0.24,-0.47 0.31,-0.71 0.07,-0.24 0.11,-0.49 0.11,-0.76 0,-0.24 -0.03,-0.46 -0.1,-0.64 -0.07,-0.18 -0.17,-0.34 -0.3,-0.47 -0.13,-0.13 -0.29,-0.22 -0.47,-0.28 -0.18,-0.06 -0.38,-0.09 -0.61,-0.09 -0.42,0 -0.76,0.11 -1.03,0.32 -0.27,0.21 -0.46,0.49 -0.56,0.85 -0.05,0.18 -0.13,0.3 -0.23,0.38 -0.1,0.08 -0.23,0.12 -0.39,0.12 -0.07,0 -0.15,-0.01 -0.23,-0.02 l -0.91,-0.16 c 0.07,-0.49 0.21,-0.91 0.41,-1.28 0.2,-0.37 0.45,-0.67 0.75,-0.92 0.3,-0.25 0.65,-0.43 1.04,-0.55 0.4,-0.16 0.81,-0.22 1.26,-0.22 z"
   id="path28" />
	<path
   class="st1"
   d="m 290.32,229.1 c 0,0.25 -0.08,0.45 -0.23,0.6 -0.15,0.15 -0.42,0.23 -0.78,0.23 h -2.79 l -0.36,2.11 c 0.46,-0.09 0.88,-0.14 1.25,-0.14 0.53,0 1,0.08 1.4,0.24 0.4,0.16 0.74,0.38 1.02,0.66 0.28,0.28 0.48,0.61 0.62,0.98 0.14,0.38 0.21,0.78 0.21,1.21 0,0.54 -0.09,1.03 -0.28,1.47 -0.19,0.44 -0.45,0.82 -0.79,1.14 -0.34,0.32 -0.73,0.56 -1.19,0.73 -0.46,0.17 -0.96,0.26 -1.5,0.26 -0.32,0 -0.62,-0.03 -0.9,-0.1 -0.28,-0.07 -0.55,-0.15 -0.8,-0.26 -0.25,-0.11 -0.48,-0.24 -0.69,-0.38 -0.21,-0.14 -0.4,-0.29 -0.57,-0.45 l 0.53,-0.74 c 0.11,-0.16 0.26,-0.24 0.45,-0.24 0.12,0 0.23,0.04 0.35,0.11 0.12,0.08 0.26,0.16 0.42,0.25 0.16,0.09 0.34,0.17 0.55,0.25 0.21,0.08 0.46,0.11 0.76,0.11 0.32,0 0.6,-0.05 0.84,-0.15 0.24,-0.1 0.44,-0.25 0.61,-0.43 0.17,-0.18 0.28,-0.4 0.36,-0.66 0.08,-0.25 0.12,-0.53 0.12,-0.83 0,-0.55 -0.16,-0.98 -0.48,-1.29 -0.32,-0.31 -0.79,-0.46 -1.41,-0.46 -0.49,0 -0.98,0.09 -1.48,0.27 l -1.08,-0.31 0.84,-4.91 h 5 v 0.73 z"
   id="path29" />
	<path
   class="st1"
   d="m 297.99,231.74 v 1.12 l -1.33,0.01 v 5.61 h -1.44 v -5.61 h -0.99 v -1.13 h 0.99 v -0.63 c 0,-0.62 0.09,-1.06 0.27,-1.34 0.32,-0.51 0.89,-0.77 1.71,-0.77 0.35,0 0.78,0.06 1.27,0.17 l -0.21,1.12 c -0.28,-0.05 -0.54,-0.07 -0.78,-0.07 -0.54,0 -0.81,0.32 -0.81,0.97 v 0.56 h 1.32 z"
   id="path30" />
	<path
   class="st1"
   d="m 300.42,231.72 h 1.19 v 1.13 h -1.18 v 3.36 c -0.01,0.49 0.02,0.8 0.08,0.94 0.07,0.14 0.21,0.21 0.43,0.21 0.19,0 0.4,-0.04 0.64,-0.13 l 0.17,1.19 c -0.35,0.11 -0.7,0.17 -1.06,0.17 -0.79,0 -1.29,-0.21 -1.5,-0.62 -0.15,-0.3 -0.22,-0.85 -0.22,-1.67 v -3.44 h -0.83 v -1.13 h 0.83 v -1.53 l 1.44,-0.85 v 2.37 z"
   id="path31" />
</g>
<g
   id="g35">
	<path
   class="st1"
   d="M394.56,219.19c0.47,0,0.89,0.07,1.26,0.2c0.38,0.13,0.7,0.32,0.96,0.55c0.27,0.24,0.47,0.51,0.61,0.83   c0.14,0.32,0.21,0.66,0.21,1.03c0,0.32-0.04,0.61-0.11,0.85s-0.18,0.46-0.32,0.64s-0.31,0.34-0.5,0.46s-0.42,0.23-0.67,0.32   c0.61,0.19,1.06,0.48,1.36,0.88c0.3,0.39,0.45,0.88,0.45,1.48c0,0.5-0.09,0.95-0.28,1.34c-0.19,0.39-0.44,0.71-0.76,0.98   s-0.68,0.46-1.1,0.6c-0.42,0.14-0.86,0.2-1.33,0.2c-0.51,0-0.95-0.06-1.33-0.17c-0.38-0.12-0.71-0.29-0.99-0.52   s-0.52-0.51-0.71-0.84c-0.2-0.33-0.36-0.71-0.5-1.15l0.76-0.32c0.13-0.06,0.26-0.08,0.4-0.08c0.12,0,0.23,0.03,0.33,0.08   s0.17,0.13,0.22,0.22c0.08,0.16,0.18,0.32,0.28,0.48c0.1,0.16,0.22,0.3,0.36,0.42c0.14,0.12,0.3,0.22,0.49,0.3   c0.19,0.08,0.42,0.12,0.68,0.12c0.29,0,0.55-0.05,0.77-0.14c0.22-0.1,0.4-0.22,0.55-0.37c0.15-0.15,0.26-0.33,0.33-0.51   c0.07-0.19,0.11-0.38,0.11-0.57c0-0.24-0.03-0.46-0.08-0.66c-0.05-0.2-0.16-0.37-0.32-0.51c-0.16-0.14-0.4-0.25-0.7-0.33   c-0.31-0.08-0.71-0.12-1.23-0.12v-1.24c0.42,0,0.78-0.04,1.06-0.11c0.28-0.07,0.5-0.18,0.67-0.31c0.17-0.13,0.28-0.29,0.35-0.48   s0.1-0.39,0.1-0.62c0-0.48-0.13-0.84-0.39-1.09s-0.62-0.37-1.07-0.37c-0.41,0-0.75,0.11-1.02,0.33s-0.46,0.5-0.57,0.83   c-0.06,0.18-0.13,0.3-0.23,0.38c-0.1,0.08-0.23,0.12-0.39,0.12c-0.07,0-0.15-0.01-0.24-0.02l-0.91-0.16   c0.07-0.49,0.21-0.91,0.41-1.28c0.2-0.37,0.45-0.67,0.75-0.92s0.65-0.43,1.04-0.55C393.69,219.25,394.11,219.19,394.56,219.19z"
   id="path32" />
	<path
   class="st1"
   d="M402.67,219.19c0.47,0,0.89,0.07,1.26,0.2s0.7,0.32,0.96,0.55c0.27,0.24,0.47,0.51,0.61,0.83   s0.21,0.66,0.21,1.03c0,0.32-0.04,0.61-0.11,0.85s-0.18,0.46-0.31,0.64s-0.31,0.34-0.5,0.46s-0.42,0.23-0.68,0.32   c0.61,0.19,1.06,0.48,1.36,0.88c0.3,0.39,0.45,0.88,0.45,1.48c0,0.5-0.09,0.95-0.28,1.34c-0.19,0.39-0.44,0.71-0.76,0.98   c-0.32,0.26-0.69,0.46-1.1,0.6c-0.42,0.14-0.86,0.2-1.33,0.2c-0.51,0-0.95-0.06-1.33-0.17c-0.38-0.12-0.71-0.29-0.99-0.52   c-0.28-0.23-0.52-0.51-0.71-0.84c-0.2-0.33-0.36-0.71-0.5-1.15l0.76-0.32c0.13-0.06,0.26-0.08,0.4-0.08c0.12,0,0.23,0.03,0.33,0.08   c0.09,0.05,0.17,0.13,0.22,0.22c0.08,0.16,0.18,0.32,0.28,0.48c0.1,0.16,0.22,0.3,0.36,0.42c0.14,0.12,0.3,0.22,0.49,0.3   s0.41,0.12,0.68,0.12c0.29,0,0.55-0.05,0.77-0.14c0.22-0.1,0.4-0.22,0.55-0.37c0.15-0.15,0.26-0.33,0.33-0.51   c0.07-0.19,0.11-0.38,0.11-0.57c0-0.24-0.03-0.46-0.08-0.66s-0.16-0.37-0.32-0.51c-0.16-0.14-0.4-0.25-0.7-0.33   c-0.31-0.08-0.71-0.12-1.23-0.12v-1.24c0.42,0,0.78-0.04,1.06-0.11c0.28-0.07,0.5-0.18,0.67-0.31c0.17-0.13,0.28-0.29,0.35-0.48   s0.1-0.39,0.1-0.62c0-0.48-0.13-0.84-0.39-1.09c-0.26-0.25-0.62-0.37-1.07-0.37c-0.41,0-0.75,0.11-1.02,0.33s-0.46,0.5-0.57,0.83   c-0.06,0.18-0.13,0.3-0.23,0.38c-0.1,0.08-0.23,0.12-0.38,0.12c-0.08,0-0.15-0.01-0.24-0.02l-0.91-0.16   c0.07-0.49,0.21-0.91,0.41-1.28c0.2-0.37,0.45-0.67,0.75-0.92s0.65-0.43,1.04-0.55C401.81,219.25,402.23,219.19,402.67,219.19z"
   id="path33" />
	<path
   class="st1"
   d="M412.89,222.67v1.12l-1.33,0.01v5.61h-1.44v-5.61h-0.99v-1.13h0.99v-0.63c0-0.62,0.09-1.06,0.27-1.34   c0.32-0.51,0.89-0.77,1.71-0.77c0.36,0,0.78,0.06,1.27,0.17l-0.21,1.12c-0.28-0.05-0.54-0.07-0.78-0.07   c-0.54,0-0.81,0.32-0.81,0.97v0.56H412.89z"
   id="path34" />
	<path
   class="st1"
   d="M415.32,222.66h1.19v1.13h-1.18v3.36c-0.01,0.49,0.02,0.8,0.08,0.94c0.06,0.14,0.21,0.21,0.43,0.21   c0.19,0,0.4-0.04,0.64-0.13l0.17,1.19c-0.34,0.11-0.7,0.17-1.06,0.17c-0.79,0-1.29-0.21-1.5-0.62c-0.15-0.3-0.22-0.85-0.22-1.67   v-3.44h-0.83v-1.13h0.83v-1.53l1.44-0.85V222.66z"
   id="path35" />
</g>
<g
   id="g36"
   transform="translate(0,5.0470075)">
	<path
   class="st1"
   d="m 290.27,97.96 c 0,-0.92 0.06,-1.73 0.17,-2.41 0.11,-0.68 0.29,-1.31 0.55,-1.87 0.25,-0.57 0.58,-1.1 0.99,-1.61 0.4,-0.51 0.9,-1.05 1.48,-1.62 0.44,-0.43 0.86,-0.83 1.24,-1.22 0.38,-0.38 0.72,-0.78 1.01,-1.18 0.29,-0.4 0.53,-0.83 0.69,-1.29 0.17,-0.46 0.25,-0.96 0.25,-1.52 0,-1.22 -0.3,-2.16 -0.91,-2.8 -0.6,-0.65 -1.49,-0.96 -2.66,-0.96 -0.47,0 -0.92,0.06 -1.36,0.19 -0.44,0.13 -0.84,0.34 -1.19,0.62 -0.35,0.28 -0.64,0.65 -0.85,1.09 -0.22,0.44 -0.32,0.98 -0.32,1.6 h -4.75 c 0.01,-1.22 0.24,-2.3 0.67,-3.23 0.43,-0.93 1.03,-1.71 1.79,-2.34 0.76,-0.63 1.65,-1.11 2.67,-1.42 1.02,-0.32 2.13,-0.48 3.33,-0.48 1.31,0 2.48,0.17 3.51,0.51 1.03,0.34 1.9,0.83 2.61,1.48 0.71,0.65 1.26,1.44 1.63,2.38 0.37,0.94 0.56,2 0.56,3.18 0,0.86 -0.14,1.66 -0.41,2.4 -0.27,0.74 -0.64,1.44 -1.09,2.09 -0.46,0.65 -0.98,1.28 -1.56,1.87 -0.59,0.6 -1.19,1.19 -1.82,1.77 -0.71,0.65 -1.19,1.36 -1.43,2.14 -0.24,0.77 -0.37,1.65 -0.38,2.62 z m -0.33,6.07 c 0,-0.36 0.06,-0.7 0.18,-1.01 0.12,-0.31 0.29,-0.59 0.52,-0.82 0.23,-0.24 0.51,-0.41 0.84,-0.55 0.33,-0.13 0.71,-0.19 1.14,-0.19 0.43,0 0.81,0.06 1.14,0.19 0.33,0.13 0.61,0.31 0.84,0.55 0.23,0.24 0.4,0.51 0.53,0.82 0.13,0.31 0.18,0.65 0.18,1.01 0,0.71 -0.24,1.31 -0.7,1.79 -0.47,0.48 -1.13,0.72 -1.99,0.72 -0.86,0 -1.52,-0.24 -1.98,-0.72 -0.47,-0.48 -0.7,-1.08 -0.7,-1.79 z"
   id="path36" />
</g>
</svg>
