<?xml version="1.0" encoding="utf-8"?>
<!-- Generator: Adobe Illustrator 27.3.1, SVG Export Plug-In . SVG Version: 6.00 Build 0)  -->
<svg version="1.1" id="Layer_1" xmlns="http://www.w3.org/2000/svg" xmlns:xlink="http://www.w3.org/1999/xlink" x="0px" y="0px"
	 viewBox="0 0 450 320" style="enable-background:new 0 0 450 320;" xml:space="preserve">
<style type="text/css">
	.st0{display:none;}
	.st1{fill:#1D191A;}
	.st2{fill:none;stroke:#1D191A;stroke-width:3;stroke-miterlimit:10;}
	.st3{fill:none;stroke:#1D191A;stroke-width:2;stroke-miterlimit:10;}
</style>
<g>
	<path class="st1" d="M349.6,235.82c0-2,0.12-3.75,0.36-5.23s0.64-2.84,1.19-4.06c0.55-1.23,1.26-2.39,2.14-3.49
		c0.87-1.1,1.95-2.27,3.22-3.51c0.96-0.93,1.86-1.81,2.69-2.65c0.83-0.83,1.57-1.69,2.2-2.56c0.64-0.87,1.14-1.81,1.5-2.79
		c0.37-0.99,0.55-2.09,0.55-3.3c0-2.65-0.66-4.68-1.97-6.08c-1.31-1.4-3.24-2.09-5.78-2.09c-1.02,0-2,0.14-2.96,0.42
		s-1.82,0.73-2.58,1.35c-0.76,0.62-1.38,1.41-1.84,2.37c-0.47,0.96-0.7,2.12-0.7,3.47h-10.3c0.03-2.65,0.51-4.99,1.46-7.01
		c0.94-2.02,2.24-3.71,3.89-5.08c1.65-1.37,3.58-2.4,5.8-3.09s4.62-1.04,7.22-1.04c2.85,0,5.39,0.37,7.62,1.1s4.12,1.81,5.67,3.22
		c1.55,1.41,2.73,3.13,3.54,5.17c0.8,2.03,1.21,4.33,1.21,6.9c0,1.86-0.3,3.6-0.89,5.21c-0.59,1.61-1.38,3.12-2.37,4.53
		s-2.12,2.77-3.39,4.06c-1.27,1.3-2.58,2.58-3.94,3.85c-1.55,1.41-2.59,2.96-3.11,4.64c-0.52,1.68-0.8,3.58-0.83,5.69L349.6,235.82
		L349.6,235.82z M348.88,248.99c0-0.79,0.13-1.52,0.38-2.2c0.25-0.68,0.63-1.27,1.12-1.78s1.1-0.9,1.82-1.19
		c0.72-0.28,1.55-0.42,2.48-0.42c0.93,0,1.76,0.14,2.48,0.42s1.33,0.68,1.82,1.19c0.49,0.51,0.87,1.1,1.14,1.78
		c0.27,0.68,0.4,1.41,0.4,2.2c0,1.55-0.51,2.85-1.52,3.89c-1.02,1.04-2.45,1.57-4.32,1.57s-3.3-0.52-4.3-1.57
		C349.38,251.84,348.88,250.54,348.88,248.99z"/>
</g>
<g>
	<path class="st1" d="M138.69,52.57v89h-89v-89H138.69 M141.69,49.57h-95v95h95V49.57L141.69,49.57z"/>
</g>
<g>
	<path class="st1" d="M269.36,52.57v89h-89v-89H269.36 M272.36,49.57h-95v95h95V49.57L272.36,49.57z"/>
</g>
<g>
	<path class="st1" d="M400.3,52.57v89h-89v-89H400.3 M403.3,49.57h-95v95h95V49.57L403.3,49.57z"/>
</g>
<g>
	<path class="st1" d="M138.69,178.43v89h-89v-89H138.69 M141.69,175.43h-95v95h95V175.43L141.69,175.43z"/>
</g>
<g>
	<path class="st1" d="M269.5,178.43v89h-89v-89H269.5 M272.5,175.43h-95v95h95V175.43L272.5,175.43z"/>
</g>
<circle class="st2" cx="73.46" cy="97.07" r="18.73"/>
<circle class="st2" cx="114.93" cy="97.07" r="18.73"/>
<circle class="st2" cx="204.31" cy="97.07" r="18.73"/>
<circle class="st2" cx="245.78" cy="97.07" r="18.73"/>
<circle class="st2" cx="334.79" cy="97.07" r="18.73"/>
<circle class="st2" cx="376.26" cy="97.07" r="18.73"/>
<line class="st3" x1="73.46" y1="78.34" x2="73.46" y2="115.78"/>
<line class="st3" x1="114.93" y1="78.34" x2="114.93" y2="115.8"/>
<line class="st3" x1="204.31" y1="78.34" x2="204.31" y2="115.78"/>
<line class="st3" x1="245.78" y1="78.34" x2="245.78" y2="115.8"/>
<line class="st3" x1="223.03" y1="97.06" x2="185.59" y2="97.06"/>
<line class="st3" x1="264.51" y1="97.07" x2="227.04" y2="97.07"/>
<line class="st3" x1="334.79" y1="78.34" x2="334.79" y2="115.78"/>
<line class="st3" x1="376.26" y1="78.34" x2="376.26" y2="115.8"/>
<line class="st3" x1="353.51" y1="97.06" x2="316.07" y2="97.06"/>
<line class="st3" x1="394.99" y1="97.07" x2="357.52" y2="97.07"/>
<line class="st3" x1="348.03" y1="83.82" x2="321.56" y2="110.3"/>
<line class="st3" x1="321.56" y1="83.82" x2="348.03" y2="110.3"/>
<line class="st3" x1="389.5" y1="83.82" x2="363.01" y2="110.32"/>
<line class="st3" x1="363.01" y1="83.82" x2="389.5" y2="110.32"/>
<g>
	<path class="st1" d="M74.15,235.21h6.59v-18.97c0-0.74,0.02-1.51,0.07-2.32l-4.68,3.92c-0.2,0.17-0.39,0.28-0.6,0.34
		c-0.2,0.06-0.4,0.09-0.6,0.09c-0.3,0-0.57-0.06-0.82-0.19c-0.25-0.13-0.43-0.27-0.55-0.44l-1.75-2.41l9.92-8.44h4.57v28.42h5.85
		v4.16h-18V235.21z"/>
	<path class="st1" d="M107.74,206.47c1.5,0,2.87,0.22,4.12,0.66c1.24,0.44,2.31,1.07,3.19,1.88c0.88,0.81,1.58,1.79,2.07,2.92
		c0.49,1.14,0.74,2.41,0.74,3.8c0,1.2-0.18,2.31-0.53,3.33c-0.35,1.02-0.83,2-1.42,2.92c-0.59,0.93-1.29,1.83-2.08,2.7
		c-0.8,0.87-1.63,1.75-2.5,2.66l-7.33,7.49c0.72-0.21,1.42-0.37,2.11-0.48c0.69-0.11,1.35-0.17,1.98-0.17h8.35
		c0.6,0,1.08,0.17,1.43,0.51c0.35,0.34,0.53,0.78,0.53,1.34v3.33H96.09v-1.84c0-0.38,0.08-0.77,0.24-1.17
		c0.16-0.41,0.41-0.78,0.75-1.12l9.88-9.9c0.82-0.84,1.56-1.64,2.22-2.41c0.65-0.77,1.2-1.52,1.64-2.27s0.78-1.51,1.01-2.28
		c0.23-0.77,0.35-1.59,0.35-2.44c0-0.78-0.11-1.47-0.34-2.06c-0.23-0.59-0.55-1.09-0.97-1.5s-0.92-0.71-1.5-0.91
		c-0.58-0.2-1.23-0.3-1.95-0.3c-1.34,0-2.43,0.34-3.3,1.01c-0.86,0.67-1.47,1.58-1.81,2.72c-0.17,0.57-0.41,0.98-0.74,1.23
		c-0.33,0.25-0.75,0.37-1.26,0.37c-0.23,0-0.47-0.02-0.74-0.07l-2.92-0.52c0.23-1.56,0.66-2.93,1.3-4.11
		c0.65-1.18,1.45-2.16,2.42-2.95c0.97-0.79,2.08-1.38,3.33-1.78C104.95,206.67,106.3,206.47,107.74,206.47z"/>
</g>
<g>
	<path class="st1" d="M212.31,206.47c1.5,0,2.87,0.22,4.12,0.66c1.24,0.44,2.31,1.07,3.19,1.88c0.88,0.81,1.58,1.79,2.07,2.92
		c0.49,1.14,0.74,2.41,0.74,3.8c0,1.2-0.18,2.31-0.53,3.33c-0.35,1.02-0.83,2-1.42,2.92c-0.59,0.93-1.29,1.83-2.08,2.7
		c-0.8,0.87-1.63,1.75-2.5,2.66l-7.33,7.49c0.72-0.21,1.42-0.37,2.11-0.48c0.69-0.11,1.35-0.17,1.98-0.17h8.35
		c0.6,0,1.08,0.17,1.43,0.51c0.35,0.34,0.53,0.78,0.53,1.34v3.33h-22.32v-1.84c0-0.38,0.08-0.77,0.24-1.17
		c0.16-0.41,0.41-0.78,0.75-1.12l9.88-9.9c0.82-0.84,1.56-1.64,2.22-2.41c0.65-0.77,1.2-1.52,1.64-2.27s0.78-1.51,1.01-2.28
		c0.23-0.77,0.35-1.59,0.35-2.44c0-0.78-0.11-1.47-0.34-2.06c-0.23-0.59-0.55-1.09-0.97-1.5s-0.92-0.71-1.5-0.91
		c-0.58-0.2-1.23-0.3-1.95-0.3c-1.34,0-2.43,0.34-3.3,1.01c-0.86,0.67-1.47,1.58-1.81,2.72c-0.17,0.57-0.41,0.98-0.74,1.23
		c-0.33,0.25-0.75,0.37-1.26,0.37c-0.23,0-0.47-0.02-0.74-0.07l-2.92-0.52c0.23-1.56,0.66-2.93,1.3-4.11
		c0.65-1.18,1.45-2.16,2.42-2.95c0.97-0.79,2.08-1.38,3.33-1.78C209.52,206.67,210.87,206.47,212.31,206.47z"/>
	<path class="st1" d="M246.05,227.11h4.1v3.22c0,0.3-0.1,0.56-0.29,0.78s-0.48,0.33-0.86,0.33h-2.95v7.94h-4.86v-7.94h-13.73
		c-0.38,0-0.71-0.12-0.99-0.35c-0.29-0.23-0.47-0.52-0.54-0.87l-0.56-2.81l15.41-20.59h5.26V227.11z M241.2,216.46
		c0-0.48,0.01-1,0.04-1.55c0.03-0.56,0.08-1.13,0.16-1.73l-10.1,13.93h9.9V216.46z"/>
</g>
</svg>
