<?xml version="1.0" encoding="UTF-8" standalone="no"?>
<!-- Generator: Adobe Illustrator 27.3.1, SVG Export Plug-In . SVG Version: 6.00 Build 0)  -->

<svg
   version="1.1"
   id="Layer_1"
   x="0px"
   y="0px"
   viewBox="0 0 450 320"
   style="enable-background:new 0 0 450 320;"
   xml:space="preserve"
   sodipodi:docname="Q16Q.svg"
   inkscape:version="1.4 (86a8ad7, 2024-10-11)"
   xmlns:inkscape="http://www.inkscape.org/namespaces/inkscape"
   xmlns:sodipodi="http://sodipodi.sourceforge.net/DTD/sodipodi-0.dtd"
   xmlns="http://www.w3.org/2000/svg"
   xmlns:svg="http://www.w3.org/2000/svg"><defs
   id="defs64" /><sodipodi:namedview
   id="namedview64"
   pagecolor="#ffffff"
   bordercolor="#999999"
   borderopacity="1"
   inkscape:showpageshadow="2"
   inkscape:pageopacity="0"
   inkscape:pagecheckerboard="0"
   inkscape:deskcolor="#d1d1d1"
   inkscape:zoom="1.7832349"
   inkscape:cx="183.09422"
   inkscape:cy="137.67115"
   inkscape:window-width="1920"
   inkscape:window-height="1009"
   inkscape:window-x="-8"
   inkscape:window-y="-8"
   inkscape:window-maximized="1"
   inkscape:current-layer="g1" />
<style
   type="text/css"
   id="style1">
	.st0{fill:#58595B;}
	.st1{fill:#1D191A;}
	.st2{fill:#FFFFFF;}
	.st3{fill:#A5A5A5;}
</style>
<g
   id="g1">
	<rect
   x="51"
   y="11"
   class="st3"
   width="86.24"
   height="86.24"
   id="rect1"
   style="fill:#999999;fill-opacity:1" />
	<path
   class="st1"
   d="M136.24,12v84.24H52V12H136.24 M138.24,10H50v88.24h88.24V10L138.24,10z"
   id="path1"
   style="fill:#000000" />
<rect
   style="fill:#4d4d4d;stroke:#000000"
   id="rect65"
   width="85.452293"
   height="85.650558"
   x="313.25897"
   y="11.697645" /><rect
   style="fill:#4d4d4d;stroke:#000000"
   id="rect66"
   width="86.079514"
   height="85.658936"
   x="51.030853"
   y="117.06254" /><rect
   style="fill:#4d4d4d;stroke:#000000"
   id="rect67"
   width="86.245354"
   height="86.047089"
   x="181.80917"
   y="222.85007" /></g>
<g
   id="g2">
	<rect
   x="74.09"
   y="34.09"
   class="st2"
   width="40.05"
   height="40.05"
   id="rect2" />
	<path
   class="st1"
   d="M113.14,35.09v38.05H75.09V35.09H113.14 M115.14,33.09H73.09v42.05h42.05V33.09L115.14,33.09z"
   id="path2"
   style="fill:#000000" />
</g>
<g
   id="g3"
   transform="matrix(0.7695,0,0,0.7695,21.69466,12.47466)">
	<circle
   class="st3"
   cx="94.120003"
   cy="54.119999"
   r="3.1300001"
   id="circle2"
   style="fill:#000000" />
	<path
   class="st1"
   d="m 94.12,51.99 c 1.18,0 2.13,0.96 2.13,2.13 0,1.18 -0.96,2.13 -2.13,2.13 -1.17,0 -2.13,-0.96 -2.13,-2.13 0,-1.18 0.95,-2.13 2.13,-2.13 m 0,-2 c -2.28,0 -4.13,1.85 -4.13,4.13 0,2.28 1.85,4.13 4.13,4.13 2.28,0 4.13,-1.85 4.13,-4.13 0,-2.28 -1.85,-4.13 -4.13,-4.13 z"
   id="path3"
   style="fill:#000000" />
</g>
<g
   id="g4">
	<rect
   x="181.88"
   y="11"
   class="st0"
   width="86.24"
   height="86.24"
   id="rect3"
   style="fill:#1f8fff;fill-opacity:1" />
	<path
   class="st1"
   d="M267.12,12v84.24h-84.24V12H267.12 M269.12,10h-88.24v88.24h88.24V10L269.12,10z"
   id="path4"
   style="fill:#000000" />
</g>
<g
   id="g5">
	<rect
   x="204.97"
   y="34.09"
   class="st2"
   width="40.05"
   height="40.05"
   id="rect4" />
	<path
   class="st1"
   d="M244.03,35.09v38.05h-38.05V35.09H244.03 M246.03,33.09h-42.05v42.05h42.05V33.09L246.03,33.09z"
   id="path5"
   style="fill:#000000" />
</g>
<g
   id="g7"
   transform="matrix(0.7695,0,0,0.7695,51.840603,12.514998)">
	<path
   class="st3"
   d="m 214.52,46.34 c -1.73,0 -3.13,-1.4 -3.13,-3.13 0,-1.73 1.41,-3.13 3.13,-3.13 1.72,0 3.13,1.4 3.13,3.13 0,1.73 -1.4,3.13 -3.13,3.13 z"
   id="path6"
   style="fill:#000000" />
	<path
   class="st1"
   d="m 214.52,41.07 c 1.18,0 2.13,0.96 2.13,2.13 0,1.18 -0.96,2.13 -2.13,2.13 -1.17,0 -2.13,-0.96 -2.13,-2.13 0,-1.17 0.95,-2.13 2.13,-2.13 m 0,-2 c -2.28,0 -4.13,1.85 -4.13,4.13 0,2.28 1.85,4.13 4.13,4.13 2.28,0 4.13,-1.85 4.13,-4.13 0,-2.28 -1.85,-4.13 -4.13,-4.13 z"
   id="path7"
   style="fill:#000000" />
</g>
<g
   id="g8"
   transform="matrix(0.7695,0,0,0.7695,51.840603,12.514998)">
	<circle
   class="st3"
   cx="235.28999"
   cy="65.389999"
   r="3.1300001"
   id="circle7"
   style="fill:#000000" />
	<path
   class="st1"
   d="m 235.29,63.26 c 1.18,0 2.13,0.96 2.13,2.13 0,1.18 -0.96,2.13 -2.13,2.13 -1.17,0 -2.13,-0.96 -2.13,-2.13 -0.01,-1.17 0.95,-2.13 2.13,-2.13 m 0,-2 c -2.28,0 -4.13,1.85 -4.13,4.13 0,2.28 1.85,4.13 4.13,4.13 2.28,0 4.13,-1.85 4.13,-4.13 0,-2.28 -1.85,-4.13 -4.13,-4.13 z"
   id="path8"
   style="fill:#000000" />
</g>
<g
   id="g9">
	<path
   class="st1"
   d="M398,12v84.24h-84.24V12H398 M400,10h-88.24v88.24H400V10L400,10z"
   id="path9"
   style="fill:#000000" />
</g>
<g
   id="g10">
	<rect
   x="335.86"
   y="34.09"
   class="st2"
   width="40.05"
   height="40.05"
   id="rect9" />
	<path
   class="st1"
   d="M374.91,35.09v38.05h-38.05V35.09H374.91 M376.91,33.09h-42.05v42.05h42.05V33.09L376.91,33.09z"
   id="path10"
   style="fill:#000000" />
</g>
<g
   id="g12"
   transform="matrix(0.7695,0,0,0.7695,82.008442,12.514998)">
	<path
   class="st3"
   d="m 345.4,46.34 c -1.73,0 -3.13,-1.4 -3.13,-3.13 0,-1.73 1.41,-3.13 3.13,-3.13 1.73,0 3.13,1.4 3.13,3.13 0,1.73 -1.4,3.13 -3.13,3.13 z"
   id="path11"
   style="fill:#000000" />
	<path
   class="st1"
   d="m 345.4,41.07 c 1.18,0 2.13,0.96 2.13,2.13 0,1.18 -0.96,2.13 -2.13,2.13 -1.17,0 -2.13,-0.96 -2.13,-2.13 0,-1.17 0.96,-2.13 2.13,-2.13 m 0,-2 c -2.28,0 -4.13,1.85 -4.13,4.13 0,2.28 1.85,4.13 4.13,4.13 2.28,0 4.13,-1.85 4.13,-4.13 0,-2.28 -1.85,-4.13 -4.13,-4.13 z"
   id="path12"
   style="fill:#000000" />
</g>
<g
   id="g14"
   transform="matrix(0.7695,0,0,0.7695,82.008442,12.514998)">
	<path
   class="st3"
   d="m 366.17,68.53 c -1.73,0 -3.13,-1.4 -3.13,-3.13 0,-1.73 1.41,-3.13 3.13,-3.13 1.73,0 3.13,1.4 3.13,3.13 0,1.73 -1.4,3.13 -3.13,3.13 z"
   id="path13"
   style="fill:#000000" />
	<path
   class="st1"
   d="m 366.17,63.26 c 1.18,0 2.13,0.96 2.13,2.13 0,1.18 -0.96,2.13 -2.13,2.13 -1.17,0 -2.13,-0.96 -2.13,-2.13 0,-1.17 0.95,-2.13 2.13,-2.13 m 0,-2 c -2.28,0 -4.13,1.85 -4.13,4.13 0,2.28 1.85,4.13 4.13,4.13 2.28,0 4.13,-1.85 4.13,-4.13 0,-2.28 -1.85,-4.13 -4.13,-4.13 z"
   id="path14"
   style="fill:#000000" />
</g>
<g
   id="g16"
   transform="matrix(0.7695,0,0,0.7695,82.008442,12.514998)">
	<path
   class="st3"
   d="m 355.88,57.25 c -1.73,0 -3.13,-1.4 -3.13,-3.13 0,-1.73 1.41,-3.13 3.13,-3.13 1.73,0 3.13,1.4 3.13,3.13 0,1.73 -1.4,3.13 -3.13,3.13 z"
   id="path15"
   style="fill:#000000" />
	<path
   class="st1"
   d="m 355.88,51.99 c 1.18,0 2.13,0.96 2.13,2.13 0,1.18 -0.96,2.13 -2.13,2.13 -1.17,0 -2.13,-0.96 -2.13,-2.13 0,-1.18 0.96,-2.13 2.13,-2.13 m 0,-2 c -2.28,0 -4.13,1.85 -4.13,4.13 0,2.28 1.85,4.13 4.13,4.13 2.28,0 4.13,-1.85 4.13,-4.13 0,-2.28 -1.85,-4.13 -4.13,-4.13 z"
   id="path16"
   style="fill:#000000" />
</g>
<g
   id="g17">
	<path
   class="st1"
   d="M136.24,117.88v84.24H52v-84.24H136.24 M138.24,115.88H50v88.24h88.24V115.88L138.24,115.88z"
   id="path17"
   style="fill:#000000" />
</g>
<g
   id="g18">
	<rect
   x="74.09"
   y="139.97"
   class="st2"
   width="40.05"
   height="40.05"
   id="rect17" />
	<path
   class="st1"
   d="M113.14,140.97v38.05H75.09v-38.05H113.14 M115.14,138.97H73.09v42.05h42.05V138.97L115.14,138.97z"
   id="path18"
   style="fill:#000000" />
</g>
<g
   id="g20"
   transform="matrix(0.7695,0,0,0.7695,21.67161,36.92149)">
	<path
   class="st3"
   d="m 83.64,152.22 c -1.73,0 -3.13,-1.4 -3.13,-3.13 0,-1.73 1.41,-3.13 3.13,-3.13 1.72,0 3.13,1.4 3.13,3.13 0,1.73 -1.41,3.13 -3.13,3.13 z"
   id="path19"
   style="fill:#000000" />
	<path
   class="st1"
   d="m 83.64,146.96 c 1.18,0 2.13,0.96 2.13,2.13 0,1.17 -0.96,2.13 -2.13,2.13 -1.18,0 -2.13,-0.96 -2.13,-2.13 0,-1.17 0.95,-2.13 2.13,-2.13 m 0,-2 c -2.28,0 -4.13,1.85 -4.13,4.13 0,2.28 1.85,4.13 4.13,4.13 2.28,0 4.13,-1.85 4.13,-4.13 0,-2.28 -1.85,-4.13 -4.13,-4.13 z"
   id="path20"
   style="fill:#000000" />
</g>
<g
   id="g22"
   transform="matrix(0.7695,0,0,0.7695,21.67161,36.92149)">
	<path
   class="st3"
   d="m 104.4,174.41 c -1.73,0 -3.13,-1.41 -3.13,-3.13 0,-1.73 1.41,-3.13 3.13,-3.13 1.72,0 3.13,1.41 3.13,3.13 0.01,1.72 -1.4,3.13 -3.13,3.13 z"
   id="path21"
   style="fill:#000000" />
	<path
   class="st1"
   d="m 104.4,169.14 c 1.18,0 2.13,0.96 2.13,2.13 0,1.17 -0.96,2.13 -2.13,2.13 -1.18,0 -2.13,-0.96 -2.13,-2.13 0,-1.17 0.96,-2.13 2.13,-2.13 m 0,-2 c -2.28,0 -4.13,1.85 -4.13,4.13 0,2.28 1.85,4.13 4.13,4.13 2.28,0 4.13,-1.85 4.13,-4.13 0,-2.28 -1.84,-4.13 -4.13,-4.13 z"
   id="path22"
   style="fill:#000000" />
</g>
<g
   id="g23"
   transform="matrix(0.7695,0,0,0.7695,21.67161,36.92149)">
	<circle
   class="st3"
   cx="94.120003"
   cy="160"
   r="3.1300001"
   id="circle22"
   style="fill:#000000" />
	<path
   class="st1"
   d="m 94.12,157.87 c 1.18,0 2.13,0.96 2.13,2.13 0,1.17 -0.96,2.13 -2.13,2.13 -1.17,0 -2.13,-0.96 -2.13,-2.13 0,-1.17 0.95,-2.13 2.13,-2.13 m 0,-2 c -2.28,0 -4.13,1.85 -4.13,4.13 0,2.28 1.85,4.13 4.13,4.13 2.28,0 4.13,-1.85 4.13,-4.13 0,-2.28 -1.85,-4.13 -4.13,-4.13 z"
   id="path23"
   style="fill:#000000" />
</g>
<g
   id="g24">
	<path
   class="st1"
   d="M267.12,223.76V308h-84.24v-84.24H267.12 M269.12,221.76h-88.24V310h88.24V221.76L269.12,221.76z"
   id="path24"
   style="fill:#000000" />
</g>
<g
   id="g25">
	<rect
   x="204.97"
   y="245.86"
   class="st2"
   width="40.05"
   height="40.05"
   id="rect24" />
	<path
   class="st1"
   d="M244.02,246.86v38.05h-38.05v-38.05H244.02 M246.02,244.86h-42.05v42.05h42.05V244.86L246.02,244.86z"
   id="path25"
   style="fill:#000000" />
</g>
<g
   id="g27"
   transform="matrix(0.7695,0,0,0.7695,51.817552,61.28534)">
	<path
   class="st3"
   d="m 214.95,256.9 c -1.73,0 -3.13,-1.41 -3.13,-3.13 0,-1.73 1.4,-3.13 3.13,-3.13 1.73,0 3.13,1.41 3.13,3.13 0,1.72 -1.4,3.13 -3.13,3.13 z"
   id="path26"
   style="fill:#000000" />
	<path
   class="st1"
   d="m 214.95,251.63 c 1.18,0 2.13,0.96 2.13,2.13 0,1.17 -0.96,2.13 -2.13,2.13 -1.17,0 -2.13,-0.96 -2.13,-2.13 0,-1.17 0.95,-2.13 2.13,-2.13 m 0,-2 c -2.28,0 -4.13,1.85 -4.13,4.13 0,2.28 1.85,4.13 4.13,4.13 2.28,0 4.13,-1.85 4.13,-4.13 0,-2.28 -1.85,-4.13 -4.13,-4.13 z"
   id="path27"
   style="fill:#000000" />
</g>
<g
   id="g29"
   transform="matrix(0.7695,0,0,0.7695,51.817552,61.28534)">
	<path
   class="st3"
   d="m 214.95,269.01 c -1.73,0 -3.13,-1.41 -3.13,-3.13 0,-1.73 1.4,-3.13 3.13,-3.13 1.73,0 3.13,1.41 3.13,3.13 0,1.73 -1.4,3.13 -3.13,3.13 z"
   id="path28"
   style="fill:#000000" />
	<path
   class="st1"
   d="m 214.95,263.75 c 1.18,0 2.13,0.96 2.13,2.13 0,1.17 -0.96,2.13 -2.13,2.13 -1.17,0 -2.13,-0.96 -2.13,-2.13 0,-1.17 0.95,-2.13 2.13,-2.13 m 0,-2 c -2.28,0 -4.13,1.85 -4.13,4.13 0,2.28 1.85,4.13 4.13,4.13 2.28,0 4.13,-1.85 4.13,-4.13 0,-2.28 -1.85,-4.13 -4.13,-4.13 z"
   id="path29"
   style="fill:#000000" />
</g>
<g
   id="g31"
   transform="matrix(0.7695,0,0,0.7695,51.817552,61.28534)">
	<path
   class="st3"
   d="m 214.95,281.13 c -1.73,0 -3.13,-1.41 -3.13,-3.13 0,-1.73 1.4,-3.13 3.13,-3.13 1.73,0 3.13,1.41 3.13,3.13 0,1.73 -1.4,3.13 -3.13,3.13 z"
   id="path30"
   style="fill:#000000" />
	<path
   class="st1"
   d="m 214.95,275.87 c 1.18,0 2.13,0.96 2.13,2.13 0,1.17 -0.96,2.13 -2.13,2.13 -1.17,0 -2.13,-0.96 -2.13,-2.13 0,-1.17 0.95,-2.13 2.13,-2.13 m 0,-2 c -2.28,0 -4.13,1.85 -4.13,4.13 0,2.28 1.85,4.13 4.13,4.13 2.28,0 4.13,-1.85 4.13,-4.13 0,-2.28 -1.85,-4.13 -4.13,-4.13 z"
   id="path31"
   style="fill:#000000" />
</g>
<g
   id="g33"
   transform="matrix(0.7695,0,0,0.7695,51.817552,61.28534)">
	<path
   class="st3"
   d="m 234.66,256.9 c -1.73,0 -3.13,-1.41 -3.13,-3.13 0,-1.73 1.41,-3.13 3.13,-3.13 1.72,0 3.13,1.41 3.13,3.13 0,1.72 -1.4,3.13 -3.13,3.13 z"
   id="path32"
   style="fill:#000000" />
	<path
   class="st1"
   d="m 234.66,251.63 c 1.18,0 2.13,0.96 2.13,2.13 0,1.17 -0.96,2.13 -2.13,2.13 -1.17,0 -2.13,-0.96 -2.13,-2.13 0,-1.17 0.96,-2.13 2.13,-2.13 m 0,-2 c -2.28,0 -4.13,1.85 -4.13,4.13 0,2.28 1.85,4.13 4.13,4.13 2.28,0 4.13,-1.85 4.13,-4.13 0,-2.28 -1.85,-4.13 -4.13,-4.13 z"
   id="path33"
   style="fill:#000000" />
</g>
<g
   id="g35"
   transform="matrix(0.7695,0,0,0.7695,51.817552,61.28534)">
	<path
   class="st3"
   d="m 234.66,269.01 c -1.73,0 -3.13,-1.41 -3.13,-3.13 0,-1.73 1.41,-3.13 3.13,-3.13 1.72,0 3.13,1.41 3.13,3.13 0,1.73 -1.4,3.13 -3.13,3.13 z"
   id="path34"
   style="fill:#000000" />
	<path
   class="st1"
   d="m 234.66,263.75 c 1.18,0 2.13,0.96 2.13,2.13 0,1.17 -0.96,2.13 -2.13,2.13 -1.17,0 -2.13,-0.96 -2.13,-2.13 0,-1.17 0.96,-2.13 2.13,-2.13 m 0,-2 c -2.28,0 -4.13,1.85 -4.13,4.13 0,2.28 1.85,4.13 4.13,4.13 2.28,0 4.13,-1.85 4.13,-4.13 0,-2.28 -1.85,-4.13 -4.13,-4.13 z"
   id="path35"
   style="fill:#000000" />
</g>
<g
   id="g37"
   transform="matrix(0.7695,0,0,0.7695,51.817552,61.28534)">
	<path
   class="st3"
   d="m 234.66,281.13 c -1.73,0 -3.13,-1.41 -3.13,-3.13 0,-1.73 1.41,-3.13 3.13,-3.13 1.72,0 3.13,1.41 3.13,3.13 0,1.73 -1.4,3.13 -3.13,3.13 z"
   id="path36"
   style="fill:#000000" />
	<path
   class="st1"
   d="m 234.66,275.87 c 1.18,0 2.13,0.96 2.13,2.13 0,1.17 -0.96,2.13 -2.13,2.13 -1.17,0 -2.13,-0.96 -2.13,-2.13 0,-1.17 0.96,-2.13 2.13,-2.13 m 0,-2 c -2.28,0 -4.13,1.85 -4.13,4.13 0,2.28 1.85,4.13 4.13,4.13 2.28,0 4.13,-1.85 4.13,-4.13 0,-2.28 -1.85,-4.13 -4.13,-4.13 z"
   id="path37"
   style="fill:#000000" />
</g>
<g
   id="g38">
	<rect
   x="312.76"
   y="116.88"
   class="st0"
   width="86.24"
   height="86.23"
   id="rect37"
   style="fill:#1f8fff;fill-opacity:1" />
	<path
   class="st1"
   d="M398,117.88v84.24h-84.24v-84.24H398 M400,115.88h-88.24v88.24H400V115.88L400,115.88z"
   id="path38"
   style="fill:#000000" />
</g>
<g
   id="g39">
	<rect
   x="335.86"
   y="139.97"
   class="st2"
   width="40.05"
   height="40.05"
   id="rect38" />
	<path
   class="st1"
   d="M374.91,140.97v38.05h-38.05v-38.05H374.91 M376.91,138.97h-42.05v42.05h42.05V138.97L376.91,138.97z"
   id="path39"
   style="fill:#000000" />
</g>
<g
   id="g40"
   transform="matrix(0.7695,0,0,0.7695,81.986545,36.878848)">
	<circle
   class="st3"
   cx="345.82999"
   cy="147.88"
   r="3.1300001"
   id="circle39"
   style="fill:#000000" />
	<path
   class="st1"
   d="m 345.83,145.75 c 1.18,0 2.13,0.96 2.13,2.13 0,1.17 -0.96,2.13 -2.13,2.13 -1.18,0 -2.13,-0.96 -2.13,-2.13 0,-1.17 0.96,-2.13 2.13,-2.13 m 0,-2 c -2.28,0 -4.13,1.85 -4.13,4.13 0,2.28 1.85,4.13 4.13,4.13 2.28,0 4.13,-1.85 4.13,-4.13 0,-2.28 -1.85,-4.13 -4.13,-4.13 z"
   id="path40"
   style="fill:#000000" />
</g>
<g
   id="g41"
   transform="matrix(0.7695,0,0,0.7695,81.986545,36.878848)">
	<circle
   class="st3"
   cx="345.82999"
   cy="172.12"
   r="3.1300001"
   id="circle40"
   style="fill:#000000" />
	<path
   class="st1"
   d="m 345.83,169.98 c 1.18,0 2.13,0.96 2.13,2.13 0,1.17 -0.96,2.13 -2.13,2.13 -1.18,0 -2.13,-0.96 -2.13,-2.13 0,-1.17 0.96,-2.13 2.13,-2.13 m 0,-2 c -2.28,0 -4.13,1.85 -4.13,4.13 0,2.28 1.85,4.13 4.13,4.13 2.28,0 4.13,-1.85 4.13,-4.13 0,-2.28 -1.85,-4.13 -4.13,-4.13 z"
   id="path41"
   style="fill:#000000" />
</g>
<g
   id="g42"
   transform="matrix(0.7695,0,0,0.7695,81.986545,36.878848)">
	<circle
   class="st3"
   cx="365.54001"
   cy="147.88"
   r="3.1300001"
   id="circle41"
   style="fill:#000000" />
	<path
   class="st1"
   d="m 365.55,145.75 c 1.18,0 2.13,0.96 2.13,2.13 0,1.17 -0.96,2.13 -2.13,2.13 -1.17,0 -2.13,-0.96 -2.13,-2.13 0,-1.17 0.95,-2.13 2.13,-2.13 m 0,-2 c -2.28,0 -4.13,1.85 -4.13,4.13 0,2.28 1.85,4.13 4.13,4.13 2.28,0 4.13,-1.85 4.13,-4.13 0,-2.28 -1.85,-4.13 -4.13,-4.13 z"
   id="path42"
   style="fill:#000000" />
</g>
<g
   id="g44"
   transform="matrix(0.7695,0,0,0.7695,81.986545,36.878848)">
	<path
   class="st3"
   d="m 355.88,163.13 c -1.73,0 -3.13,-1.41 -3.13,-3.13 0,-1.73 1.41,-3.13 3.13,-3.13 1.73,0 3.13,1.4 3.13,3.13 0,1.73 -1.4,3.13 -3.13,3.13 z"
   id="path43"
   style="fill:#000000" />
	<path
   class="st1"
   d="m 355.88,157.87 c 1.18,0 2.13,0.96 2.13,2.13 0,1.17 -0.96,2.13 -2.13,2.13 -1.17,0 -2.13,-0.96 -2.13,-2.13 0,-1.17 0.96,-2.13 2.13,-2.13 m 0,-2 c -2.28,0 -4.13,1.85 -4.13,4.13 0,2.28 1.85,4.13 4.13,4.13 2.28,0 4.13,-1.85 4.13,-4.13 0,-2.28 -1.85,-4.13 -4.13,-4.13 z"
   id="path44"
   style="fill:#000000" />
</g>
<g
   id="g45"
   transform="matrix(0.7695,0,0,0.7695,81.986545,36.878848)">
	<circle
   class="st3"
   cx="365.54001"
   cy="172.12"
   r="3.1300001"
   id="circle44"
   style="fill:#000000" />
	<path
   class="st1"
   d="m 365.55,169.98 c 1.18,0 2.13,0.96 2.13,2.13 0,1.17 -0.96,2.13 -2.13,2.13 -1.17,0 -2.13,-0.96 -2.13,-2.13 0,-1.17 0.95,-2.13 2.13,-2.13 m 0,-2 c -2.28,0 -4.13,1.85 -4.13,4.13 0,2.28 1.85,4.13 4.13,4.13 2.28,0 4.13,-1.85 4.13,-4.13 0,-2.28 -1.85,-4.13 -4.13,-4.13 z"
   id="path45"
   style="fill:#000000" />
</g>
<g
   id="g46">
	<rect
   x="51"
   y="222.76"
   class="st0"
   width="86.24"
   height="86.24"
   id="rect45"
   style="fill:#1f8fff;fill-opacity:1" />
	<path
   class="st1"
   d="M136.24,223.76V308H52v-84.24H136.24 M138.24,221.76H50V310h88.24V221.76L138.24,221.76z"
   id="path46"
   style="fill:#000000" />
</g>
<g
   id="g47">
	<rect
   x="74.09"
   y="245.86"
   class="st2"
   width="40.05"
   height="40.05"
   id="rect46" />
	<path
   class="st1"
   d="M113.14,246.86v38.05H75.09v-38.05H113.14 M115.14,244.86H73.09v42.05h42.05V244.86L115.14,244.86z"
   id="path47"
   style="fill:#000000" />
</g>
<g
   id="g49"
   transform="matrix(0.7695,0,0,0.7695,21.649713,61.28534)">
	<path
   class="st3"
   d="m 84.07,256.9 c -1.73,0 -3.13,-1.41 -3.13,-3.13 0,-1.73 1.4,-3.13 3.13,-3.13 1.73,0 3.13,1.41 3.13,3.13 0,1.72 -1.41,3.13 -3.13,3.13 z"
   id="path48"
   style="fill:#000000" />
	<path
   class="st1"
   d="m 84.07,251.63 c 1.18,0 2.13,0.96 2.13,2.13 0,1.17 -0.96,2.13 -2.13,2.13 -1.18,0 -2.13,-0.96 -2.13,-2.13 0,-1.17 0.95,-2.13 2.13,-2.13 m 0,-2 c -2.28,0 -4.13,1.85 -4.13,4.13 0,2.28 1.85,4.13 4.13,4.13 2.28,0 4.13,-1.85 4.13,-4.13 0,-2.28 -1.85,-4.13 -4.13,-4.13 z"
   id="path49"
   style="fill:#000000" />
</g>
<g
   id="g51"
   transform="matrix(0.7695,0,0,0.7695,21.649713,61.28534)">
	<path
   class="st3"
   d="m 84.07,281.13 c -1.73,0 -3.13,-1.41 -3.13,-3.13 0,-1.73 1.4,-3.13 3.13,-3.13 1.73,0 3.13,1.41 3.13,3.13 0,1.73 -1.41,3.13 -3.13,3.13 z"
   id="path50"
   style="fill:#000000" />
	<path
   class="st1"
   d="m 84.07,275.87 c 1.18,0 2.13,0.96 2.13,2.13 0,1.17 -0.96,2.13 -2.13,2.13 -1.18,0 -2.13,-0.96 -2.13,-2.13 0,-1.17 0.95,-2.13 2.13,-2.13 m 0,-2 c -2.28,0 -4.13,1.85 -4.13,4.13 0,2.28 1.85,4.13 4.13,4.13 2.28,0 4.13,-1.85 4.13,-4.13 0,-2.28 -1.85,-4.13 -4.13,-4.13 z"
   id="path51"
   style="fill:#000000" />
</g>
<g
   id="g53"
   transform="matrix(0.7695,0,0,0.7695,21.649713,61.28534)">
	<path
   class="st3"
   d="m 103.78,256.9 c -1.73,0 -3.13,-1.41 -3.13,-3.13 0,-1.73 1.4,-3.13 3.13,-3.13 1.73,0 3.13,1.41 3.13,3.13 0,1.72 -1.4,3.13 -3.13,3.13 z"
   id="path52"
   style="fill:#000000" />
	<path
   class="st1"
   d="m 103.78,251.63 c 1.18,0 2.13,0.96 2.13,2.13 0,1.17 -0.96,2.13 -2.13,2.13 -1.17,0 -2.13,-0.96 -2.13,-2.13 0,-1.17 0.95,-2.13 2.13,-2.13 m 0,-2 c -2.28,0 -4.13,1.85 -4.13,4.13 0,2.28 1.85,4.13 4.13,4.13 2.28,0 4.13,-1.85 4.13,-4.13 0,-2.28 -1.85,-4.13 -4.13,-4.13 z"
   id="path53"
   style="fill:#000000" />
</g>
<g
   id="g55"
   transform="matrix(0.7695,0,0,0.7695,21.649713,61.28534)">
	<path
   class="st3"
   d="m 94.12,269.01 c -1.73,0 -3.13,-1.41 -3.13,-3.13 0,-1.73 1.4,-3.13 3.13,-3.13 1.73,0 3.13,1.41 3.13,3.13 0,1.73 -1.41,3.13 -3.13,3.13 z"
   id="path54"
   style="fill:#000000" />
	<path
   class="st1"
   d="m 94.12,263.75 c 1.18,0 2.13,0.96 2.13,2.13 0,1.17 -0.96,2.13 -2.13,2.13 -1.17,0 -2.13,-0.96 -2.13,-2.13 0,-1.17 0.95,-2.13 2.13,-2.13 m 0,-2 c -2.28,0 -4.13,1.85 -4.13,4.13 0,2.28 1.85,4.13 4.13,4.13 2.28,0 4.13,-1.85 4.13,-4.13 0,-2.28 -1.85,-4.13 -4.13,-4.13 z"
   id="path55"
   style="fill:#000000" />
</g>
<g
   id="g57"
   transform="matrix(0.7695,0,0,0.7695,21.649713,61.28534)">
	<path
   class="st3"
   d="m 103.78,281.13 c -1.73,0 -3.13,-1.41 -3.13,-3.13 0,-1.73 1.4,-3.13 3.13,-3.13 1.73,0 3.13,1.41 3.13,3.13 0,1.73 -1.4,3.13 -3.13,3.13 z"
   id="path56"
   style="fill:#000000" />
	<path
   class="st1"
   d="m 103.78,275.87 c 1.18,0 2.13,0.96 2.13,2.13 0,1.17 -0.96,2.13 -2.13,2.13 -1.17,0 -2.13,-0.96 -2.13,-2.13 0,-1.17 0.95,-2.13 2.13,-2.13 m 0,-2 c -2.28,0 -4.13,1.85 -4.13,4.13 0,2.28 1.85,4.13 4.13,4.13 2.28,0 4.13,-1.85 4.13,-4.13 0,-2.28 -1.85,-4.13 -4.13,-4.13 z"
   id="path57"
   style="fill:#000000" />
</g>
<g
   id="g58">
	<rect
   x="181.88"
   y="116.88"
   class="st3"
   width="86.24"
   height="86.23"
   id="rect57"
   style="fill:#999999;fill-opacity:1" />
	<path
   class="st1"
   d="M267.12,117.88v84.24h-84.24v-84.24H267.12 M269.12,115.88h-88.24v88.24h88.24V115.88L269.12,115.88z"
   id="path58"
   style="fill:#000000" />
</g>
<g
   id="g59">
	<rect
   x="204.97"
   y="139.97"
   class="st2"
   width="40.05"
   height="40.05"
   id="rect58" />
	<path
   class="st1"
   d="M244.03,140.97v38.05h-38.05v-38.05H244.03 M246.03,138.97h-42.05v42.05h42.05V138.97L246.03,138.97z"
   id="path59"
   style="fill:#000000" />
</g>
<g
   id="g60"
   transform="matrix(0.7695,0,0,0.7695,51.817552,36.878848)">
	<circle
   class="st3"
   cx="214.95"
   cy="147.88"
   r="3.1300001"
   id="circle59"
   style="fill:#000000" />
	<path
   class="st1"
   d="m 214.95,145.75 c 1.18,0 2.13,0.96 2.13,2.13 0,1.17 -0.96,2.13 -2.13,2.13 -1.17,0 -2.13,-0.96 -2.13,-2.13 0,-1.17 0.95,-2.13 2.13,-2.13 m 0,-2 c -2.28,0 -4.13,1.85 -4.13,4.13 0,2.28 1.85,4.13 4.13,4.13 2.28,0 4.13,-1.85 4.13,-4.13 0,-2.28 -1.85,-4.13 -4.13,-4.13 z"
   id="path60"
   style="fill:#000000" />
</g>
<g
   id="g61"
   transform="matrix(0.7695,0,0,0.7695,51.817552,36.878848)">
	<circle
   class="st3"
   cx="214.95"
   cy="172.12"
   r="3.1300001"
   id="circle60"
   style="fill:#000000" />
	<path
   class="st1"
   d="m 214.95,169.98 c 1.18,0 2.13,0.96 2.13,2.13 0,1.17 -0.96,2.13 -2.13,2.13 -1.17,0 -2.13,-0.96 -2.13,-2.13 0,-1.17 0.95,-2.13 2.13,-2.13 m 0,-2 c -2.28,0 -4.13,1.85 -4.13,4.13 0,2.28 1.85,4.13 4.13,4.13 2.28,0 4.13,-1.85 4.13,-4.13 0,-2.28 -1.85,-4.13 -4.13,-4.13 z"
   id="path61"
   style="fill:#000000" />
</g>
<g
   id="g62"
   transform="matrix(0.7695,0,0,0.7695,51.817552,36.878848)">
	<circle
   class="st3"
   cx="234.66"
   cy="147.88"
   r="3.1300001"
   id="circle61"
   style="fill:#000000" />
	<path
   class="st1"
   d="m 234.66,145.75 c 1.18,0 2.13,0.96 2.13,2.13 0,1.17 -0.96,2.13 -2.13,2.13 -1.17,0 -2.13,-0.96 -2.13,-2.13 0,-1.17 0.96,-2.13 2.13,-2.13 m 0,-2 c -2.28,0 -4.13,1.85 -4.13,4.13 0,2.28 1.85,4.13 4.13,4.13 2.28,0 4.13,-1.85 4.13,-4.13 0,-2.28 -1.85,-4.13 -4.13,-4.13 z"
   id="path62"
   style="fill:#000000" />
</g>
<g
   id="g63"
   transform="matrix(0.7695,0,0,0.7695,51.817552,36.878848)">
	<circle
   class="st3"
   cx="234.66"
   cy="172.12"
   r="3.1300001"
   id="circle62"
   style="fill:#000000" />
	<path
   class="st1"
   d="m 234.66,169.98 c 1.18,0 2.13,0.96 2.13,2.13 0,1.17 -0.96,2.13 -2.13,2.13 -1.17,0 -2.13,-0.96 -2.13,-2.13 0,-1.17 0.96,-2.13 2.13,-2.13 m 0,-2 c -2.28,0 -4.13,1.85 -4.13,4.13 0,2.28 1.85,4.13 4.13,4.13 2.28,0 4.13,-1.85 4.13,-4.13 0,-2.28 -1.85,-4.13 -4.13,-4.13 z"
   id="path63"
   style="fill:#000000" />
</g>
<g
   id="g64">
	<path
   class="st1"
   d="M350.61,278.75c0-2,0.12-3.75,0.36-5.23s0.64-2.84,1.19-4.06c0.55-1.23,1.26-2.39,2.14-3.49   c0.87-1.1,1.95-2.27,3.22-3.51c0.96-0.93,1.86-1.81,2.69-2.65c0.83-0.83,1.57-1.69,2.2-2.56c0.64-0.87,1.14-1.81,1.5-2.79   c0.37-0.99,0.55-2.09,0.55-3.3c0-2.65-0.66-4.68-1.97-6.08c-1.31-1.4-3.24-2.09-5.78-2.09c-1.02,0-2,0.14-2.96,0.42   s-1.82,0.73-2.58,1.35c-0.76,0.62-1.38,1.41-1.84,2.37c-0.47,0.96-0.7,2.12-0.7,3.47h-10.3c0.03-2.65,0.51-4.99,1.46-7.01   c0.94-2.02,2.24-3.71,3.89-5.08c1.65-1.37,3.58-2.4,5.8-3.09s4.62-1.04,7.22-1.04c2.85,0,5.39,0.37,7.62,1.1s4.12,1.81,5.67,3.22   c1.55,1.41,2.73,3.13,3.54,5.17c0.8,2.03,1.21,4.33,1.21,6.9c0,1.86-0.3,3.6-0.89,5.21c-0.59,1.61-1.38,3.12-2.37,4.53   s-2.12,2.77-3.39,4.06c-1.27,1.3-2.58,2.58-3.94,3.85c-1.55,1.41-2.59,2.96-3.11,4.64c-0.52,1.68-0.8,3.58-0.83,5.69L350.61,278.75   L350.61,278.75z M349.89,291.92c0-0.79,0.13-1.52,0.38-2.2c0.25-0.68,0.63-1.27,1.12-1.78s1.1-0.9,1.82-1.19   c0.72-0.28,1.55-0.42,2.48-0.42c0.93,0,1.76,0.14,2.48,0.42s1.33,0.68,1.82,1.19c0.49,0.51,0.87,1.1,1.14,1.78   c0.27,0.68,0.4,1.41,0.4,2.2c0,1.55-0.51,2.85-1.52,3.89c-1.02,1.04-2.45,1.57-4.32,1.57s-3.3-0.52-4.3-1.57   C350.39,294.77,349.89,293.47,349.89,291.92z"
   id="path64" />
</g>
</svg>
