<?xml version="1.0" encoding="utf-8"?>
<!-- Generator: Adobe Illustrator 27.3.1, SVG Export Plug-In . SVG Version: 6.00 Build 0)  -->
<svg version="1.1" id="Layer_1" xmlns="http://www.w3.org/2000/svg" xmlns:xlink="http://www.w3.org/1999/xlink" x="0px" y="0px"
	 viewBox="0 0 450 320" style="enable-background:new 0 0 450 320;" xml:space="preserve">
<style type="text/css">
	.st0{display:none;}
	.st1{fill:#1D191A;}
	.st2{fill:none;}
</style>
<g>
	<g>
		<path class="st1" d="M349.6,278.75c0-2,0.12-3.75,0.36-5.23s0.64-2.84,1.19-4.06c0.55-1.23,1.26-2.39,2.14-3.49
			c0.87-1.1,1.95-2.27,3.22-3.51c0.96-0.93,1.86-1.81,2.69-2.65c0.83-0.83,1.57-1.69,2.2-2.56c0.64-0.87,1.14-1.81,1.5-2.79
			c0.37-0.99,0.55-2.09,0.55-3.3c0-2.65-0.66-4.68-1.97-6.08c-1.31-1.4-3.24-2.09-5.78-2.09c-1.02,0-2,0.14-2.96,0.42
			s-1.82,0.73-2.58,1.35c-0.76,0.62-1.38,1.41-1.84,2.37c-0.47,0.96-0.7,2.12-0.7,3.47h-10.3c0.03-2.65,0.51-4.99,1.46-7.01
			c0.94-2.02,2.24-3.71,3.89-5.08c1.65-1.37,3.58-2.4,5.8-3.09s4.62-1.04,7.22-1.04c2.85,0,5.39,0.37,7.62,1.1s4.12,1.81,5.67,3.22
			c1.55,1.41,2.73,3.13,3.54,5.17c0.8,2.03,1.21,4.33,1.21,6.9c0,1.86-0.3,3.6-0.89,5.21c-0.59,1.61-1.38,3.12-2.37,4.53
			s-2.12,2.77-3.39,4.06c-1.27,1.3-2.58,2.58-3.94,3.85c-1.55,1.41-2.59,2.96-3.11,4.64c-0.52,1.68-0.8,3.58-0.83,5.69L349.6,278.75
			L349.6,278.75z M348.88,291.92c0-0.79,0.13-1.52,0.38-2.2c0.25-0.68,0.63-1.27,1.12-1.78s1.1-0.9,1.82-1.19
			c0.72-0.28,1.55-0.42,2.48-0.42c0.93,0,1.76,0.14,2.48,0.42s1.33,0.68,1.82,1.19c0.49,0.51,0.87,1.1,1.14,1.78
			c0.27,0.68,0.4,1.41,0.4,2.2c0,1.55-0.51,2.85-1.52,3.89c-1.02,1.04-2.45,1.57-4.32,1.57s-3.3-0.52-4.3-1.57
			C349.38,294.77,348.88,293.47,348.88,291.92z"/>
	</g>
</g>
<g>
	<path class="st1" d="M227.03,49.99c1.23,0,2.43,0.2,3.59,0.61c1.16,0.4,2.19,1.02,3.07,1.83c0.88,0.82,1.6,1.83,2.14,3.05
		c0.54,1.22,0.81,2.63,0.81,4.25c0,1.52-0.28,2.94-0.83,4.26c-0.56,1.33-1.34,2.49-2.34,3.48c-1,0.99-2.22,1.77-3.63,2.34
		c-1.42,0.57-2.98,0.85-4.69,0.85c-1.74,0-3.3-0.28-4.68-0.83s-2.56-1.33-3.53-2.33c-0.98-1-1.72-2.2-2.24-3.6
		c-0.52-1.4-0.78-2.96-0.78-4.67c0-1.53,0.31-3.1,0.93-4.71c0.62-1.61,1.59-3.29,2.89-5.03l7.76-10.42
		c0.27-0.36,0.66-0.67,1.18-0.92s1.11-0.38,1.79-0.38h4.95l-9.65,11.81c-0.21,0.26-0.41,0.5-0.6,0.72c-0.19,0.23-0.37,0.46-0.55,0.7
		c0.63-0.31,1.31-0.56,2.04-0.74C225.38,50.08,226.17,49.99,227.03,49.99z M219.24,60.1c0,0.9,0.12,1.72,0.37,2.46
		c0.25,0.74,0.62,1.38,1.1,1.9c0.49,0.53,1.09,0.93,1.81,1.23c0.72,0.29,1.55,0.44,2.5,0.44c0.89,0,1.7-0.15,2.44-0.45
		c0.74-0.3,1.38-0.72,1.91-1.26c0.53-0.54,0.95-1.17,1.25-1.9c0.3-0.73,0.45-1.52,0.45-2.37c0-0.93-0.14-1.77-0.43-2.51
		c-0.28-0.74-0.69-1.37-1.21-1.89s-1.16-0.91-1.89-1.18c-0.74-0.27-1.55-0.4-2.43-0.4c-0.89,0-1.69,0.15-2.41,0.45
		c-0.72,0.3-1.34,0.72-1.86,1.25c-0.52,0.53-0.92,1.16-1.19,1.89C219.38,58.47,219.24,59.26,219.24,60.1z"/>
</g>
<g>
	<path class="st1" d="M266.12,13.02v82.24h-82.24V13.02H266.12 M269.12,10.02h-88.24v88.24h88.24V10.02L269.12,10.02z"/>
</g>
<g>
	<path class="st1" d="M367.14,37.78v2.41c0,0.72-0.08,1.3-0.24,1.74c-0.16,0.44-0.31,0.81-0.46,1.11l-12.31,25.38
		c-0.25,0.53-0.62,0.97-1.08,1.34c-0.47,0.37-1.1,0.55-1.89,0.55h-4.03l12.6-24.86c0.53-1.02,1.11-1.9,1.76-2.63h-15.57
		c-0.35,0-0.65-0.13-0.9-0.38c-0.25-0.25-0.38-0.55-0.38-0.9v-3.76H367.14z"/>
</g>
<g>
	<path class="st1" d="M396.64,13.02v82.24H314.4V13.02H396.64 M399.64,10.02H311.4v88.24h88.24V10.02L399.64,10.02z"/>
</g>
<g>
	<path class="st1" d="M89.29,58.05h4.1v3.22c0,0.3-0.1,0.56-0.29,0.78c-0.2,0.22-0.48,0.33-0.85,0.33h-2.95v7.94h-4.86v-7.94H70.71
		c-0.38,0-0.71-0.12-0.99-0.35c-0.29-0.23-0.47-0.52-0.54-0.87l-0.56-2.81l15.41-20.59h5.26V58.05z M84.43,47.41
		c0-0.48,0.01-1,0.04-1.55c0.03-0.55,0.08-1.13,0.16-1.73l-10.1,13.93h9.9V47.41z"/>
	<path class="st1" d="M107.74,37.42c1.5,0,2.87,0.22,4.12,0.66c1.25,0.44,2.31,1.07,3.2,1.88s1.58,1.79,2.07,2.92
		c0.5,1.14,0.74,2.41,0.74,3.8c0,1.2-0.18,2.31-0.53,3.33c-0.35,1.02-0.83,2-1.42,2.92c-0.59,0.93-1.29,1.83-2.08,2.7
		c-0.79,0.87-1.63,1.75-2.5,2.65l-7.33,7.49c0.72-0.21,1.42-0.37,2.11-0.48c0.69-0.11,1.35-0.17,1.98-0.17h8.35
		c0.6,0,1.08,0.17,1.43,0.51c0.35,0.34,0.53,0.78,0.53,1.34v3.33H96.09v-1.85c0-0.37,0.08-0.76,0.24-1.17
		c0.16-0.4,0.41-0.78,0.75-1.12l9.88-9.9c0.82-0.84,1.56-1.64,2.22-2.41c0.65-0.77,1.2-1.52,1.64-2.27
		c0.44-0.75,0.78-1.51,1.01-2.28c0.23-0.77,0.35-1.59,0.35-2.44c0-0.78-0.11-1.47-0.34-2.06c-0.22-0.59-0.55-1.09-0.97-1.5
		c-0.42-0.4-0.92-0.71-1.5-0.91c-0.58-0.2-1.23-0.3-1.95-0.3c-1.34,0-2.43,0.34-3.3,1.01c-0.86,0.68-1.47,1.58-1.81,2.72
		c-0.17,0.57-0.41,0.98-0.74,1.23s-0.75,0.37-1.26,0.37c-0.23,0-0.47-0.02-0.74-0.07l-2.92-0.52c0.23-1.56,0.66-2.93,1.3-4.11
		c0.65-1.18,1.45-2.16,2.42-2.95c0.97-0.79,2.08-1.38,3.33-1.78C104.95,37.62,106.3,37.42,107.74,37.42z"/>
</g>
<g>
	<path class="st1" d="M135.31,13.02v82.24H53.07V13.02H135.31 M138.31,10.02H50.07v88.24h88.24V10.02L138.31,10.02z"/>
</g>
<rect x="92.54" y="52.9" class="st2" width="2.34" height="0"/>
<g>
	<path class="st1" d="M226.01,143.28c1.5,0,2.85,0.21,4.06,0.64c1.21,0.43,2.24,1.02,3.09,1.78c0.85,0.76,1.51,1.65,1.97,2.67
		c0.46,1.02,0.69,2.12,0.69,3.31c0,1.04-0.12,1.95-0.35,2.73c-0.23,0.79-0.57,1.47-1.01,2.06s-0.98,1.08-1.62,1.48
		c-0.64,0.41-1.36,0.74-2.17,1.01c1.95,0.62,3.4,1.55,4.36,2.81c0.96,1.26,1.44,2.84,1.44,4.75c0,1.62-0.3,3.05-0.9,4.3
		s-1.41,2.29-2.43,3.14c-1.02,0.85-2.2,1.49-3.54,1.92c-1.34,0.43-2.76,0.65-4.26,0.65c-1.64,0-3.06-0.19-4.28-0.56
		c-1.21-0.38-2.27-0.93-3.17-1.67c-0.9-0.73-1.67-1.63-2.29-2.7c-0.63-1.06-1.17-2.29-1.62-3.69l2.45-1.01
		c0.42-0.18,0.85-0.27,1.28-0.27c0.39,0,0.74,0.08,1.05,0.25c0.31,0.17,0.54,0.4,0.71,0.72c0.27,0.53,0.57,1.04,0.89,1.55
		c0.32,0.51,0.71,0.96,1.16,1.36s0.98,0.72,1.59,0.97c0.61,0.25,1.33,0.37,2.17,0.37c0.95,0,1.77-0.15,2.48-0.46
		c0.71-0.31,1.29-0.71,1.77-1.2c0.47-0.5,0.83-1.05,1.06-1.65s0.35-1.22,0.35-1.83c0-0.78-0.08-1.49-0.25-2.13
		c-0.17-0.64-0.51-1.18-1.04-1.63c-0.53-0.45-1.28-0.8-2.26-1.06s-2.3-0.38-3.95-0.38v-3.98c1.36,0,2.5-0.12,3.4-0.36
		c0.9-0.24,1.62-0.57,2.15-1c0.53-0.43,0.9-0.94,1.11-1.54c0.21-0.6,0.32-1.26,0.32-1.98c0-1.54-0.42-2.71-1.26-3.5
		c-0.84-0.79-1.99-1.18-3.44-1.18c-1.32,0-2.42,0.35-3.29,1.04c-0.87,0.7-1.48,1.59-1.82,2.69c-0.18,0.57-0.43,0.98-0.74,1.23
		s-0.73,0.37-1.24,0.37c-0.24,0-0.5-0.02-0.77-0.07l-2.92-0.51c0.22-1.56,0.66-2.93,1.3-4.11s1.45-2.16,2.42-2.95
		c0.97-0.79,2.08-1.38,3.33-1.78C223.23,143.48,224.57,143.28,226.01,143.28z"/>
</g>
<g>
	<path class="st1" d="M266.12,118.88v82.24h-82.24v-82.24H266.12 M269.12,115.88h-88.24v88.24h88.24V115.88L269.12,115.88z"/>
</g>
<g>
	<path class="st1" d="M364.73,146c0,0.79-0.25,1.44-0.75,1.94c-0.5,0.49-1.34,0.74-2.51,0.74h-8.96l-1.17,6.79
		c1.47-0.3,2.81-0.45,4.03-0.45c1.71,0,3.21,0.26,4.51,0.77s2.39,1.21,3.27,2.11c0.88,0.9,1.55,1.95,2,3.16
		c0.45,1.21,0.67,2.51,0.67,3.9c0,1.73-0.3,3.3-0.91,4.73s-1.45,2.64-2.53,3.66s-2.36,1.8-3.84,2.35s-3.09,0.83-4.83,0.83
		c-1.02,0-1.99-0.11-2.9-0.32c-0.92-0.21-1.77-0.49-2.58-0.84c-0.8-0.35-1.55-0.76-2.23-1.21c-0.68-0.46-1.29-0.94-1.83-1.45
		l1.71-2.36c0.36-0.51,0.84-0.76,1.44-0.76c0.38,0,0.75,0.12,1.14,0.36c0.38,0.24,0.83,0.5,1.34,0.79c0.51,0.29,1.1,0.55,1.78,0.79
		s1.49,0.36,2.45,0.36c1.02,0,1.92-0.17,2.7-0.5s1.43-0.79,1.95-1.38s0.91-1.3,1.17-2.12s0.39-1.71,0.39-2.67
		c0-1.77-0.51-3.15-1.54-4.15c-1.03-1-2.54-1.5-4.53-1.5c-1.58,0-3.16,0.29-4.75,0.85l-3.46-0.99l2.7-15.79h16.06V146z"/>
</g>
<g>
	<path class="st1" d="M396.64,118.88v82.24H314.4v-82.24H396.64 M399.64,115.88H311.4v88.24h88.24V115.88L399.64,115.88z"/>
</g>
<g>
	<path class="st1" d="M74.15,172.01h6.59v-18.97c0-0.73,0.02-1.51,0.07-2.32l-4.68,3.91c-0.2,0.17-0.39,0.28-0.6,0.34
		c-0.2,0.06-0.4,0.09-0.6,0.09c-0.3,0-0.57-0.06-0.82-0.19c-0.25-0.13-0.43-0.27-0.55-0.44l-1.75-2.41l9.92-8.44h4.57v28.42h5.85
		v4.16h-18V172.01z"/>
	<path class="st1" d="M116.45,146c0,0.79-0.25,1.44-0.75,1.94c-0.5,0.49-1.34,0.74-2.51,0.74h-8.96l-1.17,6.79
		c1.47-0.3,2.81-0.45,4.03-0.45c1.71,0,3.21,0.26,4.51,0.77c1.3,0.51,2.39,1.21,3.27,2.11c0.88,0.9,1.55,1.95,2,3.16
		c0.45,1.21,0.68,2.51,0.68,3.9c0,1.73-0.3,3.3-0.91,4.73s-1.45,2.64-2.53,3.66s-2.36,1.8-3.84,2.35s-3.09,0.83-4.83,0.83
		c-1.02,0-1.99-0.11-2.9-0.32c-0.92-0.21-1.77-0.49-2.58-0.84c-0.8-0.35-1.55-0.76-2.23-1.21c-0.68-0.46-1.29-0.94-1.83-1.45
		l1.71-2.36c0.36-0.51,0.84-0.76,1.44-0.76c0.38,0,0.75,0.12,1.14,0.36c0.38,0.24,0.83,0.5,1.34,0.79c0.51,0.29,1.1,0.55,1.78,0.79
		c0.68,0.24,1.49,0.36,2.45,0.36c1.02,0,1.92-0.17,2.7-0.5c0.78-0.33,1.43-0.79,1.95-1.38c0.52-0.59,0.91-1.3,1.17-2.12
		s0.39-1.71,0.39-2.67c0-1.77-0.51-3.15-1.54-4.15c-1.03-1-2.54-1.5-4.53-1.5c-1.58,0-3.16,0.29-4.75,0.85l-3.47-0.99l2.7-15.79
		h16.07V146z"/>
</g>
<g>
	<path class="st1" d="M135.31,118.88v82.24H53.07v-82.24H135.31 M138.31,115.88H50.07v88.24h88.24V115.88L138.31,115.88z"/>
</g>
<rect x="92.54" y="158.76" class="st2" width="2.34" height="0"/>
<g>
	<path class="st1" d="M225.5,249.14c1.5,0,2.87,0.22,4.12,0.66c1.24,0.44,2.31,1.07,3.19,1.88c0.88,0.81,1.58,1.79,2.07,2.92
		s0.74,2.41,0.74,3.8c0,1.2-0.18,2.31-0.53,3.33c-0.35,1.02-0.83,2-1.42,2.92s-1.29,1.83-2.08,2.7s-1.63,1.75-2.5,2.65l-7.34,7.49
		c0.72-0.21,1.42-0.37,2.11-0.48c0.69-0.11,1.35-0.17,1.98-0.17h8.35c0.6,0,1.08,0.17,1.43,0.51s0.53,0.78,0.53,1.34v3.33h-22.32
		v-1.85c0-0.37,0.08-0.76,0.24-1.17c0.16-0.4,0.41-0.78,0.75-1.12l9.88-9.9c0.82-0.84,1.56-1.64,2.22-2.41
		c0.65-0.77,1.2-1.52,1.64-2.27c0.44-0.75,0.78-1.51,1.01-2.28s0.35-1.59,0.35-2.44c0-0.78-0.11-1.47-0.34-2.06
		c-0.23-0.59-0.55-1.09-0.97-1.5c-0.42-0.41-0.92-0.71-1.5-0.91c-0.58-0.2-1.23-0.3-1.95-0.3c-1.34,0-2.43,0.34-3.3,1.01
		c-0.86,0.68-1.47,1.58-1.81,2.72c-0.17,0.57-0.41,0.98-0.74,1.23c-0.33,0.25-0.75,0.37-1.26,0.37c-0.23,0-0.47-0.02-0.74-0.07
		l-2.92-0.52c0.23-1.56,0.66-2.93,1.3-4.11c0.65-1.18,1.45-2.16,2.42-2.95s2.08-1.38,3.33-1.78
		C222.71,249.34,224.06,249.14,225.5,249.14z"/>
</g>
<g>
	<path class="st1" d="M266.12,224.74v82.24h-82.24v-82.24H266.12 M269.12,221.74h-88.24v88.24h88.24V221.74L269.12,221.74z"/>
</g>
<g>
	<path class="st1" d="M82.16,249.14c1.5,0,2.85,0.21,4.06,0.64s2.24,1.02,3.09,1.78c0.85,0.76,1.51,1.65,1.97,2.67
		c0.46,1.02,0.69,2.12,0.69,3.31c0,1.04-0.12,1.95-0.35,2.73c-0.23,0.79-0.57,1.47-1.01,2.06s-0.98,1.08-1.62,1.48
		c-0.64,0.41-1.36,0.74-2.17,1.01c1.95,0.62,3.4,1.55,4.36,2.81s1.44,2.84,1.44,4.75c0,1.62-0.3,3.05-0.9,4.3
		c-0.6,1.25-1.41,2.29-2.43,3.14c-1.02,0.85-2.2,1.49-3.54,1.92c-1.34,0.44-2.76,0.65-4.26,0.65c-1.64,0-3.06-0.19-4.28-0.56
		c-1.21-0.37-2.27-0.93-3.17-1.67c-0.9-0.73-1.67-1.63-2.29-2.7c-0.63-1.07-1.17-2.29-1.62-3.69l2.45-1.01
		c0.42-0.18,0.85-0.27,1.28-0.27c0.39,0,0.74,0.08,1.05,0.25c0.31,0.17,0.54,0.41,0.71,0.72c0.27,0.52,0.57,1.04,0.89,1.55
		c0.32,0.51,0.71,0.96,1.16,1.36s0.98,0.72,1.59,0.97c0.61,0.25,1.33,0.37,2.17,0.37c0.95,0,1.77-0.15,2.48-0.46s1.29-0.71,1.77-1.2
		c0.47-0.5,0.83-1.05,1.06-1.65s0.35-1.22,0.35-1.83c0-0.78-0.08-1.49-0.25-2.13c-0.17-0.64-0.51-1.18-1.04-1.63
		c-0.53-0.45-1.28-0.8-2.26-1.06c-0.98-0.25-2.3-0.38-3.95-0.38v-3.98c1.36,0,2.5-0.12,3.4-0.36s1.62-0.57,2.15-1
		c0.53-0.43,0.9-0.94,1.11-1.54c0.21-0.6,0.32-1.26,0.32-1.98c0-1.54-0.42-2.71-1.26-3.5c-0.84-0.79-1.99-1.18-3.44-1.18
		c-1.32,0-2.42,0.35-3.29,1.04c-0.87,0.7-1.48,1.59-1.82,2.69c-0.18,0.57-0.43,0.98-0.74,1.22s-0.73,0.37-1.24,0.37
		c-0.24,0-0.5-0.02-0.77-0.07l-2.92-0.51c0.22-1.56,0.66-2.93,1.3-4.11s1.45-2.16,2.42-2.95c0.97-0.79,2.08-1.38,3.33-1.78
		C79.37,249.34,80.72,249.14,82.16,249.14z"/>
	<path class="st1" d="M119.17,265.76c0,2.83-0.3,5.3-0.91,7.39c-0.61,2.09-1.45,3.82-2.52,5.19c-1.07,1.37-2.34,2.38-3.8,3.05
		c-1.46,0.67-3.04,1-4.74,1c-1.7,0-3.27-0.33-4.71-1c-1.45-0.67-2.7-1.68-3.77-3.05c-1.07-1.36-1.9-3.09-2.5-5.19
		c-0.6-2.09-0.9-4.56-0.9-7.39c0-2.85,0.3-5.32,0.9-7.4s1.43-3.81,2.5-5.18c1.06-1.36,2.32-2.38,3.77-3.05c1.45-0.67,3.02-1,4.71-1
		c1.69,0,3.27,0.33,4.74,1c1.46,0.67,2.73,1.68,3.8,3.05c1.07,1.37,1.91,3.09,2.52,5.18S119.17,262.92,119.17,265.76z
		 M113.43,265.76c0-2.35-0.17-4.3-0.52-5.85c-0.34-1.54-0.81-2.77-1.38-3.69s-1.24-1.56-1.99-1.92c-0.75-0.37-1.53-0.55-2.34-0.55
		c-0.79,0-1.56,0.18-2.31,0.55c-0.74,0.37-1.4,1.01-1.97,1.92c-0.57,0.92-1.02,2.15-1.36,3.69c-0.34,1.55-0.51,3.5-0.51,5.85
		s0.17,4.3,0.51,5.85s0.79,2.78,1.36,3.69c0.57,0.92,1.23,1.56,1.97,1.92s1.51,0.55,2.31,0.55c0.81,0,1.59-0.18,2.34-0.55
		c0.75-0.37,1.41-1.01,1.99-1.92s1.04-2.15,1.38-3.69S113.43,268.12,113.43,265.76z"/>
</g>
<g>
	<path class="st1" d="M135.31,224.74v82.24H53.07v-82.24H135.31 M138.31,221.74H50.07v88.24h88.24V221.74L138.31,221.74z"/>
</g>
<rect x="92.54" y="264.62" class="st2" width="2.34" height="0"/>
</svg>
