<?xml version="1.0" encoding="utf-8"?>
<!-- Generator: Adobe Illustrator 27.3.1, SVG Export Plug-In . SVG Version: 6.00 Build 0)  -->
<svg version="1.1" id="Layer_1" xmlns="http://www.w3.org/2000/svg" xmlns:xlink="http://www.w3.org/1999/xlink" x="0px" y="0px"
	 viewBox="0 0 120 120" style="enable-background:new 0 0 120 120;" xml:space="preserve">
<style type="text/css">
	.st0{display:none;}
	.st1{fill:#1D191A;}
	.st2{fill:#A5A5A5;stroke:#1D191A;stroke-width:0.6;stroke-miterlimit:10;}
	.st3{fill:none;stroke:#1D191A;stroke-width:0.6;stroke-miterlimit:10;}
	.st4{fill:none;stroke:#1D191A;stroke-width:0.8;stroke-miterlimit:10;}
</style>
<g>
	<path class="st1" d="M38.11,64.11h4.09v3.22c0,0.3-0.1,0.56-0.29,0.78c-0.2,0.22-0.48,0.33-0.85,0.33h-2.95v7.94h-4.86v-7.94H19.52
		c-0.38,0-0.71-0.12-0.99-0.35s-0.46-0.52-0.54-0.87l-0.56-2.81l15.41-20.59h5.26V64.11z M33.25,53.46c0-0.48,0.02-1,0.04-1.55
		c0.03-0.56,0.08-1.13,0.16-1.73l-10.1,13.93h9.9V53.46z"/>
	<path class="st1" d="M67.99,60.1c0,2.83-0.3,5.3-0.91,7.39c-0.61,2.09-1.45,3.82-2.52,5.19c-1.07,1.37-2.34,2.38-3.8,3.05
		c-1.46,0.67-3.04,1-4.74,1s-3.27-0.33-4.71-1c-1.45-0.67-2.7-1.68-3.77-3.05c-1.06-1.36-1.9-3.09-2.5-5.19
		c-0.6-2.09-0.9-4.56-0.9-7.39c0-2.85,0.3-5.32,0.9-7.4s1.43-3.81,2.5-5.17c1.07-1.37,2.32-2.38,3.77-3.05s3.02-1,4.71-1
		s3.27,0.33,4.74,1c1.46,0.67,2.73,1.68,3.8,3.05s1.91,3.09,2.52,5.17C67.68,54.78,67.99,57.25,67.99,60.1z M62.25,60.1
		c0-2.35-0.17-4.3-0.52-5.85s-0.81-2.78-1.38-3.69c-0.58-0.92-1.24-1.56-1.99-1.92c-0.75-0.37-1.53-0.55-2.34-0.55
		c-0.79,0-1.56,0.18-2.31,0.55c-0.74,0.37-1.4,1.01-1.97,1.92c-0.57,0.92-1.02,2.15-1.36,3.69s-0.51,3.5-0.51,5.85
		c0,2.36,0.17,4.31,0.51,5.85c0.34,1.55,0.79,2.78,1.36,3.69c0.57,0.92,1.23,1.56,1.97,1.92c0.74,0.37,1.51,0.55,2.31,0.55
		c0.81,0,1.59-0.18,2.34-0.55c0.75-0.37,1.41-1.01,1.99-1.92c0.58-0.92,1.04-2.14,1.38-3.69C62.08,64.41,62.25,62.46,62.25,60.1z"/>
	<path class="st1" d="M89.9,54.68v3.6l-4.28,0.04v18.04h-4.63V58.32h-3.2v-3.65h3.2v-2.02c0-1.98,0.29-3.42,0.86-4.32
		c1.02-1.65,2.85-2.47,5.49-2.47c1.14,0,2.5,0.18,4.09,0.54L90.76,50c-0.9-0.15-1.74-0.22-2.52-0.22c-1.74,0-2.61,1.04-2.61,3.1v1.8
		H89.9z"/>
	<path class="st1" d="M97.73,54.63h3.82v3.65h-3.78v10.8c-0.03,1.56,0.06,2.57,0.27,3.01c0.21,0.45,0.67,0.68,1.39,0.68
		c0.6,0,1.29-0.14,2.07-0.41l0.54,3.83c-1.11,0.36-2.25,0.54-3.42,0.54c-2.55,0-4.16-0.66-4.82-1.98c-0.48-0.96-0.72-2.75-0.72-5.35
		V58.32h-2.66v-3.65h2.66v-4.9l4.64-2.75V54.63z"/>
</g>
</svg>
