<?xml version="1.0" encoding="UTF-8" standalone="no"?>
<!-- Generator: Adobe Illustrator 27.3.1, SVG Export Plug-In . SVG Version: 6.00 Build 0)  -->

<svg
   version="1.1"
   id="Layer_1"
   x="0px"
   y="0px"
   viewBox="0 0 450 320"
   style="enable-background:new 0 0 450 320;"
   xml:space="preserve"
   sodipodi:docname="Q29Q.svg"
   inkscape:version="1.4 (86a8ad7, 2024-10-11)"
   xmlns:inkscape="http://www.inkscape.org/namespaces/inkscape"
   xmlns:sodipodi="http://sodipodi.sourceforge.net/DTD/sodipodi-0.dtd"
   xmlns="http://www.w3.org/2000/svg"
   xmlns:svg="http://www.w3.org/2000/svg"><defs
   id="defs19" /><sodipodi:namedview
   id="namedview19"
   pagecolor="#ffffff"
   bordercolor="#999999"
   borderopacity="1"
   inkscape:showpageshadow="2"
   inkscape:pageopacity="0"
   inkscape:pagecheckerboard="0"
   inkscape:deskcolor="#d1d1d1"
   inkscape:zoom="1.7832349"
   inkscape:cx="224.59184"
   inkscape:cy="144.40049"
   inkscape:window-width="1920"
   inkscape:window-height="1009"
   inkscape:window-x="-8"
   inkscape:window-y="-8"
   inkscape:window-maximized="1"
   inkscape:current-layer="Layer_1" />
<style
   type="text/css"
   id="style1">
	.st0{display:none;}
	.st1{fill:#1D191A;}
	.st2{fill:none;stroke:#1D191A;stroke-width:9;stroke-miterlimit:10;}
	.st3{fill:#FFFFFF;stroke:#1D191A;stroke-width:3;stroke-miterlimit:10;}
	.st4{fill:#A5A5A5;}
	.st5{fill:none;stroke:#1D191A;stroke-width:0.8;stroke-miterlimit:10;}
	.st6{fill:#FFFFFF;stroke:#1D191A;stroke-width:2;stroke-miterlimit:10;}
</style>
<g
   id="g1"
   transform="translate(0,24.6)">
	<polygon
   class="st1"
   points="225,196.75 247.6,235.88 202.4,235.88 "
   id="polygon1" />
	<path
   class="st1"
   d="m 225,199.75 10,17.32 10,17.32 h -20 -20 l 10,-17.32 10,-17.32 m 0,-6 -12.6,21.82 -12.6,21.82 H 225 250.2 L 237.6,215.57 225,193.75 Z"
   id="path1" />
</g>
<line
   class="st2"
   x1="49.830002"
   y1="214.85001"
   x2="400.17001"
   y2="214.85001"
   id="line1" />
<circle
   class="st3"
   cx="173.10001"
   cy="163.51001"
   r="4.7399998"
   id="circle1" />
<g
   id="g2"
   transform="translate(0,24.6)">
	<polygon
   class="st4"
   points="156.49,140.41 189.32,140.41 193.67,184.25 152.14,184.25 "
   id="polygon2" />
	<path
   class="st1"
   d="m 187.97,141.91 4.05,40.84 H 153.8 l 4.05,-40.84 h 30.12 m 2.71,-3 h -35.56 l -4.64,46.84 h 44.84 l -4.64,-46.84 z"
   id="path2" />
</g>
<g
   id="g3"
   transform="translate(0,24.6)">
	<line
   class="st5"
   x1="225"
   y1="114.47"
   x2="376.66"
   y2="114.47"
   id="line2" />
</g>
<g
   id="g4"
   transform="translate(0,24.6)">
	<line
   class="st5"
   x1="173.10001"
   y1="106.47"
   x2="225"
   y2="106.47"
   id="line3" />
</g>
<g
   id="g5"
   transform="translate(0,24.6)">
	<path
   class="st1"
   d="m 170.52,167.93 c 0,-0.87 0.05,-1.63 0.16,-2.28 0.1,-0.64 0.28,-1.24 0.52,-1.77 0.24,-0.54 0.55,-1.04 0.93,-1.52 0.38,-0.48 0.85,-0.99 1.4,-1.53 0.42,-0.4 0.81,-0.79 1.17,-1.15 0.36,-0.36 0.68,-0.74 0.96,-1.11 0.28,-0.38 0.5,-0.79 0.65,-1.21 0.16,-0.43 0.24,-0.91 0.24,-1.44 0,-1.15 -0.29,-2.04 -0.86,-2.65 -0.57,-0.61 -1.41,-0.91 -2.52,-0.91 -0.44,0 -0.87,0.06 -1.29,0.18 -0.42,0.12 -0.79,0.32 -1.12,0.59 -0.33,0.27 -0.6,0.61 -0.8,1.03 -0.2,0.42 -0.3,0.92 -0.3,1.51 h -4.48 c 0.01,-1.15 0.22,-2.17 0.64,-3.05 0.41,-0.88 0.98,-1.62 1.69,-2.21 0.72,-0.6 1.56,-1.04 2.52,-1.35 0.97,-0.3 2.01,-0.45 3.14,-0.45 1.24,0 2.35,0.16 3.32,0.48 0.97,0.32 1.79,0.79 2.47,1.4 0.68,0.61 1.19,1.36 1.54,2.25 0.35,0.88 0.53,1.88 0.53,3 0,0.81 -0.13,1.57 -0.39,2.27 -0.26,0.7 -0.6,1.36 -1.03,1.97 -0.43,0.61 -0.92,1.21 -1.48,1.77 -0.55,0.57 -1.12,1.12 -1.72,1.68 -0.67,0.61 -1.13,1.29 -1.35,2.02 -0.22,0.73 -0.35,1.56 -0.36,2.48 l -4.18,0 z m -0.31,5.73 c 0,-0.34 0.06,-0.66 0.17,-0.96 0.11,-0.3 0.27,-0.55 0.49,-0.77 0.22,-0.22 0.48,-0.39 0.79,-0.52 0.31,-0.12 0.67,-0.18 1.08,-0.18 0.4,0 0.77,0.06 1.08,0.18 0.31,0.12 0.58,0.3 0.79,0.52 0.21,0.22 0.38,0.48 0.5,0.77 0.12,0.29 0.17,0.61 0.17,0.96 0,0.67 -0.22,1.24 -0.66,1.69 -0.44,0.45 -1.07,0.68 -1.88,0.68 -0.81,0 -1.44,-0.23 -1.87,-0.68 -0.45,-0.45 -0.66,-1.01 -0.66,-1.69 z"
   id="path4" />
</g>
<line
   class="st5"
   x1="173.10001"
   y1="128.83"
   x2="173.10001"
   y2="133.3"
   id="line5" />
<line
   class="st5"
   x1="224.86"
   y1="128.83"
   x2="224.86"
   y2="133.3"
   id="line6" />
<line
   class="st5"
   x1="224.86"
   y1="136.83"
   x2="224.86"
   y2="141.3"
   id="line7" />
<line
   class="st5"
   x1="376.66"
   y1="136.83"
   x2="376.66"
   y2="141.3"
   id="line8" />
<line
   class="st5"
   x1="224.86"
   y1="144.53"
   x2="224.86"
   y2="206.43001"
   id="line9" />
<g
   id="g14"
   transform="translate(0,24.6)">
	<circle
   class="st6"
   cx="376.66"
   cy="148.52"
   r="3.77"
   id="circle9" />
	<g
   id="g9">
		<polygon
   class="st4"
   points="363.89,150.02 389.43,150.02 392.82,184.25 360.5,184.25 "
   id="polygon9" />
		<path
   class="st1"
   d="m 388.07,151.52 3.09,31.22 h -29.01 l 3.09,-31.22 h 22.83 m 2.71,-3 h -28.26 l -3.69,37.22 h 35.63 l -3.68,-37.22 z"
   id="path9" />
	</g>
	<g
   id="g13">
		<path
   class="st1"
   d="m 380.01,154.91 c 0,0.27 -0.09,0.5 -0.26,0.67 -0.17,0.17 -0.46,0.26 -0.87,0.26 h -3.09 l -0.4,2.35 c 0.51,-0.1 0.97,-0.16 1.39,-0.16 0.59,0 1.11,0.09 1.56,0.26 0.45,0.18 0.83,0.42 1.13,0.73 0.31,0.31 0.54,0.67 0.69,1.09 0.16,0.42 0.23,0.87 0.23,1.35 0,0.6 -0.1,1.14 -0.31,1.63 -0.21,0.49 -0.5,0.91 -0.87,1.26 -0.37,0.35 -0.81,0.62 -1.32,0.81 -0.51,0.19 -1.07,0.29 -1.67,0.29 -0.35,0 -0.69,-0.04 -1,-0.11 -0.32,-0.07 -0.61,-0.17 -0.89,-0.29 -0.28,-0.12 -0.53,-0.26 -0.77,-0.42 -0.24,-0.16 -0.45,-0.33 -0.63,-0.5 l 0.59,-0.82 c 0.12,-0.18 0.29,-0.26 0.5,-0.26 0.13,0 0.26,0.04 0.39,0.12 0.13,0.08 0.29,0.17 0.46,0.27 0.18,0.1 0.38,0.19 0.61,0.27 0.23,0.08 0.52,0.12 0.85,0.12 0.35,0 0.66,-0.06 0.93,-0.17 0.27,-0.11 0.49,-0.27 0.67,-0.48 0.18,-0.2 0.31,-0.45 0.4,-0.73 0.09,-0.28 0.14,-0.59 0.14,-0.92 0,-0.61 -0.18,-1.09 -0.53,-1.43 -0.35,-0.34 -0.88,-0.52 -1.57,-0.52 -0.54,0 -1.09,0.1 -1.64,0.3 l -1.2,-0.34 0.93,-5.46 h 5.55 v 0.83 z"
   id="path10" />
		<g
   id="g12">
			<path
   class="st1"
   d="m 372.25,169.67 h 1.62 v 10.35 h -1.62 z"
   id="path11" />
			<path
   class="st1"
   d="m 375.86,180.02 v -10.35 h 1.6 v 3.7 c 0.57,-0.67 1.27,-1.01 2.11,-1.01 0.96,0 1.74,0.35 2.32,1.06 0.57,0.69 0.85,1.63 0.85,2.8 0,1.17 -0.3,2.12 -0.89,2.86 -0.59,0.74 -1.35,1.1 -2.28,1.1 -0.95,0 -1.69,-0.39 -2.22,-1.17 v 1.01 h -1.49 z m 3.4,-1.12 c 1.22,0 1.83,-0.86 1.83,-2.58 0,-1.8 -0.61,-2.7 -1.83,-2.7 -1.24,0 -1.87,0.91 -1.87,2.74 0.01,1.69 0.63,2.54 1.87,2.54 z"
   id="path12" />
		</g>
	</g>
</g>
<g
   id="g16"
   transform="translate(0,24.6)">
	<path
   class="st1"
   d="m 297.96,98.56 c 0.47,0 0.89,0.07 1.26,0.2 0.38,0.13 0.7,0.32 0.96,0.55 0.27,0.24 0.47,0.51 0.61,0.83 0.14,0.32 0.21,0.66 0.21,1.03 0,0.32 -0.04,0.61 -0.11,0.85 -0.07,0.24 -0.18,0.46 -0.31,0.64 -0.14,0.18 -0.31,0.34 -0.5,0.46 -0.19,0.12 -0.42,0.23 -0.68,0.31 0.61,0.19 1.06,0.48 1.36,0.88 0.3,0.39 0.45,0.88 0.45,1.48 0,0.5 -0.09,0.95 -0.28,1.34 -0.19,0.39 -0.44,0.71 -0.76,0.98 -0.32,0.26 -0.69,0.46 -1.1,0.6 -0.42,0.14 -0.86,0.2 -1.33,0.2 -0.51,0 -0.95,-0.06 -1.33,-0.17 -0.38,-0.11 -0.71,-0.29 -0.99,-0.52 -0.28,-0.23 -0.52,-0.51 -0.71,-0.84 -0.2,-0.33 -0.36,-0.71 -0.5,-1.15 l 0.76,-0.31 c 0.13,-0.06 0.26,-0.08 0.4,-0.08 0.12,0 0.23,0.03 0.33,0.08 0.09,0.05 0.17,0.13 0.22,0.22 0.08,0.16 0.18,0.32 0.28,0.48 0.1,0.16 0.22,0.3 0.36,0.42 0.14,0.12 0.3,0.22 0.49,0.3 0.19,0.08 0.41,0.12 0.68,0.12 0.29,0 0.55,-0.05 0.77,-0.14 0.22,-0.1 0.4,-0.22 0.55,-0.37 0.15,-0.15 0.26,-0.33 0.33,-0.51 0.07,-0.18 0.11,-0.38 0.11,-0.57 0,-0.24 -0.03,-0.46 -0.08,-0.66 -0.05,-0.2 -0.16,-0.37 -0.32,-0.51 -0.16,-0.14 -0.4,-0.25 -0.7,-0.33 -0.31,-0.08 -0.71,-0.12 -1.23,-0.12 V 103 c 0.42,0 0.78,-0.04 1.06,-0.11 0.28,-0.07 0.5,-0.18 0.67,-0.31 0.17,-0.13 0.28,-0.29 0.35,-0.48 0.07,-0.19 0.1,-0.39 0.1,-0.62 0,-0.48 -0.13,-0.84 -0.39,-1.09 -0.26,-0.24 -0.62,-0.37 -1.07,-0.37 -0.41,0 -0.75,0.11 -1.02,0.33 -0.27,0.22 -0.46,0.5 -0.57,0.84 -0.06,0.18 -0.13,0.3 -0.23,0.38 -0.1,0.08 -0.23,0.12 -0.38,0.12 -0.08,0 -0.15,-0.01 -0.24,-0.02 l -0.91,-0.16 c 0.07,-0.49 0.21,-0.91 0.41,-1.28 0.2,-0.37 0.45,-0.67 0.75,-0.92 0.3,-0.25 0.65,-0.43 1.04,-0.55 0.39,-0.12 0.78,-0.2 1.23,-0.2 z"
   id="path14" />
	<path
   class="st1"
   d="m 308.17,102.05 v 1.12 l -1.33,0.01 v 5.61 h -1.44 v -5.61 h -0.99 v -1.13 h 0.99 v -0.63 c 0,-0.62 0.09,-1.06 0.27,-1.34 0.32,-0.51 0.89,-0.77 1.71,-0.77 0.35,0 0.78,0.06 1.27,0.17 l -0.21,1.12 c -0.28,-0.05 -0.54,-0.07 -0.78,-0.07 -0.54,0 -0.81,0.32 -0.81,0.97 v 0.56 h 1.32 z"
   id="path15" />
	<path
   class="st1"
   d="m 310.61,102.04 h 1.19 v 1.13 h -1.18 v 3.36 c -0.01,0.49 0.02,0.8 0.08,0.94 0.06,0.14 0.21,0.21 0.43,0.21 0.19,0 0.4,-0.04 0.64,-0.13 l 0.17,1.19 c -0.35,0.11 -0.7,0.17 -1.06,0.17 -0.79,0 -1.29,-0.21 -1.5,-0.62 -0.15,-0.3 -0.22,-0.85 -0.22,-1.67 v -3.44 h -0.83 v -1.13 h 0.83 v -1.53 l 1.44,-0.85 v 2.37 z"
   id="path16" />
</g>
<g
   id="g19"
   transform="translate(0,24.6)">
	<path
   class="st1"
   d="m 191.59,99.93 h 2.05 v -5.9 c 0,-0.23 0.01,-0.47 0.02,-0.72 l -1.46,1.22 c -0.06,0.05 -0.12,0.09 -0.19,0.1 -0.06,0.02 -0.12,0.03 -0.19,0.03 -0.09,0 -0.18,-0.02 -0.26,-0.06 -0.08,-0.04 -0.13,-0.08 -0.17,-0.14 l -0.55,-0.75 3.09,-2.62 h 1.42 v 8.84 h 1.82 v 1.29 h -5.6 v -1.29 z"
   id="path17" />
	<path
   class="st1"
   d="m 204.29,94.48 v 1.12 l -1.33,0.01 v 5.61 h -1.44 v -5.61 h -0.99 v -1.13 h 0.99 v -0.63 c 0,-0.62 0.09,-1.06 0.27,-1.34 0.32,-0.51 0.89,-0.77 1.71,-0.77 0.35,0 0.78,0.06 1.27,0.17 l -0.21,1.12 c -0.28,-0.05 -0.54,-0.07 -0.78,-0.07 -0.54,0 -0.81,0.32 -0.81,0.97 v 0.56 h 1.32 z"
   id="path18" />
	<path
   class="st1"
   d="m 206.73,94.47 h 1.19 v 1.13 h -1.18 v 3.36 c -0.01,0.49 0.02,0.8 0.08,0.94 0.06,0.14 0.21,0.21 0.43,0.21 0.19,0 0.4,-0.04 0.64,-0.13 l 0.17,1.19 c -0.35,0.11 -0.7,0.17 -1.06,0.17 -0.79,0 -1.29,-0.21 -1.5,-0.62 -0.15,-0.3 -0.22,-0.85 -0.22,-1.67 v -3.44 h -0.83 v -1.13 h 0.83 v -1.53 l 1.44,-0.85 v 2.37 z"
   id="path19" />
</g>
<text
   xml:space="preserve"
   style="text-align:start;writing-mode:lr-tb;direction:ltr;text-anchor:start;fill:#1a1a1a;stroke:#000000;stroke-opacity:1"
   x="177.24907"
   y="266.07187"
   id="text19"><tspan
     sodipodi:role="line"
     id="tspan19" /></text><text
   xml:space="preserve"
   style="font-size:13.3333px;text-align:start;writing-mode:lr-tb;direction:ltr;text-anchor:start;white-space:pre;inline-size:155.337;fill:#1a1a1a;stroke:#000000;stroke-width:0.3;stroke-dasharray:none;stroke-opacity:1"
   x="178.04213"
   y="269.64062"
   id="text20"
   transform="matrix(1.05,0,0,1.05,-20.965154,14.709671)"><tspan
     x="178.04213"
     y="269.64062"
     id="tspan4"><tspan
       style="font-style:italic;font-family:'Times New Roman';-inkscape-font-specification:'Times New Roman,  Italic'"
       id="tspan3">The lever is balanced. </tspan></tspan></text></svg>
