<?xml version="1.0" encoding="utf-8"?>
<!-- Generator: Adobe Illustrator 27.3.1, SVG Export Plug-In . SVG Version: 6.00 Build 0)  -->
<svg version="1.1" id="Layer_1" xmlns="http://www.w3.org/2000/svg" xmlns:xlink="http://www.w3.org/1999/xlink" x="0px" y="0px"
	 viewBox="0 0 450 320" style="enable-background:new 0 0 450 320;" xml:space="preserve">
<style type="text/css">
	.st0{display:none;}
	.st1{fill:#1D191A;}
</style>
<g>
	<path class="st1" d="M222.22,290.53c0-0.89,0.05-1.67,0.16-2.33s0.28-1.26,0.53-1.81c0.24-0.55,0.56-1.06,0.95-1.55
		c0.39-0.49,0.87-1.01,1.43-1.56c0.43-0.41,0.83-0.81,1.2-1.18c0.37-0.37,0.7-0.75,0.98-1.14c0.28-0.39,0.51-0.81,0.67-1.24
		c0.16-0.44,0.24-0.93,0.24-1.47c0-1.18-0.29-2.08-0.88-2.71c-0.58-0.62-1.44-0.93-2.57-0.93c-0.45,0-0.89,0.06-1.32,0.19
		c-0.43,0.12-0.81,0.32-1.15,0.6c-0.34,0.28-0.61,0.63-0.82,1.05c-0.21,0.43-0.31,0.94-0.31,1.54h-4.58
		c0.01-1.18,0.23-2.22,0.65-3.12c0.42-0.9,1-1.65,1.73-2.26c0.73-0.61,1.59-1.07,2.58-1.38c0.99-0.31,2.06-0.46,3.21-0.46
		c1.27,0,2.4,0.16,3.39,0.49c0.99,0.32,1.83,0.81,2.52,1.43c0.69,0.63,1.22,1.39,1.58,2.3c0.36,0.9,0.54,1.93,0.54,3.07
		c0,0.83-0.13,1.6-0.4,2.32c-0.26,0.72-0.61,1.39-1.05,2.02c-0.44,0.63-0.94,1.23-1.51,1.81c-0.57,0.58-1.15,1.15-1.75,1.71
		c-0.69,0.63-1.15,1.32-1.38,2.07c-0.23,0.75-0.36,1.59-0.37,2.53L222.22,290.53L222.22,290.53z M221.9,296.39
		c0-0.35,0.06-0.68,0.17-0.98c0.11-0.3,0.28-0.57,0.5-0.79c0.22-0.23,0.49-0.4,0.81-0.53c0.32-0.12,0.69-0.19,1.1-0.19
		c0.41,0,0.78,0.06,1.1,0.19c0.32,0.12,0.59,0.3,0.81,0.53c0.22,0.23,0.39,0.49,0.51,0.79c0.12,0.3,0.18,0.63,0.18,0.98
		c0,0.69-0.23,1.27-0.68,1.73c-0.45,0.46-1.09,0.7-1.92,0.7s-1.47-0.23-1.91-0.7C222.12,297.66,221.9,297.08,221.9,296.39z"/>
</g>
<g>
	<path class="st1" d="M134.34,13.02c3.87,0,7.03,3.15,7.03,7.03v121.12c0,3.87-3.15,7.03-7.03,7.03h-27.36
		c-3.87,0-7.03-3.15-7.03-7.03V20.05c0-3.87,3.15-7.03,7.03-7.03H134.34 M134.34,10.02h-27.36c-5.54,0-10.03,4.49-10.03,10.03
		v121.12c0,5.54,4.49,10.03,10.03,10.03h27.36c5.54,0,10.03-4.49,10.03-10.03V20.05C144.37,14.51,139.88,10.02,134.34,10.02
		L134.34,10.02z"/>
</g>
<g>
	<path class="st1" d="M181.22,59.9c3.87,0,7.03,3.15,7.03,7.03v27.36c0,3.87-3.15,7.03-7.03,7.03H60.1c-3.87,0-7.03-3.15-7.03-7.03
		V66.92c0-3.87,3.15-7.03,7.03-7.03H181.22 M181.22,56.9H60.1c-5.54,0-10.03,4.49-10.03,10.03v27.36c0,5.54,4.49,10.03,10.03,10.03
		h121.12c5.54,0,10.03-4.49,10.03-10.03V66.92C191.24,61.39,186.76,56.9,181.22,56.9L181.22,56.9z"/>
</g>
<g>
	<g>
		<path class="st1" d="M111.84,36.48c-0.7,0-1.39-0.12-2.06-0.36c-0.67-0.24-1.27-0.61-1.8-1.1c-0.53-0.49-0.95-1.1-1.27-1.82
			s-0.48-1.57-0.48-2.54c0-0.91,0.17-1.75,0.5-2.55c0.34-0.79,0.81-1.49,1.41-2.09c0.61-0.6,1.33-1.07,2.18-1.41
			c0.85-0.35,1.79-0.52,2.81-0.52c1.04,0,1.97,0.16,2.79,0.49c0.83,0.33,1.53,0.78,2.11,1.37c0.58,0.59,1.03,1.29,1.34,2.11
			c0.31,0.82,0.47,1.72,0.47,2.7c0,0.63-0.05,1.22-0.16,1.78c-0.11,0.56-0.26,1.1-0.46,1.62s-0.44,1.02-0.72,1.51
			c-0.28,0.49-0.59,0.98-0.94,1.48l-4.63,6.61c-0.16,0.22-0.39,0.41-0.71,0.57c-0.31,0.15-0.67,0.23-1.07,0.23H108l6.29-7.85
			c0.16-0.2,0.31-0.39,0.45-0.57c0.14-0.19,0.28-0.37,0.41-0.56c-0.47,0.3-0.98,0.52-1.54,0.68
			C113.04,36.4,112.46,36.48,111.84,36.48z M116.56,30.42c0-0.55-0.08-1.04-0.25-1.48c-0.17-0.43-0.41-0.8-0.71-1.1
			s-0.67-0.53-1.1-0.69c-0.43-0.16-0.89-0.24-1.39-0.24c-0.52,0-0.99,0.09-1.41,0.26s-0.78,0.41-1.07,0.72
			c-0.29,0.31-0.52,0.67-0.68,1.1c-0.16,0.42-0.24,0.89-0.24,1.39c0,1.13,0.29,1.99,0.88,2.58c0.58,0.59,1.41,0.89,2.49,0.89
			c0.56,0,1.06-0.09,1.49-0.27s0.8-0.42,1.1-0.73c0.3-0.31,0.52-0.67,0.68-1.09C116.48,31.35,116.56,30.9,116.56,30.42z"/>
		<path class="st1" d="M128.08,36.48c-0.7,0-1.39-0.12-2.06-0.36c-0.67-0.24-1.27-0.61-1.8-1.1c-0.53-0.49-0.95-1.1-1.27-1.82
			s-0.48-1.57-0.48-2.54c0-0.91,0.17-1.75,0.5-2.55c0.34-0.79,0.81-1.49,1.41-2.09c0.61-0.6,1.33-1.07,2.18-1.41
			c0.85-0.35,1.79-0.52,2.81-0.52c1.04,0,1.97,0.16,2.79,0.49c0.83,0.33,1.53,0.78,2.11,1.37c0.58,0.59,1.03,1.29,1.34,2.11
			c0.31,0.82,0.47,1.72,0.47,2.7c0,0.63-0.05,1.22-0.16,1.78c-0.11,0.56-0.26,1.1-0.46,1.62s-0.44,1.02-0.72,1.51
			c-0.28,0.49-0.59,0.98-0.94,1.48l-4.63,6.61c-0.16,0.22-0.39,0.41-0.71,0.57c-0.31,0.15-0.67,0.23-1.07,0.23h-3.18l6.29-7.85
			c0.16-0.2,0.31-0.39,0.45-0.57c0.14-0.19,0.28-0.37,0.41-0.56c-0.47,0.3-0.98,0.52-1.54,0.68
			C129.28,36.4,128.7,36.48,128.08,36.48z M132.8,30.42c0-0.55-0.08-1.04-0.25-1.48c-0.17-0.43-0.41-0.8-0.71-1.1
			s-0.67-0.53-1.1-0.69c-0.43-0.16-0.89-0.24-1.39-0.24c-0.52,0-0.99,0.09-1.41,0.26s-0.78,0.41-1.07,0.72
			c-0.29,0.31-0.52,0.67-0.68,1.1c-0.16,0.42-0.24,0.89-0.24,1.39c0,1.13,0.29,1.99,0.88,2.58c0.58,0.59,1.41,0.89,2.49,0.89
			c0.56,0,1.06-0.09,1.49-0.27s0.8-0.42,1.1-0.73c0.3-0.31,0.52-0.67,0.68-1.09C132.72,31.35,132.8,30.9,132.8,30.42z"/>
	</g>
</g>
<g>
	<g>
		<path class="st1" d="M119.96,127.8c-0.7,0-1.39-0.12-2.06-0.36c-0.67-0.24-1.27-0.61-1.8-1.1c-0.53-0.49-0.95-1.1-1.27-1.82
			s-0.48-1.57-0.48-2.54c0-0.91,0.17-1.75,0.5-2.55c0.34-0.79,0.81-1.49,1.41-2.09c0.61-0.6,1.33-1.07,2.18-1.41
			c0.85-0.35,1.79-0.52,2.81-0.52c1.04,0,1.97,0.16,2.79,0.49c0.83,0.33,1.53,0.78,2.11,1.37c0.58,0.59,1.03,1.29,1.34,2.11
			c0.31,0.82,0.47,1.72,0.47,2.7c0,0.63-0.05,1.22-0.16,1.78c-0.11,0.56-0.26,1.1-0.46,1.62s-0.44,1.02-0.72,1.51
			c-0.28,0.49-0.59,0.98-0.94,1.48l-4.63,6.61c-0.16,0.22-0.39,0.41-0.71,0.57c-0.31,0.15-0.67,0.23-1.07,0.23h-3.18l6.29-7.85
			c0.16-0.2,0.31-0.39,0.45-0.57c0.14-0.19,0.28-0.37,0.41-0.56c-0.47,0.3-0.98,0.52-1.54,0.68
			C121.16,127.72,120.58,127.8,119.96,127.8z M124.68,121.73c0-0.55-0.08-1.04-0.25-1.48c-0.17-0.43-0.41-0.8-0.71-1.1
			s-0.67-0.53-1.1-0.69c-0.43-0.16-0.89-0.24-1.39-0.24c-0.52,0-0.99,0.09-1.41,0.26s-0.78,0.41-1.07,0.72
			c-0.29,0.31-0.52,0.67-0.68,1.1c-0.16,0.42-0.24,0.89-0.24,1.39c0,1.13,0.29,1.99,0.88,2.58c0.58,0.59,1.41,0.89,2.49,0.89
			c0.56,0,1.06-0.09,1.49-0.27s0.8-0.42,1.1-0.73c0.3-0.31,0.52-0.67,0.68-1.09C124.6,122.67,124.68,122.22,124.68,121.73z"/>
	</g>
</g>
<g>
	<g>
		<path class="st1" d="M164.05,82.76h2.55v2c0,0.19-0.06,0.35-0.18,0.48c-0.12,0.14-0.3,0.2-0.53,0.2h-1.83v4.94h-3.02v-4.94h-8.54
			c-0.23,0-0.44-0.07-0.62-0.22c-0.18-0.14-0.29-0.32-0.34-0.54l-0.35-1.75l9.59-12.81h3.28V82.76z M161.02,76.13
			c0-0.3,0.01-0.62,0.03-0.97s0.05-0.7,0.1-1.08l-6.29,8.67h6.16V76.13z"/>
		<path class="st1" d="M182.44,70.14v1.5c0,0.45-0.05,0.81-0.15,1.08c-0.1,0.28-0.19,0.51-0.29,0.69l-7.66,15.79
			c-0.16,0.33-0.38,0.6-0.67,0.83c-0.29,0.23-0.68,0.34-1.18,0.34H170l7.84-15.47c0.33-0.63,0.69-1.18,1.09-1.64h-9.69
			c-0.21,0-0.4-0.08-0.56-0.24c-0.16-0.16-0.24-0.35-0.24-0.56v-2.34H182.44z"/>
	</g>
</g>
<g>
	<g>
		<path class="st1" d="M71.17,82.76h2.55v2c0,0.19-0.06,0.35-0.18,0.48c-0.12,0.14-0.3,0.2-0.53,0.2h-1.83v4.94h-3.02v-4.94H59.6
			c-0.23,0-0.44-0.07-0.62-0.22c-0.18-0.14-0.29-0.32-0.34-0.54l-0.35-1.75l9.59-12.81h3.28V82.76z M68.15,76.13
			c0-0.3,0.01-0.62,0.03-0.97s0.05-0.7,0.1-1.08l-6.29,8.67h6.16V76.13z"/>
		<path class="st1" d="M82.97,69.92c0.93,0,1.78,0.13,2.53,0.4c0.75,0.27,1.39,0.63,1.93,1.11c0.53,0.47,0.94,1.02,1.22,1.66
			c0.28,0.64,0.43,1.32,0.43,2.06c0,0.64-0.07,1.21-0.22,1.7c-0.15,0.49-0.35,0.92-0.63,1.28c-0.28,0.36-0.61,0.67-1.01,0.92
			c-0.4,0.25-0.85,0.46-1.35,0.63c1.21,0.38,2.12,0.97,2.72,1.75c0.6,0.78,0.9,1.77,0.9,2.95c0,1.01-0.19,1.9-0.56,2.67
			c-0.37,0.77-0.88,1.43-1.51,1.95s-1.37,0.93-2.21,1.2s-1.72,0.41-2.65,0.41c-1.02,0-1.9-0.12-2.66-0.35s-1.41-0.58-1.97-1.04
			c-0.56-0.46-1.04-1.02-1.43-1.68s-0.73-1.43-1.01-2.3l1.53-0.63c0.26-0.11,0.53-0.17,0.8-0.17c0.24,0,0.46,0.05,0.65,0.15
			c0.19,0.1,0.34,0.25,0.44,0.45c0.17,0.33,0.35,0.65,0.55,0.97c0.2,0.32,0.44,0.6,0.72,0.85c0.28,0.25,0.61,0.45,0.99,0.6
			c0.38,0.15,0.83,0.23,1.35,0.23c0.59,0,1.1-0.1,1.54-0.29c0.44-0.19,0.8-0.44,1.1-0.75c0.29-0.31,0.51-0.65,0.66-1.03
			s0.22-0.76,0.22-1.14c0-0.49-0.05-0.93-0.15-1.32c-0.1-0.4-0.32-0.74-0.64-1.02c-0.33-0.28-0.8-0.5-1.41-0.66
			c-0.61-0.16-1.43-0.24-2.46-0.24v-2.48c0.85,0,1.55-0.07,2.11-0.22c0.56-0.15,1.01-0.36,1.34-0.62c0.33-0.27,0.56-0.59,0.69-0.96
			c0.13-0.37,0.2-0.78,0.2-1.23c0-0.96-0.26-1.69-0.78-2.18c-0.52-0.49-1.24-0.74-2.14-0.74c-0.82,0-1.5,0.22-2.04,0.65
			c-0.54,0.43-0.92,0.99-1.13,1.67c-0.11,0.35-0.27,0.61-0.46,0.76c-0.2,0.15-0.45,0.23-0.77,0.23c-0.15,0-0.31-0.01-0.48-0.04
			l-1.82-0.32c0.14-0.97,0.41-1.82,0.81-2.56c0.4-0.73,0.9-1.34,1.5-1.83c0.6-0.49,1.29-0.86,2.07-1.11
			C81.24,70.04,82.07,69.92,82.97,69.92z"/>
	</g>
</g>
<g>
	<path class="st1" d="M342.74,13.02c3.87,0,7.03,3.15,7.03,7.03v121.12c0,3.87-3.15,7.03-7.03,7.03h-27.36
		c-3.87,0-7.03-3.15-7.03-7.03V20.05c0-3.87,3.15-7.03,7.03-7.03H342.74 M342.74,10.02h-27.36c-5.54,0-10.03,4.49-10.03,10.03
		v121.12c0,5.54,4.49,10.03,10.03,10.03h27.36c5.54,0,10.03-4.49,10.03-10.03V20.05C352.77,14.51,348.28,10.02,342.74,10.02
		L342.74,10.02z"/>
</g>
<g>
	<path class="st1" d="M389.62,59.9c3.87,0,7.03,3.15,7.03,7.03v27.36c0,3.87-3.15,7.03-7.03,7.03H268.5c-3.87,0-7.03-3.15-7.03-7.03
		V66.92c0-3.87,3.15-7.03,7.03-7.03H389.62 M389.62,56.9H268.5c-5.54,0-10.03,4.49-10.03,10.03v27.36c0,5.54,4.49,10.03,10.03,10.03
		h121.12c5.54,0,10.03-4.49,10.03-10.03V66.92C399.64,61.39,395.16,56.9,389.62,56.9L389.62,56.9z"/>
</g>
<g>
	<g>
		<path class="st1" d="M320.24,36.48c-0.7,0-1.39-0.12-2.06-0.36c-0.67-0.24-1.27-0.61-1.8-1.1c-0.53-0.49-0.95-1.1-1.27-1.82
			s-0.48-1.57-0.48-2.54c0-0.91,0.17-1.75,0.5-2.55c0.34-0.79,0.81-1.49,1.41-2.09c0.61-0.6,1.33-1.07,2.18-1.41
			c0.85-0.35,1.79-0.52,2.81-0.52c1.04,0,1.97,0.16,2.79,0.49c0.83,0.33,1.53,0.78,2.11,1.37s1.03,1.29,1.34,2.11
			c0.31,0.82,0.47,1.72,0.47,2.7c0,0.63-0.05,1.22-0.16,1.78c-0.11,0.56-0.26,1.1-0.46,1.62c-0.2,0.52-0.44,1.02-0.72,1.51
			c-0.28,0.49-0.59,0.98-0.94,1.48l-4.63,6.61c-0.16,0.22-0.39,0.41-0.71,0.57c-0.31,0.15-0.67,0.23-1.07,0.23h-3.18l6.29-7.85
			c0.16-0.2,0.31-0.39,0.45-0.57c0.14-0.19,0.28-0.37,0.41-0.56c-0.47,0.3-0.98,0.52-1.54,0.68
			C321.44,36.4,320.86,36.48,320.24,36.48z M324.96,30.42c0-0.55-0.08-1.04-0.25-1.48c-0.17-0.43-0.41-0.8-0.71-1.1
			c-0.31-0.3-0.67-0.53-1.1-0.69c-0.43-0.16-0.89-0.24-1.39-0.24c-0.52,0-0.99,0.09-1.41,0.26s-0.78,0.41-1.07,0.72
			c-0.29,0.31-0.52,0.67-0.68,1.1c-0.16,0.42-0.24,0.89-0.24,1.39c0,1.13,0.29,1.99,0.88,2.58c0.58,0.59,1.41,0.89,2.49,0.89
			c0.56,0,1.06-0.09,1.49-0.27c0.43-0.18,0.8-0.42,1.1-0.73s0.53-0.67,0.68-1.09C324.88,31.35,324.96,30.9,324.96,30.42z"/>
		<path class="st1" d="M336.48,36.48c-0.7,0-1.39-0.12-2.06-0.36s-1.27-0.61-1.8-1.1c-0.53-0.49-0.95-1.1-1.27-1.82
			s-0.48-1.57-0.48-2.54c0-0.91,0.17-1.75,0.5-2.55c0.34-0.79,0.81-1.49,1.41-2.09c0.61-0.6,1.33-1.07,2.18-1.41
			c0.85-0.35,1.79-0.52,2.81-0.52c1.04,0,1.97,0.16,2.79,0.49s1.53,0.78,2.11,1.37c0.58,0.59,1.03,1.29,1.34,2.11
			c0.31,0.82,0.47,1.72,0.47,2.7c0,0.63-0.05,1.22-0.16,1.78c-0.11,0.56-0.26,1.1-0.46,1.62c-0.2,0.52-0.44,1.02-0.72,1.51
			c-0.28,0.49-0.59,0.98-0.94,1.48l-4.63,6.61c-0.16,0.22-0.39,0.41-0.71,0.57s-0.67,0.23-1.07,0.23h-3.18l6.29-7.85
			c0.16-0.2,0.31-0.39,0.45-0.57c0.14-0.19,0.28-0.37,0.41-0.56c-0.47,0.3-0.98,0.52-1.54,0.68
			C337.68,36.4,337.1,36.48,336.48,36.48z M341.2,30.42c0-0.55-0.08-1.04-0.25-1.48c-0.17-0.43-0.41-0.8-0.71-1.1
			c-0.31-0.3-0.67-0.53-1.1-0.69s-0.89-0.24-1.39-0.24c-0.52,0-0.99,0.09-1.41,0.26s-0.78,0.41-1.07,0.72
			c-0.29,0.31-0.52,0.67-0.68,1.1c-0.16,0.42-0.24,0.89-0.24,1.39c0,1.13,0.29,1.99,0.88,2.58s1.41,0.89,2.49,0.89
			c0.56,0,1.06-0.09,1.49-0.27c0.43-0.18,0.8-0.42,1.1-0.73c0.3-0.31,0.52-0.67,0.68-1.09C341.12,31.35,341.2,30.9,341.2,30.42z"/>
	</g>
</g>
<g>
	<g>
		<path class="st1" d="M326.01,128.24h2.55v2c0,0.19-0.06,0.35-0.18,0.48s-0.3,0.2-0.53,0.2h-1.83v4.94h-3.02v-4.94h-8.54
			c-0.23,0-0.44-0.07-0.62-0.22c-0.18-0.14-0.29-0.32-0.34-0.54l-0.35-1.75l9.59-12.81h3.28V128.24z M322.98,121.62
			c0-0.3,0.01-0.62,0.03-0.97s0.05-0.7,0.1-1.08l-6.29,8.67h6.16V121.62z"/>
		<path class="st1" d="M344.4,115.63v1.5c0,0.45-0.05,0.81-0.15,1.08c-0.1,0.28-0.19,0.51-0.29,0.69l-7.66,15.79
			c-0.16,0.33-0.38,0.6-0.67,0.83c-0.29,0.23-0.68,0.34-1.18,0.34h-2.51l7.84-15.47c0.33-0.63,0.69-1.18,1.09-1.64h-9.69
			c-0.21,0-0.4-0.08-0.56-0.24c-0.16-0.16-0.24-0.35-0.24-0.56v-2.34H344.4z"/>
	</g>
</g>
<g>
	<g>
		<path class="st1" d="M368.01,69.92c0.93,0,1.78,0.13,2.53,0.4c0.75,0.27,1.39,0.63,1.92,1.11c0.53,0.47,0.94,1.02,1.22,1.66
			c0.29,0.64,0.43,1.32,0.43,2.06c0,0.64-0.07,1.21-0.22,1.7c-0.14,0.49-0.36,0.92-0.63,1.28c-0.28,0.36-0.61,0.67-1.01,0.92
			s-0.85,0.46-1.35,0.63c1.21,0.38,2.12,0.97,2.72,1.75s0.9,1.77,0.9,2.95c0,1.01-0.19,1.9-0.56,2.67
			c-0.37,0.77-0.88,1.43-1.51,1.95s-1.37,0.93-2.21,1.2s-1.72,0.41-2.65,0.41c-1.02,0-1.9-0.12-2.66-0.35s-1.41-0.58-1.97-1.04
			c-0.56-0.46-1.04-1.02-1.43-1.68s-0.73-1.43-1.01-2.3l1.53-0.63c0.26-0.11,0.53-0.17,0.8-0.17c0.24,0,0.46,0.05,0.65,0.15
			c0.19,0.1,0.34,0.25,0.44,0.45c0.17,0.33,0.35,0.65,0.55,0.97c0.2,0.32,0.44,0.6,0.72,0.85c0.28,0.25,0.61,0.45,0.99,0.6
			c0.38,0.15,0.83,0.23,1.35,0.23c0.59,0,1.1-0.1,1.54-0.29c0.44-0.19,0.8-0.44,1.1-0.75c0.29-0.31,0.51-0.65,0.66-1.03
			s0.22-0.76,0.22-1.14c0-0.49-0.05-0.93-0.15-1.32c-0.1-0.4-0.32-0.74-0.64-1.02c-0.33-0.28-0.8-0.5-1.41-0.66
			c-0.61-0.16-1.43-0.24-2.46-0.24v-2.48c0.85,0,1.55-0.07,2.11-0.22c0.56-0.15,1.01-0.36,1.34-0.62c0.33-0.27,0.56-0.59,0.69-0.96
			c0.13-0.37,0.2-0.78,0.2-1.23c0-0.96-0.26-1.69-0.78-2.18c-0.52-0.49-1.24-0.74-2.14-0.74c-0.82,0-1.5,0.22-2.04,0.65
			s-0.92,0.99-1.13,1.67c-0.11,0.35-0.27,0.61-0.46,0.76c-0.2,0.15-0.45,0.23-0.77,0.23c-0.15,0-0.31-0.01-0.48-0.04l-1.82-0.32
			c0.14-0.97,0.41-1.82,0.81-2.56c0.4-0.73,0.9-1.34,1.5-1.83c0.6-0.49,1.29-0.86,2.07-1.11C366.28,70.04,367.11,69.92,368.01,69.92
			z"/>
		<path class="st1" d="M379.27,87.8h4.1v-11.8c0-0.46,0.01-0.94,0.04-1.44l-2.91,2.44c-0.12,0.1-0.25,0.17-0.37,0.21
			c-0.13,0.04-0.25,0.06-0.37,0.06c-0.19,0-0.36-0.04-0.51-0.12c-0.15-0.08-0.27-0.17-0.34-0.27l-1.09-1.5l6.17-5.25h2.84V87.8h3.64
			v2.59h-11.2V87.8z"/>
	</g>
</g>
<g>
	<g>
		<path class="st1" d="M274.81,69.92c0.93,0,1.79,0.14,2.56,0.41c0.77,0.28,1.44,0.67,1.99,1.17c0.55,0.5,0.98,1.11,1.29,1.82
			c0.31,0.71,0.46,1.5,0.46,2.37c0,0.75-0.11,1.44-0.33,2.07c-0.22,0.63-0.51,1.24-0.88,1.82c-0.37,0.58-0.8,1.14-1.29,1.68
			c-0.5,0.54-1.01,1.09-1.55,1.65l-4.56,4.66c0.45-0.13,0.89-0.23,1.32-0.3c0.43-0.07,0.84-0.1,1.23-0.1h5.19
			c0.37,0,0.67,0.1,0.89,0.32c0.22,0.21,0.33,0.49,0.33,0.83v2.07h-13.89v-1.15c0-0.23,0.05-0.48,0.15-0.73s0.25-0.49,0.47-0.7
			l6.15-6.16c0.51-0.52,0.97-1.02,1.38-1.5s0.75-0.95,1.02-1.41s0.49-0.94,0.63-1.42c0.14-0.48,0.22-0.99,0.22-1.52
			c0-0.49-0.07-0.91-0.21-1.28c-0.14-0.37-0.34-0.68-0.6-0.93c-0.26-0.25-0.57-0.44-0.93-0.57s-0.76-0.19-1.21-0.19
			c-0.83,0-1.51,0.21-2.05,0.63c-0.54,0.42-0.91,0.98-1.13,1.69c-0.1,0.35-0.26,0.61-0.46,0.76c-0.21,0.15-0.47,0.23-0.78,0.23
			c-0.14,0-0.29-0.01-0.46-0.04l-1.82-0.32c0.14-0.97,0.41-1.82,0.81-2.56c0.4-0.73,0.9-1.34,1.5-1.83c0.6-0.49,1.29-0.86,2.07-1.11
			C273.08,70.04,273.91,69.92,274.81,69.92z"/>
		<path class="st1" d="M286.39,87.8h4.1v-11.8c0-0.46,0.01-0.94,0.04-1.44l-2.91,2.44c-0.12,0.1-0.25,0.17-0.37,0.21
			c-0.13,0.04-0.25,0.06-0.37,0.06c-0.19,0-0.36-0.04-0.51-0.12c-0.15-0.08-0.27-0.17-0.34-0.27l-1.09-1.5l6.17-5.25h2.84V87.8h3.64
			v2.59h-11.2V87.8z"/>
	</g>
</g>
<g>
	<path class="st1" d="M238.68,171.81c3.87,0,7.03,3.15,7.03,7.03v121.12c0,3.87-3.15,7.03-7.03,7.03h-27.36
		c-3.87,0-7.03-3.15-7.03-7.03V178.84c0-3.87,3.15-7.03,7.03-7.03H238.68 M238.68,168.81h-27.36c-5.54,0-10.03,4.49-10.03,10.03
		v121.12c0,5.54,4.49,10.03,10.03,10.03h27.36c5.54,0,10.03-4.49,10.03-10.03V178.84C248.71,173.3,244.22,168.81,238.68,168.81
		L238.68,168.81z"/>
</g>
<g>
	<path class="st1" d="M285.56,218.69c3.87,0,7.03,3.15,7.03,7.03v27.36c0,3.87-3.15,7.03-7.03,7.03H164.44
		c-3.87,0-7.03-3.15-7.03-7.03v-27.36c0-3.87,3.15-7.03,7.03-7.03H285.56 M285.56,215.69H164.44c-5.54,0-10.03,4.49-10.03,10.03
		v27.36c0,5.54,4.49,10.03,10.03,10.03h121.12c5.54,0,10.03-4.49,10.03-10.03v-27.36C295.58,220.18,291.1,215.69,285.56,215.69
		L285.56,215.69z"/>
</g>
<g>
	<g>
		<path class="st1" d="M216.18,195.27c-0.7,0-1.39-0.12-2.06-0.36c-0.67-0.24-1.27-0.61-1.8-1.1c-0.53-0.49-0.95-1.1-1.27-1.82
			c-0.32-0.72-0.48-1.57-0.48-2.54c0-0.91,0.17-1.75,0.5-2.55c0.34-0.79,0.81-1.49,1.41-2.09c0.61-0.6,1.33-1.07,2.18-1.41
			c0.85-0.34,1.79-0.52,2.81-0.52c1.04,0,1.97,0.16,2.79,0.49c0.83,0.33,1.53,0.78,2.11,1.37c0.58,0.59,1.03,1.29,1.34,2.11
			c0.31,0.82,0.47,1.72,0.47,2.7c0,0.63-0.05,1.22-0.16,1.78s-0.26,1.1-0.46,1.62c-0.2,0.52-0.44,1.02-0.72,1.51
			c-0.28,0.49-0.59,0.98-0.94,1.48l-4.63,6.61c-0.16,0.22-0.39,0.41-0.71,0.57c-0.31,0.15-0.67,0.23-1.07,0.23h-3.18l6.29-7.85
			c0.16-0.2,0.31-0.39,0.45-0.57c0.14-0.19,0.28-0.37,0.41-0.56c-0.47,0.3-0.98,0.52-1.54,0.68S216.8,195.27,216.18,195.27z
			 M220.9,189.21c0-0.55-0.08-1.04-0.25-1.48c-0.17-0.43-0.41-0.8-0.71-1.1s-0.67-0.53-1.1-0.69c-0.43-0.16-0.89-0.24-1.39-0.24
			c-0.52,0-0.99,0.09-1.41,0.26s-0.78,0.41-1.07,0.72c-0.29,0.31-0.52,0.67-0.68,1.1s-0.24,0.89-0.24,1.39
			c0,1.13,0.29,1.99,0.88,2.58c0.58,0.59,1.41,0.89,2.49,0.89c0.56,0,1.06-0.09,1.49-0.27c0.43-0.18,0.8-0.42,1.1-0.73
			c0.3-0.31,0.52-0.67,0.68-1.09C220.82,190.14,220.9,189.69,220.9,189.21z"/>
		<path class="st1" d="M232.42,195.27c-0.7,0-1.39-0.12-2.06-0.36c-0.67-0.24-1.27-0.61-1.8-1.1c-0.53-0.49-0.95-1.1-1.27-1.82
			c-0.32-0.72-0.48-1.57-0.48-2.54c0-0.91,0.17-1.75,0.5-2.55c0.34-0.79,0.81-1.49,1.41-2.09c0.61-0.6,1.33-1.07,2.18-1.41
			c0.85-0.34,1.79-0.52,2.81-0.52c1.04,0,1.97,0.16,2.79,0.49c0.83,0.33,1.53,0.78,2.11,1.37c0.58,0.59,1.03,1.29,1.34,2.11
			c0.31,0.82,0.47,1.72,0.47,2.7c0,0.63-0.05,1.22-0.16,1.78s-0.26,1.1-0.46,1.62c-0.2,0.52-0.44,1.02-0.72,1.51
			s-0.59,0.98-0.94,1.48l-4.63,6.61c-0.16,0.22-0.39,0.41-0.71,0.57c-0.31,0.15-0.67,0.23-1.07,0.23h-3.18l6.29-7.85
			c0.16-0.2,0.31-0.39,0.45-0.57s0.28-0.37,0.41-0.56c-0.47,0.3-0.98,0.52-1.54,0.68C233.62,195.19,233.04,195.27,232.42,195.27z
			 M237.14,189.21c0-0.55-0.08-1.04-0.25-1.48c-0.17-0.43-0.41-0.8-0.71-1.1c-0.31-0.3-0.67-0.53-1.1-0.69
			c-0.42-0.16-0.89-0.24-1.39-0.24c-0.52,0-0.99,0.09-1.41,0.26s-0.78,0.41-1.07,0.72c-0.29,0.31-0.52,0.67-0.68,1.1
			c-0.16,0.42-0.24,0.89-0.24,1.39c0,1.13,0.29,1.99,0.88,2.58s1.41,0.89,2.49,0.89c0.56,0,1.06-0.09,1.49-0.27
			c0.43-0.18,0.8-0.42,1.1-0.73c0.3-0.31,0.52-0.67,0.68-1.09C237.06,190.14,237.14,189.69,237.14,189.21z"/>
	</g>
</g>
<g>
	<g>
		<path class="st1" d="M258.97,246.59h4.1v-11.8c0-0.46,0.01-0.94,0.04-1.44l-2.91,2.44c-0.12,0.1-0.25,0.17-0.37,0.21
			s-0.25,0.06-0.37,0.06c-0.19,0-0.36-0.04-0.51-0.12c-0.15-0.08-0.27-0.17-0.34-0.27l-1.09-1.5l6.17-5.25h2.84v17.68h3.64v2.59
			h-11.2V246.59z"/>
		<path class="st1" d="M285.29,230.4c0,0.49-0.16,0.9-0.47,1.2c-0.31,0.31-0.83,0.46-1.56,0.46h-5.57l-0.73,4.23
			c0.92-0.19,1.75-0.28,2.51-0.28c1.06,0,2,0.16,2.81,0.48c0.81,0.32,1.49,0.76,2.04,1.32c0.55,0.56,0.97,1.22,1.25,1.97
			c0.28,0.75,0.42,1.56,0.42,2.43c0,1.07-0.19,2.05-0.57,2.94c-0.38,0.89-0.9,1.65-1.58,2.28s-1.47,1.12-2.39,1.46
			c-0.92,0.35-1.92,0.52-3,0.52c-0.63,0-1.24-0.07-1.81-0.2s-1.1-0.31-1.6-0.53c-0.5-0.22-0.96-0.47-1.39-0.76
			c-0.42-0.28-0.81-0.58-1.14-0.9l1.06-1.47c0.22-0.32,0.52-0.48,0.9-0.48c0.23,0,0.47,0.07,0.71,0.22
			c0.24,0.15,0.52,0.31,0.83,0.49s0.69,0.34,1.11,0.49s0.93,0.22,1.53,0.22c0.63,0,1.2-0.1,1.68-0.31s0.89-0.49,1.21-0.86
			c0.32-0.37,0.56-0.81,0.73-1.32c0.16-0.51,0.25-1.06,0.25-1.66c0-1.1-0.32-1.96-0.96-2.58c-0.64-0.62-1.58-0.93-2.82-0.93
			c-0.98,0-1.96,0.18-2.95,0.53l-2.16-0.62l1.68-9.83h10V230.4z"/>
	</g>
</g>
<g>
	<g>
		<path class="st1" d="M175.51,241.55h2.55v2c0,0.19-0.06,0.35-0.18,0.48c-0.12,0.13-0.3,0.2-0.53,0.2h-1.83v4.94h-3.02v-4.94h-8.54
			c-0.23,0-0.44-0.07-0.62-0.22c-0.18-0.14-0.29-0.32-0.34-0.54l-0.35-1.75l9.59-12.81h3.28V241.55z M172.48,234.92
			c0-0.3,0.01-0.62,0.03-0.97c0.02-0.34,0.05-0.7,0.1-1.08l-6.29,8.67h6.16V234.92z"/>
		<path class="st1" d="M193.9,228.93v1.5c0,0.45-0.05,0.81-0.15,1.08c-0.1,0.28-0.19,0.51-0.29,0.69L185.81,248
			c-0.16,0.33-0.38,0.6-0.67,0.83c-0.29,0.23-0.68,0.34-1.18,0.34h-2.51l7.84-15.47c0.33-0.63,0.69-1.18,1.09-1.64h-9.69
			c-0.21,0-0.4-0.08-0.56-0.24c-0.16-0.16-0.24-0.35-0.24-0.56v-2.34H193.9z"/>
	</g>
</g>
</svg>
