<?xml version="1.0" encoding="utf-8"?>
<!-- Generator: Adobe Illustrator 27.3.1, SVG Export Plug-In . SVG Version: 6.00 Build 0)  -->
<svg version="1.1" id="Layer_1" xmlns="http://www.w3.org/2000/svg" xmlns:xlink="http://www.w3.org/1999/xlink" x="0px" y="0px"
	 viewBox="0 0 120 120" style="enable-background:new 0 0 120 120;" xml:space="preserve">
<style type="text/css">
	.st0{display:none;}
	.st1{fill:#1D191A;}
	.st2{fill:none;}
</style>
<g>
	<path class="st1" d="M34.4,43.38c1.5,0,2.87,0.22,4.12,0.66c1.24,0.44,2.31,1.07,3.2,1.88c0.88,0.81,1.57,1.79,2.07,2.92
		c0.49,1.14,0.74,2.41,0.74,3.8c0,1.2-0.18,2.31-0.53,3.33c-0.35,1.02-0.83,2-1.42,2.92c-0.59,0.93-1.29,1.83-2.08,2.7
		c-0.8,0.87-1.63,1.75-2.5,2.66l-7.33,7.49c0.72-0.21,1.42-0.37,2.11-0.48c0.69-0.11,1.35-0.17,1.98-0.17h8.35
		c0.6,0,1.08,0.17,1.43,0.51c0.35,0.34,0.53,0.78,0.53,1.34v3.33H22.74v-1.84c0-0.38,0.08-0.77,0.24-1.17
		c0.16-0.41,0.41-0.78,0.75-1.12l9.88-9.9c0.83-0.84,1.56-1.64,2.22-2.41c0.65-0.77,1.2-1.52,1.64-2.27
		c0.44-0.75,0.78-1.51,1.01-2.28c0.23-0.77,0.35-1.59,0.35-2.44c0-0.78-0.11-1.47-0.34-2.06c-0.23-0.59-0.55-1.09-0.97-1.5
		s-0.92-0.71-1.5-0.91c-0.58-0.2-1.23-0.3-1.95-0.3c-1.33,0-2.43,0.34-3.3,1.01c-0.86,0.67-1.47,1.58-1.81,2.72
		c-0.17,0.57-0.41,0.98-0.74,1.23c-0.33,0.25-0.75,0.37-1.26,0.37c-0.22,0-0.47-0.02-0.74-0.07L23.3,52.8
		c0.23-1.56,0.66-2.93,1.3-4.11c0.65-1.18,1.45-2.16,2.42-2.95c0.97-0.79,2.08-1.38,3.33-1.78C31.61,43.57,32.96,43.38,34.4,43.38z"
		/>
	<path class="st1" d="M69.2,46.1c0,0.8-0.25,1.44-0.75,1.94s-1.34,0.74-2.51,0.74h-8.96l-1.17,6.79c1.47-0.3,2.81-0.45,4.03-0.45
		c1.71,0,3.21,0.26,4.51,0.77s2.39,1.21,3.27,2.12c0.88,0.9,1.55,1.95,2,3.16c0.45,1.21,0.67,2.51,0.67,3.9
		c0,1.73-0.3,3.3-0.91,4.72c-0.61,1.43-1.45,2.64-2.53,3.66c-1.08,1.01-2.36,1.8-3.84,2.35c-1.48,0.55-3.09,0.83-4.83,0.83
		c-1.02,0-1.99-0.11-2.9-0.32c-0.92-0.21-1.77-0.49-2.58-0.84c-0.8-0.35-1.55-0.76-2.23-1.21c-0.68-0.46-1.29-0.94-1.83-1.45
		l1.71-2.36c0.36-0.51,0.84-0.77,1.44-0.77c0.38,0,0.75,0.12,1.14,0.36s0.83,0.5,1.34,0.79c0.51,0.29,1.1,0.55,1.78,0.79
		c0.68,0.24,1.49,0.36,2.45,0.36c1.02,0,1.92-0.16,2.7-0.5c0.78-0.33,1.43-0.79,1.95-1.38c0.52-0.59,0.91-1.3,1.17-2.12
		c0.26-0.82,0.39-1.71,0.39-2.67c0-1.77-0.51-3.15-1.54-4.15c-1.03-1-2.54-1.5-4.53-1.5c-1.57,0-3.16,0.29-4.75,0.86l-3.47-0.99
		l2.7-15.79H69.2V46.1z"/>
	<path class="st1" d="M84.97,63.29c-1.12,0-2.23-0.2-3.31-0.58c-1.08-0.39-2.04-0.98-2.89-1.77c-0.85-0.79-1.53-1.76-2.04-2.92
		c-0.51-1.16-0.77-2.52-0.77-4.08c0-1.45,0.27-2.82,0.81-4.09c0.54-1.27,1.3-2.39,2.27-3.35c0.98-0.96,2.15-1.72,3.51-2.27
		c1.36-0.55,2.87-0.83,4.52-0.83c1.67,0,3.16,0.26,4.49,0.79c1.33,0.53,2.46,1.26,3.4,2.21c0.94,0.95,1.66,2.08,2.16,3.4
		c0.5,1.32,0.75,2.77,0.75,4.34c0,1-0.09,1.96-0.26,2.86c-0.17,0.9-0.42,1.77-0.74,2.6c-0.32,0.83-0.71,1.64-1.16,2.43
		c-0.45,0.79-0.95,1.58-1.51,2.37l-7.45,10.62c-0.26,0.36-0.63,0.66-1.14,0.91c-0.5,0.25-1.08,0.37-1.72,0.37h-5.11l10.1-12.62
		c0.25-0.32,0.5-0.62,0.72-0.92c0.22-0.3,0.44-0.6,0.65-0.9c-0.75,0.48-1.58,0.84-2.48,1.09C86.91,63.16,85.96,63.29,84.97,63.29z
		 M92.56,53.55c0-0.89-0.13-1.68-0.4-2.37S91.5,49.89,91,49.41c-0.5-0.48-1.08-0.85-1.77-1.1c-0.68-0.25-1.43-0.38-2.24-0.38
		c-0.84,0-1.6,0.14-2.27,0.42S83.48,49,83.01,49.5c-0.47,0.5-0.84,1.08-1.09,1.77s-0.38,1.43-0.38,2.24c0,1.81,0.47,3.2,1.41,4.15
		c0.94,0.95,2.27,1.43,3.99,1.43c0.9,0,1.7-0.14,2.4-0.43s1.29-0.68,1.77-1.17c0.48-0.5,0.84-1.08,1.09-1.76
		C92.43,55.05,92.56,54.33,92.56,53.55z"/>
</g>
<g>
	<path class="st1" d="M107,13v94H13V13H107 M110,10H10v100h100V10L110,10z"/>
</g>
<rect x="58.12" y="58.6" class="st2" width="2.65" height="0"/>
</svg>
