<?xml version="1.0" encoding="utf-8"?>
<!-- Generator: Adobe Illustrator 27.3.1, SVG Export Plug-In . SVG Version: 6.00 Build 0)  -->
<svg version="1.1" id="Layer_1" xmlns="http://www.w3.org/2000/svg" xmlns:xlink="http://www.w3.org/1999/xlink" x="0px" y="0px"
	 viewBox="0 0 120 120" style="enable-background:new 0 0 120 120;" xml:space="preserve">
<style type="text/css">
	.st0{display:none;}
	.st1{fill:#1D191A;}
	.st2{fill:none;}
</style>
<g>
	<path class="st1" d="M34.4,43.38c1.5,0,2.87,0.22,4.12,0.66c1.24,0.44,2.31,1.07,3.2,1.88c0.88,0.81,1.57,1.79,2.07,2.92
		c0.49,1.14,0.74,2.41,0.74,3.8c0,1.2-0.18,2.31-0.53,3.33c-0.35,1.02-0.83,2-1.42,2.92c-0.59,0.93-1.29,1.83-2.08,2.7
		c-0.8,0.87-1.63,1.75-2.5,2.66l-7.33,7.49c0.72-0.21,1.42-0.37,2.11-0.48c0.69-0.11,1.35-0.17,1.98-0.17h8.35
		c0.6,0,1.08,0.17,1.43,0.51c0.35,0.34,0.53,0.78,0.53,1.34v3.33H22.74v-1.84c0-0.38,0.08-0.77,0.24-1.17
		c0.16-0.41,0.41-0.78,0.75-1.12l9.88-9.9c0.83-0.84,1.56-1.64,2.22-2.41c0.65-0.77,1.2-1.52,1.64-2.27
		c0.44-0.75,0.78-1.51,1.01-2.28c0.23-0.77,0.35-1.59,0.35-2.44c0-0.78-0.11-1.47-0.34-2.06c-0.23-0.59-0.55-1.09-0.97-1.5
		s-0.92-0.71-1.5-0.91c-0.58-0.2-1.23-0.3-1.95-0.3c-1.33,0-2.43,0.34-3.3,1.01c-0.86,0.67-1.47,1.58-1.81,2.72
		c-0.17,0.57-0.41,0.98-0.74,1.23c-0.33,0.25-0.75,0.37-1.26,0.37c-0.22,0-0.47-0.02-0.74-0.07L23.3,52.8
		c0.23-1.56,0.66-2.93,1.3-4.11c0.65-1.18,1.45-2.16,2.42-2.95c0.97-0.79,2.08-1.38,3.33-1.78C31.61,43.57,32.96,43.38,34.4,43.38z"
		/>
	<path class="st1" d="M58.88,63.29c-1.12,0-2.23-0.2-3.31-0.58s-2.04-0.98-2.89-1.77c-0.85-0.79-1.53-1.76-2.04-2.92
		c-0.51-1.16-0.77-2.52-0.77-4.08c0-1.45,0.27-2.82,0.81-4.09c0.54-1.27,1.3-2.39,2.27-3.35s2.15-1.72,3.51-2.27
		c1.36-0.55,2.87-0.83,4.52-0.83c1.67,0,3.16,0.26,4.49,0.79s2.46,1.26,3.4,2.21s1.66,2.08,2.16,3.4c0.5,1.32,0.75,2.77,0.75,4.34
		c0,1-0.09,1.96-0.26,2.86c-0.17,0.9-0.42,1.77-0.74,2.6c-0.32,0.83-0.71,1.64-1.16,2.43c-0.45,0.79-0.95,1.58-1.51,2.37
		l-7.45,10.62c-0.26,0.36-0.63,0.66-1.14,0.91c-0.5,0.25-1.08,0.37-1.72,0.37h-5.11l10.1-12.62c0.26-0.32,0.5-0.62,0.72-0.92
		s0.44-0.6,0.65-0.9c-0.75,0.48-1.57,0.84-2.47,1.09C60.81,63.16,59.87,63.29,58.88,63.29z M66.46,53.55c0-0.89-0.13-1.68-0.41-2.37
		c-0.27-0.7-0.65-1.29-1.15-1.77c-0.5-0.48-1.08-0.85-1.77-1.1c-0.68-0.25-1.43-0.38-2.24-0.38c-0.84,0-1.6,0.14-2.27,0.42
		c-0.68,0.28-1.25,0.66-1.72,1.16c-0.47,0.5-0.84,1.08-1.09,1.77c-0.26,0.68-0.38,1.43-0.38,2.24c0,1.81,0.47,3.2,1.41,4.15
		c0.94,0.95,2.27,1.43,3.99,1.43c0.9,0,1.7-0.14,2.4-0.43c0.7-0.29,1.29-0.68,1.77-1.17c0.48-0.5,0.84-1.08,1.09-1.76
		C66.33,55.05,66.46,54.33,66.46,53.55z"/>
	<path class="st1" d="M86.1,76.63c-1.68,0-3.21-0.23-4.6-0.68c-1.39-0.45-2.58-1.09-3.57-1.91c-0.99-0.83-1.76-1.82-2.31-2.99
		s-0.82-2.48-0.82-3.92c0-1.92,0.47-3.54,1.42-4.87c0.95-1.33,2.41-2.31,4.41-2.96c-1.59-0.66-2.78-1.6-3.57-2.81
		c-0.79-1.21-1.18-2.68-1.18-4.39c0-1.23,0.25-2.38,0.75-3.44c0.5-1.07,1.2-1.99,2.1-2.78c0.9-0.79,1.98-1.4,3.23-1.84
		s2.63-0.66,4.13-0.66s2.88,0.22,4.13,0.66s2.33,1.06,3.23,1.84c0.9,0.79,1.6,1.71,2.1,2.78c0.5,1.07,0.75,2.21,0.75,3.44
		c0,1.71-0.4,3.17-1.19,4.39s-1.98,2.15-3.55,2.81c2,0.64,3.46,1.63,4.41,2.96c0.94,1.33,1.42,2.95,1.42,4.87
		c0,1.44-0.27,2.75-0.82,3.92c-0.55,1.17-1.32,2.17-2.31,2.99s-2.18,1.46-3.57,1.91C89.31,76.41,87.78,76.63,86.1,76.63z
		 M86.1,72.29c0.92,0,1.72-0.13,2.41-0.39c0.69-0.26,1.27-0.63,1.74-1.09c0.47-0.46,0.83-1.02,1.07-1.67
		c0.24-0.64,0.36-1.34,0.36-2.09c0-1.79-0.5-3.14-1.48-4.05c-0.99-0.91-2.36-1.37-4.1-1.37S82.99,62.08,82,63
		c-0.99,0.92-1.49,2.27-1.49,4.05c0,0.75,0.12,1.45,0.36,2.09c0.24,0.65,0.6,1.2,1.07,1.67c0.47,0.47,1.05,0.83,1.74,1.09
		C84.38,72.16,85.18,72.29,86.1,72.29z M86.1,57.26c0.9,0,1.66-0.14,2.27-0.43c0.62-0.28,1.11-0.66,1.49-1.14s0.64-1.01,0.8-1.62
		c0.16-0.61,0.24-1.23,0.24-1.88c0-0.61-0.1-1.2-0.29-1.75c-0.2-0.55-0.49-1.05-0.88-1.47c-0.39-0.43-0.89-0.77-1.49-1.02
		c-0.6-0.25-1.31-0.38-2.14-0.38c-0.82,0-1.54,0.13-2.14,0.38c-0.6,0.25-1.1,0.6-1.5,1.02s-0.69,0.92-0.88,1.47
		c-0.19,0.56-0.28,1.14-0.28,1.75c0,0.65,0.08,1.27,0.24,1.88c0.16,0.61,0.42,1.15,0.8,1.62s0.87,0.85,1.49,1.14
		C84.44,57.12,85.2,57.26,86.1,57.26z"/>
</g>
<g>
	<path class="st1" d="M107,13v94H13V13H107 M110,10H10v100h100V10L110,10z"/>
</g>
<rect x="58.12" y="58.6" class="st2" width="2.65" height="0"/>
</svg>
