<?xml version="1.0" encoding="utf-8"?>
<!-- Generator: Adobe Illustrator 27.3.1, SVG Export Plug-In . SVG Version: 6.00 Build 0)  -->
<svg version="1.1" id="Layer_1" xmlns="http://www.w3.org/2000/svg" xmlns:xlink="http://www.w3.org/1999/xlink" x="0px" y="0px"
	 viewBox="0 0 450 320" style="enable-background:new 0 0 450 320;" xml:space="preserve">
<style type="text/css">
	.st0{display:none;}
	.st1{fill:#1D191A;}
	.st2{fill:none;stroke:#1D191A;stroke-width:3;stroke-miterlimit:10;}
</style>
<g>
	<g>
		<path class="st1" d="M349.6,278.75c0-2,0.12-3.75,0.36-5.23s0.64-2.84,1.19-4.06c0.55-1.23,1.26-2.39,2.14-3.49
			c0.87-1.1,1.95-2.27,3.22-3.51c0.96-0.93,1.86-1.81,2.69-2.65c0.83-0.83,1.57-1.69,2.2-2.56c0.64-0.87,1.14-1.81,1.5-2.79
			c0.37-0.99,0.55-2.09,0.55-3.3c0-2.65-0.66-4.68-1.97-6.08c-1.31-1.4-3.24-2.09-5.78-2.09c-1.02,0-2,0.14-2.96,0.42
			s-1.82,0.73-2.58,1.35c-0.76,0.62-1.38,1.41-1.84,2.37c-0.47,0.96-0.7,2.12-0.7,3.47h-10.3c0.03-2.65,0.51-4.99,1.46-7.01
			c0.94-2.02,2.24-3.71,3.89-5.08c1.65-1.37,3.58-2.4,5.8-3.09s4.62-1.04,7.22-1.04c2.85,0,5.39,0.37,7.62,1.1s4.12,1.81,5.67,3.22
			c1.55,1.41,2.73,3.13,3.54,5.17c0.8,2.03,1.21,4.33,1.21,6.9c0,1.86-0.3,3.6-0.89,5.21c-0.59,1.61-1.38,3.12-2.37,4.53
			s-2.12,2.77-3.39,4.06c-1.27,1.3-2.58,2.58-3.94,3.85c-1.55,1.41-2.59,2.96-3.11,4.64c-0.52,1.68-0.8,3.58-0.83,5.69L349.6,278.75
			L349.6,278.75z M348.88,291.92c0-0.79,0.13-1.52,0.38-2.2c0.25-0.68,0.63-1.27,1.12-1.78s1.1-0.9,1.82-1.19
			c0.72-0.28,1.55-0.42,2.48-0.42c0.93,0,1.76,0.14,2.48,0.42s1.33,0.68,1.82,1.19c0.49,0.51,0.87,1.1,1.14,1.78
			c0.27,0.68,0.4,1.41,0.4,2.2c0,1.55-0.51,2.85-1.52,3.89c-1.02,1.04-2.45,1.57-4.32,1.57s-3.3-0.52-4.3-1.57
			C349.38,294.77,348.88,293.47,348.88,291.92z"/>
	</g>
</g>
<circle class="st2" cx="94.19" cy="54.14" r="44.12"/>
<path class="st2" d="M94.19,36.19c19.79,0,35.84,6.24,35.84,13.95s-16.05,13.95-35.84,13.95"/>
<circle class="st1" cx="94.19" cy="50.14" r="4.99"/>
<g>
	<path class="st1" d="M94.19,90.57c0.83,0,1.5,0.67,1.5,1.5s-0.67,1.5-1.5,1.5s-1.5-0.67-1.5-1.5S93.37,90.57,94.19,90.57
		 M94.19,89.07c-1.66,0-3,1.34-3,3s1.34,3,3,3s3-1.34,3-3S95.85,89.07,94.19,89.07L94.19,89.07z"/>
</g>
<circle class="st2" cx="225" cy="54.14" r="44.12"/>
<path class="st2" d="M225,64.09c-19.79,0-35.83-6.24-35.83-13.95S205.21,36.19,225,36.19"/>
<circle class="st1" cx="225" cy="50.14" r="4.99"/>
<circle class="st2" cx="355.81" cy="54.14" r="44.12"/>
<ellipse class="st2" cx="355.81" cy="50.14" rx="35.83" ry="13.95"/>
<g>
	<path class="st1" d="M355.81,90.57c0.83,0,1.5,0.67,1.5,1.5s-0.67,1.5-1.5,1.5s-1.5-0.67-1.5-1.5S354.98,90.57,355.81,90.57
		 M355.81,89.07c-1.66,0-3,1.34-3,3s1.34,3,3,3c1.66,0,3-1.34,3-3S357.46,89.07,355.81,89.07L355.81,89.07z"/>
</g>
<path class="st2" d="M80.24,156c0-19.79,6.25-35.83,13.95-35.83c7.71,0,13.96,16.04,13.96,35.83"/>
<circle class="st2" cx="94.19" cy="160" r="44.12"/>
<circle class="st1" cx="94.19" cy="156" r="4.99"/>
<path class="st2" d="M210.91,156c0,19.79,6.24,35.83,13.95,35.83s13.95-16.04,13.95-35.83"/>
<circle class="st2" cx="224.86" cy="160" r="44.12"/>
<circle class="st1" cx="224.86" cy="156" r="4.99"/>
<ellipse class="st2" cx="355.52" cy="156" rx="13.95" ry="35.83"/>
<circle class="st2" cx="355.52" cy="160" r="44.12"/>
<path class="st2" d="M108.15,263.43c0-4.58-0.33-8.96-0.95-12.99c-2.02-13.36-7.08-22.83-13-22.84h-0.01
	c-7.7,0-13.95,16.04-13.95,35.83"/>
<circle class="st2" cx="94.19" cy="267.43" r="44.12"/>
<path class="st2" d="M94.2,249.48c4.58,0,8.97,0.34,13,0.96c13.36,2.01,22.83,7.07,22.83,12.99c0,5.91-9.47,10.97-22.83,12.99
	c-4.03,0.62-8.42,0.96-13,0.96"/>
<g>
	<path class="st1" d="M94.19,303.86c0.83,0,1.5,0.67,1.5,1.5s-0.67,1.5-1.5,1.5s-1.5-0.67-1.5-1.5S93.37,303.86,94.19,303.86
		 M94.19,302.36c-1.66,0-3,1.34-3,3s1.34,3,3,3s3-1.34,3-3S95.85,302.36,94.19,302.36L94.19,302.36z"/>
</g>
<path class="st2" d="M238.81,263.43c0,4.58-0.34,8.97-0.95,13c-2.01,13.26-7,22.68-12.86,22.83c-0.05,0-0.09,0-0.14,0
	c-5.92,0-10.98-9.47-13-22.83c-0.61-4.03-0.95-8.42-0.95-13"/>
<circle class="st2" cx="224.86" cy="267.43" r="44.12"/>
<path class="st2" d="M225,277.38c-0.05,0-0.09,0-0.14,0c-4.59,0-8.97-0.33-13-0.95c-13.36-2.02-22.83-7.08-22.83-13
	c0-5.92,9.47-10.98,22.83-13c4.03-0.62,8.41-0.95,13-0.95c0.05,0,0.09,0,0.14,0"/>
</svg>
