<?xml version="1.0" encoding="utf-8"?>
<!-- Generator: Adobe Illustrator 27.3.1, SVG Export Plug-In . SVG Version: 6.00 Build 0)  -->
<svg version="1.1" id="Layer_1" xmlns="http://www.w3.org/2000/svg" xmlns:xlink="http://www.w3.org/1999/xlink" x="0px" y="0px"
	 viewBox="0 0 120 120" style="enable-background:new 0 0 120 120;" xml:space="preserve">
<style type="text/css">
	.st0{display:none;}
	.st1{fill:#1D191A;}
	.st2{fill:#BCBEC0;}
</style>
<g>
	<path class="st1" d="M60,76.73c-1.68,0-3.21-0.23-4.6-0.68c-1.39-0.45-2.58-1.09-3.57-1.91c-0.99-0.83-1.76-1.82-2.31-2.99
		s-0.82-2.48-0.82-3.92c0-1.92,0.47-3.54,1.42-4.87c0.95-1.33,2.41-2.31,4.41-2.96c-1.59-0.66-2.78-1.6-3.57-2.81
		c-0.79-1.21-1.18-2.68-1.18-4.39c0-1.23,0.25-2.38,0.75-3.44c0.5-1.07,1.2-1.99,2.1-2.78c0.9-0.79,1.98-1.4,3.23-1.84
		s2.63-0.66,4.13-0.66s2.88,0.22,4.13,0.66s2.33,1.06,3.23,1.84c0.9,0.79,1.6,1.71,2.1,2.78c0.5,1.07,0.75,2.21,0.75,3.44
		c0,1.71-0.4,3.17-1.19,4.39s-1.98,2.15-3.55,2.81c2,0.64,3.46,1.63,4.41,2.96c0.94,1.33,1.42,2.95,1.42,4.87
		c0,1.44-0.27,2.75-0.82,3.92c-0.55,1.17-1.32,2.17-2.31,2.99s-2.18,1.46-3.57,1.91C63.21,76.5,61.68,76.73,60,76.73z M60,72.39
		c0.92,0,1.72-0.13,2.41-0.39c0.69-0.26,1.27-0.63,1.74-1.09c0.47-0.46,0.83-1.02,1.07-1.67c0.24-0.64,0.36-1.34,0.36-2.09
		c0-1.79-0.5-3.14-1.48-4.05c-0.99-0.91-2.36-1.37-4.1-1.37s-3.11,0.46-4.09,1.37c-0.99,0.92-1.49,2.27-1.49,4.05
		c0,0.75,0.12,1.45,0.36,2.09c0.24,0.65,0.6,1.2,1.07,1.67c0.47,0.47,1.05,0.83,1.74,1.09C58.28,72.26,59.08,72.39,60,72.39z
		 M60,57.36c0.9,0,1.66-0.14,2.27-0.43c0.62-0.28,1.11-0.66,1.49-1.14s0.64-1.01,0.8-1.62c0.16-0.61,0.24-1.23,0.24-1.88
		c0-0.61-0.1-1.2-0.29-1.75c-0.2-0.55-0.49-1.05-0.88-1.47c-0.39-0.43-0.89-0.77-1.49-1.02c-0.6-0.25-1.31-0.38-2.14-0.38
		c-0.82,0-1.54,0.13-2.14,0.38c-0.6,0.25-1.1,0.6-1.5,1.02s-0.69,0.92-0.88,1.47c-0.19,0.56-0.28,1.14-0.28,1.75
		c0,0.65,0.08,1.27,0.24,1.88c0.16,0.61,0.42,1.15,0.8,1.62s0.87,0.85,1.49,1.14C58.34,57.21,59.1,57.36,60,57.36z"/>
</g>
</svg>
