<?xml version="1.0" encoding="UTF-8" standalone="no"?>
<!-- Generator: Adobe Illustrator 27.3.1, SVG Export Plug-In . SVG Version: 6.00 Build 0)  -->

<svg
   version="1.1"
   id="Layer_1"
   x="0px"
   y="0px"
   viewBox="0 0 450 320"
   style="enable-background:new 0 0 450 320;"
   xml:space="preserve"
   sodipodi:docname="Q25Q.svg"
   inkscape:version="1.4 (86a8ad7, 2024-10-11)"
   xmlns:inkscape="http://www.inkscape.org/namespaces/inkscape"
   xmlns:sodipodi="http://sodipodi.sourceforge.net/DTD/sodipodi-0.dtd"
   xmlns="http://www.w3.org/2000/svg"
   xmlns:svg="http://www.w3.org/2000/svg"><defs
   id="defs26" /><sodipodi:namedview
   id="namedview26"
   pagecolor="#ffffff"
   bordercolor="#999999"
   borderopacity="1"
   inkscape:showpageshadow="2"
   inkscape:pageopacity="0"
   inkscape:pagecheckerboard="0"
   inkscape:deskcolor="#d1d1d1"
   inkscape:zoom="1.7832349"
   inkscape:cx="225.15261"
   inkscape:cy="143.83971"
   inkscape:window-width="1920"
   inkscape:window-height="1009"
   inkscape:window-x="-8"
   inkscape:window-y="-8"
   inkscape:window-maximized="1"
   inkscape:current-layer="Layer_1" />
<style
   type="text/css"
   id="style1">
	.st0{display:none;}
	.st1{fill:#1D191A;}
	.st2{fill:#BCBEC0;}
</style>
<g
   id="g3"
   transform="translate(0.82)">
	<g
   id="g2">
		<path
   class="st2"
   d="m 225,308.44 c -21.82,0 -39.58,-17.75 -39.58,-39.58 0,-21.83 17.75,-39.58 39.58,-39.58 21.83,0 39.58,17.76 39.58,39.58 0,21.82 -17.76,39.58 -39.58,39.58 z"
   id="path1" />
		<path
   class="st1"
   d="m 225,230.78 c 21,0 38.08,17.08 38.08,38.08 0,21 -17.08,38.08 -38.08,38.08 -21,0 -38.08,-17.08 -38.08,-38.08 0,-21 17.08,-38.08 38.08,-38.08 m 0,-3 c -22.69,0 -41.08,18.39 -41.08,41.08 0,22.69 18.39,41.08 41.08,41.08 22.69,0 41.08,-18.39 41.08,-41.08 0,-22.69 -18.39,-41.08 -41.08,-41.08 z"
   id="path2" />
	</g>
</g>
<g
   id="g4"
   transform="translate(0.82)">
	
		<circle
   transform="matrix(0.7071,-0.7071,0.7071,0.7071,-85.4509,187.3457)"
   class="st2"
   cx="183.42"
   cy="196.82001"
   id="ellipse3"
   r="39.580002" />
	<path
   class="st1"
   d="m 183.42,158.74 c 21,0 38.08,17.08 38.08,38.08 0,21 -17.08,38.08 -38.08,38.08 -21,0 -38.08,-17.08 -38.08,-38.08 0,-21 17.08,-38.08 38.08,-38.08 m 0,-3 c -22.69,0 -41.08,18.39 -41.08,41.08 0,22.69 18.39,41.08 41.08,41.08 22.69,0 41.08,-18.39 41.08,-41.08 0,-22.69 -18.39,-41.08 -41.08,-41.08 z"
   id="path3" />
</g>
<g
   id="g5"
   transform="translate(0.82)">
	<circle
   class="st2"
   cx="266.57999"
   cy="196.82001"
   r="39.580002"
   id="circle4" />
	<path
   class="st1"
   d="m 266.58,158.74 c 21,0 38.08,17.08 38.08,38.08 0,21 -17.08,38.08 -38.08,38.08 -21,0 -38.08,-17.08 -38.08,-38.08 0,-21 17.08,-38.08 38.08,-38.08 m 0,-3 c -22.69,0 -41.08,18.39 -41.08,41.08 0,22.69 18.39,41.08 41.08,41.08 22.69,0 41.08,-18.39 41.08,-41.08 0,-22.69 -18.39,-41.08 -41.08,-41.08 z"
   id="path4" />
</g>
<g
   id="g6"
   transform="translate(0.82)">
	<path
   class="st1"
   d="m 162.54,208.95 h 6.59 v -18.97 c 0,-0.74 0.02,-1.51 0.07,-2.32 l -4.68,3.92 c -0.2,0.17 -0.39,0.28 -0.6,0.34 -0.2,0.06 -0.4,0.09 -0.6,0.09 -0.3,0 -0.57,-0.06 -0.82,-0.19 -0.25,-0.13 -0.43,-0.27 -0.55,-0.44 l -1.75,-2.41 9.92,-8.44 h 4.57 v 28.42 h 5.85 v 4.16 h -18 v -4.16 z"
   id="path5" />
	<path
   class="st1"
   d="m 188.64,208.95 h 6.59 v -18.97 c 0,-0.74 0.02,-1.51 0.07,-2.32 l -4.68,3.92 c -0.2,0.17 -0.39,0.28 -0.6,0.34 -0.2,0.06 -0.4,0.09 -0.6,0.09 -0.3,0 -0.57,-0.06 -0.82,-0.19 -0.25,-0.13 -0.43,-0.27 -0.55,-0.44 l -1.75,-2.41 9.92,-8.44 h 4.57 v 28.42 h 5.85 v 4.16 h -18 v -4.16 z"
   id="path6" />
</g>
<g
   id="g8"
   transform="translate(0.82)">
	<path
   class="st1"
   d="m 245.46,208.93 h 6.59 v -18.97 c 0,-0.74 0.02,-1.51 0.07,-2.32 l -4.68,3.92 c -0.2,0.17 -0.39,0.28 -0.6,0.34 -0.2,0.06 -0.4,0.09 -0.6,0.09 -0.3,0 -0.57,-0.06 -0.82,-0.19 -0.25,-0.13 -0.43,-0.27 -0.55,-0.44 l -1.75,-2.41 9.92,-8.44 h 4.57 v 28.42 h 5.85 v 4.16 h -18 v -4.16 z"
   id="path7" />
	<path
   class="st1"
   d="m 279.57,180.19 c 1.5,0 2.85,0.21 4.06,0.64 1.21,0.43 2.24,1.02 3.09,1.78 0.85,0.76 1.51,1.65 1.97,2.67 0.46,1.02 0.69,2.12 0.69,3.31 0,1.04 -0.12,1.95 -0.35,2.73 -0.23,0.79 -0.57,1.47 -1.01,2.06 -0.44,0.59 -0.98,1.08 -1.62,1.49 -0.64,0.4 -1.36,0.74 -2.17,1.01 1.95,0.62 3.4,1.55 4.36,2.81 0.96,1.26 1.44,2.84 1.44,4.75 0,1.62 -0.3,3.05 -0.9,4.3 -0.6,1.25 -1.41,2.29 -2.43,3.14 -1.02,0.85 -2.2,1.49 -3.54,1.92 -1.34,0.44 -2.76,0.65 -4.26,0.65 -1.63,0 -3.06,-0.19 -4.28,-0.56 -1.21,-0.38 -2.27,-0.93 -3.17,-1.67 -0.9,-0.74 -1.67,-1.63 -2.29,-2.7 -0.62,-1.07 -1.17,-2.29 -1.62,-3.69 l 2.45,-1.01 c 0.42,-0.18 0.85,-0.27 1.28,-0.27 0.39,0 0.74,0.08 1.05,0.25 0.31,0.17 0.54,0.41 0.71,0.72 0.27,0.53 0.57,1.04 0.89,1.55 0.32,0.51 0.71,0.96 1.16,1.36 0.45,0.4 0.98,0.72 1.59,0.97 0.61,0.25 1.33,0.37 2.17,0.37 0.95,0 1.77,-0.15 2.47,-0.46 0.7,-0.31 1.29,-0.71 1.77,-1.2 0.48,-0.49 0.83,-1.05 1.06,-1.65 0.23,-0.6 0.35,-1.22 0.35,-1.83 0,-0.78 -0.08,-1.49 -0.25,-2.13 -0.17,-0.64 -0.51,-1.18 -1.04,-1.63 -0.53,-0.45 -1.28,-0.8 -2.26,-1.06 -0.98,-0.26 -2.3,-0.38 -3.95,-0.38 v -3.98 c 1.36,0 2.5,-0.12 3.4,-0.36 0.9,-0.24 1.62,-0.57 2.15,-1 0.53,-0.43 0.9,-0.94 1.11,-1.54 0.21,-0.6 0.32,-1.26 0.32,-1.98 0,-1.54 -0.42,-2.71 -1.26,-3.5 -0.84,-0.79 -1.99,-1.18 -3.44,-1.18 -1.32,0 -2.42,0.35 -3.29,1.04 -0.87,0.7 -1.48,1.59 -1.82,2.69 -0.18,0.57 -0.43,0.98 -0.74,1.22 -0.31,0.25 -0.73,0.37 -1.24,0.37 -0.24,0 -0.5,-0.02 -0.76,-0.07 l -2.92,-0.51 c 0.22,-1.56 0.66,-2.93 1.3,-4.11 0.64,-1.18 1.45,-2.16 2.42,-2.95 0.97,-0.79 2.08,-1.38 3.33,-1.78 1.24,-0.4 2.58,-0.6 4.02,-0.6 z"
   id="path8" />
</g>
<g
   id="g10"
   transform="translate(0.82)">
	<path
   class="st1"
   d="m 219.71,272.86 h 4.1 v 3.22 c 0,0.3 -0.1,0.56 -0.29,0.78 -0.2,0.22 -0.48,0.33 -0.85,0.33 h -2.95 v 7.94 h -4.86 v -7.94 h -13.73 c -0.38,0 -0.71,-0.12 -0.99,-0.35 -0.29,-0.23 -0.47,-0.52 -0.54,-0.87 l -0.56,-2.81 15.41,-20.59 h 5.26 z m -4.86,-10.64 c 0,-0.48 0.01,-1 0.04,-1.55 0.03,-0.56 0.08,-1.13 0.16,-1.73 l -10.1,13.93 h 9.9 z"
   id="path9" />
	<path
   class="st1"
   d="m 237.67,285.49 c -1.68,0 -3.21,-0.23 -4.6,-0.68 -1.39,-0.45 -2.58,-1.09 -3.57,-1.91 -0.99,-0.82 -1.76,-1.82 -2.31,-2.99 -0.55,-1.17 -0.82,-2.48 -0.82,-3.92 0,-1.92 0.47,-3.54 1.42,-4.87 0.95,-1.33 2.42,-2.31 4.41,-2.96 -1.59,-0.66 -2.78,-1.6 -3.57,-2.81 -0.79,-1.21 -1.18,-2.68 -1.18,-4.39 0,-1.23 0.25,-2.38 0.75,-3.44 0.5,-1.07 1.2,-1.99 2.1,-2.78 0.9,-0.79 1.98,-1.4 3.23,-1.84 1.25,-0.44 2.63,-0.66 4.13,-0.66 1.5,0 2.88,0.22 4.13,0.66 1.25,0.44 2.33,1.06 3.23,1.84 0.9,0.79 1.6,1.71 2.1,2.78 0.5,1.07 0.75,2.21 0.75,3.44 0,1.71 -0.4,3.17 -1.19,4.39 -0.79,1.22 -1.98,2.15 -3.55,2.81 2,0.64 3.46,1.63 4.41,2.96 0.95,1.33 1.42,2.95 1.42,4.87 0,1.44 -0.27,2.75 -0.82,3.92 -0.55,1.17 -1.32,2.17 -2.31,2.99 -0.99,0.82 -2.18,1.46 -3.57,1.91 -1.38,0.45 -2.91,0.68 -4.59,0.68 z m 0,-4.35 c 0.92,0 1.72,-0.13 2.41,-0.39 0.69,-0.26 1.27,-0.63 1.74,-1.09 0.47,-0.46 0.83,-1.02 1.07,-1.67 0.24,-0.64 0.36,-1.34 0.36,-2.09 0,-1.79 -0.5,-3.14 -1.48,-4.05 -0.99,-0.91 -2.36,-1.37 -4.1,-1.37 -1.74,0 -3.1,0.46 -4.09,1.37 -0.99,0.92 -1.48,2.27 -1.48,4.05 0,0.75 0.12,1.45 0.36,2.09 0.24,0.65 0.6,1.2 1.07,1.67 0.47,0.47 1.05,0.83 1.74,1.09 0.68,0.26 1.48,0.39 2.4,0.39 z m 0,-15.03 c 0.9,0 1.66,-0.14 2.27,-0.43 0.62,-0.28 1.11,-0.66 1.49,-1.14 0.38,-0.48 0.64,-1.01 0.8,-1.62 0.16,-0.61 0.24,-1.23 0.24,-1.88 0,-0.61 -0.1,-1.2 -0.29,-1.75 -0.19,-0.55 -0.49,-1.05 -0.88,-1.47 -0.39,-0.43 -0.89,-0.77 -1.49,-1.02 -0.6,-0.25 -1.31,-0.38 -2.14,-0.38 -0.82,0 -1.54,0.13 -2.14,0.38 -0.6,0.25 -1.1,0.6 -1.5,1.02 -0.4,0.42 -0.69,0.92 -0.88,1.47 -0.19,0.56 -0.28,1.14 -0.28,1.75 0,0.65 0.08,1.27 0.24,1.88 0.16,0.61 0.42,1.15 0.8,1.62 0.38,0.47 0.87,0.85 1.48,1.14 0.62,0.29 1.38,0.43 2.28,0.43 z"
   id="path10" />
</g>
<g
   id="g11"
   transform="translate(0.82)">
	
		<circle
   transform="matrix(0.7071,-0.7071,0.7071,0.7071,-46.5205,136.7747)"
   class="st2"
   cx="141.84"
   cy="124.54"
   id="ellipse10"
   r="39.580002" />
	<path
   class="st1"
   d="m 141.84,86.46 c 21,0 38.08,17.08 38.08,38.08 0,21 -17.08,38.08 -38.08,38.08 -21,0 -38.08,-17.08 -38.08,-38.08 0,-21 17.08,-38.08 38.08,-38.08 m 0,-3 c -22.69,0 -41.08,18.39 -41.08,41.08 0,22.69 18.39,41.08 41.08,41.08 22.69,0 41.08,-18.39 41.08,-41.08 0,-22.69 -18.39,-41.08 -41.08,-41.08 z"
   id="path11" />
</g>
<g
   id="g12"
   transform="translate(0.82)">
	<circle
   class="st2"
   cx="225"
   cy="124.54"
   r="39.580002"
   id="circle11" />
	<path
   class="st1"
   d="m 225,86.46 c 21,0 38.08,17.08 38.08,38.08 0,21 -17.08,38.08 -38.08,38.08 -21,0 -38.08,-17.08 -38.08,-38.08 0,-21 17.08,-38.08 38.08,-38.08 m 0,-3 c -22.69,0 -41.08,18.39 -41.08,41.08 0,22.69 18.39,41.08 41.08,41.08 22.69,0 41.08,-18.39 41.08,-41.08 0,-22.69 -18.39,-41.08 -41.08,-41.08 z"
   id="path12" />
</g>
<g
   id="g14"
   transform="translate(0.82)">
	<path
   class="st2"
   d="m 308.16,164.12 c -21.82,0 -39.58,-17.76 -39.58,-39.58 0,-21.82 17.75,-39.58 39.58,-39.58 21.83,0 39.58,17.75 39.58,39.58 0,21.83 -17.76,39.58 -39.58,39.58 z"
   id="path13" />
	<path
   class="st1"
   d="m 308.16,86.46 c 21,0 38.08,17.08 38.08,38.08 0,21 -17.08,38.08 -38.08,38.08 -21,0 -38.08,-17.08 -38.08,-38.08 0,-21 17.08,-38.08 38.08,-38.08 m 0,-3 c -22.69,0 -41.08,18.39 -41.08,41.08 0,22.69 18.39,41.08 41.08,41.08 22.69,0 41.08,-18.39 41.08,-41.08 0,-22.69 -18.39,-41.08 -41.08,-41.08 z"
   id="path14" />
</g>
<g
   id="g15"
   transform="translate(0.82)">
	<path
   class="st1"
   d="m 139.88,128.01 c -1.12,0 -2.23,-0.2 -3.31,-0.58 -1.08,-0.39 -2.04,-0.98 -2.89,-1.77 -0.85,-0.79 -1.53,-1.76 -2.04,-2.92 -0.51,-1.16 -0.77,-2.52 -0.77,-4.08 0,-1.45 0.27,-2.82 0.81,-4.09 0.54,-1.27 1.3,-2.39 2.27,-3.35 0.97,-0.96 2.15,-1.72 3.51,-2.27 1.36,-0.55 2.87,-0.83 4.52,-0.83 1.67,0 3.16,0.26 4.49,0.79 1.33,0.53 2.46,1.26 3.4,2.21 0.94,0.95 1.66,2.08 2.16,3.4 0.5,1.32 0.75,2.77 0.75,4.34 0,1 -0.09,1.96 -0.26,2.86 -0.17,0.9 -0.42,1.77 -0.74,2.6 -0.32,0.83 -0.71,1.64 -1.16,2.43 -0.45,0.79 -0.95,1.58 -1.51,2.37 l -7.45,10.62 c -0.26,0.36 -0.63,0.66 -1.14,0.91 -0.5,0.25 -1.08,0.37 -1.72,0.37 h -5.11 l 10.1,-12.62 c 0.25,-0.32 0.5,-0.62 0.72,-0.92 0.22,-0.3 0.44,-0.6 0.65,-0.9 -0.75,0.48 -1.57,0.84 -2.48,1.09 -0.86,0.21 -1.81,0.34 -2.8,0.34 z m 7.59,-9.74 c 0,-0.89 -0.13,-1.68 -0.4,-2.37 -0.27,-0.69 -0.65,-1.29 -1.15,-1.77 -0.5,-0.48 -1.08,-0.85 -1.77,-1.1 -0.68,-0.25 -1.43,-0.38 -2.24,-0.38 -0.84,0 -1.6,0.14 -2.27,0.42 -0.68,0.28 -1.25,0.66 -1.72,1.16 -0.47,0.5 -0.84,1.08 -1.09,1.77 -0.26,0.68 -0.38,1.43 -0.38,2.24 0,1.81 0.47,3.2 1.41,4.15 0.94,0.95 2.27,1.43 3.99,1.43 0.9,0 1.7,-0.14 2.4,-0.43 0.7,-0.29 1.29,-0.68 1.77,-1.17 0.48,-0.5 0.84,-1.08 1.09,-1.76 0.23,-0.69 0.36,-1.42 0.36,-2.19 z"
   id="path15" />
</g>
<g
   id="g16"
   transform="translate(0.82)">
	<path
   class="st1"
   d="m 225.79,107.91 c 1.5,0 2.85,0.21 4.06,0.64 1.21,0.43 2.24,1.02 3.09,1.78 0.86,0.76 1.51,1.65 1.97,2.67 0.46,1.02 0.69,2.12 0.69,3.31 0,1.04 -0.12,1.95 -0.35,2.73 -0.23,0.79 -0.57,1.47 -1.01,2.06 -0.44,0.59 -0.98,1.08 -1.62,1.49 -0.64,0.4 -1.36,0.74 -2.17,1.01 1.95,0.62 3.41,1.55 4.37,2.81 0.96,1.26 1.44,2.84 1.44,4.75 0,1.62 -0.3,3.05 -0.9,4.3 -0.6,1.25 -1.41,2.29 -2.43,3.14 -1.02,0.85 -2.2,1.49 -3.54,1.92 -1.34,0.44 -2.76,0.65 -4.26,0.65 -1.64,0 -3.06,-0.19 -4.28,-0.56 -1.21,-0.38 -2.27,-0.93 -3.17,-1.67 -0.9,-0.74 -1.67,-1.63 -2.29,-2.7 -0.62,-1.07 -1.17,-2.29 -1.62,-3.69 l 2.45,-1.01 c 0.42,-0.18 0.85,-0.27 1.28,-0.27 0.39,0 0.74,0.08 1.05,0.25 0.31,0.17 0.54,0.41 0.71,0.72 0.27,0.53 0.57,1.04 0.89,1.55 0.32,0.51 0.71,0.96 1.16,1.36 0.45,0.4 0.98,0.72 1.59,0.97 0.61,0.25 1.33,0.37 2.17,0.37 0.94,0 1.77,-0.15 2.48,-0.46 0.71,-0.31 1.29,-0.71 1.77,-1.2 0.47,-0.5 0.83,-1.05 1.06,-1.65 0.23,-0.6 0.35,-1.22 0.35,-1.83 0,-0.78 -0.08,-1.49 -0.25,-2.13 -0.17,-0.64 -0.51,-1.18 -1.04,-1.63 -0.53,-0.45 -1.28,-0.8 -2.26,-1.06 -0.98,-0.25 -2.3,-0.38 -3.95,-0.38 v -3.98 c 1.36,0 2.5,-0.12 3.4,-0.36 0.9,-0.24 1.62,-0.57 2.15,-1 0.53,-0.43 0.9,-0.94 1.11,-1.54 0.21,-0.6 0.32,-1.26 0.32,-1.98 0,-1.54 -0.42,-2.71 -1.26,-3.5 -0.84,-0.79 -1.99,-1.18 -3.44,-1.18 -1.32,0 -2.42,0.35 -3.29,1.04 -0.87,0.7 -1.48,1.59 -1.82,2.69 -0.18,0.57 -0.43,0.98 -0.74,1.22 -0.31,0.24 -0.73,0.37 -1.24,0.37 -0.24,0 -0.5,-0.02 -0.77,-0.07 l -2.92,-0.51 c 0.22,-1.56 0.66,-2.93 1.3,-4.11 0.64,-1.18 1.45,-2.16 2.42,-2.95 0.97,-0.79 2.08,-1.38 3.33,-1.78 1.22,-0.4 2.57,-0.6 4.01,-0.6 z"
   id="path16" />
</g>
<g
   id="g17"
   transform="translate(0.82)">
	<path
   class="st1"
   d="m 314.45,128.56 h 4.09 v 3.22 c 0,0.3 -0.1,0.56 -0.29,0.78 -0.2,0.22 -0.48,0.33 -0.86,0.33 h -2.95 v 7.94 h -4.86 v -7.94 h -13.72 c -0.38,0 -0.71,-0.12 -0.99,-0.35 -0.28,-0.23 -0.46,-0.52 -0.54,-0.87 l -0.56,-2.81 15.41,-20.59 h 5.26 v 20.29 z m -4.86,-10.64 c 0,-0.48 0.01,-1 0.04,-1.55 0.03,-0.56 0.08,-1.13 0.16,-1.73 l -10.1,13.93 h 9.9 z"
   id="path17" />
</g>
<g
   id="g18"
   transform="translate(0.82)">
	<circle
   class="st2"
   cx="100.26"
   cy="52.380001"
   r="39.580002"
   id="circle17" />
	<path
   class="st1"
   d="m 100.26,14.3 c 21,0 38.08,17.08 38.08,38.08 0,21 -17.08,38.08 -38.08,38.08 -21,0 -38.08,-17.08 -38.08,-38.08 0,-21 17.09,-38.08 38.08,-38.08 m 0,-3 c -22.69,0 -41.08,18.39 -41.08,41.08 0,22.69 18.39,41.08 41.08,41.08 22.69,0 41.08,-18.39 41.08,-41.08 0,-22.69 -18.39,-41.08 -41.08,-41.08 z"
   id="path18" />
</g>
<g
   id="g19"
   transform="translate(0.82)">
	
		<circle
   transform="matrix(0.2298,-0.9732,0.9732,0.2298,90.2969,218.8627)"
   class="st2"
   cx="183.42"
   cy="52.380001"
   id="ellipse18"
   r="39.580002" />
	<path
   class="st1"
   d="m 183.42,14.3 c 21,0 38.08,17.08 38.08,38.08 0,21 -17.08,38.08 -38.08,38.08 -21,0 -38.08,-17.08 -38.08,-38.08 0,-21 17.08,-38.08 38.08,-38.08 m 0,-3 c -22.69,0 -41.08,18.39 -41.08,41.08 0,22.69 18.39,41.08 41.08,41.08 22.69,0 41.08,-18.39 41.08,-41.08 0,-22.69 -18.39,-41.08 -41.08,-41.08 z"
   id="path19" />
</g>
<g
   id="g20"
   transform="translate(0.82)">
	<circle
   class="st2"
   cx="266.57999"
   cy="52.380001"
   r="39.580002"
   id="circle19" />
	<path
   class="st1"
   d="m 266.58,14.3 c 21,0 38.08,17.08 38.08,38.08 0,21 -17.08,38.08 -38.08,38.08 -21,0 -38.08,-17.08 -38.08,-38.08 0,-21 17.08,-38.08 38.08,-38.08 m 0,-3 c -22.69,0 -41.08,18.39 -41.08,41.08 0,22.69 18.39,41.08 41.08,41.08 22.69,0 41.08,-18.39 41.08,-41.08 0,-22.69 -18.39,-41.08 -41.08,-41.08 z"
   id="path20" />
</g>
<g
   id="g22"
   transform="translate(0.82)">
	<path
   class="st2"
   d="m 349.74,91.96 c -21.82,0 -39.58,-17.76 -39.58,-39.58 0,-21.82 17.76,-39.58 39.58,-39.58 21.82,0 39.58,17.75 39.58,39.58 0,21.83 -17.76,39.58 -39.58,39.58 z"
   id="path21" />
	<path
   class="st1"
   d="m 349.74,14.3 c 21,0 38.08,17.08 38.08,38.08 0,21 -17.08,38.08 -38.08,38.08 -21,0 -38.08,-17.08 -38.08,-38.08 0,-21 17.08,-38.08 38.08,-38.08 m 0,-3 c -22.69,0 -41.08,18.39 -41.08,41.08 0,22.69 18.39,41.08 41.08,41.08 22.69,0 41.08,-18.39 41.08,-41.08 0,-22.69 -18.39,-41.08 -41.08,-41.08 z"
   id="path22" />
</g>
<g
   id="g23"
   transform="translate(0.82)">
	<path
   class="st1"
   d="m 106.68,56.4 h 4.1 v 3.22 c 0,0.3 -0.1,0.56 -0.29,0.78 -0.2,0.22 -0.48,0.33 -0.85,0.33 h -2.95 v 7.94 h -4.86 V 60.73 H 88.09 c -0.38,0 -0.71,-0.12 -0.99,-0.35 -0.29,-0.23 -0.47,-0.52 -0.54,-0.87 L 86,56.69 101.41,36.1 h 5.26 v 20.3 z m -4.86,-10.64 c 0,-0.48 0.01,-1 0.04,-1.55 0.03,-0.56 0.08,-1.13 0.16,-1.73 L 91.92,56.4 h 9.9 V 45.76 Z"
   id="path23" />
</g>
<g
   id="g24"
   transform="translate(0.82)">
	<path
   class="st1"
   d="m 183.92,35.94 c 1.5,0 2.87,0.22 4.12,0.66 1.24,0.44 2.31,1.07 3.19,1.88 0.88,0.81 1.58,1.79 2.07,2.92 0.49,1.14 0.74,2.41 0.74,3.8 0,1.2 -0.18,2.31 -0.53,3.33 -0.35,1.02 -0.83,2 -1.42,2.92 -0.59,0.93 -1.29,1.83 -2.08,2.7 -0.8,0.87 -1.63,1.75 -2.5,2.66 l -7.33,7.49 c 0.72,-0.21 1.42,-0.37 2.11,-0.48 0.69,-0.11 1.35,-0.17 1.98,-0.17 h 8.35 c 0.6,0 1.08,0.17 1.43,0.51 0.35,0.34 0.53,0.78 0.53,1.34 v 3.33 h -22.32 v -1.84 c 0,-0.38 0.08,-0.77 0.24,-1.17 0.16,-0.41 0.41,-0.78 0.75,-1.12 l 9.88,-9.9 c 0.82,-0.84 1.56,-1.64 2.22,-2.41 0.65,-0.77 1.2,-1.52 1.64,-2.27 0.44,-0.75 0.78,-1.51 1.01,-2.28 0.23,-0.77 0.35,-1.59 0.35,-2.44 0,-0.78 -0.11,-1.47 -0.34,-2.06 -0.23,-0.59 -0.55,-1.09 -0.97,-1.5 -0.42,-0.41 -0.92,-0.71 -1.5,-0.91 -0.58,-0.2 -1.23,-0.3 -1.95,-0.3 -1.34,0 -2.43,0.34 -3.3,1.01 -0.86,0.67 -1.47,1.58 -1.81,2.72 -0.17,0.57 -0.41,0.98 -0.74,1.23 -0.33,0.25 -0.75,0.37 -1.26,0.37 -0.23,0 -0.47,-0.02 -0.74,-0.07 l -2.92,-0.52 c 0.23,-1.56 0.66,-2.93 1.3,-4.11 0.65,-1.18 1.45,-2.16 2.42,-2.95 0.97,-0.79 2.08,-1.38 3.33,-1.78 1.26,-0.4 2.61,-0.59 4.05,-0.59 z"
   id="path24" />
</g>
<g
   id="g25"
   transform="translate(0.82)">
	<path
   class="st1"
   d="m 341.91,64.51 h 6.59 V 45.54 c 0,-0.74 0.02,-1.51 0.07,-2.32 l -4.68,3.92 c -0.2,0.17 -0.39,0.28 -0.6,0.34 -0.2,0.06 -0.4,0.09 -0.6,0.09 -0.3,0 -0.57,-0.06 -0.82,-0.19 -0.25,-0.13 -0.43,-0.27 -0.55,-0.44 l -1.75,-2.41 9.92,-8.44 h 4.57 v 28.42 h 5.85 v 4.16 h -18 v -4.16 z"
   id="path25" />
</g>
<g
   id="g26"
   transform="translate(0.82)">
	<path
   class="st1"
   d="m 263.03,60.09 c 0,-1.2 0.07,-2.24 0.22,-3.13 0.14,-0.89 0.38,-1.7 0.71,-2.43 0.33,-0.74 0.75,-1.43 1.28,-2.09 0.52,-0.66 1.17,-1.36 1.93,-2.1 0.57,-0.56 1.11,-1.08 1.61,-1.59 0.5,-0.5 0.94,-1.01 1.32,-1.53 0.38,-0.52 0.68,-1.08 0.9,-1.67 0.22,-0.59 0.33,-1.25 0.33,-1.98 0,-1.59 -0.4,-2.8 -1.18,-3.64 -0.78,-0.84 -1.94,-1.25 -3.46,-1.25 -0.61,0 -1.2,0.08 -1.77,0.25 -0.57,0.17 -1.09,0.44 -1.54,0.81 -0.45,0.37 -0.83,0.84 -1.1,1.42 -0.28,0.57 -0.42,1.27 -0.42,2.08 h -6.16 c 0.02,-1.59 0.31,-2.99 0.87,-4.2 0.56,-1.21 1.34,-2.22 2.33,-3.04 0.99,-0.82 2.14,-1.44 3.47,-1.85 1.33,-0.41 2.77,-0.62 4.32,-0.62 1.71,0 3.23,0.22 4.56,0.66 1.33,0.44 2.47,1.08 3.39,1.93 0.92,0.85 1.63,1.87 2.12,3.09 0.48,1.22 0.72,2.59 0.72,4.13 0,1.11 -0.18,2.15 -0.53,3.12 -0.35,0.96 -0.83,1.87 -1.42,2.71 -0.59,0.84 -1.27,1.66 -2.03,2.43 -0.76,0.78 -1.54,1.54 -2.36,2.3 -0.93,0.84 -1.55,1.77 -1.86,2.78 -0.31,1.01 -0.48,2.14 -0.5,3.41 l -5.75,0 z m -0.43,7.88 c 0,-0.47 0.08,-0.91 0.23,-1.32 0.15,-0.41 0.38,-0.76 0.67,-1.07 0.29,-0.31 0.66,-0.54 1.09,-0.71 0.43,-0.17 0.93,-0.25 1.48,-0.25 0.55,0 1.05,0.08 1.48,0.25 0.43,0.17 0.8,0.41 1.09,0.71 0.29,0.3 0.52,0.66 0.68,1.07 0.16,0.41 0.24,0.84 0.24,1.32 0,0.93 -0.31,1.71 -0.91,2.33 -0.61,0.62 -1.47,0.94 -2.59,0.94 -1.12,0 -1.98,-0.31 -2.57,-0.94 -0.59,-0.62 -0.89,-1.4 -0.89,-2.33 z"
   id="path26" />
</g>
</svg>
