<?xml version="1.0" encoding="utf-8"?>
<!-- Generator: Adobe Illustrator 27.3.1, SVG Export Plug-In . SVG Version: 6.00 Build 0)  -->
<svg version="1.1" id="Layer_1" xmlns="http://www.w3.org/2000/svg" xmlns:xlink="http://www.w3.org/1999/xlink" x="0px" y="0px"
	 viewBox="0 0 120 120" style="enable-background:new 0 0 120 120;" xml:space="preserve">
<style type="text/css">
	.st0{display:none;}
	.st1{fill:#1D191A;}
	.st2{fill:#231F20;}
	.st3{fill:none;stroke:#1D191A;stroke-width:3;stroke-miterlimit:10;}
</style>
<g>
	<g>
		<path class="st1" d="M39.95,72.01h6.59V53.04c0-0.74,0.02-1.51,0.07-2.32l-4.68,3.92c-0.2,0.17-0.39,0.28-0.6,0.34
			c-0.2,0.06-0.4,0.09-0.6,0.09c-0.3,0-0.57-0.06-0.82-0.19c-0.25-0.13-0.43-0.27-0.55-0.44l-1.75-2.41l9.92-8.44h4.57v28.42h5.85
			v4.16h-18V72.01z"/>
		<path class="st1" d="M84.66,43.64v2.41c0,0.72-0.08,1.3-0.24,1.74c-0.16,0.44-0.31,0.81-0.46,1.11L71.65,74.28
			c-0.25,0.52-0.62,0.97-1.08,1.34c-0.47,0.37-1.1,0.55-1.89,0.55h-4.03l12.6-24.86c0.52-1.02,1.11-1.9,1.76-2.63H63.44
			c-0.35,0-0.65-0.13-0.9-0.38c-0.26-0.25-0.38-0.55-0.38-0.9v-3.76H84.66z"/>
	</g>
</g>
</svg>
