<?xml version="1.0" encoding="utf-8"?>
<!-- Generator: Adobe Illustrator 27.3.1, SVG Export Plug-In . SVG Version: 6.00 Build 0)  -->
<svg version="1.1" id="Layer_1" xmlns="http://www.w3.org/2000/svg" xmlns:xlink="http://www.w3.org/1999/xlink" x="0px" y="0px"
	 viewBox="0 0 120 120" style="enable-background:new 0 0 120 120;" xml:space="preserve">
<style type="text/css">
	.st0{display:none;}
	.st1{fill:#1D191A;}
	.st2{fill:none;stroke:#1D191A;stroke-width:9;stroke-miterlimit:10;}
	.st3{fill:#FFFFFF;stroke:#1D191A;stroke-width:3;stroke-miterlimit:10;}
	.st4{fill:#A5A5A5;}
	.st5{fill:none;stroke:#1D191A;stroke-width:0.8;stroke-miterlimit:10;}
	.st6{fill:#FFFFFF;stroke:#1D191A;stroke-width:2;stroke-miterlimit:10;}
</style>
<g>
	<path class="st1" d="M25.67,43.47c1.5,0,2.87,0.22,4.12,0.66c1.24,0.44,2.31,1.07,3.19,1.88c0.88,0.81,1.58,1.79,2.07,2.92
		c0.49,1.14,0.74,2.41,0.74,3.8c0,1.2-0.18,2.31-0.53,3.33c-0.35,1.02-0.83,2-1.42,2.92c-0.59,0.93-1.29,1.83-2.08,2.7
		c-0.8,0.87-1.63,1.75-2.5,2.66l-7.33,7.49c0.72-0.21,1.42-0.37,2.11-0.48c0.69-0.11,1.35-0.17,1.98-0.17h8.35
		c0.6,0,1.08,0.17,1.43,0.51c0.35,0.34,0.53,0.78,0.53,1.34v3.33H14.01v-1.84c0-0.38,0.08-0.77,0.24-1.17
		c0.16-0.41,0.41-0.78,0.75-1.12l9.88-9.9c0.82-0.84,1.56-1.64,2.22-2.41c0.65-0.77,1.2-1.52,1.64-2.27s0.78-1.51,1.01-2.28
		c0.23-0.77,0.35-1.59,0.35-2.44c0-0.78-0.11-1.47-0.34-2.06c-0.23-0.59-0.55-1.09-0.97-1.5s-0.92-0.71-1.5-0.91
		c-0.58-0.2-1.23-0.3-1.95-0.3c-1.34,0-2.43,0.34-3.3,1.01c-0.86,0.67-1.47,1.58-1.81,2.72c-0.17,0.57-0.41,0.98-0.74,1.23
		c-0.33,0.25-0.75,0.37-1.26,0.37c-0.23,0-0.47-0.02-0.74-0.07l-2.92-0.52c0.23-1.56,0.66-2.93,1.3-4.11
		c0.65-1.18,1.45-2.16,2.42-2.95c0.97-0.79,2.08-1.38,3.33-1.78C22.88,43.67,24.23,43.47,25.67,43.47z"/>
	<path class="st1" d="M60.47,46.2c0,0.8-0.25,1.44-0.75,1.94s-1.34,0.74-2.51,0.74h-8.96l-1.17,6.79c1.47-0.3,2.81-0.45,4.03-0.45
		c1.71,0,3.21,0.26,4.51,0.77c1.3,0.51,2.39,1.21,3.27,2.12c0.88,0.9,1.55,1.95,2,3.16c0.45,1.21,0.68,2.51,0.68,3.9
		c0,1.73-0.3,3.3-0.91,4.72c-0.61,1.43-1.45,2.64-2.53,3.66c-1.08,1.01-2.36,1.8-3.84,2.35s-3.09,0.83-4.83,0.83
		c-1.02,0-1.99-0.11-2.9-0.32c-0.92-0.21-1.77-0.49-2.58-0.84c-0.8-0.35-1.55-0.76-2.23-1.21c-0.68-0.46-1.29-0.94-1.83-1.45
		l1.71-2.36c0.36-0.51,0.84-0.77,1.44-0.77c0.38,0,0.75,0.12,1.14,0.36c0.38,0.24,0.83,0.5,1.34,0.79c0.51,0.29,1.1,0.55,1.78,0.79
		c0.68,0.24,1.49,0.36,2.45,0.36c1.02,0,1.92-0.16,2.7-0.5c0.78-0.33,1.43-0.79,1.95-1.38c0.52-0.59,0.91-1.3,1.17-2.12
		c0.26-0.82,0.39-1.71,0.39-2.67c0-1.77-0.51-3.15-1.54-4.15c-1.03-1-2.54-1.5-4.53-1.5c-1.58,0-3.16,0.29-4.75,0.86l-3.47-0.99
		l2.7-15.79h16.06V46.2z"/>
	<path class="st1" d="M73,46.4h4.68v29.97H73V46.4z"/>
	<path class="st1" d="M83.44,76.37V46.4h4.63v10.71c1.65-1.95,3.69-2.92,6.12-2.92c2.79,0,5.02,1.02,6.71,3.06
		c1.65,2.01,2.48,4.71,2.48,8.1c0,3.39-0.86,6.15-2.57,8.28c-1.71,2.13-3.92,3.2-6.62,3.2c-2.76,0-4.9-1.12-6.43-3.38v2.92H83.44z
		 M93.3,73.13c3.54,0,5.31-2.49,5.31-7.47c0-5.22-1.77-7.83-5.31-7.83c-3.6,0-5.4,2.64-5.4,7.92C87.9,70.67,89.7,73.13,93.3,73.13z"
		/>
</g>
</svg>
