<?xml version="1.0" encoding="utf-8"?>
<!-- Generator: Adobe Illustrator 27.3.1, SVG Export Plug-In . SVG Version: 6.00 Build 0)  -->
<svg version="1.1" id="Layer_1" xmlns="http://www.w3.org/2000/svg" xmlns:xlink="http://www.w3.org/1999/xlink" x="0px" y="0px"
	 viewBox="0 0 120 120" style="enable-background:new 0 0 120 120;" xml:space="preserve">
<style type="text/css">
	.st0{display:none;}
	.st1{fill:#1D191A;}
	.st2{fill:none;}
</style>
<g>
	<path class="st1" d="M47.96,43.39c1.5,0,2.85,0.21,4.06,0.64c1.21,0.43,2.24,1.02,3.09,1.78c0.85,0.76,1.51,1.65,1.97,2.67
		c0.46,1.02,0.69,2.12,0.69,3.31c0,1.04-0.12,1.95-0.35,2.73c-0.23,0.79-0.57,1.47-1.01,2.06s-0.98,1.08-1.62,1.49
		c-0.64,0.4-1.36,0.74-2.17,1.01c1.95,0.62,3.4,1.55,4.36,2.81c0.96,1.26,1.44,2.84,1.44,4.75c0,1.62-0.3,3.05-0.9,4.3
		c-0.6,1.25-1.41,2.29-2.43,3.14c-1.02,0.85-2.2,1.49-3.54,1.92c-1.34,0.44-2.76,0.65-4.26,0.65c-1.63,0-3.06-0.19-4.28-0.56
		c-1.21-0.38-2.27-0.93-3.17-1.67c-0.9-0.74-1.67-1.63-2.29-2.7s-1.17-2.29-1.62-3.69l2.45-1.01c0.42-0.18,0.85-0.27,1.28-0.27
		c0.39,0,0.74,0.08,1.05,0.25c0.31,0.17,0.54,0.41,0.71,0.72c0.27,0.53,0.57,1.04,0.89,1.55c0.32,0.51,0.71,0.96,1.16,1.36
		c0.45,0.4,0.98,0.72,1.59,0.97c0.61,0.25,1.33,0.37,2.17,0.37c0.95,0,1.77-0.15,2.47-0.46s1.29-0.71,1.77-1.2s0.83-1.05,1.06-1.65
		s0.35-1.22,0.35-1.83c0-0.78-0.08-1.49-0.25-2.13c-0.17-0.64-0.51-1.18-1.04-1.63c-0.53-0.45-1.28-0.8-2.26-1.06
		s-2.3-0.38-3.95-0.38v-3.98c1.36,0,2.5-0.12,3.4-0.36c0.9-0.24,1.62-0.57,2.15-1s0.9-0.94,1.11-1.54s0.32-1.26,0.32-1.98
		c0-1.54-0.42-2.71-1.26-3.5c-0.84-0.79-1.99-1.18-3.44-1.18c-1.32,0-2.42,0.35-3.29,1.04c-0.87,0.7-1.48,1.59-1.82,2.69
		c-0.18,0.57-0.43,0.98-0.74,1.22c-0.31,0.25-0.73,0.37-1.24,0.37c-0.24,0-0.5-0.02-0.76-0.07l-2.92-0.51
		c0.22-1.56,0.66-2.93,1.3-4.11c0.64-1.18,1.45-2.16,2.42-2.95c0.97-0.79,2.08-1.38,3.33-1.78C45.18,43.59,46.52,43.39,47.96,43.39z
		"/>
	<path class="st1" d="M73.05,76.64c-1.68,0-3.21-0.23-4.6-0.68c-1.39-0.45-2.58-1.09-3.57-1.91s-1.76-1.82-2.31-2.99
		s-0.82-2.48-0.82-3.92c0-1.92,0.47-3.54,1.42-4.87c0.95-1.33,2.42-2.31,4.41-2.96c-1.59-0.66-2.78-1.6-3.57-2.81
		c-0.79-1.21-1.18-2.68-1.18-4.39c0-1.23,0.25-2.38,0.75-3.44s1.2-1.99,2.1-2.78c0.9-0.79,1.98-1.4,3.23-1.84
		c1.25-0.44,2.63-0.66,4.13-0.66s2.88,0.22,4.13,0.66c1.25,0.44,2.33,1.06,3.23,1.84c0.9,0.79,1.6,1.71,2.1,2.78
		c0.5,1.07,0.75,2.21,0.75,3.44c0,1.71-0.4,3.17-1.19,4.39s-1.98,2.15-3.55,2.81c2,0.64,3.46,1.63,4.41,2.96
		c0.95,1.33,1.42,2.95,1.42,4.87c0,1.44-0.27,2.75-0.82,3.92c-0.55,1.17-1.32,2.17-2.31,2.99s-2.18,1.46-3.57,1.91
		C76.26,76.42,74.73,76.64,73.05,76.64z M73.05,72.3c0.92,0,1.72-0.13,2.41-0.39c0.69-0.26,1.27-0.63,1.74-1.09
		c0.47-0.46,0.83-1.02,1.07-1.67c0.24-0.64,0.36-1.34,0.36-2.09c0-1.79-0.5-3.14-1.48-4.05c-0.99-0.91-2.36-1.37-4.1-1.37
		s-3.1,0.46-4.09,1.37c-0.99,0.92-1.48,2.27-1.48,4.05c0,0.75,0.12,1.45,0.36,2.09c0.24,0.65,0.6,1.2,1.07,1.67
		c0.47,0.47,1.05,0.83,1.74,1.09C71.33,72.17,72.13,72.3,73.05,72.3z M73.05,57.27c0.9,0,1.66-0.14,2.27-0.43
		c0.62-0.28,1.11-0.66,1.49-1.14s0.64-1.01,0.8-1.62s0.24-1.23,0.24-1.88c0-0.61-0.1-1.2-0.29-1.75c-0.19-0.55-0.49-1.05-0.88-1.47
		c-0.39-0.43-0.89-0.77-1.49-1.02s-1.31-0.38-2.14-0.38c-0.82,0-1.54,0.13-2.14,0.38c-0.6,0.25-1.1,0.6-1.5,1.02
		s-0.69,0.92-0.88,1.47c-0.19,0.56-0.28,1.14-0.28,1.75c0,0.65,0.08,1.27,0.24,1.88s0.42,1.15,0.8,1.62s0.87,0.85,1.48,1.14
		C71.39,57.13,72.15,57.27,73.05,57.27z"/>
</g>
<rect x="58.12" y="58.6" class="st2" width="2.65" height="0"/>
</svg>
