<?xml version="1.0" encoding="utf-8"?>
<!-- Generator: Adobe Illustrator 27.3.1, SVG Export Plug-In . SVG Version: 6.00 Build 0)  -->
<svg version="1.1" id="Layer_1" xmlns="http://www.w3.org/2000/svg" xmlns:xlink="http://www.w3.org/1999/xlink" x="0px" y="0px"
	 viewBox="0 0 450 320" style="enable-background:new 0 0 450 320;" xml:space="preserve">
<style type="text/css">
	.st0{display:none;}
	.st1{fill:#1D191A;}
	.st2{fill:none;stroke:#1D191A;stroke-width:3;stroke-miterlimit:10;}
	.st3{fill:none;stroke:#1D191A;stroke-width:4;stroke-linecap:round;stroke-linejoin:round;stroke-miterlimit:10;}
</style>
<g>
	<path class="st1" d="M308.35,259.07c0-1.68,0.1-3.15,0.3-4.4s0.54-2.39,1-3.42c0.46-1.03,1.06-2.01,1.8-2.94
		c0.73-0.93,1.64-1.91,2.71-2.95c0.81-0.78,1.56-1.52,2.26-2.23c0.7-0.7,1.32-1.42,1.85-2.15c0.54-0.73,0.96-1.52,1.26-2.35
		c0.31-0.83,0.46-1.76,0.46-2.78c0-2.23-0.56-3.94-1.66-5.11c-1.1-1.18-2.73-1.76-4.86-1.76c-0.86,0-1.68,0.12-2.49,0.35
		s-1.53,0.61-2.17,1.14c-0.64,0.52-1.16,1.19-1.55,1.99c-0.4,0.81-0.59,1.78-0.59,2.92h-8.67c0.03-2.23,0.43-4.2,1.23-5.9
		c0.79-1.7,1.88-3.12,3.27-4.27c1.39-1.15,3.01-2.02,4.88-2.6s3.89-0.87,6.07-0.87c2.4,0,4.53,0.31,6.41,0.93s3.47,1.52,4.77,2.71
		c1.3,1.19,2.3,2.63,2.98,4.35c0.67,1.71,1.02,3.64,1.02,5.8c0,1.56-0.25,3.03-0.75,4.38c-0.5,1.35-1.16,2.62-1.99,3.81
		c-0.83,1.19-1.78,2.33-2.85,3.42c-1.07,1.09-2.17,2.17-3.31,3.24c-1.3,1.19-2.18,2.49-2.62,3.9c-0.44,1.41-0.67,3.01-0.7,4.79
		L308.35,259.07L308.35,259.07z M307.74,270.15c0-0.66,0.11-1.28,0.32-1.85c0.21-0.57,0.53-1.07,0.94-1.5
		c0.41-0.43,0.93-0.76,1.53-1c0.61-0.24,1.3-0.35,2.09-0.35c0.78,0,1.48,0.12,2.09,0.35s1.12,0.57,1.53,1
		c0.41,0.43,0.73,0.93,0.96,1.5c0.23,0.57,0.34,1.19,0.34,1.85c0,1.3-0.43,2.4-1.28,3.27c-0.86,0.87-2.06,1.32-3.63,1.32
		c-1.57,0-2.78-0.44-3.62-1.32C308.16,272.54,307.74,271.45,307.74,270.15z"/>
</g>
<rect x="92.55" y="27.64" class="st2" width="88.24" height="88.24"/>
<rect x="180.97" y="27.64" class="st2" width="88.24" height="88.24"/>
<rect x="269.21" y="27.64" class="st2" width="88.24" height="88.24"/>
<rect x="92.55" y="115.88" class="st2" width="88.24" height="88.24"/>
<rect x="180.97" y="115.88" class="st2" width="88.24" height="88.24"/>
<rect x="269.21" y="115.88" class="st2" width="88.24" height="88.24"/>
<rect x="92.55" y="204.12" class="st2" width="88.24" height="88.24"/>
<rect x="180.97" y="204.12" class="st2" width="88.24" height="88.24"/>
<rect x="269.21" y="204.12" class="st2" width="88.24" height="88.24"/>
<g>
	<line class="st3" x1="114.17" y1="73.75" x2="138.82" y2="98.39"/>
	<line class="st3" x1="138.66" y1="49.26" x2="163.3" y2="73.91"/>
	<line class="st3" x1="138.82" y1="98.39" x2="163.3" y2="73.91"/>
	<line class="st3" x1="110.04" y1="45.13" x2="145.39" y2="80.48"/>
</g>
<g>
	<line class="st3" x1="335.83" y1="69.77" x2="311.18" y2="45.13"/>
	<line class="st3" x1="311.34" y1="94.26" x2="286.7" y2="69.61"/>
	<line class="st3" x1="311.18" y1="45.13" x2="286.7" y2="69.61"/>
	<line class="st3" x1="339.96" y1="98.39" x2="304.61" y2="63.04"/>
</g>
<g>
	<line class="st3" x1="201.06" y1="148.41" x2="249.12" y2="148.41"/>
	<line class="st3" x1="209.64" y1="136.17" x2="240.54" y2="136.17"/>
	<line class="st3" x1="225.09" y1="183.83" x2="225.09" y2="148.41"/>
</g>
<g>
	<line class="st3" x1="213.5" y1="272.27" x2="213.5" y2="224.21"/>
	<line class="st3" x1="201.26" y1="263.69" x2="201.26" y2="232.79"/>
	<line class="st3" x1="248.93" y1="248.24" x2="213.5" y2="248.24"/>
</g>
<g>
	<line class="st3" x1="200.31" y1="46.98" x2="249.77" y2="96.44"/>
	<line class="st3" x1="216.99" y1="45.77" x2="250.98" y2="79.75"/>
	<line class="st3" x1="199.2" y1="63.77" x2="233.19" y2="97.75"/>
</g>
<g>
	<polyline class="st3" points="117.33,131.52 137.62,160.01 137.62,159.99 117.33,188.48 	"/>
	<polyline class="st3" points="135.72,131.52 156.01,160.01 156.01,159.99 135.72,188.48 	"/>
</g>
<g>
	<polyline class="st3" points="284.85,179.34 313.34,159.05 313.33,159.05 341.81,179.34 	"/>
	<polyline class="st3" points="284.85,160.95 313.34,140.66 313.33,140.66 341.81,160.95 	"/>
</g>
<g>
	<polyline class="st3" points="108.19,267.58 136.67,247.29 136.66,247.29 165.15,267.58 	"/>
	<polyline class="st3" points="108.19,249.19 136.67,228.9 136.66,228.9 165.15,249.19 	"/>
</g>
</svg>
