<?xml version="1.0" encoding="utf-8"?>
<!-- Generator: Adobe Illustrator 27.3.1, SVG Export Plug-In . SVG Version: 6.00 Build 0)  -->
<svg version="1.1" id="Layer_1" xmlns="http://www.w3.org/2000/svg" xmlns:xlink="http://www.w3.org/1999/xlink" x="0px" y="0px"
	 viewBox="0 0 120 120" style="enable-background:new 0 0 120 120;" xml:space="preserve">
<style type="text/css">
	.st0{display:none;}
	.st1{fill:none;stroke:#1D191A;stroke-miterlimit:10;}
	.st2{fill:#A5A5A5;stroke:#1D191A;stroke-miterlimit:10;}
	.st3{fill:#1D191A;}
	.st4{fill:#FFFFFF;}
</style>
<g>
	<path class="st3" d="M31.22,72.21h6.59V53.24c0-0.74,0.02-1.51,0.07-2.32l-4.68,3.92c-0.2,0.17-0.39,0.28-0.6,0.34
		c-0.2,0.06-0.4,0.09-0.6,0.09c-0.3,0-0.57-0.06-0.82-0.19c-0.25-0.13-0.43-0.27-0.55-0.44l-1.75-2.41l9.92-8.44h4.57v28.42h5.85
		v4.16h-18V72.21z"/>
	<path class="st3" d="M59.95,46.4h4.68v29.97h-4.68V46.4z"/>
	<path class="st3" d="M70.39,76.37V46.4h4.63v10.71c1.65-1.95,3.69-2.92,6.12-2.92c2.79,0,5.02,1.02,6.71,3.06
		c1.65,2.01,2.48,4.71,2.48,8.1c0,3.39-0.85,6.15-2.56,8.28c-1.71,2.13-3.92,3.2-6.62,3.2c-2.76,0-4.9-1.12-6.44-3.38v2.92H70.39z
		 M80.25,73.13c3.54,0,5.31-2.49,5.31-7.47c0-5.22-1.77-7.83-5.31-7.83c-3.6,0-5.4,2.64-5.4,7.92
		C74.85,70.67,76.65,73.13,80.25,73.13z"/>
</g>
</svg>
