<?xml version="1.0" encoding="utf-8"?>
<!-- Generator: Adobe Illustrator 27.3.1, SVG Export Plug-In . SVG Version: 6.00 Build 0)  -->
<svg version="1.1" id="Layer_1" xmlns="http://www.w3.org/2000/svg" xmlns:xlink="http://www.w3.org/1999/xlink" x="0px" y="0px"
	 viewBox="0 0 120 120" style="enable-background:new 0 0 120 120;" xml:space="preserve">
<style type="text/css">
	.st0{display:none;}
	.st1{fill:none;stroke:#1D191A;stroke-miterlimit:10;}
	.st2{fill:#A5A5A5;stroke:#1D191A;stroke-miterlimit:10;}
	.st3{fill:#1D191A;}
	.st4{fill:#FFFFFF;}
</style>
<g>
	<path class="st3" d="M46.37,64.11h4.09v3.22c0,0.3-0.1,0.56-0.29,0.78c-0.2,0.22-0.48,0.33-0.86,0.33h-2.95v7.94H41.5v-7.94H27.78
		c-0.38,0-0.71-0.12-0.99-0.35s-0.46-0.52-0.54-0.87l-0.56-2.81L41.1,43.81h5.26V64.11z M41.5,53.46c0-0.48,0.01-1,0.04-1.55
		c0.03-0.56,0.08-1.13,0.16-1.73l-10.1,13.93h9.9V53.46z"/>
	<path class="st3" d="M59.95,46.4h4.68v29.97h-4.68V46.4z"/>
	<path class="st3" d="M70.39,76.37V46.4h4.63v10.71c1.65-1.95,3.69-2.92,6.12-2.92c2.79,0,5.02,1.02,6.71,3.06
		c1.65,2.01,2.48,4.71,2.48,8.1c0,3.39-0.86,6.15-2.57,8.28c-1.71,2.13-3.92,3.2-6.62,3.2c-2.76,0-4.9-1.12-6.43-3.38v2.92H70.39z
		 M80.25,73.13c3.54,0,5.31-2.49,5.31-7.47c0-5.22-1.77-7.83-5.31-7.83c-3.6,0-5.4,2.64-5.4,7.92
		C74.85,70.67,76.65,73.13,80.25,73.13z"/>
</g>
</svg>
