<?xml version="1.0" encoding="UTF-8" standalone="no"?>
<!-- Generator: Adobe Illustrator 27.3.1, SVG Export Plug-In . SVG Version: 6.00 Build 0)  -->

<svg
   version="1.1"
   id="Layer_1"
   x="0px"
   y="0px"
   viewBox="0 0 450 320"
   style="enable-background:new 0 0 450 320;"
   xml:space="preserve"
   sodipodi:docname="Q21Q.svg"
   inkscape:version="1.4 (86a8ad7, 2024-10-11)"
   xmlns:inkscape="http://www.inkscape.org/namespaces/inkscape"
   xmlns:sodipodi="http://sodipodi.sourceforge.net/DTD/sodipodi-0.dtd"
   xmlns="http://www.w3.org/2000/svg"
   xmlns:svg="http://www.w3.org/2000/svg"><defs
   id="defs24" /><sodipodi:namedview
   id="namedview24"
   pagecolor="#ffffff"
   bordercolor="#999999"
   borderopacity="1"
   inkscape:showpageshadow="2"
   inkscape:pageopacity="0"
   inkscape:pagecheckerboard="0"
   inkscape:deskcolor="#d1d1d1"
   inkscape:zoom="2.521875"
   inkscape:cx="225.03098"
   inkscape:cy="160"
   inkscape:window-width="1920"
   inkscape:window-height="1009"
   inkscape:window-x="-8"
   inkscape:window-y="-8"
   inkscape:window-maximized="1"
   inkscape:current-layer="Layer_1" />
<style
   type="text/css"
   id="style1">
	.st0{fill:#A5A5A5;}
	.st1{display:none;}
	.st2{fill:#1D191A;}
	.st3{fill:none;stroke:#1D191A;stroke-width:3;stroke-miterlimit:10;}
</style>
<g
   id="g1">
	<path
   class="st2"
   d="M349.6,235.82c0-2,0.12-3.75,0.36-5.23s0.64-2.84,1.19-4.06c0.55-1.23,1.26-2.39,2.14-3.49   c0.87-1.1,1.95-2.27,3.22-3.51c0.96-0.93,1.86-1.81,2.69-2.65c0.83-0.83,1.57-1.69,2.2-2.56c0.64-0.87,1.14-1.81,1.5-2.79   c0.37-0.99,0.55-2.09,0.55-3.3c0-2.65-0.66-4.68-1.97-6.08c-1.31-1.4-3.24-2.09-5.78-2.09c-1.02,0-2,0.14-2.96,0.42   s-1.82,0.73-2.58,1.35c-0.76,0.62-1.38,1.41-1.84,2.37c-0.47,0.96-0.7,2.12-0.7,3.47h-10.3c0.03-2.65,0.51-4.99,1.46-7.01   c0.94-2.02,2.24-3.71,3.89-5.08c1.65-1.37,3.58-2.4,5.8-3.09s4.62-1.04,7.22-1.04c2.85,0,5.39,0.37,7.62,1.1s4.12,1.81,5.67,3.22   c1.55,1.41,2.73,3.13,3.54,5.17c0.8,2.03,1.21,4.33,1.21,6.9c0,1.86-0.3,3.6-0.89,5.21c-0.59,1.61-1.38,3.12-2.37,4.53   s-2.12,2.77-3.39,4.06c-1.27,1.3-2.58,2.58-3.94,3.85c-1.55,1.41-2.59,2.96-3.11,4.64c-0.52,1.68-0.8,3.58-0.83,5.69L349.6,235.82   L349.6,235.82z M348.88,248.99c0-0.79,0.13-1.52,0.38-2.2c0.25-0.68,0.63-1.27,1.12-1.78s1.1-0.9,1.82-1.19   c0.72-0.28,1.55-0.42,2.48-0.42c0.93,0,1.76,0.14,2.48,0.42s1.33,0.68,1.82,1.19c0.49,0.51,0.87,1.1,1.14,1.78   c0.27,0.68,0.4,1.41,0.4,2.2c0,1.55-0.51,2.85-1.52,3.89c-1.02,1.04-2.45,1.57-4.32,1.57s-3.3-0.52-4.3-1.57   C349.38,251.84,348.88,250.54,348.88,248.99z"
   id="path1" />
</g>
<polygon
   class="st0"
   points="181.71,180.53 181.78,265.99 268.2,266.36 267.8,223.45 225.83,223.45 "
   id="polygon1"
   style="fill:#1f8fff;fill-opacity:1" />
<polygon
   class="st0"
   points="136.83,180.75 51.76,265.99 137.51,265.99 "
   id="polygon2"
   style="fill:#1f8fff;fill-opacity:1" />
<polygon
   class="st0"
   points="355.9,53.63 355.9,96.97 398.88,139.58 398.56,54.05 "
   id="polygon3"
   style="fill:#1f8fff;fill-opacity:1" />
<polygon
   class="st0"
   points="182.56,54.27 225,96.31 267.17,54.27 "
   id="polygon4"
   style="fill:#1f8fff;fill-opacity:1" />
<polygon
   class="st0"
   points="50.88,54.27 50.88,97.07 93.51,97.07 "
   id="polygon5"
   style="fill:#1f8fff;fill-opacity:1" />
<g
   id="g5">
	<path
   class="st2"
   d="M135.31,55.95v82.24H53.07V55.95H135.31 M138.31,52.95H50.07v88.24h88.24V52.95L138.31,52.95z"
   id="path5" />
</g>
<g
   id="g6">
	<line
   class="st3"
   x1="51.31"
   y1="139.96"
   x2="137.08"
   y2="54.18"
   id="line5" />
</g>
<line
   class="st3"
   x1="51.31"
   y1="54.18"
   x2="137.08"
   y2="139.96"
   id="line6" />
<line
   class="st3"
   x1="51.76"
   y1="97.2"
   x2="136.83"
   y2="97.2"
   id="line7" />
<line
   class="st3"
   x1="94.1"
   y1="54.27"
   x2="94.1"
   y2="140.13"
   id="line8" />
<g
   id="g8">
	<path
   class="st2"
   d="M266.12,55.95v82.24h-82.24V55.95H266.12 M269.12,52.95h-88.24v88.24h88.24V52.95L269.12,52.95z"
   id="path8" />
</g>
<g
   id="g9">
	<line
   class="st3"
   x1="267.89"
   y1="54.18"
   x2="182.11"
   y2="139.96"
   id="line9" />
</g>
<line
   class="st3"
   x1="182.11"
   y1="54.18"
   x2="267.89"
   y2="139.96"
   id="line10" />
<line
   class="st3"
   x1="182.56"
   y1="97.2"
   x2="267.63"
   y2="97.2"
   id="line11" />
<line
   class="st3"
   x1="224.9"
   y1="54.27"
   x2="224.9"
   y2="140.13"
   id="line12" />
<g
   id="g12">
	<path
   class="st2"
   d="M396.93,55.95v82.24h-82.24V55.95H396.93 M399.93,52.95h-88.24v88.24h88.24V52.95L399.93,52.95z"
   id="path12" />
</g>
<g
   id="g13">
	<line
   class="st3"
   x1="312.92"
   y1="139.96"
   x2="398.69"
   y2="54.18"
   id="line13" />
</g>
<line
   class="st3"
   x1="312.92"
   y1="54.18"
   x2="398.69"
   y2="139.96"
   id="line14" />
<line
   class="st3"
   x1="313.37"
   y1="97.2"
   x2="398.44"
   y2="97.2"
   id="line15" />
<line
   class="st3"
   x1="355.71"
   y1="54.27"
   x2="355.71"
   y2="140.13"
   id="line16" />
<g
   id="g16">
	<path
   class="st2"
   d="M135.31,181.81v82.24H53.07v-82.24H135.31 M138.31,178.81H50.07v88.24h88.24V178.81L138.31,178.81z"
   id="path16" />
</g>
<g
   id="g17">
	<line
   class="st3"
   x1="51.31"
   y1="265.82"
   x2="137.08"
   y2="180.04"
   id="line17" />
</g>
<line
   class="st3"
   x1="51.31"
   y1="180.04"
   x2="137.08"
   y2="265.82"
   id="line18" />
<line
   class="st3"
   x1="51.76"
   y1="223.06"
   x2="136.83"
   y2="223.06"
   id="line19" />
<line
   class="st3"
   x1="94.1"
   y1="180.13"
   x2="94.1"
   y2="265.99"
   id="line20" />
<g
   id="g20">
	<path
   class="st2"
   d="M266.12,181.81v82.24h-82.24v-82.24H266.12 M269.12,178.81h-88.24v88.24h88.24V178.81L269.12,178.81z"
   id="path20" />
</g>
<g
   id="g21">
	<line
   class="st3"
   x1="182.11"
   y1="265.82"
   x2="267.89"
   y2="180.04"
   id="line21" />
</g>
<line
   class="st3"
   x1="182.11"
   y1="180.04"
   x2="267.89"
   y2="265.82"
   id="line22" />
<line
   class="st3"
   x1="182.56"
   y1="223.06"
   x2="267.63"
   y2="223.06"
   id="line23" />
<line
   class="st3"
   x1="224.9"
   y1="180.13"
   x2="224.9"
   y2="265.99"
   id="line24" />
</svg>
