<?xml version="1.0" encoding="utf-8"?>
<!-- Generator: Adobe Illustrator 27.3.1, SVG Export Plug-In . SVG Version: 6.00 Build 0)  -->
<svg version="1.1" id="Layer_1" xmlns="http://www.w3.org/2000/svg" xmlns:xlink="http://www.w3.org/1999/xlink" x="0px" y="0px"
	 viewBox="0 0 120 120" style="enable-background:new 0 0 120 120;" xml:space="preserve">
<style type="text/css">
	.st0{display:none;}
	.st1{fill:#1D191A;}
	.st2{fill:none;}
</style>
<g>
	<path class="st1" d="M39.95,71.74h6.59V52.77c0-0.74,0.02-1.51,0.07-2.32l-4.68,3.92c-0.2,0.17-0.39,0.28-0.6,0.34
		c-0.2,0.06-0.4,0.09-0.6,0.09c-0.3,0-0.57-0.06-0.82-0.19c-0.25-0.13-0.43-0.27-0.55-0.44l-1.75-2.41l9.92-8.44h4.57v28.42h5.85
		v4.16h-18V71.74z"/>
	<path class="st1" d="M84.98,59.63c0,2.83-0.3,5.3-0.91,7.39c-0.61,2.09-1.45,3.82-2.52,5.19c-1.07,1.37-2.34,2.38-3.8,3.05
		c-1.46,0.67-3.04,1-4.74,1c-1.7,0-3.27-0.33-4.71-1c-1.45-0.67-2.7-1.68-3.77-3.05c-1.07-1.36-1.9-3.09-2.5-5.19
		c-0.6-2.09-0.9-4.56-0.9-7.39c0-2.85,0.3-5.32,0.9-7.4s1.43-3.81,2.5-5.17c1.06-1.37,2.32-2.38,3.77-3.05c1.45-0.67,3.02-1,4.71-1
		c1.69,0,3.27,0.33,4.74,1s2.73,1.68,3.8,3.05c1.07,1.37,1.91,3.09,2.52,5.17C84.67,54.31,84.98,56.78,84.98,59.63z M79.24,59.63
		c0-2.35-0.17-4.3-0.52-5.85c-0.35-1.54-0.81-2.78-1.38-3.69c-0.58-0.92-1.24-1.56-1.99-1.92c-0.75-0.37-1.53-0.55-2.34-0.55
		c-0.79,0-1.56,0.18-2.31,0.55c-0.74,0.37-1.4,1.01-1.97,1.92c-0.57,0.92-1.02,2.15-1.36,3.69s-0.51,3.5-0.51,5.85
		c0,2.36,0.17,4.31,0.51,5.85c0.34,1.55,0.79,2.78,1.36,3.69c0.57,0.92,1.23,1.56,1.97,1.92c0.74,0.37,1.51,0.55,2.31,0.55
		c0.81,0,1.59-0.18,2.34-0.55c0.75-0.37,1.41-1.01,1.99-1.92c0.58-0.92,1.04-2.14,1.38-3.69C79.06,63.94,79.24,61.99,79.24,59.63z"
		/>
</g>
<g>
	<path class="st1" d="M107,13v94H13V13H107 M110,10H10v100h100V10L110,10z"/>
</g>
<rect x="58.12" y="58.6" class="st2" width="2.65" height="0"/>
</svg>
