<?xml version="1.0" encoding="utf-8"?>
<!-- Generator: Adobe Illustrator 27.3.1, SVG Export Plug-In . SVG Version: 6.00 Build 0)  -->
<svg version="1.1" id="Layer_1" xmlns="http://www.w3.org/2000/svg" xmlns:xlink="http://www.w3.org/1999/xlink" x="0px" y="0px"
	 viewBox="0 0 120 120" style="enable-background:new 0 0 120 120;" xml:space="preserve">
<style type="text/css">
	.st0{display:none;}
	.st1{fill:#1D191A;}
	.st2{fill:none;}
</style>
<g>
	<path class="st1" d="M39.95,71.74h6.59V52.77c0-0.74,0.02-1.51,0.07-2.32l-4.68,3.92c-0.2,0.17-0.39,0.28-0.6,0.34
		c-0.2,0.06-0.4,0.09-0.6,0.09c-0.3,0-0.57-0.06-0.82-0.19c-0.25-0.13-0.43-0.27-0.55-0.44l-1.75-2.41l9.92-8.44h4.57v28.42h5.85
		v4.16h-18V71.74z"/>
	<path class="st1" d="M75.08,55.58c1.23,0,2.43,0.2,3.59,0.61c1.16,0.41,2.19,1.02,3.07,1.83c0.89,0.82,1.6,1.83,2.14,3.05
		c0.54,1.21,0.81,2.63,0.81,4.25c0,1.52-0.28,2.94-0.83,4.26c-0.55,1.33-1.33,2.49-2.34,3.48s-2.22,1.77-3.63,2.34
		c-1.42,0.57-2.98,0.86-4.69,0.86c-1.74,0-3.3-0.28-4.68-0.83s-2.56-1.33-3.53-2.33c-0.98-1-1.72-2.2-2.24-3.6
		c-0.52-1.4-0.78-2.96-0.78-4.67c0-1.53,0.31-3.1,0.93-4.71c0.62-1.61,1.59-3.29,2.89-5.03l7.76-10.42
		c0.27-0.36,0.66-0.67,1.18-0.92s1.11-0.38,1.79-0.38h4.95l-9.65,11.81c-0.21,0.26-0.41,0.5-0.6,0.72c-0.19,0.23-0.37,0.46-0.55,0.7
		c0.63-0.32,1.31-0.56,2.04-0.74C73.43,55.67,74.22,55.58,75.08,55.58z M67.29,65.68c0,0.9,0.12,1.72,0.37,2.46
		c0.25,0.74,0.62,1.38,1.1,1.9c0.49,0.52,1.09,0.93,1.81,1.23c0.72,0.29,1.55,0.44,2.5,0.44c0.88,0,1.7-0.15,2.44-0.45
		s1.38-0.72,1.91-1.26c0.53-0.54,0.95-1.17,1.25-1.9s0.45-1.52,0.45-2.37c0-0.93-0.14-1.77-0.43-2.51s-0.69-1.37-1.21-1.89
		s-1.16-0.91-1.89-1.18c-0.73-0.27-1.54-0.41-2.43-0.41s-1.69,0.15-2.41,0.45c-0.72,0.3-1.34,0.72-1.86,1.25s-0.92,1.16-1.19,1.89
		C67.43,64.06,67.29,64.84,67.29,65.68z"/>
</g>
<g>
	<path class="st1" d="M107,13v94H13V13H107 M110,10H10v100h100V10L110,10z"/>
</g>
<rect x="58.12" y="58.6" class="st2" width="2.65" height="0"/>
</svg>
