<?xml version="1.0" encoding="utf-8"?>
<!-- Generator: Adobe Illustrator 27.3.1, SVG Export Plug-In . SVG Version: 6.00 Build 0)  -->
<svg version="1.1" id="Layer_1" xmlns="http://www.w3.org/2000/svg" xmlns:xlink="http://www.w3.org/1999/xlink" x="0px" y="0px"
	 viewBox="0 0 120 120" style="enable-background:new 0 0 120 120;" xml:space="preserve">
<style type="text/css">
	.st0{display:none;}
	.st1{fill:#1D191A;}
	.st2{fill:#FFFFFF;}
	.st3{fill:none;stroke:#1D191A;stroke-miterlimit:10;}
	.st4{fill:#A5A5A5;stroke:#1D191A;stroke-miterlimit:10;}
	.st5{fill:#A5A5A5;}
</style>
<g>
	<path class="st1" d="M26.18,43.47c1.5,0,2.85,0.21,4.06,0.64c1.21,0.43,2.24,1.02,3.09,1.78c0.86,0.76,1.51,1.65,1.97,2.67
		c0.46,1.02,0.69,2.12,0.69,3.31c0,1.04-0.12,1.95-0.35,2.73c-0.23,0.79-0.57,1.47-1.01,2.06c-0.44,0.58-0.98,1.08-1.62,1.49
		c-0.64,0.4-1.36,0.74-2.17,1.01c1.95,0.62,3.4,1.55,4.36,2.81c0.96,1.26,1.44,2.84,1.44,4.75c0,1.62-0.3,3.05-0.9,4.3
		c-0.6,1.25-1.41,2.29-2.43,3.14c-1.02,0.85-2.2,1.49-3.54,1.92c-1.34,0.44-2.76,0.65-4.26,0.65c-1.64,0-3.06-0.19-4.28-0.56
		c-1.21-0.38-2.27-0.93-3.17-1.67c-0.9-0.74-1.66-1.63-2.29-2.7c-0.63-1.07-1.17-2.29-1.62-3.69l2.45-1.01
		c0.42-0.18,0.85-0.27,1.28-0.27c0.39,0,0.74,0.08,1.05,0.25c0.31,0.17,0.54,0.41,0.71,0.72c0.27,0.53,0.57,1.04,0.89,1.55
		c0.32,0.51,0.71,0.96,1.16,1.36c0.45,0.4,0.98,0.72,1.59,0.97c0.61,0.25,1.33,0.37,2.17,0.37c0.95,0,1.77-0.15,2.47-0.46
		s1.29-0.71,1.77-1.2c0.47-0.5,0.83-1.05,1.06-1.65s0.35-1.22,0.35-1.83c0-0.78-0.08-1.49-0.25-2.13c-0.17-0.64-0.51-1.18-1.04-1.63
		c-0.53-0.45-1.28-0.8-2.26-1.06s-2.3-0.38-3.95-0.38v-3.98c1.37,0,2.5-0.12,3.4-0.36c0.9-0.24,1.62-0.57,2.15-1
		c0.53-0.43,0.9-0.94,1.11-1.54s0.32-1.26,0.32-1.98c0-1.54-0.42-2.71-1.26-3.5c-0.84-0.79-1.99-1.18-3.44-1.18
		c-1.32,0-2.42,0.35-3.29,1.04c-0.87,0.7-1.48,1.59-1.82,2.69c-0.18,0.57-0.43,0.98-0.74,1.22s-0.73,0.37-1.24,0.37
		c-0.24,0-0.5-0.02-0.77-0.07l-2.92-0.51c0.22-1.56,0.66-2.93,1.3-4.11c0.64-1.18,1.45-2.16,2.42-2.95
		c0.97-0.79,2.08-1.38,3.33-1.78C23.4,43.67,24.74,43.47,26.18,43.47z"/>
	<path class="st1" d="M63.2,60.1c0,2.83-0.3,5.3-0.91,7.39c-0.61,2.09-1.45,3.82-2.52,5.19c-1.07,1.37-2.34,2.38-3.8,3.05
		c-1.46,0.67-3.04,1-4.74,1c-1.7,0-3.27-0.33-4.71-1c-1.45-0.67-2.7-1.68-3.77-3.05c-1.07-1.36-1.9-3.09-2.5-5.19
		c-0.6-2.09-0.9-4.56-0.9-7.39c0-2.85,0.3-5.32,0.9-7.4c0.6-2.08,1.43-3.81,2.5-5.17s2.32-2.38,3.77-3.05s3.02-1,4.71-1
		c1.69,0,3.27,0.33,4.74,1s2.73,1.68,3.8,3.05c1.07,1.37,1.91,3.09,2.52,5.17C62.89,54.78,63.2,57.25,63.2,60.1z M57.46,60.1
		c0-2.35-0.17-4.3-0.52-5.85c-0.35-1.54-0.81-2.78-1.38-3.69c-0.58-0.92-1.24-1.56-1.99-1.92c-0.75-0.37-1.53-0.55-2.34-0.55
		c-0.79,0-1.56,0.18-2.31,0.55c-0.74,0.37-1.4,1.01-1.97,1.92c-0.57,0.92-1.02,2.15-1.36,3.69c-0.34,1.54-0.51,3.5-0.51,5.85
		c0,2.36,0.17,4.31,0.51,5.85c0.34,1.55,0.79,2.78,1.36,3.69c0.57,0.92,1.23,1.56,1.97,1.92c0.74,0.37,1.51,0.55,2.31,0.55
		c0.81,0,1.59-0.18,2.34-0.55c0.75-0.37,1.41-1.01,1.99-1.92c0.58-0.92,1.04-2.14,1.38-3.69C57.29,64.41,57.46,62.46,57.46,60.1z"/>
	<path class="st1" d="M73,46.4h4.68v29.97H73V46.4z"/>
	<path class="st1" d="M83.44,76.37V46.4h4.63v10.71c1.65-1.95,3.69-2.92,6.12-2.92c2.79,0,5.02,1.02,6.71,3.06
		c1.65,2.01,2.47,4.71,2.47,8.1c0,3.39-0.85,6.15-2.56,8.28c-1.71,2.13-3.92,3.2-6.62,3.2c-2.76,0-4.9-1.12-6.44-3.38v2.92H83.44z
		 M93.3,73.13c3.54,0,5.31-2.49,5.31-7.47c0-5.22-1.77-7.83-5.31-7.83c-3.6,0-5.4,2.64-5.4,7.92C87.9,70.67,89.7,73.13,93.3,73.13z"
		/>
</g>
</svg>
