<?xml version="1.0" encoding="UTF-8" standalone="no"?>
<!-- Generator: Adobe Illustrator 27.3.1, SVG Export Plug-In . SVG Version: 6.00 Build 0)  -->

<svg
   version="1.1"
   id="Layer_1"
   x="0px"
   y="0px"
   viewBox="0 0 450 320"
   style="enable-background:new 0 0 450 320;"
   xml:space="preserve"
   sodipodi:docname="Q28Q.svg"
   inkscape:version="1.4 (86a8ad7, 2024-10-11)"
   xmlns:inkscape="http://www.inkscape.org/namespaces/inkscape"
   xmlns:sodipodi="http://sodipodi.sourceforge.net/DTD/sodipodi-0.dtd"
   xmlns="http://www.w3.org/2000/svg"
   xmlns:svg="http://www.w3.org/2000/svg"><defs
   id="defs34" /><sodipodi:namedview
   id="namedview34"
   pagecolor="#ffffff"
   bordercolor="#999999"
   borderopacity="1"
   inkscape:showpageshadow="2"
   inkscape:pageopacity="0"
   inkscape:pagecheckerboard="0"
   inkscape:deskcolor="#d1d1d1"
   inkscape:zoom="1.2609375"
   inkscape:cx="233.55638"
   inkscape:cy="162.18092"
   inkscape:window-width="1920"
   inkscape:window-height="1009"
   inkscape:window-x="-8"
   inkscape:window-y="-8"
   inkscape:window-maximized="1"
   inkscape:current-layer="Layer_1" />
<style
   type="text/css"
   id="style1">
	.st0{display:none;}
	.st1{fill:#1D191A;}
	.st2{fill:#FFFFFF;}
	.st3{fill:none;stroke:#1D191A;stroke-miterlimit:10;}
	.st4{fill:#A5A5A5;stroke:#1D191A;stroke-miterlimit:10;}
	.st5{fill:#A5A5A5;}
</style>
<g
   id="g5"
   transform="translate(10,-3)">
	<g
   id="g2">
		<path
   class="st2"
   d="m 170.74,55.78 c -7.14,0 -12.95,-5.81 -12.95,-12.95 0,-7.14 5.81,-12.95 12.95,-12.95 7.14,0 12.95,5.81 12.95,12.95 0,7.14 -5.81,12.95 -12.95,12.95 z"
   id="path1" />
		<path
   class="st1"
   d="m 170.74,30.88 c 6.59,0 11.95,5.36 11.95,11.95 0,6.59 -5.36,11.95 -11.95,11.95 -6.59,0 -11.95,-5.36 -11.95,-11.95 0,-6.59 5.36,-11.95 11.95,-11.95 m 0,-2 c -7.71,0 -13.95,6.25 -13.95,13.95 0,7.7 6.25,13.95 13.95,13.95 7.7,0 13.95,-6.25 13.95,-13.95 0,-7.7 -6.24,-13.95 -13.95,-13.95 z"
   id="path2" />
	</g>
	<g
   id="g3">
		<path
   class="st1"
   d="m 208.4,38.92 h 12.91 v 2.67 H 208.4 Z m 0,5.13 h 12.91 v 2.68 H 208.4 Z"
   id="path3" />
	</g>
	<g
   id="g4">
		<path
   class="st1"
   d="m 256.4,48.43 c 0,-0.87 0.05,-1.63 0.16,-2.28 0.1,-0.64 0.28,-1.24 0.52,-1.77 0.24,-0.54 0.55,-1.04 0.93,-1.52 0.38,-0.48 0.85,-0.99 1.4,-1.53 0.42,-0.4 0.81,-0.79 1.17,-1.15 0.36,-0.36 0.68,-0.74 0.96,-1.11 0.28,-0.38 0.5,-0.79 0.65,-1.21 0.16,-0.43 0.24,-0.91 0.24,-1.44 0,-1.15 -0.29,-2.04 -0.86,-2.65 -0.57,-0.61 -1.41,-0.91 -2.52,-0.91 -0.44,0 -0.87,0.06 -1.29,0.18 -0.42,0.12 -0.79,0.32 -1.12,0.59 -0.33,0.27 -0.6,0.61 -0.8,1.03 -0.2,0.42 -0.3,0.92 -0.3,1.51 h -4.48 c 0.01,-1.15 0.22,-2.17 0.64,-3.05 0.41,-0.88 0.98,-1.62 1.69,-2.21 0.72,-0.6 1.56,-1.04 2.52,-1.35 0.97,-0.3 2.01,-0.45 3.14,-0.45 1.24,0 2.35,0.16 3.32,0.48 0.97,0.32 1.79,0.79 2.47,1.4 0.67,0.61 1.19,1.36 1.54,2.25 0.35,0.88 0.53,1.88 0.53,3 0,0.81 -0.13,1.57 -0.39,2.27 -0.26,0.7 -0.6,1.36 -1.03,1.97 -0.43,0.61 -0.92,1.21 -1.48,1.77 -0.55,0.57 -1.12,1.12 -1.72,1.68 -0.67,0.61 -1.13,1.29 -1.35,2.02 -0.23,0.73 -0.35,1.56 -0.36,2.48 z m -0.31,5.74 c 0,-0.34 0.06,-0.66 0.17,-0.96 0.11,-0.3 0.27,-0.55 0.49,-0.77 0.21,-0.22 0.48,-0.39 0.79,-0.52 0.31,-0.12 0.67,-0.18 1.08,-0.18 0.41,0 0.77,0.06 1.08,0.18 0.31,0.12 0.58,0.3 0.79,0.52 0.21,0.22 0.38,0.48 0.5,0.77 0.12,0.3 0.17,0.61 0.17,0.96 0,0.67 -0.22,1.24 -0.66,1.69 -0.44,0.45 -1.07,0.68 -1.88,0.68 -0.81,0 -1.44,-0.23 -1.87,-0.68 -0.45,-0.45 -0.66,-1.02 -0.66,-1.69 z"
   id="path4" />
	</g>
</g>
<g
   id="g34"
   transform="translate(9.9999979)">
	<g
   id="g11"
   transform="translate(0,-21.028861)">
		<g
   id="g6">
			<ellipse
   class="st3"
   cx="137.22"
   cy="242.78"
   rx="30.209999"
   ry="7.5700002"
   id="ellipse5" />
			<ellipse
   class="st4"
   cx="137.42"
   cy="241.14999"
   rx="30.209999"
   ry="5.6399999"
   id="ellipse6" />
		</g>
		<polyline
   class="st3"
   points="107.01,242.78 137.32,133.21 167.43,242.78   "
   id="polyline6" />
		<g
   id="g7">
			<path
   class="st2"
   d="m 123.37,238.87 c -7.14,0 -12.95,-5.81 -12.95,-12.95 0,-7.14 5.81,-12.95 12.95,-12.95 7.14,0 12.95,5.81 12.95,12.95 0,7.14 -5.81,12.95 -12.95,12.95 z"
   id="path6" />
			<path
   class="st1"
   d="m 123.37,213.96 c 6.59,0 11.95,5.36 11.95,11.95 0,6.59 -5.36,11.95 -11.95,11.95 -6.59,0 -11.95,-5.36 -11.95,-11.95 0,-6.59 5.36,-11.95 11.95,-11.95 m 0,-2 c -7.71,0 -13.95,6.25 -13.95,13.95 0,7.7 6.25,13.95 13.95,13.95 7.71,0 13.95,-6.25 13.95,-13.95 0,-7.7 -6.25,-13.95 -13.95,-13.95 z"
   id="path7" />
		</g>
		<g
   id="g8">
			<circle
   class="st2"
   cx="151.27"
   cy="225.91"
   r="12.95"
   id="circle7" />
			<path
   class="st1"
   d="m 151.27,213.96 c 6.59,0 11.95,5.36 11.95,11.95 0,6.59 -5.36,11.95 -11.95,11.95 -6.59,0 -11.95,-5.36 -11.95,-11.95 0,-6.59 5.36,-11.95 11.95,-11.95 m 0,-2 c -7.71,0 -13.95,6.25 -13.95,13.95 0,7.7 6.25,13.95 13.95,13.95 7.7,0 13.95,-6.25 13.95,-13.95 0,-7.7 -6.24,-13.95 -13.95,-13.95 z"
   id="path8" />
		</g>
		<g
   id="g10">
			<path
   class="st5"
   d="m 137.32,244.88 c -7.14,0 -12.95,-5.81 -12.95,-12.95 0,-7.14 5.81,-12.95 12.95,-12.95 7.14,0 12.95,5.81 12.95,12.95 0,7.14 -5.81,12.95 -12.95,12.95 z"
   id="path9" />
			<path
   class="st1"
   d="m 137.32,219.97 c 6.59,0 11.95,5.36 11.95,11.95 0,6.59 -5.36,11.95 -11.95,11.95 -6.59,0 -11.95,-5.36 -11.95,-11.95 0,-6.59 5.36,-11.95 11.95,-11.95 m 0,-2 c -7.71,0 -13.95,6.25 -13.95,13.95 0,7.7 6.25,13.95 13.95,13.95 7.7,0 13.95,-6.25 13.95,-13.95 0,-7.7 -6.24,-13.95 -13.95,-13.95 z"
   id="path10" />
		</g>
	</g>
	<path
   class="st1"
   d="m 331.28,148.851 c -0.02,-1.59 -1.31,-2.86 -2.9,-2.86 -1.6,0 -2.9,1.3 -2.9,2.9 0,0.06 0,0.12 0.01,0.17 -0.01,0.04 -0.01,0.08 -0.01,0.12 -1.14,0.41 -2.33,0.6 -3.56,0.53 -2.37,-0.14 -4.55,-0.97 -6.73,-1.8 -2.5,-0.96 -4.98,-1.97 -7.6,-2.53 -2.29,-0.49 -4.61,-0.6 -6.89,-0.08 -1.49,0.33 -2.92,0.97 -4.37,1.48 -0.8,0.28 -1.61,0.57 -2.42,0.86 -0.34,-0.68 -0.23,-1.31 0.05,-1.89 0.26,-0.54 0.6,-1.04 0.94,-1.53 0.58,-0.86 1.08,-1.74 1.24,-2.79 0.15,-0.95 -0.02,-1.84 -0.38,-2.7 -1.01,-2.45 -2.05,-4.89 -3.08,-7.34 -0.02,-0.05 -0.07,-0.09 -0.16,-0.2 -0.09,0.11 -0.14,0.14 -0.16,0.2 -1.03,2.44 -2.07,4.89 -3.08,7.34 -0.36,0.86 -0.53,1.75 -0.38,2.7 0.16,1.05 0.66,1.93 1.24,2.79 0.34,0.49 0.67,1 0.94,1.53 0.29,0.58 0.39,1.21 0.05,1.89 -0.82,-0.29 -1.62,-0.58 -2.42,-0.86 -1.45,-0.51 -2.88,-1.14 -4.37,-1.48 -2.28,-0.51 -4.6,-0.4 -6.89,0.08 -2.63,0.56 -5.11,1.57 -7.6,2.53 -2.18,0.84 -4.36,1.66 -6.73,1.8 -1.23,0.07 -2.42,-0.12 -3.56,-0.53 0,-0.04 -0.01,-0.08 -0.01,-0.12 0,-0.05 0.01,-0.11 0.01,-0.17 0,-1.6 -1.3,-2.9 -2.9,-2.9 -1.59,0 -2.88,1.28 -2.9,2.86 0,0.01 0,0.03 0,0.04 v 0.03 c 0,0.27 0.03,0.52 0.11,0.77 0,0.01 0.01,0.02 0.01,0.03 0.27,0.94 1.01,1.68 1.94,1.96 0.09,0.03 0.19,0.05 0.29,0.07 0.18,0.03 0.36,0.05 0.55,0.05 0.09,0 0.19,0 0.27,-0.01 0.08,-0.01 0.15,-0.02 0.23,-0.03 0.6,-0.11 1.14,-0.4 1.55,-0.81 0,0 0,0 0.01,0 0.03,-0.02 0.05,-0.04 0.08,-0.06 0.92,0.35 1.75,0.77 2.64,0.97 1.92,0.46 3.88,0.46 5.78,-0.09 2.18,-0.63 4.31,-1.41 6.46,-2.14 2.65,-0.9 5.35,-1.4 8.15,-0.95 2.72,0.43 5.32,1.16 7.14,3.48 0.14,0.18 0.25,0.35 0.31,0.53 0.01,0.08 0.03,0.16 0.05,0.24 0,0 0,0.01 0,0.01 0.36,1.41 1.63,2.45 3.15,2.45 0.02,0 0.04,0 0.06,0 0.02,0 0.04,0 0.06,0 1.52,0 2.79,-1.04 3.15,-2.45 0,0 0,-0.01 0,-0.01 0.02,-0.08 0.03,-0.16 0.05,-0.24 0.06,-0.18 0.16,-0.35 0.31,-0.53 1.82,-2.32 4.41,-3.05 7.14,-3.48 2.8,-0.44 5.5,0.05 8.15,0.95 2.15,0.73 4.28,1.5 6.46,2.14 1.9,0.56 3.86,0.55 5.78,0.09 0.89,-0.21 1.72,-0.63 2.64,-0.97 0.03,0.02 0.05,0.04 0.08,0.06 0,0 0,0 0.01,0 0.41,0.42 0.95,0.71 1.55,0.81 0.07,0.01 0.15,0.02 0.23,0.03 0.09,0.01 0.18,0.01 0.27,0.01 0.19,0 0.37,-0.02 0.55,-0.05 0.1,-0.02 0.19,-0.04 0.29,-0.07 0.93,-0.28 1.67,-1.02 1.94,-1.96 0,-0.01 0.01,-0.02 0.01,-0.03 0.08,-0.24 0.11,-0.5 0.11,-0.77 v -0.03 c -0.04,-0.01 -0.04,-0.03 -0.04,-0.04 z"
   id="path11" />
	<g
   id="g12"
   transform="translate(0,-21.839)">
		<ellipse
   class="st3"
   cx="256.54999"
   cy="242.78"
   rx="30.209999"
   ry="7.5700002"
   id="ellipse11" />
		<ellipse
   class="st4"
   cx="256.75"
   cy="241.14999"
   rx="30.209999"
   ry="5.6399999"
   id="ellipse12" />
	</g>
	<g
   id="g14"
   transform="translate(0,-21.839)">
		<ellipse
   class="st3"
   cx="327.5"
   cy="242.78"
   rx="30.209999"
   ry="7.5700002"
   id="ellipse13" />
		<ellipse
   class="st4"
   cx="327.70001"
   cy="241.14999"
   rx="30.209999"
   ry="5.6399999"
   id="ellipse14" />
	</g>
	<line
   class="st3"
   x1="292.57999"
   y1="134.791"
   x2="292.42001"
   y2="108.521"
   id="line14" />
	<line
   class="st3"
   x1="226.34"
   y1="220.94099"
   x2="256.91"
   y2="151.78099"
   id="line15" />
	<line
   class="st3"
   x1="286.72"
   y1="220.56099"
   x2="256.75"
   y2="150.81099"
   id="line16" />
	<line
   class="st3"
   x1="297.29999"
   y1="220.94099"
   x2="327.88"
   y2="151.78099"
   id="line17" />
	<line
   class="st3"
   x1="357.69"
   y1="220.56099"
   x2="327.72"
   y2="150.81099"
   id="line18" />
	<g
   id="g19"
   transform="translate(0,-21.839)">
		<path
   class="st5"
   d="m 242.7,238.87 c -7.14,0 -12.95,-5.81 -12.95,-12.95 0,-7.14 5.81,-12.95 12.95,-12.95 7.14,0 12.95,5.81 12.95,12.95 0,7.14 -5.81,12.95 -12.95,12.95 z"
   id="path18" />
		<path
   class="st1"
   d="m 242.7,213.96 c 6.59,0 11.95,5.36 11.95,11.95 0,6.59 -5.36,11.95 -11.95,11.95 -6.59,0 -11.95,-5.36 -11.95,-11.95 0,-6.59 5.36,-11.95 11.95,-11.95 m 0,-2 c -7.71,0 -13.95,6.25 -13.95,13.95 0,7.7 6.25,13.95 13.95,13.95 7.7,0 13.95,-6.25 13.95,-13.95 0,-7.7 -6.25,-13.95 -13.95,-13.95 z"
   id="path19" />
	</g>
	<g
   id="g20"
   transform="translate(0,-21.839)">
		<circle
   class="st5"
   cx="270.60001"
   cy="225.91"
   r="12.95"
   id="circle19" />
		<path
   class="st1"
   d="m 270.6,213.96 c 6.59,0 11.95,5.36 11.95,11.95 0,6.59 -5.36,11.95 -11.95,11.95 -6.59,0 -11.95,-5.36 -11.95,-11.95 0,-6.59 5.36,-11.95 11.95,-11.95 m 0,-2 c -7.71,0 -13.95,6.25 -13.95,13.95 0,7.7 6.25,13.95 13.95,13.95 7.7,0 13.95,-6.25 13.95,-13.95 0,-7.7 -6.24,-13.95 -13.95,-13.95 z"
   id="path20" />
	</g>
	<g
   id="g22"
   transform="translate(0,-21.839)">
		<path
   class="st5"
   d="m 256.65,244.88 c -7.14,0 -12.95,-5.81 -12.95,-12.95 0,-7.14 5.81,-12.95 12.95,-12.95 7.14,0 12.95,5.81 12.95,12.95 0,7.14 -5.81,12.95 -12.95,12.95 z"
   id="path21" />
		<path
   class="st1"
   d="m 256.65,219.97 c 6.59,0 11.95,5.36 11.95,11.95 0,6.59 -5.36,11.95 -11.95,11.95 -6.59,0 -11.95,-5.36 -11.95,-11.95 0,-6.59 5.36,-11.95 11.95,-11.95 m 0,-2 c -7.71,0 -13.95,6.25 -13.95,13.95 0,7.7 6.25,13.95 13.95,13.95 7.71,0 13.95,-6.25 13.95,-13.95 0,-7.7 -6.24,-13.95 -13.95,-13.95 z"
   id="path22" />
	</g>
	<circle
   class="st1"
   cx="137.32001"
   cy="105.31753"
   r="7.46"
   id="circle22" />
	<circle
   class="st1"
   cx="292.42001"
   cy="104.921"
   r="7.46"
   id="circle23" />
	<circle
   class="st1"
   cx="327.98999"
   cy="148.89099"
   r="3.29"
   id="circle24" />
	<circle
   class="st1"
   cx="257.03"
   cy="148.89099"
   r="3.29"
   id="circle25" />
	<circle
   class="st1"
   cx="292.51001"
   cy="152.58099"
   r="3.6199999"
   id="circle26" />
	<path
   class="st1"
   d="m 298.57,105.111 v 0.06 c 0,0.58 -0.08,1.13 -0.24,1.66 -0.01,0.02 -0.01,0.03 -0.02,0.05 -0.59,2.03 -2.18,3.62 -4.2,4.23 -0.2,0.06 -0.4,0.11 -0.61,0.15 -0.39,0.07 -0.79,0.11 -1.2,0.11 -0.2,0 -0.4,0 -0.59,-0.02 -0.17,-0.02 -0.33,-0.04 -0.49,-0.07 -1.3,-0.23 -2.46,-0.85 -3.35,-1.75 -0.01,0 -0.01,0 -0.01,-0.01 -0.06,-0.04 -0.12,-0.08 -0.18,-0.12 -1.98,0.75 -3.78,1.65 -5.69,2.1 -4.15,0.99 -8.39,1 -12.48,-0.2 -4.7,-1.36 -9.31,-3.04 -13.95,-4.61 -5.71,-1.94 -11.54,-3.02 -17.58,-2.06 -4.62,0.72 -9.06,1.85 -12.65,4.74 h -0.01 c -0.64,0.51 -1.25,1.07 -1.83,1.7 -0.02,0.21 -0.02,0.43 0.01,0.67 0.47,3.93 -0.4,7.54 -2.71,10.79 -0.23,0.33 -0.41,0.69 -0.55,0.91 1.22,1 2.43,1.82 3.42,2.84 1.17,1.2 0.94,2.44 -0.43,3.37 -0.3,0.22 -0.63,0.41 -0.96,0.57 -1.17,0.53 -1.58,1.4 -1.56,2.69 0.08,11.35 0.11,22.71 0.19,34.06 0.01,0.77 0.27,1.56 0.57,2.27 0.72,1.69 1.08,3.39 0.32,5.13 -0.32,0.72 -0.79,1.35 -1.18,2 3.48,3.72 3.58,4.91 0.95,10.42 0.81,1.23 0.5,2.32 -0.41,3.46 -0.46,0.58 -0.79,1.46 -0.77,2.18 0.15,5.74 0.42,11.45 0.63,17.18 0.03,0.85 0.27,1.47 0.93,2.08 1.29,1.18 1.3,2.63 0.15,3.98 -0.43,0.51 -0.95,0.95 -1.42,1.41 2.56,2.38 2.59,2.92 0.43,5.67 0.15,0.65 0.32,1.32 0.46,2 0.53,2.49 0.91,5.08 0.02,7.46 -0.98,2.65 -0.21,4.69 1.3,6.72 0.83,1.12 1.65,2.24 2.4,3.41 0.68,1.07 0.6,2.14 -0.24,3.12 -0.27,0.32 -0.52,0.65 -0.9,1.1 0.67,0.47 1.25,0.92 1.87,1.32 4.13,2.64 8.54,4.61 13.37,5.65 3.3,0.72 6.48,1.88 9.31,3.82 1.88,1.29 2.2,2.73 0.98,4.66 -0.44,0.71 -1.03,1.44 -1.74,1.84 -1.71,0.97 -3.46,2.04 -5.33,2.53 -3.4,0.89 -6.89,1.5 -10.38,2.03 -2.89,0.44 -5.84,0.6 -8.76,0.87 h -17.2 c -2.92,-0.27 -5.87,-0.43 -8.76,-0.87 -3.49,-0.53 -6.98,-1.14 -10.38,-2.03 -1.87,-0.49 -3.62,-1.56 -5.33,-2.53 -0.71,-0.4 -1.3,-1.13 -1.74,-1.84 -1.22,-1.93 -0.9,-3.37 0.98,-4.66 2.83,-1.94 6.01,-3.1 9.31,-3.82 4.83,-1.04 9.24,-3.01 13.37,-5.65 0.62,-0.4 1.2,-0.85 1.87,-1.32 -0.38,-0.45 -0.63,-0.78 -0.9,-1.1 -0.84,-0.98 -0.92,-2.05 -0.24,-3.12 0.75,-1.17 1.57,-2.29 2.4,-3.41 1.51,-2.03 2.28,-4.07 1.3,-6.72 -0.89,-2.38 -0.51,-4.97 0.02,-7.46 0.14,-0.68 0.31,-1.35 0.46,-2 -2.16,-2.75 -2.13,-3.29 0.43,-5.67 -0.47,-0.46 -0.99,-0.9 -1.42,-1.41 -1.15,-1.35 -1.14,-2.8 0.15,-3.98 0.66,-0.61 0.9,-1.23 0.93,-2.08 0.21,-5.73 0.48,-11.44 0.63,-17.18 0.02,-0.72 -0.31,-1.6 -0.77,-2.18 -0.91,-1.14 -1.22,-2.23 -0.41,-3.46 -2.63,-5.51 -2.53,-6.7 0.95,-10.42 -0.39,-0.65 -0.86,-1.28 -1.18,-2 -0.76,-1.74 -0.4,-3.44 0.32,-5.13 0.3,-0.71 0.56,-1.5 0.57,-2.27 0.08,-11.35 0.11,-22.71 0.19,-34.06 0.02,-1.29 -0.39,-2.16 -1.56,-2.69 -0.33,-0.16 -0.66,-0.35 -0.96,-0.57 -1.37,-0.93 -1.6,-2.17 -0.43,-3.37 0.99,-1.02 2.2,-1.84 3.42,-2.84 -0.14,-0.22 -0.32,-0.58 -0.55,-0.91 -2.31,-3.25 -3.18,-6.86 -2.71,-10.79 0.03,-0.24 0.03,-0.46 0.01,-0.67 -0.58,-0.63 -1.2,-1.2 -1.84,-1.7 -3.59,-2.89 -8.03,-4.02 -12.64,-4.74 -6.04,-0.96 -11.87,0.12 -17.59,2.06 -4.64,1.57 -9.24,3.25 -13.94,4.61 -4.1,1.2 -8.33,1.19 -12.48,0.2 -1.91,-0.45 -3.71,-1.35 -5.7,-2.1 -0.05,0.04 -0.12,0.08 -0.17,0.12 -0.01,0.01 -0.01,0.01 -0.01,0.01 -0.9,0.9 -2.06,1.52 -3.36,1.75 -0.15,0.03 -0.32,0.05 -0.48,0.07 -0.2,0.02 -0.4,0.02 -0.6,0.02 -0.4,0 -0.8,-0.04 -1.19,-0.11 -0.21,-0.04 -0.42,-0.09 -0.62,-0.15 -2.02,-0.61 -3.6,-2.2 -4.19,-4.23 -0.01,-0.02 -0.02,-0.03 -0.02,-0.05 -0.17,-0.53 -0.25,-1.08 -0.24,-1.66 v -0.06 c 0,-0.03 0,-0.05 0.01,-0.08 0.04,-3.42 2.82,-6.18 6.25,-6.18 3.46,0 6.27,2.8 6.27,6.26 0,0.13 -0.01,0.26 -0.02,0.37 0.02,0.09 0.03,0.17 0.03,0.27 2.46,0.88 5.03,1.3 7.68,1.14 5.12,-0.29 9.83,-2.08 14.53,-3.89 5.39,-2.06 10.74,-4.25 16.42,-5.46 4.95,-1.05 9.95,-1.29 14.87,-0.18 3.22,0.72 6.3,2.089999 9.44,3.18 l 5.63,2.16 c 0.04,-0.22 0.05,-0.44 0.05,-0.65 0,-0.78 -0.22,-1.51 -0.57,-2.220001 C 211.19,98.681 210.45,97.601 209.73,96.531 c -1.25,-1.86 -2.33,-3.75 -2.68,-6.02 -0.32,-2.04 0.05,-3.97 0.81,-5.82 2.19,-5.3 4.43,-10.57 6.65,-15.84 0.05,-0.12 0.16,-0.2 0.35,-0.43 0.19,0.23 0.3,0.31 0.35,0.43 2.22,5.27 4.46,10.54 6.65,15.84 0.76,1.85 1.13,3.78 0.81,5.82 -0.35,2.27 -1.43,4.16 -2.68,6.02 -0.72,1.07 -1.46,2.15 -2.02,3.299999 -0.35,0.710001 -0.57,1.440001 -0.57,2.220001 0,0.22 0.01,0.44 0.05,0.66 l 5.64,-2.17 c 3.14,-1.090001 6.22,-2.46 9.44,-3.18 4.92,-1.11 9.92,-0.87 14.87,0.18 5.67,1.21 11.02,3.4 16.41,5.46 4.71,1.81 9.42,3.6 14.53,3.89 2.66,0.16 5.22,-0.26 7.68,-1.14 0.01,-0.1 0.02,-0.18 0.03,-0.27 0,-0.11 -0.01,-0.24 -0.01,-0.37 0,-3.46 2.8,-6.26 6.26,-6.26 3.43,0 6.22,2.76 6.26,6.18 0.01,0.03 0.01,0.05 0.01,0.08 z"
   id="path26" />
	<g
   id="g33"
   transform="translate(0,-21.278221)">
		<g
   id="g28">
			<g
   id="g27">
				<circle
   class="st1"
   cx="327.60001"
   cy="225.41"
   r="16.450001"
   id="circle27" />
				<path
   class="st1"
   d="m 327.6,209.96 c 8.52,0 15.45,6.93 15.45,15.45 0,8.52 -6.93,15.45 -15.45,15.45 -8.52,0 -15.45,-6.93 -15.45,-15.45 0,-8.52 6.93,-15.45 15.45,-15.45 m 0,-2 c -9.64,0 -17.45,7.81 -17.45,17.45 0,9.64 7.81,17.45 17.45,17.45 9.64,0 17.45,-7.81 17.45,-17.45 0,-9.64 -7.81,-17.45 -17.45,-17.45 z"
   id="path27" />
			</g>
		</g>
		<g
   id="g32">
			<g
   id="g29"
   transform="translate(-0.56077862)">
				<path
   class="st2"
   d="m 323.43,213.81 c 0.5,0 0.95,0.07 1.35,0.21 0.4,0.14 0.75,0.34 1.03,0.59 0.28,0.25 0.5,0.55 0.66,0.89 0.15,0.34 0.23,0.71 0.23,1.1 0,0.35 -0.04,0.65 -0.12,0.91 -0.08,0.26 -0.19,0.49 -0.34,0.69 -0.15,0.2 -0.33,0.36 -0.54,0.49 -0.21,0.14 -0.45,0.25 -0.72,0.34 0.65,0.21 1.14,0.52 1.46,0.94 0.32,0.42 0.48,0.95 0.48,1.58 0,0.54 -0.1,1.02 -0.3,1.43 -0.2,0.42 -0.47,0.76 -0.81,1.05 -0.34,0.28 -0.74,0.5 -1.18,0.64 -0.45,0.15 -0.92,0.22 -1.42,0.22 -0.55,0 -1.02,-0.06 -1.43,-0.19 -0.4,-0.13 -0.76,-0.31 -1.06,-0.56 -0.3,-0.25 -0.56,-0.54 -0.77,-0.9 -0.21,-0.36 -0.39,-0.77 -0.54,-1.23 l 0.82,-0.34 c 0.14,-0.06 0.28,-0.09 0.43,-0.09 0.13,0 0.25,0.03 0.35,0.08 0.1,0.05 0.18,0.13 0.24,0.24 0.09,0.18 0.19,0.35 0.3,0.52 0.11,0.17 0.24,0.32 0.39,0.45 0.15,0.13 0.33,0.24 0.53,0.32 0.2,0.08 0.44,0.12 0.72,0.12 0.32,0 0.59,-0.05 0.83,-0.15 0.24,-0.1 0.43,-0.24 0.59,-0.4 0.16,-0.16 0.28,-0.35 0.35,-0.55 0.08,-0.2 0.12,-0.41 0.12,-0.61 0,-0.26 -0.03,-0.5 -0.08,-0.71 -0.05,-0.21 -0.17,-0.39 -0.35,-0.54 -0.17,-0.15 -0.43,-0.27 -0.75,-0.35 -0.33,-0.09 -0.77,-0.13 -1.32,-0.13 v -1.33 c 0.46,0 0.83,-0.04 1.13,-0.12 0.3,-0.08 0.54,-0.19 0.72,-0.33 0.18,-0.14 0.3,-0.31 0.37,-0.51 0.07,-0.2 0.11,-0.42 0.11,-0.66 0,-0.51 -0.14,-0.9 -0.42,-1.17 -0.28,-0.26 -0.66,-0.39 -1.15,-0.39 -0.44,0 -0.81,0.12 -1.1,0.35 -0.29,0.23 -0.49,0.53 -0.61,0.9 -0.06,0.19 -0.14,0.33 -0.25,0.41 -0.11,0.08 -0.24,0.12 -0.41,0.12 -0.08,0 -0.17,-0.01 -0.26,-0.02 l -0.98,-0.17 c 0.07,-0.52 0.22,-0.98 0.43,-1.37 0.21,-0.39 0.48,-0.72 0.81,-0.98 0.32,-0.26 0.69,-0.46 1.11,-0.59 0.42,-0.13 0.87,-0.2 1.35,-0.2 z"
   id="path28" />
				<path
   class="st2"
   d="m 335.78,219.36 c 0,0.95 -0.1,1.77 -0.3,2.47 -0.2,0.7 -0.48,1.28 -0.84,1.73 -0.36,0.46 -0.78,0.8 -1.27,1.02 -0.49,0.22 -1.02,0.33 -1.58,0.33 -0.57,0 -1.09,-0.11 -1.57,-0.33 -0.48,-0.22 -0.9,-0.56 -1.26,-1.02 -0.36,-0.45 -0.63,-1.03 -0.83,-1.73 -0.2,-0.7 -0.3,-1.52 -0.3,-2.47 0,-0.95 0.1,-1.77 0.3,-2.47 0.2,-0.7 0.48,-1.27 0.83,-1.73 0.36,-0.45 0.77,-0.79 1.26,-1.02 0.48,-0.22 1.01,-0.33 1.57,-0.33 0.57,0 1.09,0.11 1.58,0.33 0.49,0.22 0.91,0.56 1.27,1.02 0.36,0.46 0.64,1.03 0.84,1.73 0.2,0.7 0.3,1.52 0.3,2.47 z m -1.92,0 c 0,-0.79 -0.06,-1.44 -0.17,-1.95 -0.11,-0.51 -0.27,-0.92 -0.46,-1.23 -0.19,-0.31 -0.41,-0.52 -0.66,-0.64 -0.25,-0.12 -0.51,-0.18 -0.78,-0.18 -0.27,0 -0.52,0.06 -0.77,0.18 -0.25,0.12 -0.47,0.34 -0.66,0.64 -0.19,0.31 -0.34,0.72 -0.45,1.23 -0.11,0.52 -0.17,1.17 -0.17,1.95 0,0.79 0.06,1.44 0.17,1.95 0.11,0.52 0.26,0.93 0.45,1.23 0.19,0.31 0.41,0.52 0.66,0.64 0.25,0.12 0.5,0.18 0.77,0.18 0.27,0 0.53,-0.06 0.78,-0.18 0.25,-0.12 0.47,-0.34 0.66,-0.64 0.19,-0.31 0.35,-0.72 0.46,-1.23 0.12,-0.51 0.17,-1.16 0.17,-1.95 z"
   id="path29" />
			</g>
			<g
   id="g31"
   transform="translate(0.28038927)">
				<path
   class="st2"
   d="m 323.07,227.3 h 1.56 v 10 h -1.56 z"
   id="path30" />
				<path
   class="st2"
   d="m 326.55,237.3 v -10 h 1.55 v 3.57 c 0.55,-0.65 1.23,-0.98 2.04,-0.98 0.93,0 1.68,0.34 2.24,1.02 0.55,0.67 0.83,1.57 0.83,2.7 0,1.13 -0.29,2.05 -0.86,2.76 -0.57,0.71 -1.31,1.07 -2.21,1.07 -0.92,0 -1.64,-0.38 -2.15,-1.13 v 0.98 h -1.44 z m 3.29,-1.09 c 1.18,0 1.77,-0.83 1.77,-2.49 0,-1.74 -0.59,-2.61 -1.77,-2.61 -1.2,0 -1.8,0.88 -1.8,2.64 0,1.64 0.6,2.46 1.8,2.46 z"
   id="path31" />
			</g>
		</g>
	</g>
</g>
<text
   xml:space="preserve"
   style="font-style:italic;font-size:14px;font-family:'Times New Roman';-inkscape-font-specification:'Times New Roman,  Italic';text-align:start;writing-mode:lr-tb;direction:ltr;text-anchor:start;fill:#1a1a1a;stroke:#000000;stroke-width:0.315"
   x="165.80896"
   y="297.83234"
   id="text1"><tspan
     sodipodi:role="line"
     id="tspan1"
     x="165.80896"
     y="297.83234"
     style="stroke-width:0.315">The scale is balanced. </tspan></text></svg>
