<?xml version="1.0" encoding="UTF-8" standalone="no"?>
<!-- Generator: Adobe Illustrator 27.3.1, SVG Export Plug-In . SVG Version: 6.00 Build 0)  -->

<svg
   version="1.1"
   id="Layer_1"
   x="0px"
   y="0px"
   viewBox="0 0 450 320"
   style="enable-background:new 0 0 450 320;"
   xml:space="preserve"
   sodipodi:docname="Q6Q.svg"
   inkscape:version="1.4 (86a8ad7, 2024-10-11)"
   xmlns:inkscape="http://www.inkscape.org/namespaces/inkscape"
   xmlns:sodipodi="http://sodipodi.sourceforge.net/DTD/sodipodi-0.dtd"
   xmlns="http://www.w3.org/2000/svg"
   xmlns:svg="http://www.w3.org/2000/svg"><defs
   id="defs33" /><sodipodi:namedview
   id="namedview33"
   pagecolor="#ffffff"
   bordercolor="#999999"
   borderopacity="1"
   inkscape:showpageshadow="2"
   inkscape:pageopacity="0"
   inkscape:pagecheckerboard="0"
   inkscape:deskcolor="#d1d1d1"
   inkscape:zoom="1.7832349"
   inkscape:cx="160.10229"
   inkscape:cy="141.03582"
   inkscape:window-width="1920"
   inkscape:window-height="1009"
   inkscape:window-x="-8"
   inkscape:window-y="-8"
   inkscape:window-maximized="1"
   inkscape:current-layer="Layer_1" />
<style
   type="text/css"
   id="style1">
	.st0{fill:#A5A5A5;}
	.st1{fill:#231F20;}
	.st2{fill:#FFFFFF;stroke:#231F20;stroke-width:2;stroke-miterlimit:10;}
	.st3{fill:#1D191A;}
</style>
<polygon
   class="st0"
   points="95.04,53.39 110.67,37.76 136.94,36.41 117.75,54.12 95.04,54.12 "
   id="polygon1"
   style="fill:#a5a5a5;fill-opacity:1" />
<polygon
   class="st0"
   points="225.71,53.39 241.33,37.76 267.61,36.41 248.41,54.12 225.71,54.12 "
   id="polygon2"
   style="fill:#a5a5a5;fill-opacity:1" />
<g
   id="g2">
	<path
   class="st1"
   d="M78.32,15.51l14.51,16.07l1.48,1.64l1.48-1.64l14.51-16.07l-1.1,21.62l-0.11,2.21l2.21-0.11l21.62-1.1   l-16.07,14.51l-1.64,1.48l1.64,1.48l16.07,14.51L111.3,69l-2.21-0.11l0.11,2.21l1.1,21.62L95.8,76.65l-1.48-1.64l-1.48,1.64   L78.32,92.72l1.1-21.62l0.11-2.21L77.33,69l-21.62,1.1L71.78,55.6l1.64-1.48l-1.64-1.48L55.71,38.13l21.62,1.1l2.21,0.11   l-0.11-2.21L78.32,15.51 M112.58,10L94.31,30.24L76.04,10l1.39,27.23l-27.23-1.39l20.24,18.27L50.19,72.39L77.43,71l-1.39,27.23   l18.27-20.24l18.27,20.24L111.19,71l27.23,1.39l-20.24-18.27l20.24-18.27l-27.23,1.39L112.58,10L112.58,10z"
   id="path2" />
</g>
<line
   class="st2"
   x1="94.31"
   y1="30.24"
   x2="94.31"
   y2="77.99"
   id="line2" />
<line
   class="st2"
   x1="77.43"
   y1="71"
   x2="111.19"
   y2="37.23"
   id="line3" />
<line
   class="st2"
   x1="70.43"
   y1="54.12"
   x2="118.19"
   y2="54.12"
   id="line4" />
<line
   class="st2"
   x1="77.43"
   y1="37.23"
   x2="111.19"
   y2="71"
   id="line5" />
<polygon
   class="st0"
   points="94.28,159.1 94.12,137 111.6,117.34 110.74,143.44 94.8,159.61 "
   id="polygon5"
   style="fill:#a5a5a5;fill-opacity:1" />
<g
   id="g5">
	<path
   class="st1"
   d="M78.32,121.4l14.51,16.07l1.48,1.64l1.48-1.64l14.51-16.07l-1.1,21.62l-0.11,2.21l2.21-0.11l21.62-1.1   l-16.07,14.51L115.2,160l1.64,1.48l16.07,14.51l-21.62-1.1l-2.21-0.11l0.11,2.21l1.1,21.62L95.8,182.54l-1.48-1.64l-1.48,1.64   L78.32,198.6l1.1-21.62l0.11-2.21l-2.21,0.11l-21.62,1.1l16.07-14.51l1.64-1.48l-1.64-1.48l-16.07-14.51l21.62,1.1l2.21,0.11   l-0.11-2.21L78.32,121.4 M112.58,115.88l-18.27,20.24l-18.27-20.24l1.39,27.23l-27.23-1.39L70.43,160l-20.24,18.27l27.23-1.39   l-1.39,27.23l18.27-20.24l18.27,20.24l-1.39-27.23l27.23,1.39L118.19,160l20.24-18.27l-27.23,1.39L112.58,115.88L112.58,115.88z"
   id="path5" />
</g>
<line
   class="st2"
   x1="94.31"
   y1="136.12"
   x2="94.31"
   y2="183.88"
   id="line6" />
<line
   class="st2"
   x1="77.43"
   y1="176.88"
   x2="111.19"
   y2="143.12"
   id="line7" />
<line
   class="st2"
   x1="70.43"
   y1="160"
   x2="118.19"
   y2="160"
   id="line8" />
<line
   class="st2"
   x1="77.43"
   y1="143.12"
   x2="111.19"
   y2="176.88"
   id="line9" />
<polygon
   class="st0"
   points="225.06,159.1 224.9,137 242.38,117.34 241.52,143.44 225.58,159.61 "
   id="polygon9"
   style="fill:#a5a5a5;fill-opacity:1" />
<polygon
   class="st0"
   points="224.1,160.26 202.01,160.08 182.61,142.3 208.7,143.56 224.62,159.74 "
   id="polygon10"
   style="fill:#a5a5a5;fill-opacity:1" />
<g
   id="g10">
	<path
   class="st1"
   d="M241.09,121.4l-1.1,21.62l-0.11,2.21l2.21-0.11l21.62-1.1l-16.07,14.51l-1.64,1.48l1.64,1.48l16.07,14.51   l-21.62-1.1l-2.21-0.11l0.11,2.21l1.1,21.62l-14.51-16.07l-1.48-1.64l-1.48,1.64l-14.51,16.07l1.1-21.62l0.11-2.21l-2.21,0.11   l-21.62,1.1l16.07-14.51l1.64-1.48l-1.64-1.48l-16.07-14.51l21.62,1.1l2.21,0.11l-0.11-2.21l-1.1-21.62l14.51,16.07l1.48,1.64   l1.48-1.64L241.09,121.4 M243.37,115.88l-18.27,20.24l-18.27-20.24l1.39,27.23l-27.23-1.39L201.22,160l-20.24,18.27l27.23-1.39   l-1.39,27.23l18.27-20.24l18.27,20.24l-1.39-27.23l27.23,1.39L248.97,160l20.24-18.27l-27.23,1.39L243.37,115.88L243.37,115.88z"
   id="path10" />
</g>
<line
   class="st2"
   x1="225.1"
   y1="136.12"
   x2="225.1"
   y2="183.88"
   id="line10" />
<line
   class="st2"
   x1="208.21"
   y1="176.88"
   x2="241.98"
   y2="143.12"
   id="line11" />
<line
   class="st2"
   x1="201.22"
   y1="160"
   x2="248.97"
   y2="160"
   id="line12" />
<line
   class="st2"
   x1="208.21"
   y1="143.12"
   x2="241.98"
   y2="176.88"
   id="line13" />
<polygon
   class="st0"
   points="355.77,159.1 355.61,137 373.09,117.34 372.23,143.44 356.29,159.61 "
   id="polygon13"
   style="fill:#a5a5a5;fill-opacity:1" />
<polygon
   class="st0"
   points="355.8,161.08 355.73,183.18 338.04,202.66 339.18,176.56 355.29,160.56 "
   id="polygon14"
   style="fill:#a5a5a5;fill-opacity:1" />
<g
   id="g14">
	<path
   class="st1"
   d="M371.79,121.4l-1.1,21.62l-0.11,2.21l2.21-0.11l21.62-1.1l-16.07,14.51L376.7,160l1.64,1.48l16.07,14.51   l-21.62-1.1l-2.21-0.11l0.11,2.21l1.1,21.62l-14.51-16.07l-1.48-1.64l-1.48,1.64l-14.51,16.07l1.1-21.62l0.11-2.21l-2.21,0.11   l-21.62,1.1l16.07-14.51l1.64-1.48l-1.64-1.48l-16.07-14.51l21.62,1.1l2.21,0.11l-0.11-2.21l-1.1-21.62l14.51,16.07l1.48,1.64   l1.48-1.64L371.79,121.4 M374.08,115.88l-18.27,20.24l-18.27-20.24l1.39,27.23l-27.23-1.39L331.93,160l-20.24,18.27l27.23-1.39   l-1.39,27.23l18.27-20.24l18.27,20.24l-1.39-27.23l27.23,1.39L379.68,160l20.24-18.27l-27.23,1.39L374.08,115.88L374.08,115.88z"
   id="path14" />
</g>
<line
   class="st2"
   x1="355.8"
   y1="136.12"
   x2="355.8"
   y2="183.88"
   id="line14" />
<line
   class="st2"
   x1="338.92"
   y1="176.88"
   x2="372.69"
   y2="143.12"
   id="line15" />
<line
   class="st2"
   x1="331.93"
   y1="160"
   x2="379.68"
   y2="160"
   id="line16" />
<line
   class="st2"
   x1="338.92"
   y1="143.12"
   x2="372.69"
   y2="176.88"
   id="line17" />
<polygon
   class="st0"
   points="224.36,53.34 208.74,37.72 207.38,11.44 225.1,30.64 225.1,53.34 "
   id="polygon17"
   style="fill:#a5a5a5;fill-opacity:1" />
<g
   id="g17">
	<path
   class="st1"
   d="M241.09,15.51l-1.1,21.62l-0.11,2.21l2.21-0.11l21.62-1.1l-16.07,14.51l-1.64,1.48l1.64,1.48l16.07,14.51   L242.08,69l-2.21-0.11l0.11,2.21l1.1,21.62l-14.51-16.07l-1.48-1.64l-1.48,1.64l-14.51,16.07l1.1-21.62l0.11-2.21L208.11,69   l-21.62,1.1l16.07-14.51l1.64-1.48l-1.64-1.48l-16.07-14.51l21.62,1.1l2.21,0.11l-0.11-2.21l-1.1-21.62l14.51,16.07l1.48,1.64   l1.48-1.64L241.09,15.51 M243.37,10L225.1,30.24L206.82,10l1.39,27.23l-27.23-1.39l20.24,18.27l-20.24,18.27L208.21,71l-1.39,27.23   l18.27-20.24l18.27,20.24L241.98,71l27.23,1.39l-20.24-18.27l20.24-18.27l-27.23,1.39L243.37,10L243.37,10z"
   id="path17" />
</g>
<line
   class="st2"
   x1="225.1"
   y1="30.24"
   x2="225.1"
   y2="77.99"
   id="line18" />
<line
   class="st2"
   x1="208.21"
   y1="71"
   x2="241.98"
   y2="37.23"
   id="line19" />
<line
   class="st2"
   x1="201.22"
   y1="54.12"
   x2="248.97"
   y2="54.12"
   id="line20" />
<line
   class="st2"
   x1="208.21"
   y1="37.23"
   x2="241.98"
   y2="71"
   id="line21" />
<polygon
   class="st0"
   points="93.39,265.11 77.76,249.48 76.41,223.2 94.12,242.4 94.12,265.11 "
   id="polygon21"
   style="fill:#a5a5a5;fill-opacity:1" />
<g
   id="g21">
	<path
   class="st1"
   d="M110.11,227.28L109,248.9l-0.11,2.21l2.21-0.11l21.62-1.1l-16.07,14.51l-1.64,1.48l1.64,1.48l16.07,14.51   l-21.62-1.1l-2.21-0.11l0.11,2.21l1.1,21.62L95.6,288.42l-1.48-1.64l-1.48,1.64l-14.51,16.07l1.1-21.62l0.11-2.21l-2.21,0.11   l-21.62,1.1l16.07-14.51l1.64-1.48l-1.64-1.48l-16.07-14.51l21.62,1.1l2.21,0.11l-0.11-2.21l-1.1-21.62l14.51,16.07l1.48,1.64   l1.48-1.64L110.11,227.28 M112.39,221.76l-18.27,20.24l-18.27-20.24L77.23,249L50,247.61l20.24,18.27L50,284.16l27.23-1.39   L75.84,310l18.27-20.24L112.39,310L111,282.77l27.23,1.39l-20.24-18.27l20.24-18.27L111,249L112.39,221.76L112.39,221.76z"
   id="path21" />
</g>
<line
   class="st2"
   x1="94.12"
   y1="242.01"
   x2="94.12"
   y2="289.76"
   id="line22" />
<line
   class="st2"
   x1="77.23"
   y1="282.77"
   x2="111"
   y2="249"
   id="line23" />
<line
   class="st2"
   x1="70.24"
   y1="265.88"
   x2="117.99"
   y2="265.88"
   id="line24" />
<line
   class="st2"
   x1="77.23"
   y1="249"
   x2="111"
   y2="282.77"
   id="line25" />
<polygon
   class="st0"
   points="224.36,265.11 208.74,249.48 207.38,223.2 225.1,242.4 225.1,265.11 "
   id="polygon25"
   style="fill:#a5a5a5;fill-opacity:1" />
<polygon
   class="st0"
   points="224.34,266.61 208.72,282.24 182.44,283.59 201.64,265.88 224.34,265.88 "
   id="polygon26"
   style="fill:#a5a5a5;fill-opacity:1" />
<g
   id="g26">
	<path
   class="st1"
   d="M241.09,227.28l-1.1,21.62l-0.11,2.21l2.21-0.11l21.62-1.1l-16.07,14.51l-1.64,1.48l1.64,1.48l16.07,14.51   l-21.62-1.1l-2.21-0.11l0.11,2.21l1.1,21.62l-14.51-16.07l-1.48-1.64l-1.48,1.64l-14.51,16.07l1.1-21.62l0.11-2.21l-2.21,0.11   l-21.62,1.1l16.07-14.51l1.64-1.48l-1.64-1.48l-16.07-14.51l21.62,1.1l2.21,0.11l-0.11-2.21l-1.1-21.62l14.51,16.07l1.48,1.64   l1.48-1.64L241.09,227.28 M243.37,221.76l-18.27,20.24l-18.27-20.24l1.39,27.23l-27.23-1.39l20.24,18.27l-20.24,18.27l27.23-1.39   L206.82,310l18.27-20.24L243.37,310l-1.39-27.23l27.23,1.39l-20.24-18.27l20.24-18.27L241.98,249L243.37,221.76L243.37,221.76z"
   id="path26" />
</g>
<line
   class="st2"
   x1="225.1"
   y1="242.01"
   x2="225.1"
   y2="289.76"
   id="line26" />
<line
   class="st2"
   x1="208.21"
   y1="282.77"
   x2="241.98"
   y2="249"
   id="line27" />
<line
   class="st2"
   x1="201.22"
   y1="265.88"
   x2="248.97"
   y2="265.88"
   id="line28" />
<line
   class="st2"
   x1="208.21"
   y1="249"
   x2="241.98"
   y2="282.77"
   id="line29" />
<polygon
   class="st0"
   points="356.42,53.39 372.04,37.76 398.32,36.41 379.12,54.12 356.42,54.12 "
   id="polygon29"
   style="fill:#a5a5a5;fill-opacity:1" />
<polygon
   class="st0"
   points="354.86,54.85 339.23,70.47 312.96,71.83 332.15,54.12 354.86,54.12 "
   id="polygon30"
   style="fill:#a5a5a5;fill-opacity:1" />
<g
   id="g30">
	<path
   class="st1"
   d="M371.8,15.51l-1.1,21.62l-0.11,2.21l2.21-0.11l21.62-1.1l-16.07,14.51l-1.64,1.48l1.64,1.48l16.07,14.51   L372.79,69l-2.21-0.11l0.11,2.21l1.1,21.62l-14.51-16.07l-1.48-1.64l-1.48,1.64l-14.51,16.07l1.1-21.62l0.11-2.21L338.82,69   l-21.62,1.1l16.07-14.51l1.64-1.48l-1.64-1.48L317.2,38.13l21.62,1.1l2.21,0.11l-0.11-2.21l-1.1-21.62l14.51,16.07l1.48,1.64   l1.48-1.64L371.8,15.51 M374.08,10l-18.27,20.24L337.53,10l1.39,27.23l-27.23-1.39l20.24,18.27l-20.24,18.27L338.92,71l-1.39,27.23   l18.27-20.24l18.27,20.24L372.69,71l27.23,1.39l-20.24-18.27l20.24-18.27l-27.23,1.39L374.08,10L374.08,10z"
   id="path30" />
</g>
<line
   class="st2"
   x1="355.81"
   y1="30.24"
   x2="355.81"
   y2="77.99"
   id="line30" />
<line
   class="st2"
   x1="338.92"
   y1="71"
   x2="372.69"
   y2="37.23"
   id="line31" />
<line
   class="st2"
   x1="331.93"
   y1="54.12"
   x2="379.68"
   y2="54.12"
   id="line32" />
<line
   class="st2"
   x1="338.92"
   y1="37.23"
   x2="372.69"
   y2="71"
   id="line33" />
<g
   id="g33">
	<path
   class="st3"
   d="M349.88,278.75c0-2,0.12-3.75,0.36-5.23s0.64-2.84,1.19-4.06c0.55-1.23,1.26-2.39,2.14-3.49   c0.87-1.1,1.95-2.27,3.22-3.51c0.96-0.93,1.86-1.81,2.69-2.65c0.83-0.83,1.57-1.69,2.2-2.56c0.64-0.87,1.14-1.81,1.5-2.79   c0.37-0.99,0.55-2.09,0.55-3.3c0-2.65-0.66-4.68-1.97-6.08c-1.31-1.4-3.24-2.09-5.78-2.09c-1.02,0-2,0.14-2.96,0.42   s-1.82,0.73-2.58,1.35c-0.76,0.62-1.38,1.41-1.84,2.37c-0.47,0.96-0.7,2.12-0.7,3.47h-10.3c0.03-2.65,0.51-4.99,1.46-7.01   c0.94-2.02,2.24-3.71,3.89-5.08c1.65-1.37,3.58-2.4,5.8-3.09s4.62-1.04,7.22-1.04c2.85,0,5.39,0.37,7.62,1.1s4.12,1.81,5.67,3.22   c1.55,1.41,2.73,3.13,3.54,5.17c0.8,2.03,1.21,4.33,1.21,6.9c0,1.86-0.3,3.6-0.89,5.21c-0.59,1.61-1.38,3.12-2.37,4.53   s-2.12,2.77-3.39,4.06c-1.27,1.3-2.58,2.58-3.94,3.85c-1.55,1.41-2.59,2.96-3.11,4.64c-0.52,1.68-0.8,3.58-0.83,5.69L349.88,278.75   L349.88,278.75z M349.16,291.92c0-0.79,0.13-1.52,0.38-2.2c0.25-0.68,0.63-1.27,1.12-1.78s1.1-0.9,1.82-1.19   c0.72-0.28,1.55-0.42,2.48-0.42c0.93,0,1.76,0.14,2.48,0.42s1.33,0.68,1.82,1.19c0.49,0.51,0.87,1.1,1.14,1.78   c0.27,0.68,0.4,1.41,0.4,2.2c0,1.55-0.51,2.85-1.52,3.89c-1.02,1.04-2.45,1.57-4.32,1.57s-3.3-0.52-4.3-1.57   C349.66,294.77,349.16,293.47,349.16,291.92z"
   id="path33" />
</g>
</svg>
