<?xml version="1.0" encoding="UTF-8" standalone="no"?>
<!-- Generator: Adobe Illustrator 27.3.1, SVG Export Plug-In . SVG Version: 6.00 Build 0)  -->

<svg
   version="1.1"
   id="Layer_1"
   x="0px"
   y="0px"
   viewBox="0 0 450 320"
   style="enable-background:new 0 0 450 320;"
   xml:space="preserve"
   sodipodi:docname="Q15Q.svg"
   inkscape:version="1.4 (86a8ad7, 2024-10-11)"
   xmlns:inkscape="http://www.inkscape.org/namespaces/inkscape"
   xmlns:sodipodi="http://sodipodi.sourceforge.net/DTD/sodipodi-0.dtd"
   xmlns="http://www.w3.org/2000/svg"
   xmlns:svg="http://www.w3.org/2000/svg"><defs
   id="defs53" /><sodipodi:namedview
   id="namedview53"
   pagecolor="#ffffff"
   bordercolor="#999999"
   borderopacity="1"
   inkscape:showpageshadow="2"
   inkscape:pageopacity="0"
   inkscape:pagecheckerboard="0"
   inkscape:deskcolor="#d1d1d1"
   inkscape:zoom="2.521875"
   inkscape:cx="225.03098"
   inkscape:cy="160"
   inkscape:window-width="1920"
   inkscape:window-height="1009"
   inkscape:window-x="-8"
   inkscape:window-y="-8"
   inkscape:window-maximized="1"
   inkscape:current-layer="Layer_1" />
<style
   type="text/css"
   id="style1">
	.st0{fill-rule:evenodd;clip-rule:evenodd;fill:#A5A5A5;}
	.st1{fill:none;stroke:#1D191A;stroke-width:2;stroke-miterlimit:10;}
	.st2{fill:#1D191A;}
</style>
<rect
   x="79.44"
   y="222.32"
   class="st0"
   width="29.36"
   height="28.97"
   id="rect1"
   style="fill:#1f8fff;fill-opacity:1" />
<rect
   x="79.46"
   y="280.52"
   class="st0"
   width="29.36"
   height="28.97"
   id="rect2"
   style="fill:#1f8fff;fill-opacity:1" />
<rect
   x="108.55"
   y="222.95"
   class="st0"
   width="29.36"
   height="86.48"
   id="rect3"
   style="fill:#1f8fff;fill-opacity:1" />
<g
   id="g3">
	<line
   class="st1"
   x1="137.67"
   y1="251.29"
   x2="50.56"
   y2="251.29"
   id="line3" />
</g>
<g
   id="g4">
	<line
   class="st1"
   x1="137.67"
   y1="280.36"
   x2="50.56"
   y2="280.36"
   id="line4" />
</g>
<g
   id="g5">
	<line
   class="st1"
   x1="108.65"
   y1="309.44"
   x2="108.65"
   y2="222.32"
   id="line5" />
</g>
<g
   id="g6">
	<line
   class="st1"
   x1="79.58"
   y1="309.44"
   x2="79.58"
   y2="222.32"
   id="line6" />
</g>
<rect
   x="182.83"
   y="222.33"
   class="st0"
   width="85.72"
   height="29.21"
   id="rect6"
   style="fill:#1f8fff;fill-opacity:1" />
<rect
   x="181.44"
   y="280.32"
   class="st0"
   width="28.97"
   height="29.36"
   id="rect7"
   style="fill:#1f8fff;fill-opacity:1" />
<rect
   x="210.85"
   y="251.2"
   class="st0"
   width="28.97"
   height="29.36"
   id="rect8"
   style="fill:#1f8fff;fill-opacity:1" />
<rect
   x="239.48"
   y="280.32"
   class="st0"
   width="28.97"
   height="29.36"
   id="rect9"
   style="fill:#1f8fff;fill-opacity:1" />
<g
   id="g9">
	<line
   class="st1"
   x1="239.58"
   y1="309.44"
   x2="239.58"
   y2="222.33"
   id="line9" />
</g>
<g
   id="g10">
	<line
   class="st1"
   x1="210.5"
   y1="309.44"
   x2="210.5"
   y2="222.33"
   id="line10" />
</g>
<g
   id="g11">
	<line
   class="st1"
   x1="181.43"
   y1="280.42"
   x2="268.55"
   y2="280.42"
   id="line11" />
</g>
<g
   id="g12">
	<line
   class="st1"
   x1="181.43"
   y1="251.34"
   x2="268.55"
   y2="251.34"
   id="line12" />
</g>
<rect
   x="50.38"
   y="116.44"
   class="st0"
   width="29.36"
   height="28.97"
   id="rect12"
   style="fill:#1f8fff;fill-opacity:1" />
<rect
   x="50.38"
   y="174.63"
   class="st0"
   width="29.36"
   height="28.97"
   id="rect13"
   style="fill:#1f8fff;fill-opacity:1" />
<rect
   x="108.53"
   y="116.42"
   class="st0"
   width="29.36"
   height="28.95"
   id="rect14"
   style="fill:#1f8fff;fill-opacity:1" />
<rect
   x="108.53"
   y="174.64"
   class="st0"
   width="29.36"
   height="28.95"
   id="rect15"
   style="fill:#1f8fff;fill-opacity:1" />
<rect
   x="79.74"
   y="145.53"
   class="st0"
   width="29.36"
   height="28.95"
   id="rect16"
   style="fill:#1f8fff;fill-opacity:1" />
<g
   id="g16">
	<line
   class="st1"
   x1="137.65"
   y1="145.41"
   x2="50.53"
   y2="145.41"
   id="line16" />
</g>
<g
   id="g17">
	<line
   class="st1"
   x1="137.65"
   y1="174.48"
   x2="50.53"
   y2="174.48"
   id="line17" />
</g>
<g
   id="g18">
	<line
   class="st1"
   x1="108.63"
   y1="203.56"
   x2="108.63"
   y2="116.44"
   id="line18" />
</g>
<g
   id="g19">
	<line
   class="st1"
   x1="79.55"
   y1="203.56"
   x2="79.55"
   y2="116.44"
   id="line19" />
</g>
<rect
   x="181.41"
   y="145.37"
   class="st0"
   width="87.11"
   height="29.33"
   id="rect19"
   style="fill:#1f8fff;fill-opacity:1" />
<rect
   x="210.49"
   y="174.43"
   class="st0"
   width="28.97"
   height="29.36"
   id="rect20"
   style="fill:#1f8fff;fill-opacity:1" />
<g
   id="g20">
	<line
   class="st1"
   x1="239.56"
   y1="203.56"
   x2="239.56"
   y2="116.45"
   id="line20" />
</g>
<g
   id="g21">
	<line
   class="st1"
   x1="210.48"
   y1="203.56"
   x2="210.48"
   y2="116.45"
   id="line21" />
</g>
<g
   id="g22">
	<line
   class="st1"
   x1="181.4"
   y1="174.54"
   x2="268.53"
   y2="174.54"
   id="line22" />
</g>
<g
   id="g23">
	<line
   class="st1"
   x1="181.4"
   y1="145.46"
   x2="268.53"
   y2="145.46"
   id="line23" />
</g>
<rect
   x="50.41"
   y="10.56"
   class="st0"
   width="29.36"
   height="28.97"
   id="rect23"
   style="fill:#1f8fff;fill-opacity:1" />
<rect
   x="79.46"
   y="68.75"
   class="st0"
   width="29.36"
   height="28.97"
   id="rect24"
   style="fill:#1f8fff;fill-opacity:1" />
<rect
   x="108.55"
   y="39.77"
   class="st0"
   width="29.36"
   height="57.9"
   id="rect25"
   style="fill:#1f8fff;fill-opacity:1" />
<g
   id="g25">
	<line
   class="st1"
   x1="137.67"
   y1="39.52"
   x2="50.56"
   y2="39.52"
   id="line25" />
</g>
<g
   id="g26">
	<line
   class="st1"
   x1="137.67"
   y1="68.6"
   x2="50.56"
   y2="68.6"
   id="line26" />
</g>
<g
   id="g27">
	<line
   class="st1"
   x1="108.65"
   y1="97.68"
   x2="108.65"
   y2="10.56"
   id="line27" />
</g>
<g
   id="g28">
	<line
   class="st1"
   x1="79.58"
   y1="97.68"
   x2="79.58"
   y2="10.56"
   id="line28" />
</g>
<rect
   x="210.53"
   y="10.56"
   class="st0"
   width="58.02"
   height="58.25"
   id="rect28"
   style="fill:#1f8fff;fill-opacity:1" />
<rect
   x="181.44"
   y="68.55"
   class="st0"
   width="28.97"
   height="29.36"
   id="rect29"
   style="fill:#1f8fff;fill-opacity:1" />
<g
   id="g29">
	<line
   class="st1"
   x1="239.58"
   y1="97.68"
   x2="239.58"
   y2="10.56"
   id="line29" />
</g>
<g
   id="g30">
	<line
   class="st1"
   x1="210.5"
   y1="97.68"
   x2="210.5"
   y2="10.56"
   id="line30" />
</g>
<g
   id="g31">
	<line
   class="st1"
   x1="181.43"
   y1="68.66"
   x2="268.55"
   y2="68.66"
   id="line31" />
</g>
<g
   id="g32">
	<line
   class="st1"
   x1="181.43"
   y1="39.58"
   x2="268.55"
   y2="39.58"
   id="line32" />
</g>
<rect
   x="370.45"
   y="10.41"
   class="st0"
   width="28.97"
   height="29.36"
   id="rect32"
   style="fill:#1f8fff;fill-opacity:1" />
<rect
   x="370.45"
   y="68.51"
   class="st0"
   width="28.97"
   height="29.36"
   id="rect33"
   style="fill:#1f8fff;fill-opacity:1" />
<rect
   x="312.31"
   y="68.56"
   class="st0"
   width="28.97"
   height="29.36"
   id="rect34"
   style="fill:#1f8fff;fill-opacity:1" />
<rect
   x="341.37"
   y="10.56"
   class="st0"
   width="28.97"
   height="87.35"
   id="rect35"
   style="fill:#1f8fff;fill-opacity:1" />
<rect
   x="312.3"
   y="10.41"
   class="st0"
   width="28.97"
   height="29.36"
   id="rect36"
   style="fill:#1f8fff;fill-opacity:1" />
<g
   id="g36">
	<line
   class="st1"
   x1="370.45"
   y1="97.68"
   x2="370.45"
   y2="10.56"
   id="line36" />
</g>
<g
   id="g37">
	<line
   class="st1"
   x1="341.38"
   y1="97.68"
   x2="341.38"
   y2="10.56"
   id="line37" />
</g>
<g
   id="g38">
	<line
   class="st1"
   x1="312.31"
   y1="68.66"
   x2="399.42"
   y2="68.66"
   id="line38" />
</g>
<g
   id="g39">
	<line
   class="st1"
   x1="312.31"
   y1="39.58"
   x2="399.42"
   y2="39.58"
   id="line39" />
</g>
<rect
   x="341.38"
   y="174.39"
   class="st0"
   width="28.97"
   height="29.36"
   id="rect39"
   style="fill:#1f8fff;fill-opacity:1" />
<rect
   x="312.31"
   y="116.33"
   class="st0"
   width="28.97"
   height="87.35"
   id="rect40"
   style="fill:#1f8fff;fill-opacity:1" />
<rect
   x="370.45"
   y="116.33"
   class="st0"
   width="28.97"
   height="87.35"
   id="rect41"
   style="fill:#1f8fff;fill-opacity:1" />
<g
   id="g41">
	<line
   class="st1"
   x1="370.45"
   y1="203.56"
   x2="370.45"
   y2="116.45"
   id="line41" />
</g>
<g
   id="g42">
	<line
   class="st1"
   x1="341.38"
   y1="203.56"
   x2="341.38"
   y2="116.45"
   id="line42" />
</g>
<g
   id="g43">
	<line
   class="st1"
   x1="312.31"
   y1="174.54"
   x2="399.42"
   y2="174.54"
   id="line43" />
</g>
<g
   id="g44">
	<line
   class="st1"
   x1="312.31"
   y1="145.46"
   x2="399.42"
   y2="145.46"
   id="line44" />
</g>
<g
   id="g45">
	<path
   class="st2"
   d="M136.26,12v84.24H52.02V12H136.26 M138.26,10H50.02v88.24h88.24V10L138.26,10z"
   id="path44" />
</g>
<g
   id="g46">
	<path
   class="st2"
   d="M267.13,12v84.24h-84.24V12H267.13 M269.13,10h-88.24v88.24h88.24V10L269.13,10z"
   id="path45" />
</g>
<g
   id="g47">
	<path
   class="st2"
   d="M398,12v84.24h-84.24V12H398 M400,10h-88.24v88.24H400V10L400,10z"
   id="path46" />
</g>
<g
   id="g48">
	<path
   class="st2"
   d="M136.26,223.76V308H52.02v-84.24H136.26 M138.26,221.76H50.02V310h88.24V221.76L138.26,221.76z"
   id="path47" />
</g>
<g
   id="g49">
	<path
   class="st2"
   d="M267.13,223.76V308h-84.24v-84.24H267.13 M269.13,221.76h-88.24V310h88.24V221.76L269.13,221.76z"
   id="path48" />
</g>
<g
   id="g50">
	<path
   class="st2"
   d="M398,117.88v84.24h-84.24v-84.24H398 M400,115.88h-88.24v88.24H400V115.88L400,115.88z"
   id="path49" />
</g>
<g
   id="g51">
	<path
   class="st2"
   d="M136.24,117.88v84.24H52v-84.24H136.24 M138.24,115.88H50v88.24h88.24V115.88L138.24,115.88z"
   id="path50" />
</g>
<g
   id="g52">
	<path
   class="st2"
   d="M267.11,117.88v84.24h-84.24v-84.24H267.11 M269.11,115.88h-88.24v88.24h88.24V115.88L269.11,115.88z"
   id="path51" />
</g>
<g
   id="g53">
	<path
   class="st2"
   d="M349.88,278.75c0-2,0.12-3.75,0.36-5.23s0.64-2.84,1.19-4.06c0.55-1.23,1.26-2.39,2.14-3.49   c0.87-1.1,1.95-2.27,3.22-3.51c0.96-0.93,1.86-1.81,2.69-2.65c0.83-0.83,1.57-1.69,2.2-2.56c0.64-0.87,1.14-1.81,1.5-2.79   c0.37-0.99,0.55-2.09,0.55-3.3c0-2.65-0.66-4.68-1.97-6.08c-1.31-1.4-3.24-2.09-5.78-2.09c-1.02,0-2,0.14-2.96,0.42   s-1.82,0.73-2.58,1.35c-0.76,0.62-1.38,1.41-1.84,2.37c-0.47,0.96-0.7,2.12-0.7,3.47h-10.3c0.03-2.65,0.51-4.99,1.46-7.01   c0.94-2.02,2.24-3.71,3.89-5.08c1.65-1.37,3.58-2.4,5.8-3.09s4.62-1.04,7.22-1.04c2.85,0,5.39,0.37,7.62,1.1s4.12,1.81,5.67,3.22   c1.55,1.41,2.73,3.13,3.54,5.17c0.8,2.03,1.21,4.33,1.21,6.9c0,1.86-0.3,3.6-0.89,5.21c-0.59,1.61-1.38,3.12-2.37,4.53   s-2.12,2.77-3.39,4.06c-1.27,1.3-2.58,2.58-3.94,3.85c-1.55,1.41-2.59,2.96-3.11,4.64c-0.52,1.68-0.8,3.58-0.83,5.69L349.88,278.75   L349.88,278.75z M349.16,291.92c0-0.79,0.13-1.52,0.38-2.2c0.25-0.68,0.63-1.27,1.12-1.78s1.1-0.9,1.82-1.19   c0.72-0.28,1.55-0.42,2.48-0.42c0.93,0,1.76,0.14,2.48,0.42s1.33,0.68,1.82,1.19c0.49,0.51,0.87,1.1,1.14,1.78   c0.27,0.68,0.4,1.41,0.4,2.2c0,1.55-0.51,2.85-1.52,3.89c-1.02,1.04-2.45,1.57-4.32,1.57s-3.3-0.52-4.3-1.57   C349.66,294.77,349.16,293.47,349.16,291.92z"
   id="path52" />
</g>
</svg>
