<?xml version="1.0" encoding="utf-8"?>
<!-- Generator: Adobe Illustrator 27.3.1, SVG Export Plug-In . SVG Version: 6.00 Build 0)  -->
<svg version="1.1" id="Layer_1" xmlns="http://www.w3.org/2000/svg" xmlns:xlink="http://www.w3.org/1999/xlink" x="0px" y="0px"
	 viewBox="0 0 450 320" style="enable-background:new 0 0 450 320;" xml:space="preserve">
<style type="text/css">
	.st0{display:none;}
	.st1{fill:#1D191A;}
	.st2{fill:#231F20;}
	.st3{fill:none;stroke:#1D191A;stroke-width:3;stroke-miterlimit:10;}
</style>
<g>
	<path class="st1" d="M319.77,204.56c0-1,0.06-1.88,0.18-2.62c0.12-0.74,0.32-1.42,0.6-2.03c0.28-0.62,0.63-1.2,1.07-1.75
		c0.44-0.55,0.98-1.14,1.61-1.76c0.48-0.47,0.93-0.91,1.35-1.33c0.42-0.42,0.79-0.85,1.1-1.28c0.32-0.44,0.57-0.91,0.75-1.4
		c0.19-0.5,0.28-1.05,0.28-1.65c0-1.33-0.33-2.34-0.99-3.04s-1.62-1.05-2.89-1.05c-0.51,0-1,0.07-1.48,0.21
		c-0.48,0.14-0.91,0.37-1.29,0.68c-0.38,0.31-0.69,0.71-0.92,1.19c-0.24,0.48-0.35,1.06-0.35,1.74h-5.16
		c0.02-1.33,0.26-2.5,0.73-3.51c0.47-1.01,1.12-1.86,1.95-2.54s1.79-1.2,2.9-1.55c1.11-0.35,2.31-0.52,3.62-0.52
		c1.43,0,2.7,0.19,3.82,0.55s2.06,0.91,2.84,1.61c0.78,0.71,1.37,1.57,1.77,2.59c0.4,1.02,0.61,2.17,0.61,3.46
		c0,0.93-0.15,1.8-0.45,2.61c-0.3,0.81-0.69,1.56-1.19,2.27c-0.5,0.71-1.06,1.39-1.7,2.03c-0.64,0.65-1.29,1.29-1.97,1.93
		c-0.78,0.71-1.3,1.48-1.56,2.32c-0.26,0.84-0.4,1.79-0.42,2.85L319.77,204.56L319.77,204.56z M319.41,211.16
		c0-0.4,0.07-0.76,0.19-1.1c0.13-0.34,0.32-0.64,0.56-0.89c0.25-0.26,0.55-0.45,0.91-0.6c0.36-0.14,0.78-0.21,1.24-0.21
		c0.47,0,0.88,0.07,1.24,0.21c0.36,0.14,0.67,0.34,0.91,0.6c0.25,0.26,0.44,0.55,0.57,0.89c0.14,0.34,0.2,0.71,0.2,1.1
		c0,0.78-0.26,1.43-0.76,1.95c-0.51,0.52-1.23,0.79-2.16,0.79c-0.94,0-1.65-0.26-2.15-0.79
		C319.66,212.59,319.41,211.94,319.41,211.16z"/>
</g>
<g>
	<path class="st2" d="M224.86,13.02c39.26,0,76.17,15.29,103.93,43.05c27.76,27.76,43.05,64.67,43.05,103.93
		s-15.29,76.17-43.05,103.93c-27.76,27.76-64.67,43.05-103.93,43.05s-76.17-15.29-103.93-43.05C93.17,236.17,77.88,199.26,77.88,160
		s15.29-76.17,43.05-103.93C148.69,28.31,185.6,13.02,224.86,13.02 M224.86,10.02C142.03,10.02,74.88,77.17,74.88,160
		s67.15,149.98,149.98,149.98S374.84,242.83,374.84,160S307.69,10.02,224.86,10.02L224.86,10.02z"/>
</g>
<line class="st3" x1="76.15" y1="160" x2="373.73" y2="160"/>
<line class="st3" x1="119.73" y1="265.21" x2="330.15" y2="54.79"/>
<line class="st3" x1="224.94" y1="308.79" x2="224.94" y2="11.21"/>
<line class="st3" x1="330.15" y1="265.21" x2="119.73" y2="54.79"/>
<g>
	<path class="st1" d="M260.61,51.61c1,0,1.92,0.15,2.75,0.44c0.83,0.29,1.54,0.71,2.13,1.25c0.59,0.54,1.05,1.19,1.38,1.95
		c0.33,0.76,0.5,1.6,0.5,2.54c0,0.8-0.12,1.54-0.35,2.22c-0.24,0.68-0.55,1.33-0.95,1.95c-0.4,0.62-0.86,1.22-1.39,1.8
		s-1.08,1.17-1.67,1.77l-4.89,4.99c0.48-0.14,0.95-0.25,1.41-0.32c0.46-0.08,0.9-0.11,1.32-0.11h5.57c0.4,0,0.72,0.11,0.95,0.34
		c0.24,0.22,0.35,0.52,0.35,0.89v2.22h-14.88v-1.23c0-0.25,0.05-0.51,0.16-0.78c0.1-0.27,0.27-0.52,0.5-0.75l6.58-6.6
		c0.55-0.56,1.04-1.1,1.48-1.6c0.44-0.51,0.8-1.02,1.09-1.52s0.52-1.01,0.68-1.52c0.15-0.52,0.23-1.06,0.23-1.63
		c0-0.52-0.08-0.98-0.23-1.37c-0.15-0.4-0.37-0.73-0.64-1c-0.28-0.27-0.61-0.47-1-0.61c-0.38-0.14-0.82-0.2-1.3-0.2
		c-0.89,0-1.62,0.23-2.2,0.68c-0.58,0.45-0.98,1.05-1.21,1.81c-0.11,0.38-0.28,0.65-0.5,0.82s-0.5,0.25-0.84,0.25
		c-0.15,0-0.32-0.02-0.5-0.04l-1.95-0.35c0.15-1.04,0.44-1.95,0.87-2.74s0.97-1.44,1.61-1.97c0.65-0.52,1.38-0.92,2.22-1.19
		C258.75,51.74,259.65,51.61,260.61,51.61z"/>
	<path class="st1" d="M283.11,65.37h2.73v2.15c0,0.2-0.07,0.37-0.2,0.52c-0.13,0.15-0.32,0.22-0.57,0.22h-1.96v5.29h-3.24v-5.29
		h-9.15c-0.25,0-0.47-0.08-0.66-0.23c-0.19-0.16-0.31-0.35-0.36-0.58l-0.38-1.88l10.28-13.73h3.51V65.37z M279.87,58.27
		c0-0.32,0.01-0.67,0.03-1.04c0.02-0.37,0.05-0.75,0.11-1.15l-6.74,9.29h6.6V58.27z"/>
</g>
<g>
	<path class="st1" d="M178.22,51.61c1,0,1.9,0.14,2.71,0.43c0.81,0.29,1.49,0.68,2.06,1.19c0.57,0.5,1.01,1.1,1.31,1.78
		c0.31,0.68,0.46,1.42,0.46,2.21c0,0.69-0.08,1.3-0.23,1.82c-0.16,0.53-0.38,0.98-0.67,1.37c-0.29,0.39-0.66,0.72-1.08,0.99
		c-0.43,0.27-0.91,0.5-1.45,0.67c1.3,0.41,2.27,1.04,2.91,1.88c0.64,0.84,0.96,1.9,0.96,3.17c0,1.08-0.2,2.04-0.6,2.87
		c-0.4,0.83-0.94,1.53-1.62,2.09s-1.47,0.99-2.36,1.28c-0.9,0.29-1.84,0.44-2.84,0.44c-1.09,0-2.04-0.13-2.85-0.38
		c-0.81-0.25-1.52-0.62-2.12-1.11c-0.6-0.49-1.11-1.09-1.53-1.8s-0.78-1.53-1.08-2.46l1.64-0.68c0.28-0.12,0.56-0.18,0.85-0.18
		c0.26,0,0.49,0.06,0.7,0.17s0.36,0.27,0.47,0.48c0.18,0.35,0.38,0.69,0.59,1.03c0.21,0.34,0.47,0.64,0.77,0.91
		c0.3,0.27,0.65,0.48,1.06,0.65s0.89,0.25,1.45,0.25c0.63,0,1.18-0.1,1.65-0.31c0.47-0.21,0.86-0.47,1.18-0.8
		c0.32-0.33,0.55-0.7,0.71-1.1c0.16-0.41,0.23-0.81,0.23-1.22c0-0.52-0.05-0.99-0.16-1.42c-0.11-0.42-0.34-0.79-0.69-1.09
		c-0.35-0.3-0.85-0.54-1.51-0.71s-1.53-0.25-2.63-0.25v-2.66c0.91,0,1.67-0.08,2.26-0.24c0.6-0.16,1.08-0.38,1.43-0.67
		c0.35-0.29,0.6-0.63,0.74-1.03c0.14-0.4,0.21-0.84,0.21-1.32c0-1.03-0.28-1.81-0.84-2.33c-0.56-0.52-1.33-0.79-2.29-0.79
		c-0.88,0-1.61,0.23-2.19,0.7c-0.58,0.46-0.98,1.06-1.21,1.79c-0.12,0.38-0.29,0.65-0.5,0.82c-0.21,0.17-0.48,0.25-0.82,0.25
		c-0.16,0-0.33-0.01-0.51-0.04l-1.95-0.34c0.15-1.04,0.44-1.95,0.87-2.74c0.43-0.79,0.97-1.44,1.61-1.97
		c0.64-0.52,1.38-0.92,2.22-1.19S177.26,51.61,178.22,51.61z"/>
	<path class="st1" d="M196.3,60c0.82,0,1.62,0.13,2.39,0.4s1.46,0.68,2.05,1.22c0.59,0.54,1.06,1.22,1.42,2.03
		c0.36,0.81,0.54,1.75,0.54,2.83c0,1.01-0.19,1.96-0.55,2.84c-0.37,0.89-0.89,1.66-1.56,2.32c-0.67,0.66-1.48,1.18-2.42,1.56
		c-0.95,0.38-1.99,0.57-3.13,0.57c-1.16,0-2.2-0.19-3.12-0.56c-0.92-0.37-1.71-0.89-2.35-1.55c-0.65-0.66-1.15-1.46-1.49-2.4
		c-0.34-0.94-0.52-1.97-0.52-3.11c0-1.02,0.21-2.07,0.62-3.14c0.42-1.07,1.06-2.19,1.93-3.35l5.17-6.94
		c0.18-0.24,0.44-0.44,0.79-0.62c0.34-0.17,0.74-0.25,1.19-0.25h3.3l-6.43,7.88c-0.14,0.17-0.27,0.33-0.4,0.48s-0.25,0.31-0.37,0.46
		c0.42-0.21,0.87-0.38,1.36-0.5C195.2,60.06,195.73,60,196.3,60z M191.11,66.73c0,0.6,0.08,1.15,0.25,1.64s0.41,0.92,0.74,1.27
		c0.32,0.35,0.73,0.62,1.21,0.82c0.48,0.19,1.04,0.29,1.67,0.29c0.59,0,1.13-0.1,1.63-0.3s0.92-0.48,1.27-0.84
		c0.36-0.36,0.63-0.78,0.83-1.27c0.2-0.49,0.3-1.01,0.3-1.58c0-0.62-0.09-1.18-0.29-1.67c-0.19-0.49-0.46-0.92-0.81-1.26
		c-0.35-0.35-0.77-0.61-1.26-0.79c-0.49-0.18-1.03-0.27-1.62-0.27c-0.59,0-1.12,0.1-1.61,0.3c-0.48,0.2-0.89,0.48-1.24,0.83
		c-0.34,0.36-0.61,0.78-0.79,1.26C191.2,65.65,191.11,66.17,191.11,66.73z"/>
</g>
<g>
	<path class="st1" d="M186.25,266.6c-1.12,0-2.14-0.15-3.07-0.45c-0.93-0.3-1.72-0.72-2.38-1.27s-1.17-1.22-1.54-2
		c-0.37-0.78-0.55-1.65-0.55-2.61c0-1.28,0.32-2.36,0.95-3.25c0.63-0.89,1.61-1.54,2.94-1.97c-1.06-0.44-1.85-1.07-2.38-1.88
		c-0.53-0.81-0.79-1.79-0.79-2.92c0-0.82,0.17-1.58,0.5-2.29s0.8-1.33,1.4-1.85c0.6-0.53,1.32-0.94,2.15-1.23s1.75-0.44,2.75-0.44
		s1.92,0.15,2.75,0.44s1.55,0.71,2.15,1.23c0.6,0.52,1.07,1.14,1.4,1.85c0.33,0.71,0.5,1.47,0.5,2.29c0,1.14-0.26,2.11-0.79,2.92
		c-0.53,0.81-1.32,1.43-2.37,1.88c1.33,0.43,2.31,1.09,2.94,1.97c0.63,0.88,0.95,1.97,0.95,3.25c0,0.96-0.18,1.83-0.55,2.61
		c-0.37,0.78-0.88,1.45-1.54,2c-0.66,0.55-1.45,0.97-2.38,1.27S187.37,266.6,186.25,266.6z M186.25,263.71
		c0.61,0,1.14-0.09,1.6-0.26s0.85-0.42,1.16-0.73c0.31-0.31,0.55-0.68,0.71-1.11c0.16-0.43,0.24-0.89,0.24-1.39
		c0-1.19-0.33-2.09-0.99-2.7s-1.57-0.92-2.73-0.92s-2.07,0.3-2.73,0.92s-0.99,1.51-0.99,2.7c0,0.5,0.08,0.96,0.24,1.39
		c0.16,0.43,0.4,0.8,0.71,1.11c0.31,0.31,0.7,0.55,1.16,0.73S185.64,263.71,186.25,263.71z M186.25,253.69c0.6,0,1.1-0.09,1.51-0.29
		c0.41-0.19,0.74-0.44,0.99-0.76c0.25-0.32,0.43-0.68,0.53-1.08c0.11-0.41,0.16-0.82,0.16-1.25c0-0.41-0.06-0.8-0.19-1.17
		s-0.33-0.7-0.58-0.98c-0.26-0.29-0.59-0.51-0.99-0.68c-0.4-0.17-0.88-0.25-1.42-0.25s-1.03,0.08-1.42,0.25
		c-0.4,0.17-0.73,0.4-1,0.68s-0.46,0.61-0.58,0.98s-0.19,0.76-0.19,1.17c0,0.43,0.05,0.85,0.16,1.25c0.11,0.4,0.28,0.76,0.53,1.08
		c0.25,0.31,0.58,0.57,0.99,0.76C185.14,253.59,185.65,253.69,186.25,253.69z"/>
</g>
<g>
	<path class="st1" d="M253.62,263.59h4.39v-12.65c0-0.49,0.02-1,0.04-1.54l-3.12,2.61c-0.13,0.11-0.26,0.18-0.4,0.22
		c-0.13,0.04-0.27,0.06-0.4,0.06c-0.2,0-0.38-0.04-0.55-0.13s-0.29-0.18-0.37-0.29l-1.17-1.6l6.62-5.62h3.04v18.95h3.9v2.77h-12
		V263.59z"/>
	<path class="st1" d="M275.68,266.6c-1.12,0-2.14-0.15-3.07-0.45c-0.93-0.3-1.72-0.72-2.38-1.27s-1.17-1.22-1.54-2
		c-0.37-0.78-0.55-1.65-0.55-2.61c0-1.28,0.32-2.36,0.95-3.25c0.63-0.89,1.61-1.54,2.94-1.97c-1.06-0.44-1.85-1.07-2.38-1.88
		c-0.53-0.81-0.79-1.79-0.79-2.92c0-0.82,0.17-1.58,0.5-2.29s0.8-1.33,1.4-1.85c0.6-0.53,1.32-0.94,2.15-1.23s1.75-0.44,2.75-0.44
		s1.92,0.15,2.75,0.44s1.55,0.71,2.15,1.23c0.6,0.52,1.07,1.14,1.4,1.85c0.33,0.71,0.5,1.47,0.5,2.29c0,1.14-0.26,2.11-0.79,2.92
		c-0.53,0.81-1.32,1.43-2.37,1.88c1.33,0.43,2.31,1.09,2.94,1.97c0.63,0.88,0.95,1.97,0.95,3.25c0,0.96-0.18,1.83-0.55,2.61
		c-0.37,0.78-0.88,1.45-1.54,2c-0.66,0.55-1.45,0.97-2.38,1.27S276.8,266.6,275.68,266.6z M275.68,263.71c0.61,0,1.14-0.09,1.6-0.26
		s0.85-0.42,1.16-0.73c0.31-0.31,0.55-0.68,0.71-1.11c0.16-0.43,0.24-0.89,0.24-1.39c0-1.19-0.33-2.09-0.99-2.7
		s-1.57-0.92-2.73-0.92s-2.07,0.3-2.73,0.92s-0.99,1.51-0.99,2.7c0,0.5,0.08,0.96,0.24,1.39c0.16,0.43,0.4,0.8,0.71,1.11
		c0.31,0.31,0.7,0.55,1.16,0.73S275.07,263.71,275.68,263.71z M275.68,253.69c0.6,0,1.1-0.09,1.51-0.29
		c0.41-0.19,0.74-0.44,0.99-0.76c0.25-0.32,0.43-0.68,0.53-1.08c0.11-0.41,0.16-0.82,0.16-1.25c0-0.41-0.06-0.8-0.19-1.17
		s-0.33-0.7-0.58-0.98c-0.26-0.29-0.59-0.51-0.99-0.68c-0.4-0.17-0.88-0.25-1.42-0.25s-1.03,0.08-1.42,0.25
		c-0.4,0.17-0.73,0.4-1,0.68s-0.46,0.61-0.58,0.98s-0.19,0.76-0.19,1.17c0,0.43,0.05,0.85,0.16,1.25c0.11,0.4,0.28,0.76,0.53,1.08
		c0.25,0.31,0.58,0.57,0.99,0.76C274.58,253.59,275.08,253.69,275.68,253.69z"/>
</g>
<g>
	<path class="st1" d="M113.84,126.05h4.39V113.4c0-0.49,0.02-1,0.04-1.54l-3.12,2.61c-0.13,0.11-0.26,0.19-0.4,0.23
		c-0.13,0.04-0.27,0.06-0.4,0.06c-0.2,0-0.38-0.04-0.55-0.13s-0.29-0.18-0.37-0.29l-1.17-1.6l6.62-5.62h3.04v18.95h3.9v2.77h-12
		V126.05z"/>
	<path class="st1" d="M136.57,106.89c1,0,1.9,0.14,2.71,0.43c0.81,0.29,1.49,0.68,2.06,1.19c0.57,0.5,1.01,1.1,1.31,1.78
		c0.31,0.68,0.46,1.42,0.46,2.21c0,0.69-0.08,1.3-0.23,1.82c-0.16,0.53-0.38,0.98-0.67,1.37c-0.29,0.39-0.66,0.72-1.08,0.99
		c-0.43,0.27-0.91,0.5-1.45,0.67c1.3,0.41,2.27,1.04,2.91,1.88c0.64,0.84,0.96,1.9,0.96,3.17c0,1.08-0.2,2.04-0.6,2.87
		c-0.4,0.83-0.94,1.53-1.62,2.09s-1.47,0.99-2.36,1.28c-0.9,0.29-1.84,0.44-2.84,0.44c-1.09,0-2.04-0.13-2.85-0.38
		c-0.81-0.25-1.52-0.62-2.12-1.11c-0.6-0.49-1.11-1.09-1.53-1.8s-0.78-1.53-1.08-2.46l1.64-0.68c0.28-0.12,0.56-0.18,0.85-0.18
		c0.26,0,0.49,0.06,0.7,0.17s0.36,0.27,0.47,0.48c0.18,0.35,0.38,0.69,0.59,1.03c0.21,0.34,0.47,0.64,0.77,0.91
		c0.3,0.27,0.65,0.48,1.06,0.65s0.89,0.25,1.45,0.25c0.63,0,1.18-0.1,1.65-0.31c0.47-0.21,0.86-0.47,1.18-0.8
		c0.32-0.33,0.55-0.7,0.71-1.1c0.16-0.41,0.23-0.81,0.23-1.22c0-0.52-0.05-0.99-0.16-1.42c-0.11-0.42-0.34-0.79-0.69-1.09
		c-0.35-0.3-0.85-0.54-1.51-0.71s-1.53-0.25-2.63-0.25v-2.66c0.91,0,1.67-0.08,2.26-0.24c0.6-0.16,1.08-0.38,1.43-0.67
		c0.35-0.29,0.6-0.63,0.74-1.03c0.14-0.4,0.21-0.84,0.21-1.32c0-1.03-0.28-1.81-0.84-2.33c-0.56-0.52-1.33-0.79-2.29-0.79
		c-0.88,0-1.61,0.23-2.19,0.7c-0.58,0.46-0.98,1.06-1.21,1.79c-0.12,0.38-0.29,0.65-0.5,0.82c-0.21,0.17-0.48,0.25-0.82,0.25
		c-0.16,0-0.33-0.01-0.51-0.04l-1.95-0.34c0.15-1.04,0.44-1.95,0.87-2.74c0.43-0.79,0.97-1.44,1.61-1.97
		c0.64-0.52,1.38-0.92,2.22-1.19S135.61,106.89,136.57,106.89z"/>
</g>
<g>
	<path class="st1" d="M310.52,126.05h4.39V113.4c0-0.49,0.02-1,0.04-1.54l-3.12,2.61c-0.13,0.11-0.26,0.19-0.4,0.23
		c-0.13,0.04-0.27,0.06-0.4,0.06c-0.2,0-0.38-0.04-0.55-0.13s-0.29-0.18-0.37-0.29l-1.17-1.6l6.62-5.62h3.04v18.95h3.9v2.77h-12
		V126.05z"/>
	<path class="st1" d="M327.92,126.05h4.39V113.4c0-0.49,0.02-1,0.04-1.54l-3.12,2.61c-0.13,0.11-0.26,0.19-0.4,0.23
		c-0.13,0.04-0.27,0.06-0.4,0.06c-0.2,0-0.38-0.04-0.55-0.13s-0.29-0.18-0.37-0.29l-1.17-1.6l6.62-5.62h3.04v18.95h3.9v2.77h-12
		V126.05z"/>
</g>
<g>
	<path class="st1" d="M122.53,203.84h4.39v-12.65c0-0.49,0.02-1,0.04-1.54l-3.12,2.61c-0.13,0.11-0.26,0.18-0.4,0.22
		c-0.13,0.04-0.27,0.06-0.4,0.06c-0.2,0-0.38-0.04-0.55-0.13s-0.29-0.18-0.37-0.29l-1.17-1.6l6.62-5.62h3.04v18.95h3.9v2.77h-12
		V203.84z"/>
</g>
</svg>
