<?xml version="1.0" encoding="UTF-8" standalone="no"?>
<!-- Generator: Adobe Illustrator 27.3.1, SVG Export Plug-In . SVG Version: 6.00 Build 0)  -->

<svg
   version="1.1"
   id="Layer_1"
   x="0px"
   y="0px"
   viewBox="0 0 450 320"
   style="enable-background:new 0 0 450 320;"
   xml:space="preserve"
   sodipodi:docname="Q12Q.svg"
   inkscape:version="1.4 (86a8ad7, 2024-10-11)"
   xmlns:inkscape="http://www.inkscape.org/namespaces/inkscape"
   xmlns:sodipodi="http://sodipodi.sourceforge.net/DTD/sodipodi-0.dtd"
   xmlns="http://www.w3.org/2000/svg"
   xmlns:svg="http://www.w3.org/2000/svg"><defs
   id="defs34" /><sodipodi:namedview
   id="namedview34"
   pagecolor="#ffffff"
   bordercolor="#999999"
   borderopacity="1"
   inkscape:showpageshadow="2"
   inkscape:pageopacity="0"
   inkscape:pagecheckerboard="0"
   inkscape:deskcolor="#d1d1d1"
   inkscape:zoom="1.902371"
   inkscape:cx="224.19391"
   inkscape:cy="150.07588"
   inkscape:window-width="1920"
   inkscape:window-height="1009"
   inkscape:window-x="-8"
   inkscape:window-y="-8"
   inkscape:window-maximized="1"
   inkscape:current-layer="Layer_1" />
<style
   type="text/css"
   id="style1">
	.st0{display:none;}
	.st1{fill:#1D191A;}
	.st2{fill:none;stroke:#1D191A;stroke-width:3;stroke-miterlimit:10;}
</style>
<g
   id="g2">
	<g
   id="g1">
		<path
   class="st1"
   d="M349.6,278.75c0-2,0.12-3.75,0.36-5.23s0.64-2.84,1.19-4.06c0.55-1.23,1.26-2.39,2.14-3.49    c0.87-1.1,1.95-2.27,3.22-3.51c0.96-0.93,1.86-1.81,2.69-2.65c0.83-0.83,1.57-1.69,2.2-2.56c0.64-0.87,1.14-1.81,1.5-2.79    c0.37-0.99,0.55-2.09,0.55-3.3c0-2.65-0.66-4.68-1.97-6.08c-1.31-1.4-3.24-2.09-5.78-2.09c-1.02,0-2,0.14-2.96,0.42    s-1.82,0.73-2.58,1.35c-0.76,0.62-1.38,1.41-1.84,2.37c-0.47,0.96-0.7,2.12-0.7,3.47h-10.3c0.03-2.65,0.51-4.99,1.46-7.01    c0.94-2.02,2.24-3.71,3.89-5.08c1.65-1.37,3.58-2.4,5.8-3.09s4.62-1.04,7.22-1.04c2.85,0,5.39,0.37,7.62,1.1s4.12,1.81,5.67,3.22    c1.55,1.41,2.73,3.13,3.54,5.17c0.8,2.03,1.21,4.33,1.21,6.9c0,1.86-0.3,3.6-0.89,5.21c-0.59,1.61-1.38,3.12-2.37,4.53    s-2.12,2.77-3.39,4.06c-1.27,1.3-2.58,2.58-3.94,3.85c-1.55,1.41-2.59,2.96-3.11,4.64c-0.52,1.68-0.8,3.58-0.83,5.69L349.6,278.75    L349.6,278.75z M348.88,291.92c0-0.79,0.13-1.52,0.38-2.2c0.25-0.68,0.63-1.27,1.12-1.78s1.1-0.9,1.82-1.19    c0.72-0.28,1.55-0.42,2.48-0.42c0.93,0,1.76,0.14,2.48,0.42s1.33,0.68,1.82,1.19c0.49,0.51,0.87,1.1,1.14,1.78    c0.27,0.68,0.4,1.41,0.4,2.2c0,1.55-0.51,2.85-1.52,3.89c-1.02,1.04-2.45,1.57-4.32,1.57s-3.3-0.52-4.3-1.57    C349.38,294.77,348.88,293.47,348.88,291.92z"
   id="path1" />
	</g>
</g>
<g
   id="g3">
	<path
   class="st1"
   d="M135.31,13.02v82.24H53.07V13.02H135.31 M138.31,10.02H50.07v88.24h88.24V10.02L138.31,10.02z"
   id="path2" />
</g>
<g
   id="g4">
	<line
   class="st2"
   x1="51.31"
   y1="97.03"
   x2="137.08"
   y2="11.25"
   id="line3" />
</g>
<line
   class="st2"
   x1="51.31"
   y1="11.25"
   x2="137.08"
   y2="97.03"
   id="line4" />
<line
   class="st2"
   x1="51.76"
   y1="54.27"
   x2="136.83"
   y2="54.27"
   id="line5" />
<line
   class="st2"
   x1="94.1"
   y1="11.34"
   x2="94.1"
   y2="97.2"
   id="line6" />
<circle
   class="st1"
   cx="72.09"
   cy="32.08"
   r="6.5"
   id="circle6" />
<circle
   class="st1"
   cx="116.3"
   cy="76.2"
   r="6.5"
   id="circle7" />
<g
   id="g7">
	<path
   class="st1"
   d="M266.12,13.02v82.24h-82.24V13.02H266.12 M269.12,10.02h-88.24v88.24h88.24V10.02L269.12,10.02z"
   id="path7" />
</g>
<g
   id="g8">
	<line
   class="st2"
   x1="182.11"
   y1="97.03"
   x2="267.89"
   y2="11.25"
   id="line7" />
</g>
<line
   class="st2"
   x1="182.11"
   y1="11.25"
   x2="267.89"
   y2="97.03"
   id="line8" />
<line
   class="st2"
   x1="182.56"
   y1="54.27"
   x2="267.63"
   y2="54.27"
   id="line9" />
<line
   class="st2"
   x1="224.9"
   y1="11.34"
   x2="224.9"
   y2="97.2"
   id="line10" />
<circle
   class="st1"
   cx="224.9388"
   cy="54.279999"
   r="2.787642"
   id="circle10"
   style="fill:#00ff00;fill-opacity:1;stroke-width:0.428868" />
<g
   id="g10">
	<path
   class="st1"
   d="M396.93,13.02v82.24h-82.24V13.02H396.93 M399.93,10.02h-88.24v88.24h88.24V10.02L399.93,10.02z"
   id="path10" />
</g>
<g
   id="g11">
	<line
   class="st2"
   x1="312.92"
   y1="97.03"
   x2="398.69"
   y2="11.25"
   id="line11" />
</g>
<line
   class="st2"
   x1="312.92"
   y1="11.25"
   x2="398.69"
   y2="97.03"
   id="line12" />
<line
   class="st2"
   x1="313.37"
   y1="54.27"
   x2="398.44"
   y2="54.27"
   id="line13" />
<line
   class="st2"
   x1="355.71"
   y1="11.34"
   x2="355.71"
   y2="97.2"
   id="line14" />
<circle
   class="st1"
   cx="333.6"
   cy="32.08"
   r="6.5"
   id="circle14" />
<circle
   class="st1"
   cx="377.72"
   cy="76.09"
   r="6.5"
   id="circle15" />
<g
   id="g15">
	<path
   class="st1"
   d="M135.31,118.88v82.24H53.07v-82.24H135.31 M138.31,115.88H50.07v88.24h88.24V115.88L138.31,115.88z"
   id="path15" />
</g>
<g
   id="g16">
	<line
   class="st2"
   x1="51.31"
   y1="202.89"
   x2="137.08"
   y2="117.11"
   id="line15" />
</g>
<line
   class="st2"
   x1="51.31"
   y1="117.11"
   x2="137.08"
   y2="202.89"
   id="line16" />
<line
   class="st2"
   x1="51.76"
   y1="160.13"
   x2="136.83"
   y2="160.13"
   id="line17" />
<line
   class="st2"
   x1="94.1"
   y1="117.2"
   x2="94.1"
   y2="203.06"
   id="line18" />
<circle
   class="st1"
   cx="94.19"
   cy="138"
   r="6.5"
   id="circle18" />
<circle
   class="st1"
   cx="72.18"
   cy="159.9"
   r="6.5"
   id="circle19" />
<g
   id="g19">
	<path
   class="st1"
   d="M266.12,118.88v82.24h-82.24v-82.24H266.12 M269.12,115.88h-88.24v88.24h88.24V115.88L269.12,115.88z"
   id="path19" />
</g>
<g
   id="g20">
	<line
   class="st2"
   x1="182.11"
   y1="202.89"
   x2="267.89"
   y2="117.11"
   id="line19" />
</g>
<line
   class="st2"
   x1="182.11"
   y1="117.11"
   x2="267.89"
   y2="202.89"
   id="line20" />
<line
   class="st2"
   x1="182.56"
   y1="160.13"
   x2="267.63"
   y2="160.13"
   id="line21" />
<line
   class="st2"
   x1="224.9"
   y1="117.2"
   x2="224.9"
   y2="203.06"
   id="line22" />
<circle
   class="st1"
   cx="224.9388"
   cy="160.14"
   r="2.787642"
   id="circle22"
   style="fill:#00ff00;fill-opacity:1;stroke-width:0.428868" />
<g
   id="g22">
	<path
   class="st1"
   d="M396.93,118.88v82.24h-82.24v-82.24H396.93 M399.93,115.88h-88.24v88.24h88.24V115.88L399.93,115.88z"
   id="path22" />
</g>
<g
   id="g23">
	<line
   class="st2"
   x1="312.92"
   y1="202.89"
   x2="398.69"
   y2="117.11"
   id="line23" />
</g>
<line
   class="st2"
   x1="312.92"
   y1="117.11"
   x2="398.69"
   y2="202.89"
   id="line24" />
<line
   class="st2"
   x1="313.37"
   y1="160.13"
   x2="398.44"
   y2="160.13"
   id="line25" />
<line
   class="st2"
   x1="355.71"
   y1="117.2"
   x2="355.71"
   y2="203.06"
   id="line26" />
<circle
   class="st1"
   cx="377.63"
   cy="160.13"
   r="6.5"
   id="circle26" />
<circle
   class="st1"
   cx="355.62"
   cy="182.06"
   r="6.5"
   id="circle27" />
<g
   id="g27">
	<path
   class="st1"
   d="M135.31,224.74v82.24H53.07v-82.24H135.31 M138.31,221.74H50.07v88.24h88.24V221.74L138.31,221.74z"
   id="path27" />
</g>
<g
   id="g28">
	<line
   class="st2"
   x1="51.31"
   y1="308.75"
   x2="137.08"
   y2="222.97"
   id="line27" />
</g>
<line
   class="st2"
   x1="51.31"
   y1="222.97"
   x2="137.08"
   y2="308.75"
   id="line28" />
<line
   class="st2"
   x1="51.76"
   y1="265.99"
   x2="136.83"
   y2="265.99"
   id="line29" />
<line
   class="st2"
   x1="94.1"
   y1="223.06"
   x2="94.1"
   y2="308.92"
   id="line30" />
<circle
   class="st1"
   cx="72.18"
   cy="287.92"
   r="6.5"
   id="circle30" />
<circle
   class="st1"
   cx="116.21"
   cy="287.92"
   r="6.5"
   id="circle31" />
<g
   id="g31">
	<path
   class="st1"
   d="M266.12,224.74v82.24h-82.24v-82.24H266.12 M269.12,221.74h-88.24v88.24h88.24V221.74L269.12,221.74z"
   id="path31" />
</g>
<g
   id="g32">
	<line
   class="st2"
   x1="182.11"
   y1="308.75"
   x2="267.89"
   y2="222.97"
   id="line31" />
</g>
<line
   class="st2"
   x1="182.11"
   y1="222.97"
   x2="267.89"
   y2="308.75"
   id="line32" />
<line
   class="st2"
   x1="182.56"
   y1="265.99"
   x2="267.63"
   y2="265.99"
   id="line33" />
<line
   class="st2"
   x1="224.9"
   y1="223.06"
   x2="224.9"
   y2="308.92"
   id="line34" />
<circle
   class="st1"
   cx="224.9388"
   cy="266"
   r="2.787642"
   id="circle34"
   style="fill:#00ff00;fill-opacity:1;stroke-width:0.428868" />

</svg>
