<?xml version="1.0" encoding="UTF-8" standalone="no"?>
<!-- Generator: Adobe Illustrator 27.3.1, SVG Export Plug-In . SVG Version: 6.00 Build 0)  -->

<svg
   version="1.1"
   id="Layer_1"
   x="0px"
   y="0px"
   viewBox="0 0 450 320"
   style="enable-background:new 0 0 450 320;"
   xml:space="preserve"
   sodipodi:docname="Q4Q.svg"
   inkscape:version="1.4 (86a8ad7, 2024-10-11)"
   xmlns:inkscape="http://www.inkscape.org/namespaces/inkscape"
   xmlns:sodipodi="http://sodipodi.sourceforge.net/DTD/sodipodi-0.dtd"
   xmlns="http://www.w3.org/2000/svg"
   xmlns:svg="http://www.w3.org/2000/svg"><defs
   id="defs9" /><sodipodi:namedview
   id="namedview9"
   pagecolor="#ffffff"
   bordercolor="#999999"
   borderopacity="1"
   inkscape:showpageshadow="2"
   inkscape:pageopacity="0"
   inkscape:pagecheckerboard="0"
   inkscape:deskcolor="#d1d1d1"
   inkscape:zoom="2.521875"
   inkscape:cx="225.03098"
   inkscape:cy="160"
   inkscape:window-width="1920"
   inkscape:window-height="1009"
   inkscape:window-x="-8"
   inkscape:window-y="-8"
   inkscape:window-maximized="1"
   inkscape:current-layer="Layer_1" />
<style
   type="text/css"
   id="style1">
	.st0{display:none;}
	.st1{fill:#1D191A;}
</style>
<g
   id="g1"
   transform="matrix(0.8505,0,0,0.8505,21.29788,22.170531)">
	<path
   class="st1"
   d="m 155.16,163.22 c 0,-1.08 0.07,-2.03 0.2,-2.83 0.13,-0.8 0.35,-1.54 0.64,-2.2 0.3,-0.67 0.68,-1.3 1.16,-1.89 0.47,-0.6 1.06,-1.23 1.75,-1.9 0.52,-0.5 1.01,-0.98 1.46,-1.44 0.45,-0.45 0.85,-0.92 1.19,-1.39 0.35,-0.47 0.62,-0.98 0.81,-1.51 0.2,-0.54 0.3,-1.13 0.3,-1.79 0,-1.44 -0.36,-2.54 -1.07,-3.29 -0.71,-0.76 -1.76,-1.13 -3.13,-1.13 -0.55,0 -1.08,0.08 -1.6,0.23 -0.52,0.15 -0.99,0.4 -1.4,0.73 -0.41,0.33 -0.75,0.76 -1,1.28 -0.25,0.52 -0.38,1.15 -0.38,1.88 h -5.58 c 0.02,-1.44 0.28,-2.7 0.79,-3.8 0.51,-1.09 1.21,-2.01 2.11,-2.75 0.89,-0.74 1.94,-1.3 3.14,-1.67 1.2,-0.37 2.5,-0.56 3.91,-0.56 1.54,0 2.92,0.2 4.13,0.6 1.21,0.4 2.23,0.98 3.07,1.75 0.84,0.76 1.48,1.7 1.92,2.8 0.43,1.1 0.66,2.35 0.66,3.74 0,1.01 -0.16,1.95 -0.48,2.82 -0.32,0.87 -0.75,1.69 -1.28,2.45 -0.54,0.76 -1.15,1.5 -1.84,2.2 -0.69,0.7 -1.4,1.4 -2.14,2.09 -0.84,0.76 -1.4,1.6 -1.69,2.51 -0.28,0.91 -0.43,1.94 -0.45,3.08 z m -0.39,7.14 c 0,-0.43 0.07,-0.82 0.21,-1.19 0.14,-0.37 0.34,-0.69 0.61,-0.96 0.27,-0.28 0.6,-0.49 0.99,-0.64 0.39,-0.15 0.84,-0.23 1.34,-0.23 0.5,0 0.95,0.08 1.34,0.23 0.39,0.15 0.72,0.37 0.99,0.64 0.27,0.28 0.47,0.6 0.62,0.96 0.15,0.37 0.22,0.76 0.22,1.19 0,0.84 -0.28,1.54 -0.82,2.11 -0.55,0.56 -1.33,0.85 -2.34,0.85 -1.01,0 -1.79,-0.28 -2.33,-0.85 -0.56,-0.57 -0.83,-1.27 -0.83,-2.11 z"
   id="path1" />
</g>
<g
   id="g2"
   transform="matrix(0.945,0,0,0.945,12.4753,5.734575)">
	<path
   class="st1"
   d="m 225,118.31 c -1.42,0 -2.71,-0.19 -3.89,-0.57 -1.17,-0.38 -2.18,-0.92 -3.01,-1.61 -0.83,-0.69 -1.49,-1.54 -1.95,-2.53 -0.46,-0.99 -0.69,-2.09 -0.69,-3.31 0,-1.62 0.4,-2.99 1.2,-4.11 0.8,-1.12 2.04,-1.95 3.72,-2.5 -1.34,-0.56 -2.35,-1.35 -3.01,-2.38 -0.67,-1.03 -1,-2.26 -1,-3.7 0,-1.04 0.21,-2.01 0.64,-2.91 0.43,-0.9 1.02,-1.68 1.78,-2.35 0.76,-0.67 1.67,-1.18 2.73,-1.56 1.06,-0.37 2.22,-0.56 3.49,-0.56 1.27,0 2.43,0.19 3.49,0.56 1.06,0.37 1.97,0.89 2.73,1.56 0.76,0.67 1.35,1.45 1.78,2.35 0.42,0.9 0.64,1.87 0.64,2.91 0,1.44 -0.34,2.68 -1.01,3.7 -0.67,1.03 -1.67,1.82 -3,2.38 1.68,0.54 2.93,1.38 3.72,2.5 0.79,1.12 1.2,2.49 1.2,4.11 0,1.22 -0.23,2.32 -0.69,3.31 -0.46,0.99 -1.11,1.83 -1.95,2.53 -0.84,0.7 -1.84,1.23 -3.01,1.61 -1.2,0.38 -2.49,0.57 -3.91,0.57 z m 0,-3.67 c 0.77,0 1.45,-0.11 2.03,-0.33 0.58,-0.22 1.07,-0.53 1.47,-0.92 0.4,-0.39 0.7,-0.86 0.9,-1.41 0.2,-0.54 0.3,-1.13 0.3,-1.77 0,-1.51 -0.42,-2.65 -1.25,-3.42 -0.84,-0.77 -1.99,-1.16 -3.46,-1.16 -1.47,0 -2.62,0.39 -3.46,1.16 -0.84,0.77 -1.25,1.91 -1.25,3.42 0,0.63 0.1,1.22 0.3,1.77 0.2,0.54 0.5,1.01 0.9,1.41 0.4,0.39 0.89,0.7 1.47,0.92 0.58,0.22 1.28,0.33 2.05,0.33 z m 0,-12.69 c 0.76,0 1.4,-0.12 1.92,-0.36 0.52,-0.24 0.94,-0.56 1.25,-0.96 0.31,-0.4 0.54,-0.85 0.67,-1.37 0.13,-0.51 0.2,-1.04 0.2,-1.59 0,-0.52 -0.08,-1.01 -0.25,-1.48 -0.17,-0.47 -0.41,-0.88 -0.74,-1.24 -0.33,-0.36 -0.75,-0.65 -1.25,-0.86 -0.5,-0.21 -1.11,-0.32 -1.81,-0.32 -0.7,0 -1.3,0.11 -1.81,0.32 -0.51,0.21 -0.93,0.5 -1.26,0.86 -0.34,0.36 -0.58,0.78 -0.74,1.24 -0.16,0.47 -0.24,0.96 -0.24,1.48 0,0.54 0.07,1.07 0.2,1.59 0.13,0.51 0.36,0.97 0.67,1.37 0.32,0.4 0.73,0.72 1.25,0.96 0.54,0.24 1.18,0.36 1.94,0.36 z"
   id="path2" />
</g>
<g
   id="g4"
   transform="matrix(0.945,0,0,0.945,16.24425,8.35945)">
	<path
   class="st1"
   d="m 277.63,162.35 h 5.57 v -16.02 c 0,-0.62 0.02,-1.27 0.06,-1.96 l -3.95,3.31 c -0.17,0.14 -0.33,0.23 -0.5,0.29 -0.17,0.05 -0.34,0.08 -0.5,0.08 -0.25,0 -0.48,-0.05 -0.69,-0.16 -0.21,-0.11 -0.36,-0.23 -0.46,-0.37 l -1.48,-2.03 8.38,-7.12 h 3.86 v 24 h 4.94 v 3.52 h -15.2 v -3.54 z"
   id="path3" />
	<path
   class="st1"
   d="m 306,138.09 c 1.27,0 2.42,0.19 3.48,0.56 1.06,0.37 1.95,0.9 2.7,1.59 0.75,0.68 1.33,1.51 1.75,2.47 0.42,0.96 0.63,2.03 0.63,3.21 0,1.01 -0.15,1.95 -0.45,2.81 -0.3,0.86 -0.7,1.69 -1.2,2.47 -0.5,0.79 -1.09,1.55 -1.76,2.28 -0.67,0.73 -1.37,1.48 -2.11,2.24 l -6.19,6.33 c 0.61,-0.18 1.2,-0.31 1.79,-0.41 0.58,-0.09 1.14,-0.14 1.67,-0.14 h 7.05 c 0.51,0 0.91,0.14 1.21,0.43 0.3,0.28 0.45,0.66 0.45,1.13 v 2.81 h -18.85 v -1.56 c 0,-0.32 0.07,-0.65 0.2,-0.99 0.13,-0.34 0.34,-0.66 0.64,-0.95 l 8.34,-8.36 c 0.7,-0.71 1.32,-1.39 1.87,-2.03 0.55,-0.64 1.01,-1.29 1.39,-1.92 0.37,-0.63 0.66,-1.28 0.85,-1.93 0.19,-0.65 0.29,-1.34 0.29,-2.06 0,-0.66 -0.1,-1.24 -0.29,-1.74 -0.19,-0.5 -0.46,-0.92 -0.82,-1.26 -0.35,-0.34 -0.78,-0.6 -1.26,-0.77 -0.49,-0.17 -1.04,-0.26 -1.64,-0.26 -1.13,0 -2.05,0.29 -2.78,0.85 -0.73,0.57 -1.24,1.34 -1.53,2.3 -0.14,0.48 -0.35,0.83 -0.63,1.04 -0.28,0.21 -0.63,0.31 -1.06,0.31 -0.19,0 -0.4,-0.02 -0.63,-0.06 l -2.47,-0.44 c 0.19,-1.32 0.56,-2.47 1.1,-3.47 0.54,-0.99 1.23,-1.82 2.04,-2.49 0.81,-0.67 1.75,-1.17 2.81,-1.5 1.06,-0.33 2.19,-0.49 3.41,-0.49 z"
   id="path4" />
</g>
<g
   id="g6"
   transform="matrix(0.945,0,0,0.945,15.426911,12.76935)">
	<path
   class="st1"
   d="m 248.29,242.4 h 5.57 v -16.02 c 0,-0.62 0.02,-1.27 0.06,-1.96 l -3.95,3.31 c -0.17,0.14 -0.33,0.23 -0.5,0.29 -0.17,0.06 -0.34,0.08 -0.5,0.08 -0.25,0 -0.48,-0.05 -0.69,-0.16 -0.21,-0.11 -0.36,-0.23 -0.46,-0.37 l -1.48,-2.03 8.38,-7.12 h 3.86 v 24 h 4.94 v 3.51 h -15.2 v -3.53 z"
   id="path5" />
	<path
   class="st1"
   d="m 276.24,246.22 c -1.42,0 -2.71,-0.19 -3.89,-0.57 -1.18,-0.38 -2.18,-0.92 -3.01,-1.62 -0.84,-0.7 -1.49,-1.54 -1.95,-2.53 -0.46,-0.99 -0.69,-2.09 -0.69,-3.31 0,-1.62 0.4,-2.99 1.2,-4.11 0.8,-1.12 2.04,-1.95 3.72,-2.5 -1.34,-0.56 -2.35,-1.35 -3.01,-2.38 -0.67,-1.03 -1,-2.26 -1,-3.7 0,-1.04 0.21,-2.01 0.64,-2.91 0.42,-0.9 1.02,-1.68 1.78,-2.35 0.76,-0.67 1.67,-1.18 2.73,-1.56 1.06,-0.37 2.22,-0.56 3.49,-0.56 1.27,0 2.43,0.19 3.49,0.56 1.06,0.37 1.97,0.89 2.73,1.56 0.76,0.67 1.35,1.45 1.78,2.35 0.42,0.9 0.64,1.87 0.64,2.91 0,1.44 -0.34,2.68 -1.01,3.7 -0.67,1.03 -1.67,1.82 -3,2.38 1.68,0.54 2.93,1.38 3.72,2.5 0.79,1.12 1.2,2.49 1.2,4.11 0,1.22 -0.23,2.32 -0.69,3.31 -0.46,0.99 -1.11,1.83 -1.95,2.53 -0.84,0.7 -1.84,1.24 -3.01,1.62 -1.19,0.38 -2.49,0.57 -3.91,0.57 z m 0,-3.66 c 0.77,0 1.45,-0.11 2.03,-0.33 0.58,-0.22 1.07,-0.53 1.47,-0.92 0.4,-0.39 0.7,-0.86 0.9,-1.41 0.2,-0.54 0.3,-1.13 0.3,-1.77 0,-1.51 -0.42,-2.65 -1.25,-3.42 -0.84,-0.77 -1.99,-1.16 -3.46,-1.16 -1.47,0 -2.62,0.39 -3.46,1.16 -0.84,0.77 -1.25,1.91 -1.25,3.42 0,0.63 0.1,1.22 0.3,1.77 0.2,0.54 0.5,1.01 0.9,1.41 0.4,0.39 0.89,0.7 1.47,0.92 0.6,0.21 1.28,0.33 2.05,0.33 z m 0,-12.7 c 0.76,0 1.4,-0.12 1.92,-0.36 0.52,-0.24 0.94,-0.56 1.25,-0.96 0.32,-0.4 0.54,-0.86 0.67,-1.37 0.13,-0.51 0.2,-1.04 0.2,-1.59 0,-0.52 -0.08,-1.01 -0.25,-1.48 -0.17,-0.47 -0.41,-0.88 -0.74,-1.25 -0.33,-0.36 -0.75,-0.65 -1.25,-0.86 -0.51,-0.21 -1.11,-0.32 -1.8,-0.32 -0.7,0 -1.3,0.11 -1.81,0.32 -0.51,0.22 -0.93,0.5 -1.26,0.86 -0.34,0.36 -0.58,0.78 -0.74,1.25 -0.16,0.47 -0.24,0.96 -0.24,1.48 0,0.54 0.07,1.07 0.2,1.59 0.13,0.52 0.36,0.97 0.67,1.37 0.32,0.4 0.73,0.72 1.25,0.96 0.53,0.24 1.17,0.36 1.93,0.36 z"
   id="path6" />
</g>
<g
   id="g8"
   transform="matrix(0.945,0,0,0.945,7.032182,14.1577)">
	<path
   class="st1"
   d="m 174.73,218.14 c 1.27,0 2.43,0.19 3.48,0.56 1.05,0.37 1.95,0.9 2.7,1.59 0.75,0.68 1.33,1.51 1.75,2.47 0.42,0.96 0.63,2.03 0.63,3.21 0,1.01 -0.15,1.95 -0.45,2.81 -0.3,0.86 -0.7,1.69 -1.2,2.47 -0.5,0.79 -1.09,1.54 -1.76,2.28 -0.67,0.74 -1.37,1.48 -2.11,2.24 l -6.19,6.33 c 0.61,-0.18 1.2,-0.31 1.79,-0.41 0.59,-0.1 1.14,-0.14 1.67,-0.14 h 7.05 c 0.51,0 0.91,0.14 1.21,0.43 0.3,0.28 0.45,0.66 0.45,1.13 v 2.81 H 164.9 v -1.56 c 0,-0.32 0.07,-0.65 0.2,-0.99 0.13,-0.34 0.35,-0.66 0.64,-0.95 l 8.34,-8.36 c 0.7,-0.71 1.32,-1.39 1.87,-2.03 0.55,-0.65 1.01,-1.29 1.39,-1.92 0.37,-0.63 0.66,-1.28 0.85,-1.93 0.2,-0.65 0.29,-1.34 0.29,-2.06 0,-0.66 -0.1,-1.24 -0.29,-1.74 -0.19,-0.5 -0.46,-0.92 -0.82,-1.26 -0.35,-0.34 -0.78,-0.6 -1.26,-0.77 -0.49,-0.17 -1.04,-0.26 -1.64,-0.26 -1.13,0 -2.06,0.29 -2.78,0.85 -0.73,0.57 -1.24,1.34 -1.53,2.3 -0.14,0.48 -0.35,0.83 -0.63,1.04 -0.28,0.21 -0.63,0.31 -1.06,0.31 -0.19,0 -0.4,-0.02 -0.63,-0.06 l -2.47,-0.44 c 0.19,-1.32 0.56,-2.47 1.1,-3.47 0.54,-0.99 1.23,-1.82 2.04,-2.49 0.82,-0.67 1.75,-1.17 2.81,-1.5 1.05,-0.32 2.19,-0.49 3.41,-0.49 z"
   id="path7" />
	<path
   class="st1"
   d="m 198.06,228.76 c 1.04,0 2.05,0.17 3.03,0.51 0.98,0.34 1.85,0.86 2.59,1.55 0.75,0.69 1.35,1.55 1.81,2.57 0.46,1.03 0.68,2.22 0.68,3.59 0,1.28 -0.23,2.48 -0.7,3.6 -0.47,1.12 -1.13,2.1 -1.98,2.94 -0.85,0.84 -1.87,1.5 -3.07,1.98 -1.2,0.48 -2.52,0.72 -3.96,0.72 -1.47,0 -2.79,-0.23 -3.95,-0.7 -1.17,-0.47 -2.16,-1.12 -2.98,-1.97 -0.82,-0.84 -1.45,-1.86 -1.89,-3.04 -0.44,-1.18 -0.66,-2.5 -0.66,-3.94 0,-1.29 0.26,-2.62 0.79,-3.98 0.53,-1.36 1.34,-2.78 2.44,-4.25 l 6.56,-8.8 c 0.23,-0.3 0.56,-0.56 1,-0.78 0.44,-0.21 0.94,-0.32 1.51,-0.32 h 4.18 l -8.15,9.98 c -0.18,0.21 -0.35,0.42 -0.5,0.61 -0.16,0.19 -0.31,0.39 -0.47,0.59 0.53,-0.27 1.1,-0.48 1.72,-0.63 0.61,-0.15 1.28,-0.23 2,-0.23 z m -6.58,8.53 c 0,0.76 0.1,1.45 0.31,2.08 0.21,0.63 0.52,1.16 0.93,1.61 0.41,0.45 0.92,0.79 1.53,1.04 0.61,0.25 1.31,0.37 2.11,0.37 0.75,0 1.43,-0.13 2.06,-0.38 0.63,-0.25 1.17,-0.61 1.61,-1.06 0.44,-0.45 0.8,-0.99 1.05,-1.61 0.25,-0.61 0.38,-1.28 0.38,-2 0,-0.79 -0.12,-1.49 -0.36,-2.12 -0.24,-0.63 -0.58,-1.16 -1.03,-1.6 -0.44,-0.44 -0.98,-0.77 -1.6,-1 -0.62,-0.23 -1.3,-0.34 -2.05,-0.34 -0.75,0 -1.43,0.13 -2.03,0.38 -0.61,0.25 -1.13,0.61 -1.57,1.05 -0.44,0.45 -0.77,0.98 -1.01,1.6 -0.24,0.62 -0.33,1.27 -0.33,1.98 z"
   id="path8" />
</g>
<g
   id="g9">
	<path
   class="st1"
   d="M225,13.02c0.44,0,1.53,0.13,1.99,1.39l36.85,99.75c1.14,3.09,4,5.17,7.29,5.3l106.25,4.22   c1.33,0.05,1.79,1.04,1.93,1.46c0.14,0.42,0.34,1.49-0.7,2.32l-83.48,65.87c-2.58,2.04-3.68,5.41-2.79,8.57l28.82,102.36   c0.24,0.85-0.04,1.46-0.32,1.82c-0.42,0.55-1.08,0.89-1.73,0.89c-0.4,0-0.79-0.13-1.17-0.38l-88.44-59.04   c-1.34-0.89-2.9-1.37-4.51-1.37c-1.61,0-3.17,0.47-4.51,1.37l-88.44,59.04c-0.37,0.25-0.77,0.38-1.17,0.38   c-0.65,0-1.32-0.34-1.73-0.89c-0.28-0.37-0.56-0.98-0.32-1.82l28.82-102.36c0.89-3.17-0.2-6.53-2.79-8.57l-83.48-65.87   c-1.05-0.83-0.84-1.9-0.7-2.32c0.14-0.42,0.6-1.41,1.93-1.46l106.25-4.22c3.29-0.13,6.15-2.21,7.29-5.3l36.85-99.75   C223.47,13.15,224.56,13.02,225,13.02 M225,10.02c-1.99,0-3.98,1.12-4.8,3.35l-36.85,99.75c-0.72,1.94-2.53,3.26-4.6,3.34   l-106.25,4.22c-4.75,0.19-6.7,6.19-2.97,9.13L153,195.69c1.62,1.28,2.32,3.41,1.76,5.41l-28.82,102.36   c-0.99,3.52,1.8,6.53,4.94,6.53c0.94,0,1.92-0.27,2.83-0.88l88.44-59.04c0.86-0.57,1.85-0.86,2.84-0.86s1.98,0.29,2.84,0.86   l88.44,59.04c0.91,0.61,1.89,0.88,2.83,0.88c3.14,0,5.93-3.01,4.94-6.53l-28.82-102.36c-0.56-1.99,0.13-4.12,1.76-5.41l83.48-65.87   c3.73-2.95,1.78-8.95-2.97-9.13l-106.25-4.22c-2.07-0.08-3.88-1.4-4.6-3.34L229.8,13.37C228.98,11.14,226.99,10.02,225,10.02   L225,10.02z"
   id="path9" />
</g>
</svg>
