<?xml version="1.0" encoding="UTF-8" standalone="no"?>
<!-- Generator: Adobe Illustrator 27.3.1, SVG Export Plug-In . SVG Version: 6.00 Build 0)  -->

<svg
   version="1.1"
   id="Layer_1"
   x="0px"
   y="0px"
   viewBox="0 0 450 320"
   style="enable-background:new 0 0 450 320;"
   xml:space="preserve"
   sodipodi:docname="Q30Q.svg"
   inkscape:version="1.4 (86a8ad7, 2024-10-11)"
   xmlns:inkscape="http://www.inkscape.org/namespaces/inkscape"
   xmlns:sodipodi="http://sodipodi.sourceforge.net/DTD/sodipodi-0.dtd"
   xmlns="http://www.w3.org/2000/svg"
   xmlns:svg="http://www.w3.org/2000/svg"><defs
   id="defs31" /><sodipodi:namedview
   id="namedview31"
   pagecolor="#ffffff"
   bordercolor="#999999"
   borderopacity="1"
   inkscape:showpageshadow="2"
   inkscape:pageopacity="0"
   inkscape:pagecheckerboard="0"
   inkscape:deskcolor="#d1d1d1"
   inkscape:zoom="1.7832349"
   inkscape:cx="224.59184"
   inkscape:cy="189.82356"
   inkscape:window-width="1920"
   inkscape:window-height="1009"
   inkscape:window-x="-8"
   inkscape:window-y="-8"
   inkscape:window-maximized="1"
   inkscape:current-layer="Layer_1" />
<style
   type="text/css"
   id="style1">
	.st0{display:none;}
	.st1{fill:#1D191A;}
	.st2{fill:none;stroke:#1D191A;stroke-width:9;stroke-miterlimit:10;}
	.st3{fill:#FFFFFF;stroke:#1D191A;stroke-width:2.3;stroke-miterlimit:10;}
	.st4{fill:#A5A5A5;}
	.st5{fill:#FFFFFF;stroke:#1D191A;stroke-width:2;stroke-miterlimit:10;}
	.st6{fill:none;stroke:#1D191A;stroke-width:0.8;stroke-miterlimit:10;}
	.st7{fill:#FFFFFF;stroke:#1D191A;stroke-width:3;stroke-miterlimit:10;}
</style>
<g
   id="g1"
   transform="translate(0,27.1)">
	<polygon
   class="st1"
   points="247.6,234.02 202.4,234.02 225,194.88 "
   id="polygon1" />
	<path
   class="st1"
   d="m 225,197.88 10,17.32 10,17.32 h -20 -20 l 10,-17.32 10,-17.32 m 0,-6 -12.6,21.82 -12.6,21.82 H 225 250.2 L 237.6,213.7 Z"
   id="path1" />
</g>
<line
   class="st2"
   x1="49.830002"
   y1="215.62007"
   x2="400.17001"
   y2="215.62007"
   id="line1" />
<circle
   class="st3"
   cx="74.550003"
   cy="170.78006"
   r="4.0799999"
   id="circle1" />
<g
   id="g2"
   transform="translate(1.4,27.1)">
	<polygon
   class="st4"
   points="90.81,182.53 55.49,182.53 59.19,145.18 87.1,145.18 "
   id="polygon2" />
	<path
   class="st1"
   d="m 85.75,146.68 3.41,34.36 H 57.14 l 3.41,-34.36 h 25.2 m 2.71,-3 H 57.83 l -4,40.36 h 38.63 z"
   id="path2" />
</g>
<circle
   class="st5"
   cx="148.48"
   cy="177.76007"
   r="3.3800001"
   id="circle2" />
<g
   id="g3"
   transform="translate(0,27.1)">
	<polygon
   class="st4"
   points="137.18,152.16 159.79,152.16 162.8,182.53 134.17,182.53 "
   id="polygon3" />
	<path
   class="st1"
   d="m 158.43,153.66 2.71,27.38 h -25.33 l 2.71,-27.38 h 19.91 m 2.72,-3 h -25.34 l -3.31,33.38 h 31.95 z"
   id="path3" />
</g>
<g
   id="g4"
   transform="translate(0,27.1)">
	<line
   class="st6"
   x1="225"
   y1="105.74"
   x2="374.70999"
   y2="105.74"
   id="line3" />
</g>
<g
   id="g5"
   transform="translate(0,27.1)">
	<line
   class="st6"
   x1="73.389999"
   y1="97.739998"
   x2="224.86"
   y2="97.739998"
   id="line4" />
</g>
<g
   id="g6"
   transform="translate(0,27.1)">
	<line
   class="st6"
   x1="148.48"
   y1="113.84"
   x2="224.85001"
   y2="113.84"
   id="line5" />
</g>
<g
   id="g9"
   transform="translate(0,27.1)">
	<ellipse
   class="st7"
   cx="374.70999"
   cy="142"
   rx="4.2199998"
   ry="4.25"
   id="ellipse6" />
	<g
   id="g7">
		<polygon
   class="st4"
   points="360.25,143.5 389.18,143.5 393.02,182.53 356.41,182.53 "
   id="polygon6" />
		<path
   class="st1"
   d="m 387.82,145 3.54,36.04 h -33.3 L 361.6,145 h 26.22 m 2.72,-3 h -31.65 l -4.13,42.04 h 39.91 z"
   id="path6" />
	</g>
	<g
   id="g8">
		<path
   class="st1"
   d="m 372.42,168.04 c 0,-0.78 0.05,-1.47 0.14,-2.04 0.09,-0.57 0.25,-1.11 0.46,-1.59 0.21,-0.48 0.49,-0.93 0.83,-1.36 0.34,-0.43 0.76,-0.89 1.25,-1.37 0.37,-0.36 0.72,-0.71 1.04,-1.04 0.32,-0.32 0.61,-0.66 0.85,-1 0.25,-0.34 0.44,-0.71 0.58,-1.09 0.14,-0.39 0.21,-0.82 0.21,-1.29 0,-1.04 -0.26,-1.83 -0.76,-2.38 -0.51,-0.55 -1.26,-0.82 -2.24,-0.82 -0.4,0 -0.77,0.05 -1.15,0.16 -0.37,0.11 -0.71,0.29 -1,0.53 -0.29,0.24 -0.53,0.55 -0.71,0.93 -0.18,0.38 -0.27,0.83 -0.27,1.36 h -3.99 c 0.01,-1.04 0.2,-1.95 0.57,-2.74 0.36,-0.79 0.87,-1.45 1.51,-1.98 0.64,-0.54 1.39,-0.94 2.25,-1.21 0.86,-0.27 1.79,-0.41 2.8,-0.41 1.1,0 2.09,0.14 2.95,0.43 0.86,0.29 1.6,0.71 2.2,1.26 0.6,0.55 1.06,1.22 1.37,2.02 0.31,0.79 0.47,1.69 0.47,2.7 0,0.73 -0.12,1.41 -0.34,2.04 -0.23,0.63 -0.53,1.22 -0.92,1.77 -0.38,0.55 -0.82,1.08 -1.31,1.59 -0.49,0.51 -1,1.01 -1.53,1.5 -0.6,0.55 -1,1.16 -1.21,1.81 -0.2,0.66 -0.31,1.4 -0.32,2.22 z m -0.28,5.15 c 0,-0.31 0.05,-0.59 0.15,-0.86 0.1,-0.27 0.24,-0.5 0.43,-0.7 0.19,-0.2 0.43,-0.35 0.71,-0.46 0.28,-0.11 0.6,-0.16 0.96,-0.16 0.36,0 0.68,0.05 0.96,0.16 0.28,0.11 0.52,0.27 0.71,0.46 0.19,0.2 0.34,0.43 0.44,0.7 0.1,0.27 0.15,0.55 0.15,0.86 0,0.61 -0.2,1.11 -0.59,1.52 -0.4,0.41 -0.95,0.61 -1.67,0.61 -0.72,0 -1.28,-0.2 -1.67,-0.61 -0.39,-0.41 -0.58,-0.92 -0.58,-1.52 z"
   id="path7" />
	</g>
</g>
<line
   class="st6"
   x1="73.389999"
   y1="122.60997"
   x2="73.389999"
   y2="127.07985"
   id="line9" />
<line
   class="st6"
   x1="224.86"
   y1="122.60997"
   x2="224.86"
   y2="127.07985"
   id="line10" />
<line
   class="st6"
   x1="224.86"
   y1="130.60986"
   x2="224.86"
   y2="135.07994"
   id="line11" />
<line
   class="st6"
   x1="148.48"
   y1="139.02995"
   x2="148.48"
   y2="143.48996"
   id="line12" />
<line
   class="st6"
   x1="224.86"
   y1="138.70996"
   x2="224.86"
   y2="143.16997"
   id="line13" />
<line
   class="st6"
   x1="374.70999"
   y1="130.60986"
   x2="374.70999"
   y2="135.07994"
   id="line14" />
<line
   class="st6"
   x1="224.86"
   y1="146.37997"
   x2="224.86"
   y2="204.75006"
   id="line15" />
<g
   id="g19"
   transform="translate(1.4,27.1)">
	<g
   id="g16">
		<path
   class="st1"
   d="m 68.71,149.43 c 0.53,0 1.01,0.08 1.44,0.23 0.43,0.15 0.8,0.36 1.1,0.63 0.3,0.27 0.54,0.59 0.7,0.95 0.16,0.36 0.24,0.75 0.24,1.18 0,0.37 -0.04,0.69 -0.12,0.97 -0.08,0.28 -0.2,0.52 -0.36,0.73 -0.16,0.21 -0.35,0.38 -0.58,0.53 -0.23,0.14 -0.48,0.26 -0.77,0.36 0.69,0.22 1.21,0.55 1.55,1 0.34,0.45 0.51,1.01 0.51,1.69 0,0.58 -0.11,1.09 -0.32,1.53 -0.21,0.44 -0.5,0.81 -0.86,1.12 -0.36,0.3 -0.78,0.53 -1.26,0.68 -0.48,0.15 -0.98,0.23 -1.52,0.23 -0.58,0 -1.09,-0.07 -1.52,-0.2 -0.43,-0.13 -0.81,-0.33 -1.13,-0.59 -0.32,-0.26 -0.59,-0.58 -0.82,-0.96 -0.22,-0.38 -0.42,-0.82 -0.58,-1.31 l 0.87,-0.36 c 0.15,-0.06 0.3,-0.1 0.46,-0.1 0.14,0 0.26,0.03 0.37,0.09 0.11,0.06 0.19,0.14 0.25,0.26 0.1,0.19 0.2,0.37 0.32,0.55 0.11,0.18 0.25,0.34 0.41,0.48 0.16,0.14 0.35,0.26 0.56,0.34 0.22,0.09 0.47,0.13 0.77,0.13 0.34,0 0.63,-0.05 0.88,-0.16 0.25,-0.11 0.46,-0.25 0.63,-0.43 0.17,-0.18 0.29,-0.37 0.38,-0.59 0.08,-0.22 0.12,-0.43 0.12,-0.65 0,-0.28 -0.03,-0.53 -0.09,-0.76 -0.06,-0.23 -0.18,-0.42 -0.37,-0.58 -0.19,-0.16 -0.46,-0.29 -0.8,-0.38 -0.35,-0.09 -0.82,-0.14 -1.4,-0.14 v -1.42 c 0.49,0 0.89,-0.04 1.21,-0.13 0.32,-0.09 0.57,-0.2 0.76,-0.36 0.19,-0.15 0.32,-0.33 0.4,-0.55 0.07,-0.21 0.11,-0.45 0.11,-0.7 0,-0.55 -0.15,-0.96 -0.45,-1.24 -0.3,-0.28 -0.71,-0.42 -1.22,-0.42 -0.47,0 -0.86,0.12 -1.17,0.37 -0.31,0.25 -0.53,0.57 -0.65,0.95 -0.06,0.2 -0.15,0.35 -0.26,0.44 -0.11,0.09 -0.26,0.13 -0.44,0.13 -0.09,0 -0.18,-0.01 -0.27,-0.02 l -1.04,-0.18 c 0.08,-0.56 0.23,-1.04 0.46,-1.46 0.23,-0.42 0.52,-0.77 0.86,-1.05 0.34,-0.28 0.74,-0.49 1.18,-0.63 0.44,-0.14 0.94,-0.2 1.46,-0.2 z"
   id="path15" />
		<path
   class="st1"
   d="m 81.87,155.34 c 0,1.01 -0.11,1.88 -0.32,2.63 -0.22,0.74 -0.52,1.36 -0.9,1.84 -0.38,0.49 -0.83,0.85 -1.35,1.08 -0.52,0.23 -1.08,0.36 -1.68,0.36 -0.6,0 -1.16,-0.12 -1.68,-0.36 -0.52,-0.24 -0.96,-0.6 -1.34,-1.08 -0.38,-0.49 -0.67,-1.1 -0.89,-1.84 -0.21,-0.74 -0.32,-1.62 -0.32,-2.63 0,-1.01 0.11,-1.89 0.32,-2.63 0.21,-0.74 0.51,-1.35 0.89,-1.84 0.38,-0.49 0.83,-0.85 1.34,-1.08 0.51,-0.24 1.07,-0.36 1.68,-0.36 0.61,0 1.16,0.12 1.68,0.36 0.52,0.24 0.97,0.6 1.35,1.08 0.38,0.49 0.68,1.1 0.9,1.84 0.21,0.74 0.32,1.62 0.32,2.63 z m -2.04,0 c 0,-0.84 -0.06,-1.53 -0.18,-2.08 -0.12,-0.55 -0.29,-0.99 -0.49,-1.31 -0.21,-0.33 -0.44,-0.55 -0.71,-0.68 -0.27,-0.13 -0.54,-0.2 -0.83,-0.2 -0.28,0 -0.56,0.07 -0.82,0.2 -0.26,0.13 -0.5,0.36 -0.7,0.68 -0.2,0.33 -0.36,0.76 -0.48,1.31 -0.12,0.55 -0.18,1.24 -0.18,2.08 0,0.84 0.06,1.53 0.18,2.08 0.12,0.55 0.28,0.99 0.48,1.31 0.2,0.33 0.44,0.55 0.7,0.68 0.26,0.13 0.54,0.2 0.82,0.2 0.29,0 0.57,-0.06 0.83,-0.2 0.26,-0.14 0.5,-0.36 0.71,-0.68 0.21,-0.33 0.37,-0.76 0.49,-1.31 0.11,-0.55 0.18,-1.24 0.18,-2.08 z"
   id="path16" />
	</g>
	<g
   id="g18">
		<path
   class="st1"
   d="m 68.58,167.47 h 1.66 v 10.66 h -1.66 z"
   id="path17" />
		<path
   class="st1"
   d="m 72.29,178.12 v -10.66 h 1.65 v 3.81 c 0.59,-0.69 1.31,-1.04 2.18,-1.04 0.99,0 1.79,0.36 2.38,1.09 0.59,0.71 0.88,1.67 0.88,2.88 0,1.21 -0.3,2.19 -0.91,2.94 -0.61,0.76 -1.39,1.14 -2.35,1.14 -0.98,0 -1.74,-0.4 -2.29,-1.2 v 1.04 z m 3.5,-1.15 c 1.26,0 1.89,-0.88 1.89,-2.66 0,-1.86 -0.63,-2.78 -1.89,-2.78 -1.28,0 -1.92,0.94 -1.92,2.82 0,1.75 0.64,2.62 1.92,2.62 z"
   id="path18" />
	</g>
</g>
<g
   id="g23"
   transform="translate(0,27.1)">
	<g
   id="g20">
		<path
   class="st1"
   d="m 145.03,156.47 c 0.4,0 0.77,0.06 1.1,0.18 0.33,0.12 0.62,0.29 0.85,0.5 0.24,0.22 0.42,0.48 0.55,0.78 0.13,0.3 0.2,0.64 0.2,1.01 0,0.32 -0.05,0.62 -0.14,0.89 -0.09,0.27 -0.22,0.53 -0.38,0.78 -0.16,0.25 -0.34,0.49 -0.56,0.72 -0.21,0.23 -0.43,0.47 -0.67,0.71 l -1.96,2 c 0.19,-0.06 0.38,-0.1 0.56,-0.13 0.18,-0.03 0.36,-0.04 0.53,-0.04 h 2.23 c 0.16,0 0.29,0.04 0.38,0.13 0.09,0.09 0.14,0.21 0.14,0.36 v 0.89 h -5.95 v -0.49 c 0,-0.1 0.02,-0.2 0.06,-0.31 0.04,-0.11 0.11,-0.21 0.2,-0.3 l 2.63,-2.64 c 0.22,-0.22 0.42,-0.44 0.59,-0.64 0.17,-0.2 0.32,-0.41 0.44,-0.61 0.12,-0.2 0.21,-0.4 0.27,-0.61 0.06,-0.21 0.09,-0.42 0.09,-0.65 0,-0.21 -0.03,-0.39 -0.09,-0.55 -0.06,-0.16 -0.15,-0.29 -0.26,-0.4 -0.11,-0.11 -0.24,-0.19 -0.4,-0.24 -0.15,-0.05 -0.33,-0.08 -0.52,-0.08 -0.36,0 -0.65,0.09 -0.88,0.27 -0.23,0.18 -0.39,0.42 -0.48,0.73 -0.04,0.15 -0.11,0.26 -0.2,0.33 -0.09,0.07 -0.2,0.1 -0.34,0.1 -0.06,0 -0.13,-0.01 -0.2,-0.02 L 142.04,159 c 0.06,-0.42 0.18,-0.78 0.35,-1.1 0.17,-0.32 0.39,-0.58 0.65,-0.79 0.26,-0.21 0.55,-0.37 0.89,-0.47 0.34,-0.1 0.72,-0.17 1.1,-0.17 z"
   id="path19" />
		<path
   class="st1"
   d="m 155.04,160.9 c 0,0.76 -0.08,1.41 -0.24,1.97 -0.16,0.56 -0.39,1.02 -0.67,1.38 -0.29,0.36 -0.62,0.63 -1.01,0.81 -0.39,0.18 -0.81,0.27 -1.26,0.27 -0.45,0 -0.87,-0.09 -1.26,-0.27 -0.39,-0.18 -0.72,-0.45 -1,-0.81 -0.28,-0.36 -0.51,-0.83 -0.67,-1.38 -0.16,-0.56 -0.24,-1.21 -0.24,-1.97 0,-0.76 0.08,-1.42 0.24,-1.97 0.16,-0.56 0.38,-1.02 0.67,-1.38 0.28,-0.36 0.62,-0.64 1,-0.81 0.39,-0.18 0.81,-0.27 1.26,-0.27 0.45,0 0.87,0.09 1.26,0.27 0.39,0.18 0.73,0.45 1.01,0.81 0.29,0.36 0.51,0.82 0.67,1.38 0.16,0.56 0.24,1.21 0.24,1.97 z m -1.53,0 c 0,-0.63 -0.05,-1.15 -0.14,-1.56 -0.09,-0.41 -0.22,-0.74 -0.37,-0.98 -0.15,-0.24 -0.33,-0.42 -0.53,-0.51 -0.2,-0.1 -0.41,-0.15 -0.62,-0.15 -0.21,0 -0.42,0.05 -0.61,0.15 -0.2,0.1 -0.37,0.27 -0.52,0.51 -0.15,0.24 -0.27,0.57 -0.36,0.98 -0.09,0.41 -0.13,0.93 -0.13,1.56 0,0.63 0.04,1.15 0.13,1.56 0.09,0.41 0.21,0.74 0.36,0.98 0.15,0.24 0.33,0.42 0.52,0.51 0.2,0.1 0.4,0.15 0.61,0.15 0.22,0 0.42,-0.05 0.62,-0.15 0.2,-0.1 0.38,-0.27 0.53,-0.51 0.15,-0.24 0.28,-0.57 0.37,-0.98 0.1,-0.41 0.14,-0.93 0.14,-1.56 z"
   id="path20" />
	</g>
	<g
   id="g22">
		<path
   class="st1"
   d="m 145.13,170.12 h 1.25 v 7.99 h -1.25 z"
   id="path21" />
		<path
   class="st1"
   d="m 147.91,178.11 v -7.99 h 1.24 v 2.86 c 0.44,-0.52 0.98,-0.78 1.63,-0.78 0.74,0 1.34,0.27 1.79,0.82 0.44,0.54 0.66,1.26 0.66,2.16 0,0.9 -0.23,1.64 -0.68,2.21 -0.46,0.57 -1.04,0.85 -1.76,0.85 -0.74,0 -1.31,-0.3 -1.72,-0.9 v 0.78 h -1.16 z m 2.63,-0.87 c 0.94,0 1.42,-0.66 1.42,-1.99 0,-1.39 -0.47,-2.09 -1.42,-2.09 -0.96,0 -1.44,0.7 -1.44,2.11 0,1.32 0.48,1.97 1.44,1.97 z"
   id="path22" />
	</g>
</g>
<g
   id="g25"
   transform="translate(0,27.1)">
	<path
   class="st1"
   d="m 296.72,93.75 c 0.38,0 0.75,0.06 1.12,0.19 0.37,0.13 0.68,0.32 0.96,0.57 0.27,0.25 0.5,0.57 0.66,0.95 0.17,0.38 0.25,0.82 0.25,1.32 0,0.47 -0.09,0.91 -0.26,1.33 -0.17,0.42 -0.42,0.77 -0.73,1.08 -0.31,0.31 -0.69,0.55 -1.13,0.73 -0.44,0.18 -0.93,0.27 -1.46,0.27 -0.54,0 -1.03,-0.09 -1.46,-0.26 -0.43,-0.17 -0.8,-0.41 -1.1,-0.72 -0.3,-0.31 -0.54,-0.68 -0.7,-1.12 -0.16,-0.44 -0.24,-0.92 -0.24,-1.45 0,-0.48 0.1,-0.96 0.29,-1.47 0.19,-0.5 0.49,-1.02 0.9,-1.56 l 2.42,-3.24 c 0.08,-0.11 0.21,-0.21 0.37,-0.29 0.16,-0.08 0.35,-0.12 0.56,-0.12 h 1.54 l -3,3.68 c -0.07,0.08 -0.13,0.15 -0.19,0.22 -0.06,0.07 -0.12,0.14 -0.17,0.22 0.2,-0.1 0.41,-0.18 0.63,-0.23 0.23,-0.07 0.47,-0.1 0.74,-0.1 z m -2.42,3.15 c 0,0.28 0.04,0.54 0.12,0.77 0.08,0.23 0.19,0.43 0.34,0.59 0.15,0.16 0.34,0.29 0.56,0.38 0.22,0.09 0.48,0.14 0.78,0.14 0.28,0 0.53,-0.05 0.76,-0.14 0.23,-0.09 0.43,-0.22 0.59,-0.39 0.17,-0.17 0.29,-0.37 0.39,-0.59 0.09,-0.23 0.14,-0.47 0.14,-0.74 0,-0.29 -0.04,-0.55 -0.13,-0.78 -0.09,-0.23 -0.21,-0.43 -0.38,-0.59 -0.16,-0.16 -0.36,-0.28 -0.59,-0.37 -0.23,-0.08 -0.48,-0.13 -0.76,-0.13 -0.28,0 -0.53,0.05 -0.75,0.14 -0.22,0.09 -0.42,0.22 -0.58,0.39 -0.16,0.17 -0.28,0.36 -0.37,0.59 -0.08,0.22 -0.12,0.47 -0.12,0.73 z"
   id="path23" />
	<path
   class="st1"
   d="m 306.62,93.33 v 1.12 l -1.33,0.01 v 5.61 h -1.44 v -5.61 h -0.99 v -1.13 h 0.99 V 92.7 c 0,-0.62 0.09,-1.06 0.27,-1.34 0.32,-0.51 0.89,-0.77 1.71,-0.77 0.35,0 0.78,0.06 1.27,0.17 l -0.21,1.12 c -0.28,-0.05 -0.54,-0.07 -0.78,-0.07 -0.54,0 -0.81,0.32 -0.81,0.97 v 0.56 h 1.32 z"
   id="path24" />
	<path
   class="st1"
   d="m 309.05,93.31 h 1.19 v 1.13 h -1.18 v 3.36 c -0.01,0.49 0.02,0.8 0.08,0.94 0.06,0.14 0.21,0.21 0.43,0.21 0.19,0 0.4,-0.04 0.64,-0.13 l 0.17,1.19 c -0.35,0.11 -0.7,0.17 -1.06,0.17 -0.79,0 -1.29,-0.21 -1.5,-0.62 -0.15,-0.3 -0.22,-0.85 -0.22,-1.67 v -3.44 h -0.83 v -1.13 h 0.83 V 91.8 l 1.44,-0.85 v 2.36 z"
   id="path25" />
</g>
<g
   id="g28"
   transform="translate(0,27.1)">
	<path
   class="st1"
   d="m 143.83,86.19 c 0.38,0 0.75,0.06 1.12,0.19 0.36,0.13 0.68,0.32 0.96,0.57 0.27,0.25 0.5,0.57 0.66,0.95 0.17,0.38 0.25,0.82 0.25,1.32 0,0.47 -0.09,0.91 -0.26,1.33 -0.17,0.42 -0.42,0.77 -0.73,1.08 -0.31,0.31 -0.69,0.55 -1.13,0.73 -0.44,0.18 -0.93,0.27 -1.46,0.27 -0.54,0 -1.03,-0.09 -1.46,-0.26 -0.43,-0.17 -0.8,-0.41 -1.1,-0.72 -0.3,-0.31 -0.54,-0.68 -0.7,-1.12 -0.16,-0.44 -0.24,-0.92 -0.24,-1.45 0,-0.48 0.1,-0.96 0.29,-1.47 0.19,-0.5 0.49,-1.02 0.9,-1.56 l 2.42,-3.24 c 0.08,-0.11 0.21,-0.21 0.37,-0.29 0.16,-0.08 0.35,-0.12 0.56,-0.12 h 1.54 l -3,3.67 c -0.07,0.08 -0.13,0.15 -0.19,0.22 -0.06,0.07 -0.12,0.14 -0.17,0.22 0.2,-0.1 0.41,-0.18 0.63,-0.23 0.23,-0.07 0.47,-0.09 0.74,-0.09 z m -2.42,3.14 c 0,0.28 0.04,0.54 0.12,0.77 0.08,0.23 0.19,0.43 0.34,0.59 0.15,0.16 0.34,0.29 0.56,0.38 0.22,0.09 0.48,0.14 0.78,0.14 0.28,0 0.53,-0.05 0.76,-0.14 0.23,-0.09 0.43,-0.22 0.59,-0.39 0.16,-0.17 0.3,-0.37 0.39,-0.59 0.09,-0.22 0.14,-0.47 0.14,-0.74 0,-0.29 -0.04,-0.55 -0.13,-0.78 -0.09,-0.23 -0.21,-0.43 -0.38,-0.59 -0.16,-0.16 -0.36,-0.28 -0.59,-0.37 -0.23,-0.08 -0.48,-0.13 -0.76,-0.13 -0.28,0 -0.53,0.05 -0.75,0.14 -0.22,0.09 -0.42,0.22 -0.58,0.39 -0.16,0.17 -0.28,0.36 -0.37,0.59 -0.08,0.22 -0.12,0.47 -0.12,0.73 z"
   id="path26" />
	<path
   class="st1"
   d="m 153.73,85.76 v 1.12 l -1.33,0.01 v 5.61 h -1.44 v -5.61 h -0.99 v -1.13 h 0.99 v -0.63 c 0,-0.62 0.09,-1.06 0.27,-1.34 0.32,-0.51 0.89,-0.77 1.71,-0.77 0.35,0 0.78,0.06 1.27,0.17 L 154,84.31 c -0.28,-0.05 -0.54,-0.07 -0.78,-0.07 -0.54,0 -0.81,0.32 -0.81,0.97 v 0.56 h 1.32 z"
   id="path27" />
	<path
   class="st1"
   d="m 156.16,85.74 h 1.19 v 1.13 h -1.18 v 3.36 c -0.01,0.49 0.02,0.8 0.08,0.94 0.06,0.14 0.21,0.21 0.43,0.21 0.19,0 0.4,-0.04 0.64,-0.13 l 0.17,1.19 c -0.35,0.11 -0.7,0.17 -1.06,0.17 -0.79,0 -1.29,-0.21 -1.5,-0.62 -0.15,-0.3 -0.22,-0.85 -0.22,-1.67 v -3.44 h -0.83 v -1.13 h 0.83 v -1.53 l 1.44,-0.85 v 2.37 z"
   id="path28" />
</g>
<g
   id="g31"
   transform="translate(0,27.1)">
	<path
   class="st1"
   d="m 181.7,118.18 c 0.47,0 0.89,0.07 1.26,0.2 0.38,0.13 0.7,0.32 0.96,0.55 0.26,0.23 0.47,0.51 0.61,0.83 0.14,0.32 0.21,0.66 0.21,1.03 0,0.32 -0.04,0.61 -0.11,0.85 -0.07,0.24 -0.18,0.46 -0.31,0.64 -0.14,0.18 -0.31,0.34 -0.5,0.46 -0.19,0.12 -0.42,0.23 -0.68,0.31 0.61,0.19 1.06,0.48 1.36,0.88 0.3,0.39 0.45,0.88 0.45,1.48 0,0.5 -0.09,0.95 -0.28,1.34 -0.19,0.39 -0.44,0.71 -0.76,0.98 -0.32,0.26 -0.69,0.46 -1.1,0.6 -0.42,0.14 -0.86,0.2 -1.33,0.2 -0.51,0 -0.95,-0.06 -1.33,-0.17 -0.38,-0.11 -0.71,-0.29 -0.99,-0.52 -0.28,-0.23 -0.52,-0.51 -0.71,-0.84 -0.2,-0.33 -0.36,-0.71 -0.5,-1.15 l 0.76,-0.31 c 0.13,-0.06 0.26,-0.08 0.4,-0.08 0.12,0 0.23,0.03 0.33,0.08 0.1,0.05 0.17,0.13 0.22,0.22 0.08,0.16 0.18,0.32 0.28,0.48 0.1,0.16 0.22,0.3 0.36,0.42 0.14,0.12 0.3,0.22 0.49,0.3 0.19,0.08 0.41,0.12 0.68,0.12 0.29,0 0.55,-0.05 0.77,-0.14 0.22,-0.09 0.4,-0.22 0.55,-0.37 0.15,-0.15 0.26,-0.33 0.33,-0.51 0.07,-0.18 0.11,-0.38 0.11,-0.57 0,-0.24 -0.03,-0.46 -0.08,-0.66 -0.05,-0.2 -0.16,-0.37 -0.32,-0.51 -0.16,-0.14 -0.4,-0.25 -0.7,-0.33 -0.31,-0.08 -0.71,-0.12 -1.23,-0.12 v -1.24 c 0.42,0 0.78,-0.04 1.06,-0.11 0.28,-0.07 0.5,-0.18 0.67,-0.31 0.17,-0.13 0.28,-0.29 0.35,-0.48 0.07,-0.19 0.1,-0.39 0.1,-0.62 0,-0.48 -0.13,-0.84 -0.39,-1.09 -0.26,-0.24 -0.62,-0.37 -1.07,-0.37 -0.41,0 -0.75,0.11 -1.02,0.33 -0.27,0.22 -0.46,0.5 -0.57,0.84 -0.06,0.18 -0.13,0.3 -0.23,0.38 -0.1,0.08 -0.23,0.12 -0.39,0.12 -0.07,0 -0.15,-0.01 -0.24,-0.02 l -0.91,-0.16 c 0.07,-0.49 0.21,-0.91 0.41,-1.28 0.2,-0.37 0.45,-0.67 0.75,-0.92 0.3,-0.25 0.65,-0.43 1.04,-0.55 0.39,-0.12 0.79,-0.21 1.24,-0.21 z"
   id="path29" />
	<path
   class="st1"
   d="m 191.91,121.66 v 1.12 l -1.33,0.01 v 5.61 h -1.44 v -5.61 h -0.99 v -1.13 h 0.99 v -0.63 c 0,-0.62 0.09,-1.06 0.27,-1.34 0.32,-0.51 0.89,-0.77 1.71,-0.77 0.35,0 0.78,0.06 1.27,0.17 l -0.21,1.12 c -0.28,-0.05 -0.54,-0.07 -0.78,-0.07 -0.54,0 -0.81,0.32 -0.81,0.97 v 0.56 h 1.32 z"
   id="path30" />
	<path
   class="st1"
   d="m 194.35,121.65 h 1.19 v 1.13 h -1.18 v 3.36 c -0.01,0.49 0.02,0.8 0.08,0.94 0.06,0.14 0.21,0.21 0.43,0.21 0.19,0 0.4,-0.04 0.64,-0.13 l 0.17,1.19 c -0.35,0.11 -0.7,0.17 -1.06,0.17 -0.79,0 -1.29,-0.21 -1.5,-0.62 -0.15,-0.3 -0.22,-0.85 -0.22,-1.67 v -3.44 h -0.83 v -1.13 h 0.83 v -1.53 l 1.44,-0.85 v 2.37 z"
   id="path31" />
</g>
<text
   xml:space="preserve"
   style="font-style:italic;font-size:14px;font-family:'Times New Roman';-inkscape-font-specification:'Times New Roman,  Italic';text-align:start;writing-mode:lr-tb;direction:ltr;text-anchor:start;fill:#1a1a1a;stroke:#000000;stroke-width:0.315"
   x="165.97997"
   y="297.83234"
   id="text31"><tspan
     sodipodi:role="line"
     id="tspan31"
     x="165.97997"
     y="297.83234"
     style="stroke-width:0.315">The lever is balanced. </tspan></text></svg>
