<?xml version="1.0" encoding="utf-8"?>
<!-- Generator: Adobe Illustrator 27.3.1, SVG Export Plug-In . SVG Version: 6.00 Build 0)  -->
<svg version="1.1" id="Layer_1" xmlns="http://www.w3.org/2000/svg" xmlns:xlink="http://www.w3.org/1999/xlink" x="0px" y="0px"
	 viewBox="0 0 120 120" style="enable-background:new 0 0 120 120;" xml:space="preserve">
<style type="text/css">
	.st0{display:none;}
	.st1{fill:#1D191A;}
	.st2{fill:none;}
</style>
<g>
	<path class="st1" d="M69.2,46.1c0,0.8-0.25,1.44-0.75,1.94c-0.5,0.5-1.34,0.74-2.51,0.74h-8.96l-1.17,6.79
		c1.47-0.3,2.81-0.45,4.03-0.45c1.71,0,3.21,0.26,4.51,0.77c1.3,0.51,2.39,1.21,3.27,2.12c0.88,0.9,1.55,1.95,2,3.16
		c0.45,1.21,0.67,2.51,0.67,3.9c0,1.73-0.3,3.3-0.91,4.72c-0.61,1.43-1.45,2.64-2.53,3.66c-1.08,1.01-2.36,1.8-3.84,2.35
		s-3.09,0.83-4.83,0.83c-1.02,0-1.99-0.11-2.9-0.32c-0.92-0.21-1.77-0.49-2.58-0.84c-0.8-0.35-1.55-0.76-2.23-1.21
		c-0.68-0.46-1.29-0.94-1.83-1.45l1.71-2.36c0.36-0.51,0.84-0.77,1.44-0.77c0.38,0,0.75,0.12,1.14,0.36
		c0.38,0.24,0.83,0.5,1.34,0.79c0.51,0.29,1.1,0.55,1.78,0.79c0.68,0.24,1.49,0.36,2.45,0.36c1.02,0,1.92-0.16,2.7-0.5
		c0.78-0.33,1.43-0.79,1.95-1.38c0.52-0.59,0.91-1.3,1.17-2.12c0.26-0.82,0.39-1.71,0.39-2.67c0-1.77-0.51-3.15-1.54-4.15
		c-1.03-1-2.54-1.5-4.53-1.5c-1.58,0-3.16,0.29-4.75,0.86l-3.47-0.99l2.7-15.79H69.2V46.1z"/>
</g>
<g>
	<path class="st1" d="M107,13v94H13V13H107 M110,10H10v100h100V10L110,10z"/>
</g>
<rect x="58.12" y="58.6" class="st2" width="2.65" height="0"/>
</svg>
