<?xml version="1.0" encoding="utf-8"?>
<!-- Generator: Adobe Illustrator 27.3.1, SVG Export Plug-In . SVG Version: 6.00 Build 0)  -->
<svg version="1.1" id="Layer_1" xmlns="http://www.w3.org/2000/svg" xmlns:xlink="http://www.w3.org/1999/xlink" x="0px" y="0px"
	 viewBox="0 0 120 120" style="enable-background:new 0 0 120 120;" xml:space="preserve">
<style type="text/css">
	.st0{display:none;}
	.st1{fill:#1D191A;}
	.st2{fill:none;stroke:#1D191A;stroke-width:3;stroke-miterlimit:10;}
	.st3{fill:none;stroke:#1D191A;stroke-width:2;stroke-miterlimit:10;}
	.st4{fill:none;}
</style>
<g>
	<path class="st1" d="M47.96,43.38c1.5,0,2.85,0.21,4.06,0.64s2.24,1.02,3.09,1.78c0.85,0.76,1.51,1.65,1.97,2.67
		c0.46,1.02,0.69,2.12,0.69,3.31c0,1.04-0.12,1.95-0.35,2.73c-0.23,0.79-0.57,1.47-1.01,2.06s-0.98,1.08-1.62,1.49
		c-0.64,0.4-1.36,0.74-2.17,1.01c1.95,0.62,3.4,1.55,4.36,2.81c0.96,1.26,1.44,2.84,1.44,4.75c0,1.62-0.3,3.05-0.9,4.3
		c-0.6,1.25-1.41,2.29-2.43,3.14s-2.2,1.49-3.54,1.92c-1.34,0.44-2.76,0.65-4.26,0.65c-1.64,0-3.06-0.19-4.28-0.56
		c-1.21-0.38-2.27-0.93-3.17-1.67c-0.9-0.74-1.67-1.63-2.29-2.7s-1.17-2.29-1.62-3.69L38.38,67c0.42-0.18,0.85-0.27,1.28-0.27
		c0.39,0,0.74,0.08,1.05,0.25c0.31,0.17,0.54,0.41,0.71,0.72c0.27,0.53,0.57,1.04,0.89,1.55c0.32,0.51,0.71,0.96,1.16,1.36
		c0.45,0.4,0.98,0.72,1.59,0.97c0.61,0.25,1.33,0.37,2.17,0.37c0.95,0,1.77-0.15,2.48-0.46s1.29-0.71,1.77-1.2
		c0.47-0.5,0.83-1.05,1.06-1.65s0.35-1.22,0.35-1.83c0-0.78-0.08-1.49-0.25-2.13c-0.17-0.64-0.51-1.18-1.04-1.63
		c-0.53-0.45-1.28-0.8-2.26-1.06c-0.98-0.25-2.3-0.38-3.95-0.38v-3.98c1.36,0,2.5-0.12,3.4-0.36c0.9-0.24,1.62-0.57,2.15-1
		c0.53-0.43,0.9-0.94,1.11-1.54s0.32-1.26,0.32-1.98c0-1.54-0.42-2.71-1.26-3.5c-0.84-0.79-1.99-1.18-3.44-1.18
		c-1.32,0-2.42,0.35-3.29,1.04c-0.87,0.7-1.48,1.59-1.82,2.69c-0.18,0.57-0.43,0.98-0.74,1.22s-0.73,0.37-1.24,0.37
		c-0.24,0-0.5-0.02-0.77-0.07l-2.92-0.51c0.22-1.56,0.66-2.93,1.3-4.11s1.45-2.16,2.42-2.95c0.97-0.79,2.08-1.38,3.33-1.78
		C45.18,43.57,46.52,43.38,47.96,43.38z"/>
	<path class="st1" d="M75.08,55.95c1.23,0,2.43,0.2,3.59,0.61c1.16,0.41,2.19,1.02,3.07,1.83c0.88,0.82,1.6,1.83,2.14,3.05
		c0.54,1.21,0.81,2.63,0.81,4.25c0,1.52-0.28,2.94-0.83,4.26c-0.56,1.33-1.34,2.49-2.34,3.48s-2.22,1.77-3.63,2.34
		c-1.42,0.57-2.98,0.86-4.69,0.86c-1.74,0-3.3-0.28-4.68-0.83s-2.56-1.33-3.53-2.33c-0.98-1-1.72-2.2-2.24-3.6
		c-0.52-1.4-0.78-2.96-0.78-4.67c0-1.53,0.31-3.1,0.93-4.71c0.62-1.61,1.59-3.29,2.89-5.03l7.76-10.42
		c0.27-0.36,0.66-0.67,1.18-0.92s1.11-0.38,1.79-0.38h4.95l-9.65,11.81c-0.21,0.26-0.41,0.5-0.6,0.72c-0.19,0.23-0.37,0.46-0.55,0.7
		c0.63-0.32,1.31-0.56,2.04-0.74C73.43,56.04,74.22,55.95,75.08,55.95z M67.29,66.06c0,0.9,0.12,1.72,0.37,2.46
		c0.25,0.74,0.62,1.38,1.1,1.9c0.49,0.52,1.09,0.93,1.81,1.23c0.72,0.29,1.55,0.44,2.5,0.44c0.89,0,1.7-0.15,2.44-0.45
		c0.74-0.3,1.38-0.72,1.91-1.26c0.53-0.54,0.95-1.17,1.25-1.9c0.3-0.73,0.45-1.52,0.45-2.37c0-0.93-0.14-1.77-0.43-2.51
		c-0.28-0.74-0.69-1.37-1.21-1.89s-1.16-0.91-1.89-1.18c-0.74-0.27-1.54-0.41-2.43-0.41c-0.89,0-1.69,0.15-2.41,0.45
		c-0.72,0.3-1.34,0.72-1.86,1.25c-0.52,0.53-0.92,1.16-1.19,1.89C67.43,64.43,67.29,65.22,67.29,66.06z"/>
</g>
<g>
	<path class="st1" d="M107,12.93v94H13v-94H107 M110,9.93H10v100h100V9.93L110,9.93z"/>
</g>
<rect x="58.12" y="58.52" class="st4" width="2.65" height="0"/>
</svg>
