<?xml version="1.0" encoding="utf-8"?>
<!-- Generator: Adobe Illustrator 27.3.1, SVG Export Plug-In . SVG Version: 6.00 Build 0)  -->
<svg version="1.1" id="Layer_1" xmlns="http://www.w3.org/2000/svg" xmlns:xlink="http://www.w3.org/1999/xlink" x="0px" y="0px"
	 viewBox="0 0 120 120" style="enable-background:new 0 0 120 120;" xml:space="preserve">
<style type="text/css">
	.st0{display:none;}
	.st1{fill:#1D191A;}
	.st2{fill:none;stroke:#1D191A;stroke-width:3;stroke-miterlimit:10;}
	.st3{fill:none;stroke:#1D191A;stroke-width:2;stroke-miterlimit:10;}
	.st4{fill:none;}
</style>
<g>
	<path class="st1" d="M55.1,64.01h4.09v3.22c0,0.3-0.1,0.56-0.29,0.78c-0.2,0.22-0.48,0.33-0.86,0.33H55.1v7.94h-4.86v-7.94H36.51
		c-0.38,0-0.71-0.12-0.99-0.35c-0.29-0.23-0.47-0.52-0.54-0.87l-0.56-2.81l15.41-20.59h5.27V64.01z M50.24,53.36
		c0-0.48,0.01-1,0.04-1.55c0.03-0.56,0.08-1.13,0.16-1.73l-10.1,13.93h9.9V53.36z"/>
	<path class="st1" d="M73.05,76.63c-1.68,0-3.21-0.23-4.6-0.68c-1.39-0.45-2.58-1.09-3.57-1.91s-1.76-1.82-2.31-2.99
		c-0.55-1.17-0.82-2.48-0.82-3.92c0-1.92,0.47-3.54,1.42-4.87c0.95-1.33,2.42-2.31,4.41-2.96c-1.59-0.66-2.78-1.6-3.57-2.81
		c-0.79-1.21-1.18-2.68-1.18-4.39c0-1.23,0.25-2.38,0.75-3.44s1.2-1.99,2.1-2.78c0.9-0.79,1.98-1.4,3.23-1.84
		c1.25-0.44,2.63-0.66,4.13-0.66s2.88,0.22,4.13,0.66s2.33,1.06,3.23,1.84c0.9,0.79,1.6,1.71,2.1,2.78c0.5,1.07,0.75,2.21,0.75,3.44
		c0,1.71-0.4,3.17-1.19,4.39s-1.98,2.15-3.55,2.81c1.99,0.64,3.46,1.63,4.41,2.96c0.95,1.33,1.42,2.95,1.42,4.87
		c0,1.44-0.27,2.75-0.82,3.92c-0.55,1.17-1.32,2.17-2.31,2.99c-0.99,0.83-2.18,1.46-3.57,1.91C76.26,76.4,74.73,76.63,73.05,76.63z
		 M73.05,72.29c0.92,0,1.72-0.13,2.41-0.39c0.69-0.26,1.27-0.63,1.74-1.09c0.47-0.46,0.83-1.02,1.07-1.67
		c0.24-0.64,0.36-1.34,0.36-2.09c0-1.79-0.5-3.14-1.49-4.05c-0.99-0.91-2.35-1.37-4.09-1.37s-3.1,0.46-4.09,1.37
		c-0.99,0.92-1.48,2.27-1.48,4.05c0,0.75,0.12,1.45,0.36,2.09c0.24,0.65,0.6,1.2,1.07,1.67c0.47,0.47,1.05,0.83,1.74,1.09
		C71.33,72.16,72.13,72.29,73.05,72.29z M73.05,57.26c0.9,0,1.66-0.14,2.27-0.43c0.62-0.28,1.11-0.66,1.49-1.14
		c0.37-0.47,0.64-1.01,0.8-1.62s0.24-1.23,0.24-1.88c0-0.61-0.1-1.2-0.29-1.75c-0.19-0.55-0.49-1.05-0.88-1.47
		c-0.39-0.43-0.88-0.77-1.48-1.02s-1.31-0.38-2.14-0.38s-1.54,0.13-2.14,0.38s-1.1,0.6-1.5,1.02s-0.69,0.92-0.88,1.47
		c-0.19,0.56-0.28,1.14-0.28,1.75c0,0.65,0.08,1.27,0.24,1.88c0.16,0.61,0.42,1.15,0.8,1.62s0.87,0.85,1.48,1.14
		C71.39,57.11,72.15,57.26,73.05,57.26z"/>
</g>
<g>
	<path class="st1" d="M107,12.93v94H13v-94H107 M110,9.93H10v100h100V9.93L110,9.93z"/>
</g>
<rect x="58.12" y="58.52" class="st4" width="2.65" height="0"/>
</svg>
