<?xml version="1.0" encoding="utf-8"?>
<!-- Generator: Adobe Illustrator 27.3.1, SVG Export Plug-In . SVG Version: 6.00 Build 0)  -->
<svg version="1.1" id="Layer_1" xmlns="http://www.w3.org/2000/svg" xmlns:xlink="http://www.w3.org/1999/xlink" x="0px" y="0px"
	 viewBox="0 0 120 120" style="enable-background:new 0 0 120 120;" xml:space="preserve">
<style type="text/css">
	.st0{display:none;}
	.st1{fill:#1D191A;}
	.st2{fill:none;stroke:#1D191A;stroke-width:9;stroke-miterlimit:10;}
	.st3{fill:#FFFFFF;stroke:#1D191A;stroke-width:2.3;stroke-miterlimit:10;}
	.st4{fill:#A5A5A5;}
	.st5{fill:#FFFFFF;stroke:#1D191A;stroke-width:2;stroke-miterlimit:10;}
	.st6{fill:none;stroke:#1D191A;stroke-width:0.8;stroke-miterlimit:10;}
	.st7{fill:#FFFFFF;stroke:#1D191A;stroke-width:3;stroke-miterlimit:10;}
</style>
<g>
	<path class="st1" d="M27.2,56.05c1.23,0,2.43,0.2,3.59,0.61s2.19,1.02,3.07,1.83s1.6,1.83,2.14,3.05c0.54,1.21,0.81,2.63,0.81,4.25
		c0,1.52-0.28,2.94-0.83,4.26c-0.56,1.33-1.34,2.49-2.34,3.48S31.42,75.3,30,75.87c-1.42,0.57-2.98,0.86-4.69,0.86
		c-1.74,0-3.3-0.28-4.68-0.83s-2.56-1.33-3.53-2.33c-0.98-1-1.72-2.2-2.24-3.6c-0.52-1.4-0.78-2.96-0.78-4.67
		c0-1.53,0.31-3.1,0.93-4.71c0.62-1.61,1.59-3.29,2.89-5.03l7.76-10.42c0.27-0.36,0.66-0.67,1.18-0.92
		c0.52-0.25,1.11-0.38,1.79-0.38h4.95l-9.65,11.81c-0.21,0.26-0.41,0.5-0.6,0.72c-0.19,0.23-0.37,0.46-0.55,0.7
		c0.63-0.32,1.31-0.56,2.04-0.74C25.55,56.14,26.34,56.05,27.2,56.05z M19.41,66.15c0,0.9,0.12,1.72,0.37,2.46
		c0.25,0.74,0.62,1.38,1.1,1.9c0.49,0.52,1.09,0.93,1.81,1.23c0.72,0.29,1.55,0.44,2.5,0.44c0.89,0,1.7-0.15,2.44-0.45
		c0.74-0.3,1.38-0.72,1.91-1.26c0.53-0.54,0.95-1.17,1.25-1.9c0.3-0.73,0.45-1.52,0.45-2.37c0-0.93-0.14-1.77-0.43-2.51
		c-0.28-0.74-0.69-1.37-1.21-1.89c-0.53-0.52-1.16-0.91-1.89-1.18s-1.54-0.41-2.43-0.41c-0.89,0-1.69,0.15-2.41,0.45
		c-0.72,0.3-1.34,0.72-1.86,1.25c-0.52,0.53-0.92,1.16-1.19,1.89C19.55,64.53,19.41,65.31,19.41,66.15z"/>
	<path class="st1" d="M63.2,60.1c0,2.83-0.3,5.3-0.91,7.39c-0.61,2.09-1.45,3.82-2.52,5.19c-1.07,1.37-2.34,2.38-3.8,3.05
		c-1.46,0.67-3.04,1-4.74,1c-1.7,0-3.27-0.33-4.71-1c-1.45-0.67-2.7-1.68-3.77-3.05c-1.07-1.36-1.9-3.09-2.5-5.19
		c-0.6-2.09-0.9-4.56-0.9-7.39c0-2.85,0.3-5.32,0.9-7.4s1.43-3.81,2.5-5.17c1.06-1.37,2.32-2.38,3.77-3.05c1.45-0.67,3.02-1,4.71-1
		c1.69,0,3.27,0.33,4.74,1s2.73,1.68,3.8,3.05c1.07,1.37,1.91,3.09,2.52,5.17C62.89,54.78,63.2,57.25,63.2,60.1z M57.46,60.1
		c0-2.35-0.17-4.3-0.52-5.85c-0.35-1.54-0.81-2.78-1.38-3.69c-0.58-0.92-1.24-1.56-1.99-1.92c-0.75-0.37-1.53-0.55-2.34-0.55
		c-0.79,0-1.56,0.18-2.31,0.55c-0.74,0.37-1.4,1.01-1.97,1.92c-0.57,0.92-1.02,2.15-1.36,3.69s-0.51,3.5-0.51,5.85
		c0,2.36,0.17,4.31,0.51,5.85c0.34,1.55,0.79,2.78,1.36,3.69c0.57,0.92,1.23,1.56,1.97,1.92c0.74,0.37,1.51,0.55,2.31,0.55
		c0.81,0,1.59-0.18,2.34-0.55c0.75-0.37,1.41-1.01,1.99-1.92c0.58-0.92,1.04-2.14,1.38-3.69C57.29,64.41,57.46,62.46,57.46,60.1z"/>
	<path class="st1" d="M73,46.4h4.68v29.97H73V46.4z"/>
	<path class="st1" d="M83.44,76.37V46.4h4.63v10.71c1.65-1.95,3.69-2.92,6.12-2.92c2.79,0,5.02,1.02,6.71,3.06
		c1.65,2.01,2.48,4.71,2.48,8.1c0,3.39-0.85,6.15-2.56,8.28c-1.71,2.13-3.92,3.2-6.62,3.2c-2.76,0-4.9-1.12-6.44-3.38v2.92H83.44z
		 M93.3,73.13c3.54,0,5.31-2.49,5.31-7.47c0-5.22-1.77-7.83-5.31-7.83c-3.6,0-5.4,2.64-5.4,7.92C87.9,70.67,89.7,73.13,93.3,73.13z"
		/>
</g>
</svg>
