<?xml version="1.0" encoding="utf-8"?>
<!-- Generator: Adobe Illustrator 27.3.1, SVG Export Plug-In . SVG Version: 6.00 Build 0)  -->
<svg version="1.1" id="Layer_1" xmlns="http://www.w3.org/2000/svg" xmlns:xlink="http://www.w3.org/1999/xlink" x="0px" y="0px"
	 viewBox="0 0 120 120" style="enable-background:new 0 0 120 120;" xml:space="preserve">
<style type="text/css">
	.st0{display:none;}
	.st1{fill:#1D191A;}
	.st2{fill:none;stroke:#1D191A;stroke-width:9;stroke-miterlimit:10;}
	.st3{fill:#FFFFFF;stroke:#1D191A;stroke-width:2.3;stroke-miterlimit:10;}
	.st4{fill:#A5A5A5;}
	.st5{fill:#FFFFFF;stroke:#1D191A;stroke-width:2;stroke-miterlimit:10;}
	.st6{fill:none;stroke:#1D191A;stroke-width:0.8;stroke-miterlimit:10;}
	.st7{fill:#FFFFFF;stroke:#1D191A;stroke-width:3;stroke-miterlimit:10;}
</style>
<g>
	<path class="st1" d="M25.17,76.73c-1.68,0-3.21-0.23-4.6-0.68c-1.39-0.45-2.58-1.09-3.57-1.91s-1.76-1.82-2.31-2.99
		c-0.55-1.17-0.82-2.48-0.82-3.92c0-1.92,0.47-3.54,1.42-4.87c0.95-1.33,2.42-2.31,4.41-2.96c-1.59-0.66-2.78-1.6-3.57-2.81
		c-0.79-1.21-1.18-2.68-1.18-4.39c0-1.23,0.25-2.38,0.75-3.44s1.2-1.99,2.1-2.78c0.9-0.79,1.98-1.4,3.23-1.84
		c1.25-0.44,2.63-0.66,4.13-0.66s2.88,0.22,4.13,0.66s2.33,1.06,3.23,1.84c0.9,0.79,1.6,1.71,2.1,2.78c0.5,1.07,0.75,2.21,0.75,3.44
		c0,1.71-0.4,3.17-1.19,4.39s-1.98,2.15-3.55,2.81c1.99,0.64,3.46,1.63,4.41,2.96c0.95,1.33,1.42,2.95,1.42,4.87
		c0,1.44-0.27,2.75-0.82,3.92c-0.55,1.17-1.32,2.17-2.31,2.99c-0.99,0.83-2.18,1.46-3.57,1.91C28.38,76.5,26.85,76.73,25.17,76.73z
		 M25.17,72.39c0.92,0,1.72-0.13,2.41-0.39c0.69-0.26,1.27-0.63,1.74-1.09c0.47-0.46,0.83-1.02,1.07-1.67
		c0.24-0.64,0.36-1.34,0.36-2.09c0-1.79-0.5-3.14-1.49-4.05c-0.99-0.91-2.35-1.37-4.09-1.37s-3.1,0.46-4.09,1.37
		c-0.99,0.92-1.48,2.27-1.48,4.05c0,0.75,0.12,1.45,0.36,2.09c0.24,0.65,0.6,1.2,1.07,1.67c0.47,0.47,1.05,0.83,1.74,1.09
		C23.45,72.26,24.26,72.39,25.17,72.39z M25.17,57.36c0.9,0,1.66-0.14,2.27-0.43c0.62-0.28,1.11-0.66,1.49-1.14
		c0.37-0.47,0.64-1.01,0.8-1.62s0.24-1.23,0.24-1.88c0-0.61-0.1-1.2-0.29-1.75c-0.19-0.55-0.49-1.05-0.88-1.47
		c-0.39-0.43-0.88-0.77-1.48-1.02s-1.31-0.38-2.14-0.38s-1.54,0.13-2.14,0.38s-1.1,0.6-1.5,1.02s-0.69,0.92-0.88,1.47
		c-0.19,0.56-0.28,1.14-0.28,1.75c0,0.65,0.08,1.27,0.24,1.88c0.16,0.61,0.42,1.15,0.8,1.62s0.87,0.85,1.48,1.14
		C23.51,57.21,24.27,57.36,25.17,57.36z"/>
	<path class="st1" d="M63.2,60.1c0,2.83-0.3,5.3-0.91,7.39c-0.61,2.09-1.45,3.82-2.52,5.19c-1.07,1.37-2.34,2.38-3.8,3.05
		c-1.46,0.67-3.04,1-4.74,1c-1.7,0-3.27-0.33-4.71-1c-1.45-0.67-2.7-1.68-3.77-3.05c-1.07-1.36-1.9-3.09-2.5-5.19
		c-0.6-2.09-0.9-4.56-0.9-7.39c0-2.85,0.3-5.32,0.9-7.4c0.6-2.08,1.43-3.81,2.5-5.17s2.32-2.38,3.77-3.05s3.02-1,4.71-1
		c1.69,0,3.27,0.33,4.74,1s2.73,1.68,3.8,3.05c1.07,1.37,1.91,3.09,2.52,5.17C62.89,54.78,63.2,57.25,63.2,60.1z M57.46,60.1
		c0-2.35-0.17-4.3-0.52-5.85c-0.35-1.54-0.81-2.78-1.38-3.69c-0.58-0.92-1.24-1.56-1.99-1.92c-0.75-0.37-1.53-0.55-2.34-0.55
		c-0.79,0-1.56,0.18-2.31,0.55c-0.74,0.37-1.4,1.01-1.97,1.92c-0.57,0.92-1.02,2.15-1.36,3.69c-0.34,1.54-0.51,3.5-0.51,5.85
		c0,2.36,0.17,4.31,0.51,5.85c0.34,1.55,0.79,2.78,1.36,3.69c0.57,0.92,1.23,1.56,1.97,1.92c0.74,0.37,1.51,0.55,2.31,0.55
		c0.81,0,1.59-0.18,2.34-0.55c0.75-0.37,1.41-1.01,1.99-1.92c0.58-0.92,1.04-2.14,1.38-3.69C57.29,64.41,57.46,62.46,57.46,60.1z"/>
	<path class="st1" d="M73,46.4h4.68v29.97H73V46.4z"/>
	<path class="st1" d="M83.44,76.37V46.4h4.63v10.71c1.65-1.95,3.69-2.92,6.12-2.92c2.79,0,5.02,1.02,6.71,3.06
		c1.65,2.01,2.47,4.71,2.47,8.1c0,3.39-0.85,6.15-2.56,8.28c-1.71,2.13-3.92,3.2-6.62,3.2c-2.76,0-4.9-1.12-6.44-3.38v2.92H83.44z
		 M93.3,73.13c3.54,0,5.31-2.49,5.31-7.47c0-5.22-1.77-7.83-5.31-7.83c-3.6,0-5.4,2.64-5.4,7.92C87.9,70.67,89.7,73.13,93.3,73.13z"
		/>
</g>
</svg>
