<?xml version="1.0" encoding="utf-8"?>
<!-- Generator: Adobe Illustrator 27.3.1, SVG Export Plug-In . SVG Version: 6.00 Build 0)  -->
<svg version="1.1" id="Layer_1" xmlns="http://www.w3.org/2000/svg" xmlns:xlink="http://www.w3.org/1999/xlink" x="0px" y="0px"
	 viewBox="0 0 120 120" style="enable-background:new 0 0 120 120;" xml:space="preserve">
<style type="text/css">
	.st0{display:none;}
	.st1{fill:#1D191A;}
	.st2{fill:none;stroke:#1D191A;stroke-width:9;stroke-miterlimit:10;}
	.st3{fill:#FFFFFF;stroke:#1D191A;stroke-width:2.3;stroke-miterlimit:10;}
	.st4{fill:#A5A5A5;}
	.st5{fill:#FFFFFF;stroke:#1D191A;stroke-width:2;stroke-miterlimit:10;}
	.st6{fill:none;stroke:#1D191A;stroke-width:0.8;stroke-miterlimit:10;}
	.st7{fill:#FFFFFF;stroke:#1D191A;stroke-width:3;stroke-miterlimit:10;}
</style>
<g>
	<path class="st1" d="M34.37,46.2c0,0.8-0.25,1.44-0.75,1.94c-0.5,0.5-1.34,0.74-2.51,0.74h-8.96l-1.17,6.79
		c1.47-0.3,2.81-0.45,4.03-0.45c1.71,0,3.21,0.26,4.51,0.77c1.3,0.51,2.39,1.21,3.27,2.12c0.88,0.9,1.55,1.95,2,3.16
		c0.45,1.21,0.68,2.51,0.68,3.9c0,1.73-0.3,3.3-0.91,4.72c-0.61,1.43-1.45,2.64-2.53,3.66c-1.08,1.01-2.36,1.8-3.84,2.35
		s-3.09,0.83-4.83,0.83c-1.02,0-1.99-0.11-2.9-0.32c-0.92-0.21-1.77-0.49-2.58-0.84s-1.54-0.76-2.23-1.21
		c-0.68-0.46-1.29-0.94-1.83-1.45l1.71-2.36c0.36-0.51,0.84-0.77,1.44-0.77c0.38,0,0.75,0.12,1.14,0.36s0.83,0.5,1.34,0.79
		c0.51,0.29,1.1,0.55,1.78,0.79s1.49,0.36,2.45,0.36c1.02,0,1.92-0.16,2.7-0.5c0.78-0.33,1.43-0.79,1.95-1.38
		c0.52-0.59,0.91-1.3,1.17-2.12c0.26-0.82,0.39-1.71,0.39-2.67c0-1.77-0.51-3.15-1.54-4.15c-1.03-1-2.54-1.5-4.53-1.5
		c-1.58,0-3.16,0.29-4.75,0.86l-3.47-0.99l2.7-15.79h16.06V46.2z"/>
	<path class="st1" d="M63.2,60.1c0,2.83-0.3,5.3-0.91,7.39c-0.61,2.09-1.45,3.82-2.52,5.19c-1.07,1.37-2.34,2.38-3.8,3.05
		c-1.46,0.67-3.04,1-4.74,1c-1.7,0-3.27-0.33-4.71-1c-1.45-0.67-2.7-1.68-3.77-3.05c-1.07-1.36-1.9-3.09-2.5-5.19
		c-0.6-2.09-0.9-4.56-0.9-7.39c0-2.85,0.3-5.32,0.9-7.4c0.6-2.08,1.43-3.81,2.5-5.17s2.32-2.38,3.77-3.05s3.02-1,4.71-1
		c1.69,0,3.27,0.33,4.74,1s2.73,1.68,3.8,3.05c1.07,1.37,1.91,3.09,2.52,5.17C62.89,54.78,63.2,57.25,63.2,60.1z M57.46,60.1
		c0-2.35-0.17-4.3-0.52-5.85c-0.35-1.54-0.81-2.78-1.38-3.69c-0.58-0.92-1.24-1.56-1.99-1.92c-0.75-0.37-1.53-0.55-2.34-0.55
		c-0.79,0-1.56,0.18-2.31,0.55c-0.74,0.37-1.4,1.01-1.97,1.92c-0.57,0.92-1.02,2.15-1.36,3.69c-0.34,1.54-0.51,3.5-0.51,5.85
		c0,2.36,0.17,4.31,0.51,5.85c0.34,1.55,0.79,2.78,1.36,3.69c0.57,0.92,1.23,1.56,1.97,1.92c0.74,0.37,1.51,0.55,2.31,0.55
		c0.81,0,1.59-0.18,2.34-0.55c0.75-0.37,1.41-1.01,1.99-1.92c0.58-0.92,1.04-2.14,1.38-3.69C57.29,64.41,57.46,62.46,57.46,60.1z"/>
	<path class="st1" d="M73,46.4h4.68v29.97H73V46.4z"/>
	<path class="st1" d="M83.44,76.37V46.4h4.63v10.71c1.65-1.95,3.69-2.92,6.12-2.92c2.79,0,5.02,1.02,6.71,3.06
		c1.65,2.01,2.47,4.71,2.47,8.1c0,3.39-0.85,6.15-2.56,8.28c-1.71,2.13-3.92,3.2-6.62,3.2c-2.76,0-4.9-1.12-6.44-3.38v2.92H83.44z
		 M93.3,73.13c3.54,0,5.31-2.49,5.31-7.47c0-5.22-1.77-7.83-5.31-7.83c-3.6,0-5.4,2.64-5.4,7.92C87.9,70.67,89.7,73.13,93.3,73.13z"
		/>
</g>
</svg>
