<?xml version="1.0" encoding="UTF-8" standalone="no"?>
<!-- Generator: Adobe Illustrator 27.3.1, SVG Export Plug-In . SVG Version: 6.00 Build 0)  -->

<svg
   version="1.1"
   id="Layer_1"
   x="0px"
   y="0px"
   viewBox="0 0 120 120"
   style="enable-background:new 0 0 120 120;"
   xml:space="preserve"
   sodipodi:docname="Q5D.svg"
   inkscape:version="1.4 (86a8ad7, 2024-10-11)"
   xmlns:inkscape="http://www.inkscape.org/namespaces/inkscape"
   xmlns:sodipodi="http://sodipodi.sourceforge.net/DTD/sodipodi-0.dtd"
   xmlns="http://www.w3.org/2000/svg"
   xmlns:svg="http://www.w3.org/2000/svg"><defs
   id="defs11" /><sodipodi:namedview
   id="namedview11"
   pagecolor="#ffffff"
   bordercolor="#999999"
   borderopacity="1"
   inkscape:showpageshadow="2"
   inkscape:pageopacity="0"
   inkscape:pagecheckerboard="0"
   inkscape:deskcolor="#d1d1d1"
   inkscape:zoom="6.725"
   inkscape:cx="60"
   inkscape:cy="60"
   inkscape:window-width="1920"
   inkscape:window-height="1009"
   inkscape:window-x="-8"
   inkscape:window-y="-8"
   inkscape:window-maximized="1"
   inkscape:current-layer="Layer_1" />
<style
   type="text/css"
   id="style1">
	.st0{fill-rule:evenodd;clip-rule:evenodd;fill:#A5A5A5;}
	.st1{fill:#1D191A;}
	.st2{fill:none;stroke:#1D191A;stroke-width:2;stroke-miterlimit:10;}
</style>
<rect
   x="10.65"
   y="84.87"
   transform="matrix(-1 -1.224647e-16 1.224647e-16 -1 45.8106 194.3699)"
   class="st0"
   width="24.51"
   height="24.64"
   id="rect1"
   style="fill:#1f8fff;fill-opacity:1" />
<rect
   x="10.56"
   y="60.02"
   transform="matrix(-1 -1.224647e-16 1.224647e-16 -1 45.6411 144.6844)"
   class="st0"
   width="24.51"
   height="24.64"
   id="rect2"
   style="fill:#1f8fff;fill-opacity:1" />
<rect
   x="10.65"
   y="34.97"
   transform="matrix(-1 -1.224647e-16 1.224647e-16 -1 45.8106 94.5844)"
   class="st0"
   width="24.51"
   height="24.64"
   id="rect3"
   style="fill:#1f8fff;fill-opacity:1" />
<g
   id="g3">
	<path
   class="st1"
   d="M108,11.78v96H12v-96H108 M110,9.78H10v100h100V9.78L110,9.78z"
   id="path3" />
</g>
<g
   id="g4">
	<line
   class="st2"
   x1="84.85"
   y1="109.12"
   x2="84.85"
   y2="10.39"
   id="line3" />
</g>
<g
   id="g5">
	<line
   class="st2"
   x1="35.24"
   y1="109.12"
   x2="35.24"
   y2="10.39"
   id="line4" />
</g>
<g
   id="g6">
	<line
   class="st2"
   x1="10.63"
   y1="84.58"
   x2="109.36"
   y2="84.58"
   id="line5" />
</g>
<g
   id="g7">
	<line
   class="st2"
   x1="84.85"
   y1="59.78"
   x2="109.36"
   y2="59.78"
   id="line6" />
</g>
<g
   id="g8">
	<line
   class="st2"
   x1="60"
   y1="84.87"
   x2="60"
   y2="109.38"
   id="line7" />
</g>
<g
   id="g9">
	<line
   class="st2"
   x1="60"
   y1="10.46"
   x2="60"
   y2="34.97"
   id="line8" />
</g>
<g
   id="g10">
	<line
   class="st2"
   x1="10.73"
   y1="59.78"
   x2="35.24"
   y2="59.78"
   id="line9" />
</g>
<g
   id="g11">
	<line
   class="st2"
   x1="10.63"
   y1="34.97"
   x2="109.36"
   y2="34.97"
   id="line10" />
</g>
</svg>
