<?xml version="1.0" encoding="UTF-8" standalone="no"?>
<!-- Generator: Adobe Illustrator 27.3.1, SVG Export Plug-In . SVG Version: 6.00 Build 0)  -->

<svg
   version="1.1"
   id="Layer_1"
   x="0px"
   y="0px"
   viewBox="0 0 450 320"
   style="enable-background:new 0 0 450 320;"
   xml:space="preserve"
   sodipodi:docname="Q5Q.svg"
   inkscape:version="1.4 (86a8ad7, 2024-10-11)"
   xmlns:inkscape="http://www.inkscape.org/namespaces/inkscape"
   xmlns:sodipodi="http://sodipodi.sourceforge.net/DTD/sodipodi-0.dtd"
   xmlns="http://www.w3.org/2000/svg"
   xmlns:svg="http://www.w3.org/2000/svg"><defs
   id="defs80" /><sodipodi:namedview
   id="namedview80"
   pagecolor="#ffffff"
   bordercolor="#999999"
   borderopacity="1"
   inkscape:showpageshadow="2"
   inkscape:pageopacity="0"
   inkscape:pagecheckerboard="0"
   inkscape:deskcolor="#d1d1d1"
   inkscape:zoom="1.7832349"
   inkscape:cx="154.49451"
   inkscape:cy="125.8948"
   inkscape:window-width="1920"
   inkscape:window-height="1009"
   inkscape:window-x="-8"
   inkscape:window-y="-8"
   inkscape:window-maximized="1"
   inkscape:current-layer="g80" />
<style
   type="text/css"
   id="style1">
	.st0{fill-rule:evenodd;clip-rule:evenodd;fill:#A5A5A5;}
	.st1{fill:#1D191A;}
	.st2{fill:none;stroke:#1D191A;stroke-width:2;stroke-miterlimit:10;}
</style>
<g
   id="g80">
	<g
   id="g1">
		<path
   class="st1"
   d="M349.88,278.75c0-2,0.12-3.75,0.36-5.23s0.64-2.84,1.19-4.06c0.55-1.23,1.26-2.39,2.14-3.49    c0.87-1.1,1.95-2.27,3.22-3.51c0.96-0.93,1.86-1.81,2.69-2.65c0.83-0.83,1.57-1.69,2.2-2.56c0.64-0.87,1.14-1.81,1.5-2.79    c0.37-0.99,0.55-2.09,0.55-3.3c0-2.65-0.66-4.68-1.97-6.08c-1.31-1.4-3.24-2.09-5.78-2.09c-1.02,0-2,0.14-2.96,0.42    s-1.82,0.73-2.58,1.35c-0.76,0.62-1.38,1.41-1.84,2.37c-0.47,0.96-0.7,2.12-0.7,3.47h-10.3c0.03-2.65,0.51-4.99,1.46-7.01    c0.94-2.02,2.24-3.71,3.89-5.08c1.65-1.37,3.58-2.4,5.8-3.09s4.62-1.04,7.22-1.04c2.85,0,5.39,0.37,7.62,1.1s4.12,1.81,5.67,3.22    c1.55,1.41,2.73,3.13,3.54,5.17c0.8,2.03,1.21,4.33,1.21,6.9c0,1.86-0.3,3.6-0.89,5.21c-0.59,1.61-1.38,3.12-2.37,4.53    s-2.12,2.77-3.39,4.06c-1.27,1.3-2.58,2.58-3.94,3.85c-1.55,1.41-2.59,2.96-3.11,4.64c-0.52,1.68-0.8,3.58-0.83,5.69    L349.88,278.75L349.88,278.75z M349.16,291.92c0-0.79,0.13-1.52,0.38-2.2c0.25-0.68,0.63-1.27,1.12-1.78s1.1-0.9,1.82-1.19    c0.72-0.28,1.55-0.42,2.48-0.42c0.93,0,1.76,0.14,2.48,0.42s1.33,0.68,1.82,1.19c0.49,0.51,0.87,1.1,1.14,1.78    c0.27,0.68,0.4,1.41,0.4,2.2c0,1.55-0.51,2.85-1.52,3.89c-1.02,1.04-2.45,1.57-4.32,1.57s-3.3-0.52-4.3-1.57    C349.66,294.77,349.16,293.47,349.16,291.92z"
   id="path1" />
	</g>
	<rect
   x="50.64"
   y="32.23"
   class="st0"
   width="21.63"
   height="21.89"
   id="rect1"
   style="fill:#1f8fff;fill-opacity:1" />
	<g
   id="g2">
		<path
   class="st1"
   d="M136.31,12v84.24H52.08V12H136.31 M138.31,10H50.08v88.24h88.24V10H138.31z"
   id="path2" />
	</g>
	<g
   id="g3">
		<line
   class="st2"
   x1="72.27"
   y1="10.58"
   x2="72.27"
   y2="97.7"
   id="line2" />
	</g>
	<g
   id="g4">
		<line
   class="st2"
   x1="116.04"
   y1="10.58"
   x2="116.04"
   y2="97.7"
   id="line3" />
	</g>
	<g
   id="g5">
		<line
   class="st2"
   x1="137.75"
   y1="32.23"
   x2="50.64"
   y2="32.23"
   id="line4" />
	</g>
	<g
   id="g6">
		<line
   class="st2"
   x1="72.27"
   y1="54.12"
   x2="50.64"
   y2="54.12"
   id="line5" />
	</g>
	<g
   id="g7">
		<line
   class="st2"
   x1="94.2"
   y1="31.98"
   x2="94.2"
   y2="10.35"
   id="line6" />
	</g>
	<g
   id="g8">
		<line
   class="st2"
   x1="94.2"
   y1="97.63"
   x2="94.2"
   y2="76"
   id="line7" />
	</g>
	<g
   id="g9">
		<line
   class="st2"
   x1="137.67"
   y1="54.12"
   x2="116.04"
   y2="54.12"
   id="line8" />
	</g>
	<g
   id="g10">
		<line
   class="st2"
   x1="137.75"
   y1="76"
   x2="50.64"
   y2="76"
   id="line9" />
	</g>
	<g
   id="g20">
		<rect
   x="181.45"
   y="10.22"
   class="st0"
   width="21.63"
   height="21.89"
   id="rect10"
   style="fill:#1f8fff;fill-opacity:1" />
		<rect
   x="203.23"
   y="10.22"
   class="st0"
   width="21.63"
   height="21.89"
   id="rect11"
   style="fill:#1f8fff;fill-opacity:1" />
		<g
   id="g11">
			<path
   class="st1"
   d="M267.12,12v84.24h-84.24V12H267.12 M269.12,10h-88.24v88.24h88.24V10L269.12,10z"
   id="path11" />
		</g>
		<g
   id="g12">
			<line
   class="st2"
   x1="203.08"
   y1="10.58"
   x2="203.08"
   y2="97.7"
   id="line11" />
		</g>
		<g
   id="g13">
			<line
   class="st2"
   x1="246.85"
   y1="10.58"
   x2="246.85"
   y2="97.7"
   id="line12" />
		</g>
		<g
   id="g14">
			<line
   class="st2"
   x1="268.56"
   y1="32.23"
   x2="181.45"
   y2="32.23"
   id="line13" />
		</g>
		<g
   id="g15">
			<line
   class="st2"
   x1="203.08"
   y1="54.12"
   x2="181.45"
   y2="54.12"
   id="line14" />
		</g>
		<g
   id="g16">
			<line
   class="st2"
   x1="225.01"
   y1="31.98"
   x2="225.01"
   y2="10.35"
   id="line15" />
		</g>
		<g
   id="g17">
			<line
   class="st2"
   x1="225.01"
   y1="97.63"
   x2="225.01"
   y2="76"
   id="line16" />
		</g>
		<g
   id="g18">
			<line
   class="st2"
   x1="268.48"
   y1="54.12"
   x2="246.85"
   y2="54.12"
   id="line17" />
		</g>
		<g
   id="g19">
			<line
   class="st2"
   x1="268.56"
   y1="76"
   x2="181.45"
   y2="76"
   id="line18" />
		</g>
	</g>
	<g
   id="g31">
		<rect
   x="355.95"
   y="10.22"
   class="st0"
   width="21.63"
   height="21.89"
   id="rect20"
   style="fill:#1f8fff;fill-opacity:1" />
		<rect
   x="377.73"
   y="10.22"
   class="st0"
   width="21.63"
   height="21.89"
   id="rect21"
   style="fill:#1f8fff;fill-opacity:1" />
		<rect
   x="377.73"
   y="32.48"
   class="st0"
   width="21.63"
   height="21.89"
   id="rect22"
   style="fill:#1f8fff;fill-opacity:1" />
		<g
   id="g22">
			<path
   class="st1"
   d="M397.92,12v84.24h-84.24V12H397.92 M399.92,10h-88.24v88.24h88.24V10L399.92,10z"
   id="path22" />
		</g>
		<g
   id="g23">
			<line
   class="st2"
   x1="333.88"
   y1="10.58"
   x2="333.88"
   y2="97.7"
   id="line22" />
		</g>
		<g
   id="g24">
			<line
   class="st2"
   x1="377.65"
   y1="10.58"
   x2="377.65"
   y2="97.7"
   id="line23" />
		</g>
		<g
   id="g25">
			<line
   class="st2"
   x1="399.36"
   y1="32.23"
   x2="312.25"
   y2="32.23"
   id="line24" />
		</g>
		<g
   id="g26">
			<line
   class="st2"
   x1="333.88"
   y1="54.12"
   x2="312.25"
   y2="54.12"
   id="line25" />
		</g>
		<g
   id="g27">
			<line
   class="st2"
   x1="355.81"
   y1="31.98"
   x2="355.81"
   y2="10.35"
   id="line26" />
		</g>
		<g
   id="g28">
			<line
   class="st2"
   x1="355.81"
   y1="97.63"
   x2="355.81"
   y2="76"
   id="line27" />
		</g>
		<g
   id="g29">
			<line
   class="st2"
   x1="399.28"
   y1="54.12"
   x2="377.65"
   y2="54.12"
   id="line28" />
		</g>
		<g
   id="g30">
			<line
   class="st2"
   x1="399.36"
   y1="76"
   x2="312.25"
   y2="76"
   id="line29" />
		</g>
	</g>
	<rect
   x="50.64"
   y="116.11"
   class="st0"
   width="21.63"
   height="21.89"
   id="rect31"
   style="fill:#1f8fff;fill-opacity:1" />
	<g
   id="g32">
		<path
   class="st1"
   d="M136.31,117.88v84.24H52.08v-84.24H136.31 M138.31,115.88H50.08v88.24h88.24v-88.24H138.31z"
   id="path31" />
	</g>
	<g
   id="g33">
		<line
   class="st2"
   x1="72.27"
   y1="116.46"
   x2="72.27"
   y2="203.58"
   id="line32" />
	</g>
	<g
   id="g34">
		<line
   class="st2"
   x1="116.04"
   y1="116.46"
   x2="116.04"
   y2="203.58"
   id="line33" />
	</g>
	<g
   id="g35">
		<line
   class="st2"
   x1="137.75"
   y1="138.11"
   x2="50.64"
   y2="138.11"
   id="line34" />
	</g>
	<g
   id="g36">
		<line
   class="st2"
   x1="72.27"
   y1="160"
   x2="50.64"
   y2="160"
   id="line35" />
	</g>
	<g
   id="g37">
		<line
   class="st2"
   x1="94.2"
   y1="137.86"
   x2="94.2"
   y2="116.24"
   id="line36" />
	</g>
	<g
   id="g38">
		<line
   class="st2"
   x1="94.2"
   y1="203.52"
   x2="94.2"
   y2="181.89"
   id="line37" />
	</g>
	<g
   id="g39">
		<line
   class="st2"
   x1="137.67"
   y1="160"
   x2="116.04"
   y2="160"
   id="line38" />
	</g>
	<g
   id="g40">
		<line
   class="st2"
   x1="137.75"
   y1="181.89"
   x2="50.64"
   y2="181.89"
   id="line39" />
	</g>
	<g
   id="g50">
		<rect
   x="203.3"
   y="116.11"
   class="st0"
   width="21.63"
   height="21.89"
   id="rect40"
   style="fill:#1f8fff;fill-opacity:1" />
		<rect
   x="225.08"
   y="116.11"
   class="st0"
   width="21.63"
   height="21.89"
   id="rect41"
   style="fill:#1f8fff;fill-opacity:1" />
		<g
   id="g41">
			<path
   class="st1"
   d="M267.12,117.88v84.24h-84.24v-84.24H267.12 M269.12,115.88h-88.24v88.24h88.24V115.88L269.12,115.88z"
   id="path41" />
		</g>
		<g
   id="g42">
			<line
   class="st2"
   x1="203.08"
   y1="116.46"
   x2="203.08"
   y2="203.58"
   id="line41" />
		</g>
		<g
   id="g43">
			<line
   class="st2"
   x1="246.85"
   y1="116.46"
   x2="246.85"
   y2="203.58"
   id="line42" />
		</g>
		<g
   id="g44">
			<line
   class="st2"
   x1="268.56"
   y1="138.11"
   x2="181.45"
   y2="138.11"
   id="line43" />
		</g>
		<g
   id="g45">
			<line
   class="st2"
   x1="203.08"
   y1="160"
   x2="181.45"
   y2="160"
   id="line44" />
		</g>
		<g
   id="g46">
			<line
   class="st2"
   x1="225.01"
   y1="137.86"
   x2="225.01"
   y2="116.24"
   id="line45" />
		</g>
		<g
   id="g47">
			<line
   class="st2"
   x1="225.01"
   y1="203.52"
   x2="225.01"
   y2="181.89"
   id="line46" />
		</g>
		<g
   id="g48">
			<line
   class="st2"
   x1="268.48"
   y1="160"
   x2="246.85"
   y2="160"
   id="line47" />
		</g>
		<g
   id="g49">
			<line
   class="st2"
   x1="268.56"
   y1="181.89"
   x2="181.45"
   y2="181.89"
   id="line48" />
		</g>
	</g>
	<g
   id="g61">
		<rect
   x="377.65"
   y="116.11"
   class="st0"
   width="21.63"
   height="21.89"
   id="rect50"
   style="fill:#1f8fff;fill-opacity:1" />
		<rect
   x="377.73"
   y="138.18"
   class="st0"
   width="21.63"
   height="21.89"
   id="rect51"
   style="fill:#1f8fff;fill-opacity:1" />
		<rect
   x="377.65"
   y="160.43"
   class="st0"
   width="21.63"
   height="21.89"
   id="rect52"
   style="fill:#1f8fff;fill-opacity:1" />
		<g
   id="g52">
			<path
   class="st1"
   d="M397.92,117.88v84.24h-84.24v-84.24H397.92 M399.92,115.88h-88.24v88.24h88.24V115.88L399.92,115.88z"
   id="path52" />
		</g>
		<g
   id="g53">
			<line
   class="st2"
   x1="333.88"
   y1="116.46"
   x2="333.88"
   y2="203.58"
   id="line52" />
		</g>
		<g
   id="g54">
			<line
   class="st2"
   x1="377.65"
   y1="116.46"
   x2="377.65"
   y2="203.58"
   id="line53" />
		</g>
		<g
   id="g55">
			<line
   class="st2"
   x1="399.36"
   y1="138.11"
   x2="312.25"
   y2="138.11"
   id="line54" />
		</g>
		<g
   id="g56">
			<line
   class="st2"
   x1="333.88"
   y1="160"
   x2="312.25"
   y2="160"
   id="line55" />
		</g>
		<g
   id="g57">
			<line
   class="st2"
   x1="355.81"
   y1="137.86"
   x2="355.81"
   y2="116.24"
   id="line56" />
		</g>
		<g
   id="g58">
			<line
   class="st2"
   x1="355.81"
   y1="203.52"
   x2="355.81"
   y2="181.89"
   id="line57" />
		</g>
		<g
   id="g59">
			<line
   class="st2"
   x1="399.28"
   y1="160"
   x2="377.65"
   y2="160"
   id="line58" />
		</g>
		<g
   id="g60">
			<line
   class="st2"
   x1="399.36"
   y1="181.89"
   x2="312.25"
   y2="181.89"
   id="line59" />
		</g>
	</g>
	<rect
   x="72.27"
   y="221.99"
   class="st0"
   width="21.63"
   height="21.89"
   id="rect61"
   style="fill:#1f8fff;fill-opacity:1" />
	<g
   id="g62">
		<path
   class="st1"
   d="M136.31,223.76V308H52.08v-84.24L136.31,223.76 M138.31,221.76H50.08V310h88.24v-88.24H138.31z"
   id="path61" />
	</g>
	<g
   id="g63">
		<line
   class="st2"
   x1="72.27"
   y1="222.35"
   x2="72.27"
   y2="309.46"
   id="line62" />
	</g>
	<g
   id="g64">
		<line
   class="st2"
   x1="116.04"
   y1="222.35"
   x2="116.04"
   y2="309.46"
   id="line63" />
	</g>
	<g
   id="g65">
		<line
   class="st2"
   x1="137.75"
   y1="244"
   x2="50.64"
   y2="244"
   id="line64" />
	</g>
	<g
   id="g66">
		<line
   class="st2"
   x1="72.27"
   y1="265.88"
   x2="50.64"
   y2="265.88"
   id="line65" />
	</g>
	<g
   id="g67">
		<line
   class="st2"
   x1="94.2"
   y1="243.75"
   x2="94.2"
   y2="222.12"
   id="line66" />
	</g>
	<g
   id="g68">
		<line
   class="st2"
   x1="94.2"
   y1="309.4"
   x2="94.2"
   y2="287.77"
   id="line67" />
	</g>
	<g
   id="g69">
		<line
   class="st2"
   x1="137.67"
   y1="265.88"
   x2="116.04"
   y2="265.88"
   id="line68" />
	</g>
	<g
   id="g70">
		<line
   class="st2"
   x1="137.75"
   y1="287.77"
   x2="50.64"
   y2="287.77"
   id="line69" />
	</g>
	<rect
   x="225.15"
   y="221.99"
   class="st0"
   width="21.63"
   height="21.89"
   id="rect70"
   style="fill:#1f8fff;fill-opacity:1" />
	<rect
   x="246.93"
   y="221.99"
   class="st0"
   width="21.63"
   height="21.89"
   id="rect71"
   style="fill:#1f8fff;fill-opacity:1" />
	<g
   id="g71">
		<path
   class="st1"
   d="M267.12,223.76V308h-84.24v-84.24L267.12,223.76 M269.12,221.76h-88.24V310h88.24V221.76L269.12,221.76z"
   id="path71" />
	</g>
	<g
   id="g72">
		<line
   class="st2"
   x1="203.08"
   y1="222.35"
   x2="203.08"
   y2="309.46"
   id="line71" />
	</g>
	<g
   id="g73">
		<line
   class="st2"
   x1="246.85"
   y1="222.35"
   x2="246.85"
   y2="309.46"
   id="line72" />
	</g>
	<g
   id="g74">
		<line
   class="st2"
   x1="268.56"
   y1="244"
   x2="181.45"
   y2="244"
   id="line73" />
	</g>
	<g
   id="g75">
		<line
   class="st2"
   x1="203.08"
   y1="265.88"
   x2="181.45"
   y2="265.88"
   id="line74" />
	</g>
	<g
   id="g76">
		<line
   class="st2"
   x1="225.01"
   y1="243.75"
   x2="225.01"
   y2="222.12"
   id="line75" />
	</g>
	<g
   id="g77">
		<line
   class="st2"
   x1="225.01"
   y1="309.4"
   x2="225.01"
   y2="287.77"
   id="line76" />
	</g>
	<g
   id="g78">
		<line
   class="st2"
   x1="268.48"
   y1="265.88"
   x2="246.85"
   y2="265.88"
   id="line77" />
	</g>
	<g
   id="g79">
		<line
   class="st2"
   x1="268.56"
   y1="287.77"
   x2="181.45"
   y2="287.77"
   id="line78" />
	</g>
</g>
</svg>
