<?xml version="1.0" encoding="UTF-8" standalone="no"?>
<!-- Generator: Adobe Illustrator 27.3.1, SVG Export Plug-In . SVG Version: 6.00 Build 0)  -->

<svg
   version="1.1"
   id="Layer_1"
   x="0px"
   y="0px"
   viewBox="0 0 450 320"
   style="enable-background:new 0 0 450 320;"
   xml:space="preserve"
   sodipodi:docname="Q14Q.svg"
   inkscape:version="1.4 (86a8ad7, 2024-10-11)"
   xmlns:inkscape="http://www.inkscape.org/namespaces/inkscape"
   xmlns:sodipodi="http://sodipodi.sourceforge.net/DTD/sodipodi-0.dtd"
   xmlns="http://www.w3.org/2000/svg"
   xmlns:svg="http://www.w3.org/2000/svg"><defs
   id="defs48" /><sodipodi:namedview
   id="namedview48"
   pagecolor="#ffffff"
   bordercolor="#999999"
   borderopacity="1"
   inkscape:showpageshadow="2"
   inkscape:pageopacity="0"
   inkscape:pagecheckerboard="0"
   inkscape:deskcolor="#d1d1d1"
   inkscape:zoom="2.521875"
   inkscape:cx="225.03098"
   inkscape:cy="160"
   inkscape:window-width="1920"
   inkscape:window-height="1009"
   inkscape:window-x="-8"
   inkscape:window-y="-8"
   inkscape:window-maximized="1"
   inkscape:current-layer="Layer_1" />
<style
   type="text/css"
   id="style1">
	.st0{fill-rule:evenodd;clip-rule:evenodd;fill:#A5A5A5;}
	.st1{fill:#1D191A;}
	.st2{fill:none;stroke:#1D191A;stroke-width:2;stroke-miterlimit:10;}
</style>
<rect
   x="50.41"
   y="10.56"
   class="st0"
   width="29.3"
   height="28.91"
   id="rect1"
   style="fill:#1f8fff;fill-opacity:1" />
<rect
   x="79.41"
   y="39.56"
   class="st0"
   width="29.3"
   height="28.91"
   id="rect2"
   style="fill:#1f8fff;fill-opacity:1" />
<rect
   x="108.44"
   y="68.59"
   class="st0"
   width="29.3"
   height="28.91"
   id="rect3"
   style="fill:#1f8fff;fill-opacity:1" />
<g
   id="g3">
	<path
   class="st1"
   d="M136.07,12v84.07H52V12H136.07 M138.07,10H50v88.07h88.07V10L138.07,10z"
   id="path3" />
</g>
<g
   id="g4">
	<line
   class="st2"
   x1="137.51"
   y1="39.47"
   x2="50.56"
   y2="39.47"
   id="line3" />
</g>
<g
   id="g5">
	<line
   class="st2"
   x1="137.51"
   y1="68.49"
   x2="50.56"
   y2="68.49"
   id="line4" />
</g>
<g
   id="g6">
	<line
   class="st2"
   x1="108.54"
   y1="97.51"
   x2="108.54"
   y2="10.56"
   id="line5" />
</g>
<g
   id="g7">
	<line
   class="st2"
   x1="79.52"
   y1="97.51"
   x2="79.52"
   y2="10.56"
   id="line6" />
</g>
<rect
   x="50.41"
   y="222.49"
   class="st0"
   width="58.03"
   height="28.91"
   id="rect7"
   style="fill:#1f8fff;fill-opacity:1" />
<rect
   x="79.09"
   y="251.49"
   class="st0"
   width="58.71"
   height="28.91"
   id="rect8"
   style="fill:#1f8fff;fill-opacity:1" />
<rect
   x="79.41"
   y="280.52"
   class="st0"
   width="29.3"
   height="28.91"
   id="rect9"
   style="fill:#1f8fff;fill-opacity:1" />
<g
   id="g9">
	<path
   class="st1"
   d="M136.07,223.93V308H52v-84.07H136.07 M138.07,221.93H50V310h88.07V221.93L138.07,221.93z"
   id="path9" />
</g>
<g
   id="g10">
	<line
   class="st2"
   x1="137.51"
   y1="251.4"
   x2="50.56"
   y2="251.4"
   id="line9" />
</g>
<g
   id="g11">
	<line
   class="st2"
   x1="137.51"
   y1="280.42"
   x2="50.56"
   y2="280.42"
   id="line10" />
</g>
<g
   id="g12">
	<line
   class="st2"
   x1="108.54"
   y1="309.44"
   x2="108.54"
   y2="222.49"
   id="line11" />
</g>
<g
   id="g13">
	<line
   class="st2"
   x1="79.52"
   y1="309.44"
   x2="79.52"
   y2="222.49"
   id="line12" />
</g>
<rect
   x="239.43"
   y="222.49"
   transform="matrix(-1 -1.224647e-16 1.224647e-16 -1 508.2151 473.8911)"
   class="st0"
   width="29.35"
   height="28.91"
   id="rect13"
   style="fill:#1f8fff;fill-opacity:1" />
<rect
   x="181.33"
   y="251.49"
   class="st0"
   width="28.91"
   height="28.91"
   id="rect14"
   style="fill:#1f8fff;fill-opacity:1" />
<rect
   x="210.4"
   y="280.52"
   class="st0"
   width="29.3"
   height="28.91"
   id="rect15"
   style="fill:#1f8fff;fill-opacity:1" />
<g
   id="g15">
	<path
   class="st1"
   d="M267.06,223.93V308h-84.07v-84.07H267.06 M269.06,221.93h-88.07V310h88.07V221.93L269.06,221.93z"
   id="path15" />
</g>
<g
   id="g16">
	<line
   class="st2"
   x1="268.5"
   y1="251.4"
   x2="181.55"
   y2="251.4"
   id="line15" />
</g>
<g
   id="g17">
	<line
   class="st2"
   x1="268.5"
   y1="280.42"
   x2="181.55"
   y2="280.42"
   id="line16" />
</g>
<g
   id="g18">
	<line
   class="st2"
   x1="239.53"
   y1="309.44"
   x2="239.53"
   y2="222.49"
   id="line17" />
</g>
<g
   id="g19">
	<line
   class="st2"
   x1="210.51"
   y1="309.44"
   x2="210.51"
   y2="222.49"
   id="line18" />
</g>
<rect
   x="79.41"
   y="116.24"
   class="st0"
   width="29.3"
   height="86.91"
   id="rect19"
   style="fill:#1f8fff;fill-opacity:1" />
<g
   id="g20">
	<path
   class="st1"
   d="M136.07,117.68v84.07H52v-84.07H136.07 M138.07,115.68H50v88.07h88.07V115.68L138.07,115.68z"
   id="path19" />
</g>
<g
   id="g21">
	<line
   class="st2"
   x1="137.51"
   y1="145.15"
   x2="50.56"
   y2="145.15"
   id="line20" />
</g>
<g
   id="g22">
	<line
   class="st2"
   x1="137.51"
   y1="174.17"
   x2="50.56"
   y2="174.17"
   id="line21" />
</g>
<g
   id="g23">
	<line
   class="st2"
   x1="108.54"
   y1="203.19"
   x2="108.54"
   y2="116.24"
   id="line22" />
</g>
<g
   id="g24">
	<line
   class="st2"
   x1="79.52"
   y1="203.19"
   x2="79.52"
   y2="116.24"
   id="line23" />
</g>
<rect
   x="210.37"
   y="116.24"
   class="st0"
   width="29.3"
   height="86.91"
   id="rect24"
   style="fill:#1f8fff;fill-opacity:1" />
<g
   id="g25">
	<path
   class="st1"
   d="M267.03,117.68v84.07h-84.07v-84.07H267.03 M269.03,115.68h-88.07v88.07h88.07V115.68L269.03,115.68z"
   id="path24" />
</g>
<g
   id="g26">
	<line
   class="st2"
   x1="268.48"
   y1="145.15"
   x2="181.52"
   y2="145.15"
   id="line25" />
</g>
<g
   id="g27">
	<line
   class="st2"
   x1="268.48"
   y1="174.17"
   x2="181.52"
   y2="174.17"
   id="line26" />
</g>
<g
   id="g28">
	<line
   class="st2"
   x1="239.51"
   y1="203.19"
   x2="239.51"
   y2="116.24"
   id="line27" />
</g>
<g
   id="g29">
	<line
   class="st2"
   x1="210.49"
   y1="203.19"
   x2="210.49"
   y2="116.24"
   id="line28" />
</g>
<g
   id="g30">
	<path
   class="st1"
   d="M397.84,117.68v84.07h-84.07v-84.07H397.84 M399.84,115.68h-88.07v88.07h88.07V115.68L399.84,115.68z"
   id="path29" />
</g>
<g
   id="g31">
	<line
   class="st2"
   x1="399.28"
   y1="145.15"
   x2="312.33"
   y2="145.15"
   id="line30" />
</g>
<g
   id="g32">
	<line
   class="st2"
   x1="399.28"
   y1="174.17"
   x2="312.33"
   y2="174.17"
   id="line31" />
</g>
<g
   id="g33">
	<line
   class="st2"
   x1="370.31"
   y1="203.19"
   x2="370.31"
   y2="116.24"
   id="line32" />
</g>
<g
   id="g34">
	<line
   class="st2"
   x1="341.3"
   y1="203.19"
   x2="341.3"
   y2="116.24"
   id="line33" />
</g>
<rect
   x="239.37"
   y="10.6"
   transform="matrix(-1.836970e-16 1 -1 -1.836970e-16 279.0785 -228.9594)"
   class="st0"
   width="29.3"
   height="28.91"
   id="rect34"
   style="fill:#1f8fff;fill-opacity:1" />
<rect
   x="210.37"
   y="39.6"
   transform="matrix(-1.836970e-16 1 -1 -1.836970e-16 279.0785 -170.9636)"
   class="st0"
   width="29.3"
   height="28.91"
   id="rect35"
   style="fill:#1f8fff;fill-opacity:1" />
<rect
   x="181.34"
   y="68.64"
   transform="matrix(-1.836970e-16 1 -1 -1.836970e-16 279.0785 -112.8925)"
   class="st0"
   width="29.3"
   height="28.91"
   id="rect36"
   style="fill:#1f8fff;fill-opacity:1" />
<g
   id="g36">
	<path
   class="st1"
   d="M267.03,12v84.07h-84.07V12H267.03 M269.03,10h-88.07v88.07h88.07V10L269.03,10z"
   id="path36" />
</g>
<g
   id="g37">
	<line
   class="st2"
   x1="239.56"
   y1="97.51"
   x2="239.56"
   y2="10.56"
   id="line36" />
</g>
<g
   id="g38">
	<line
   class="st2"
   x1="210.54"
   y1="97.51"
   x2="210.54"
   y2="10.56"
   id="line37" />
</g>
<g
   id="g39">
	<line
   class="st2"
   x1="181.52"
   y1="68.54"
   x2="268.48"
   y2="68.54"
   id="line38" />
</g>
<g
   id="g40">
	<line
   class="st2"
   x1="181.52"
   y1="39.52"
   x2="268.48"
   y2="39.52"
   id="line39" />
</g>
<rect
   x="370.18"
   y="10.6"
   transform="matrix(-1.836970e-16 1 -1 -1.836970e-16 409.8845 -359.7653)"
   class="st0"
   width="29.3"
   height="28.91"
   id="rect40"
   style="fill:#1f8fff;fill-opacity:1" />
<rect
   x="370.18"
   y="68.59"
   transform="matrix(-1.836970e-16 1 -1 -1.836970e-16 467.873 -301.7767)"
   class="st0"
   width="29.3"
   height="28.91"
   id="rect41"
   style="fill:#1f8fff;fill-opacity:1" />
<rect
   x="312.14"
   y="68.64"
   transform="matrix(-1.836970e-16 1 -1 -1.836970e-16 409.8845 -243.6985)"
   class="st0"
   width="29.3"
   height="28.91"
   id="rect42"
   style="fill:#1f8fff;fill-opacity:1" />
<rect
   x="312.14"
   y="10.6"
   transform="matrix(-1.836970e-16 1 -1 -1.836970e-16 351.851 -301.7319)"
   class="st0"
   width="29.3"
   height="28.91"
   id="rect43"
   style="fill:#1f8fff;fill-opacity:1" />
<g
   id="g43">
	<path
   class="st1"
   d="M397.84,12v84.07h-84.07V12H397.84 M399.84,10h-88.07v88.07h88.07V10L399.84,10z"
   id="path43" />
</g>
<g
   id="g44">
	<line
   class="st2"
   x1="370.37"
   y1="97.51"
   x2="370.37"
   y2="10.56"
   id="line43" />
</g>
<g
   id="g45">
	<line
   class="st2"
   x1="341.35"
   y1="97.51"
   x2="341.35"
   y2="10.56"
   id="line44" />
</g>
<g
   id="g46">
	<line
   class="st2"
   x1="312.33"
   y1="68.54"
   x2="399.28"
   y2="68.54"
   id="line45" />
</g>
<g
   id="g47">
	<line
   class="st2"
   x1="312.33"
   y1="39.52"
   x2="399.28"
   y2="39.52"
   id="line46" />
</g>
<g
   id="g48">
	<path
   class="st1"
   d="M349.88,278.75c0-2,0.12-3.75,0.36-5.23s0.64-2.84,1.19-4.06c0.55-1.23,1.26-2.39,2.14-3.49   c0.87-1.1,1.95-2.27,3.22-3.51c0.96-0.93,1.86-1.81,2.69-2.65c0.83-0.83,1.57-1.69,2.2-2.56c0.64-0.87,1.14-1.81,1.5-2.79   c0.37-0.99,0.55-2.09,0.55-3.3c0-2.65-0.66-4.68-1.97-6.08c-1.31-1.4-3.24-2.09-5.78-2.09c-1.02,0-2,0.14-2.96,0.42   s-1.82,0.73-2.58,1.35c-0.76,0.62-1.38,1.41-1.84,2.37c-0.47,0.96-0.7,2.12-0.7,3.47h-10.3c0.03-2.65,0.51-4.99,1.46-7.01   c0.94-2.02,2.24-3.71,3.89-5.08c1.65-1.37,3.58-2.4,5.8-3.09s4.62-1.04,7.22-1.04c2.85,0,5.39,0.37,7.62,1.1s4.12,1.81,5.67,3.22   c1.55,1.41,2.73,3.13,3.54,5.17c0.8,2.03,1.21,4.33,1.21,6.9c0,1.86-0.3,3.6-0.89,5.21c-0.59,1.61-1.38,3.12-2.37,4.53   s-2.12,2.77-3.39,4.06c-1.27,1.3-2.58,2.58-3.94,3.85c-1.55,1.41-2.59,2.96-3.11,4.64c-0.52,1.68-0.8,3.58-0.83,5.69L349.88,278.75   L349.88,278.75z M349.16,291.92c0-0.79,0.13-1.52,0.38-2.2c0.25-0.68,0.63-1.27,1.12-1.78s1.1-0.9,1.82-1.19   c0.72-0.28,1.55-0.42,2.48-0.42c0.93,0,1.76,0.14,2.48,0.42s1.33,0.68,1.82,1.19c0.49,0.51,0.87,1.1,1.14,1.78   c0.27,0.68,0.4,1.41,0.4,2.2c0,1.55-0.51,2.85-1.52,3.89c-1.02,1.04-2.45,1.57-4.32,1.57s-3.3-0.52-4.3-1.57   C349.66,294.77,349.16,293.47,349.16,291.92z"
   id="path47" />
</g>
</svg>
