<?xml version="1.0" encoding="utf-8"?>
<!-- Generator: Adobe Illustrator 27.3.1, SVG Export Plug-In . SVG Version: 6.00 Build 0)  -->
<svg version="1.1" id="Layer_1" xmlns="http://www.w3.org/2000/svg" xmlns:xlink="http://www.w3.org/1999/xlink" x="0px" y="0px"
	 viewBox="0 0 120 120" style="enable-background:new 0 0 120 120;" xml:space="preserve">
<style type="text/css">
	.st0{display:none;}
	.st1{fill:#1D191A;}
	.st2{fill:none;}
</style>
<g>
	<path class="st1" d="M47.45,43.47c1.5,0,2.87,0.22,4.12,0.66c1.25,0.44,2.31,1.07,3.2,1.88s1.58,1.79,2.07,2.92
		c0.49,1.14,0.74,2.41,0.74,3.8c0,1.2-0.18,2.31-0.53,3.33c-0.35,1.02-0.82,2-1.42,2.92c-0.59,0.93-1.29,1.83-2.08,2.7
		s-1.63,1.75-2.5,2.66l-7.33,7.49c0.72-0.21,1.42-0.37,2.11-0.48c0.69-0.11,1.35-0.17,1.98-0.17h8.35c0.6,0,1.08,0.17,1.43,0.51
		c0.35,0.34,0.53,0.78,0.53,1.34v3.33H35.79v-1.84c0-0.38,0.08-0.77,0.24-1.17c0.16-0.41,0.41-0.78,0.75-1.12l9.88-9.9
		c0.82-0.84,1.56-1.64,2.22-2.41c0.65-0.77,1.2-1.52,1.64-2.27s0.78-1.51,1.01-2.28s0.35-1.59,0.35-2.44c0-0.78-0.11-1.47-0.34-2.06
		c-0.23-0.59-0.55-1.09-0.97-1.5s-0.92-0.71-1.5-0.91c-0.58-0.2-1.23-0.3-1.95-0.3c-1.34,0-2.43,0.34-3.3,1.01
		c-0.86,0.67-1.47,1.58-1.81,2.72c-0.17,0.57-0.41,0.98-0.74,1.23c-0.33,0.25-0.75,0.37-1.26,0.37c-0.23,0-0.47-0.02-0.74-0.07
		l-2.92-0.52c0.22-1.56,0.66-2.93,1.3-4.11c0.64-1.18,1.45-2.16,2.42-2.95c0.97-0.79,2.08-1.38,3.33-1.78S46.01,43.47,47.45,43.47z"
		/>
	<path class="st1" d="M73.54,43.47c1.5,0,2.87,0.22,4.12,0.66c1.25,0.44,2.31,1.07,3.2,1.88s1.58,1.79,2.07,2.92
		c0.49,1.14,0.74,2.41,0.74,3.8c0,1.2-0.18,2.31-0.53,3.33c-0.35,1.02-0.82,2-1.42,2.92c-0.59,0.93-1.29,1.83-2.08,2.7
		s-1.63,1.75-2.5,2.66l-7.33,7.49c0.72-0.21,1.42-0.37,2.11-0.48c0.69-0.11,1.35-0.17,1.98-0.17h8.35c0.6,0,1.08,0.17,1.43,0.51
		c0.35,0.34,0.53,0.78,0.53,1.34v3.33H61.89v-1.84c0-0.38,0.08-0.77,0.24-1.17c0.16-0.41,0.41-0.78,0.75-1.12l9.88-9.9
		c0.82-0.84,1.56-1.64,2.22-2.41c0.65-0.77,1.2-1.52,1.64-2.27s0.78-1.51,1.01-2.28s0.35-1.59,0.35-2.44c0-0.78-0.11-1.47-0.34-2.06
		c-0.23-0.59-0.55-1.09-0.97-1.5s-0.92-0.71-1.5-0.91c-0.58-0.2-1.23-0.3-1.95-0.3c-1.34,0-2.43,0.34-3.3,1.01
		c-0.86,0.67-1.47,1.58-1.81,2.72c-0.17,0.57-0.41,0.98-0.74,1.23c-0.33,0.25-0.75,0.37-1.26,0.37c-0.23,0-0.47-0.02-0.74-0.07
		l-2.92-0.52c0.22-1.56,0.66-2.93,1.3-4.11c0.64-1.18,1.45-2.16,2.42-2.95c0.97-0.79,2.08-1.38,3.33-1.78S72.11,43.47,73.54,43.47z"
		/>
</g>
<rect x="58.12" y="55.09" class="st2" width="2.65" height="0"/>
</svg>
