<?xml version="1.0" encoding="utf-8"?>
<!-- Generator: Adobe Illustrator 27.3.1, SVG Export Plug-In . SVG Version: 6.00 Build 0)  -->
<svg version="1.1" id="Layer_1" xmlns="http://www.w3.org/2000/svg" xmlns:xlink="http://www.w3.org/1999/xlink" x="0px" y="0px"
	 viewBox="0 0 120 120" style="enable-background:new 0 0 120 120;" xml:space="preserve">
<style type="text/css">
	.st0{display:none;}
	.st1{fill:#1D191A;}
	.st2{fill:none;}
</style>
<g>
	<path class="st1" d="M47.96,43.39c1.5,0,2.85,0.21,4.06,0.64s2.24,1.02,3.09,1.78c0.85,0.76,1.51,1.65,1.97,2.67
		c0.46,1.02,0.69,2.12,0.69,3.31c0,1.04-0.12,1.95-0.35,2.73c-0.23,0.79-0.57,1.47-1.01,2.06s-0.98,1.08-1.62,1.49
		c-0.64,0.4-1.36,0.74-2.17,1.01c1.95,0.62,3.4,1.55,4.36,2.81c0.96,1.26,1.44,2.84,1.44,4.75c0,1.62-0.3,3.05-0.9,4.3
		c-0.6,1.25-1.41,2.29-2.43,3.14s-2.2,1.49-3.54,1.92c-1.34,0.44-2.76,0.65-4.26,0.65c-1.64,0-3.06-0.19-4.28-0.56
		c-1.21-0.38-2.27-0.93-3.17-1.67c-0.9-0.74-1.67-1.63-2.29-2.7s-1.17-2.29-1.62-3.69l2.45-1.01c0.42-0.18,0.85-0.27,1.28-0.27
		c0.39,0,0.74,0.08,1.05,0.25c0.31,0.17,0.54,0.41,0.71,0.72c0.27,0.53,0.57,1.04,0.89,1.55c0.32,0.51,0.71,0.96,1.16,1.36
		c0.45,0.4,0.98,0.72,1.59,0.97c0.61,0.25,1.33,0.37,2.17,0.37c0.95,0,1.77-0.15,2.48-0.46s1.29-0.71,1.77-1.2
		c0.47-0.5,0.83-1.05,1.06-1.65s0.35-1.22,0.35-1.83c0-0.78-0.08-1.49-0.25-2.13c-0.17-0.64-0.51-1.18-1.04-1.63
		c-0.53-0.45-1.28-0.8-2.26-1.06c-0.98-0.25-2.3-0.38-3.95-0.38v-3.98c1.36,0,2.5-0.12,3.4-0.36c0.9-0.24,1.62-0.57,2.15-1
		c0.53-0.43,0.9-0.94,1.11-1.54s0.32-1.26,0.32-1.98c0-1.54-0.42-2.71-1.26-3.5c-0.84-0.79-1.99-1.18-3.44-1.18
		c-1.32,0-2.42,0.35-3.29,1.04c-0.87,0.7-1.48,1.59-1.82,2.69c-0.18,0.57-0.43,0.98-0.74,1.22s-0.73,0.37-1.24,0.37
		c-0.24,0-0.5-0.02-0.77-0.07l-2.92-0.51c0.22-1.56,0.66-2.93,1.3-4.11s1.45-2.16,2.42-2.95c0.97-0.79,2.08-1.38,3.33-1.78
		C45.18,43.59,46.52,43.39,47.96,43.39z"/>
	<path class="st1" d="M73.54,43.39c1.5,0,2.87,0.22,4.12,0.66c1.24,0.44,2.31,1.07,3.19,1.88c0.88,0.81,1.58,1.79,2.07,2.92
		c0.49,1.14,0.74,2.41,0.74,3.8c0,1.2-0.18,2.31-0.53,3.33c-0.35,1.02-0.83,2-1.42,2.92c-0.59,0.93-1.29,1.83-2.08,2.7
		c-0.8,0.87-1.63,1.75-2.5,2.66l-7.33,7.49c0.72-0.21,1.42-0.37,2.11-0.48c0.69-0.11,1.35-0.17,1.98-0.17h8.35
		c0.6,0,1.08,0.17,1.43,0.51c0.35,0.34,0.53,0.78,0.53,1.34v3.33H61.89v-1.84c0-0.38,0.08-0.77,0.24-1.17
		c0.16-0.41,0.41-0.78,0.75-1.12l9.88-9.9c0.82-0.84,1.56-1.64,2.22-2.41c0.65-0.77,1.2-1.52,1.64-2.27s0.78-1.51,1.01-2.28
		c0.23-0.77,0.35-1.59,0.35-2.44c0-0.78-0.11-1.47-0.34-2.06c-0.23-0.59-0.55-1.09-0.97-1.5s-0.92-0.71-1.5-0.91
		c-0.58-0.2-1.23-0.3-1.95-0.3c-1.34,0-2.43,0.34-3.3,1.01c-0.86,0.67-1.47,1.58-1.81,2.72c-0.17,0.57-0.41,0.98-0.74,1.23
		c-0.33,0.25-0.75,0.37-1.26,0.37c-0.23,0-0.47-0.02-0.74-0.07l-2.92-0.52c0.23-1.56,0.66-2.93,1.3-4.11
		c0.65-1.18,1.45-2.16,2.42-2.95c0.97-0.79,2.08-1.38,3.33-1.78C70.76,43.59,72.1,43.39,73.54,43.39z"/>
</g>
<rect x="58.12" y="58.6" class="st2" width="2.65" height="0"/>
</svg>
